<?xml version="1.0" encoding="UTF-8"?>
<svg xmlns="http://www.w3.org/2000/svg" xmlns:xlink="http://www.w3.org/1999/xlink" viewBox="0 0 352.64 457.65">
  <defs>
    <style>
      .cls-1 {
        clip-path: url(#clippath);
      }

      .cls-2 {
        fill: none;
      }

      .cls-2, .cls-3, .cls-4, .cls-5 {
        stroke-width: 0px;
      }

      .cls-3 {
        fill: #7960e8;
      }

      .cls-4 {
        fill: #23c3b4;
      }

      .cls-5 {
        fill: #fff;
      }
    </style>
    <clipPath id="clippath">
      <rect class="cls-2" x="52.82" y="166.39" width="247" height="61"/>
    </clipPath>
  </defs>
  <g id="Layer_2" data-name="Layer 2">
    <rect class="cls-5" width="352.64" height="457.65"/>
  </g>
  <g id="Layer_7" data-name="Layer 7">
    <g class="cls-1">
      <g>
        <path class="cls-3" d="m80.77,212.39c-1.64,0-3.06-.34-4.27-1.03-1.18-.72-2.1-1.68-2.76-2.89-.63-1.24-.95-2.61-.95-4.14v-22.11h4.14v22.63c0,1.12.34,2.05,1.03,2.8.72.72,1.65,1.08,2.8,1.08h8.1v3.66h-8.1Zm11.88,0v-21.98h4.01v21.98h-4.01Zm2.03-25.47c-.72,0-1.35-.26-1.9-.78-.52-.55-.78-1.18-.78-1.9s.26-1.34.78-1.85c.55-.55,1.18-.82,1.9-.82s1.34.27,1.85.82c.55.52.82,1.14.82,1.85s-.27,1.35-.82,1.9c-.52.52-1.14.78-1.85.78Zm7.6,25.47v-12.72c0-1.95.43-3.66,1.29-5.13.89-1.47,2.11-2.6,3.66-3.41,1.55-.83,3.32-1.25,5.3-1.25s3.78.42,5.3,1.25c1.55.8,2.76,1.94,3.62,3.41.89,1.47,1.34,3.18,1.34,5.13v12.72h-3.97v-12.67c0-1.32-.3-2.46-.91-3.41-.57-.98-1.35-1.72-2.33-2.24-.95-.52-1.97-.78-3.06-.78s-2.13.26-3.1.78c-.95.52-1.72,1.26-2.33,2.24-.57.95-.86,2.08-.86,3.41v12.67h-3.97Zm29.48,8.75v-3.4h10.78c1.06,0,1.88-.32,2.46-.95.6-.63.91-1.47.91-2.5v-6.03h-.09c-.55.83-1.21,1.58-1.98,2.24-.78.66-1.67,1.19-2.67,1.59-1.01.37-2.14.56-3.4.56-2.07,0-3.89-.47-5.47-1.42-1.58-.98-2.82-2.31-3.71-4.01-.89-1.72-1.34-3.69-1.34-5.91s.45-4.09,1.34-5.82c.89-1.72,2.17-3.09,3.84-4.09,1.7-1.01,3.74-1.51,6.12-1.51s4.3.49,5.99,1.47c1.7.98,3,2.34,3.92,4.09.95,1.72,1.42,3.75,1.42,6.08v13.02c0,2.01-.59,3.61-1.77,4.78-1.18,1.21-2.79,1.81-4.83,1.81h-11.51Zm6.72-11.9c1.47,0,2.74-.34,3.84-1.03,1.12-.69,1.98-1.62,2.59-2.8.63-1.21.95-2.56.95-4.05s-.3-2.89-.91-4.09c-.6-1.21-1.45-2.16-2.54-2.84-1.09-.72-2.4-1.08-3.92-1.08s-2.79.36-3.88,1.08c-1.06.69-1.9,1.65-2.5,2.89-.57,1.21-.86,2.57-.86,4.09,0,1.44.29,2.76.86,3.97.6,1.18,1.44,2.13,2.5,2.84,1.09.69,2.39,1.03,3.88,1.03Zm27.18,3.66c-1.98,0-3.76-.4-5.34-1.21-1.55-.83-2.77-1.98-3.66-3.45-.86-1.47-1.29-3.18-1.29-5.13v-12.72h4.01v12.67c0,1.32.29,2.47.86,3.45.57.95,1.34,1.68,2.28,2.2.98.52,2.01.78,3.1.78s2.15-.26,3.1-.78c.98-.52,1.75-1.25,2.33-2.2.6-.98.9-2.13.9-3.45v-12.67h4.01v12.72c0,1.95-.45,3.66-1.34,5.13-.89,1.47-2.11,2.61-3.66,3.45-1.55.8-3.32,1.21-5.3,1.21Zm25.09,0c-2.13,0-3.97-.5-5.52-1.51-1.55-1.03-2.74-2.43-3.58-4.18-.83-1.75-1.25-3.69-1.25-5.82s.46-4.09,1.38-5.82c.92-1.75,2.24-3.13,3.97-4.14,1.72-1.03,3.79-1.55,6.21-1.55s4.32.5,5.99,1.51c1.67,1.01,2.94,2.37,3.84,4.09.92,1.72,1.38,3.65,1.38,5.78v11.12h-4.01v-4.48h-.09c-.43.83-1.02,1.64-1.77,2.41-.72.75-1.62,1.36-2.71,1.85-1.09.49-2.37.73-3.84.73Zm1.03-3.4c1.44,0,2.7-.34,3.79-1.03,1.12-.72,1.98-1.7,2.59-2.93.63-1.26.95-2.67.95-4.22s-.3-2.89-.9-4.09c-.57-1.21-1.41-2.16-2.5-2.84-1.09-.72-2.37-1.08-3.84-1.08-1.55,0-2.89.36-4.01,1.08-1.09.72-1.94,1.7-2.54,2.93-.58,1.21-.86,2.59-.86,4.14s.29,2.86.86,4.09c.57,1.21,1.41,2.17,2.5,2.89,1.09.72,2.41,1.08,3.96,1.08Z"/>
        <path class="cls-4" d="m216.64,212.39c-1.64,0-3.06-.34-4.27-1.03-1.18-.72-2.1-1.68-2.76-2.89-.63-1.24-.95-2.61-.95-4.14v-22.11h4.14v22.63c0,1.12.34,2.05,1.03,2.8.72.72,1.65,1.08,2.8,1.08h8.1v3.66h-8.1Zm11.88,0v-21.98h4.01v21.98h-4.01Zm2.03-25.47c-.72,0-1.35-.26-1.9-.78-.52-.55-.77-1.18-.77-1.9s.26-1.34.77-1.85c.55-.55,1.18-.82,1.9-.82s1.34.27,1.85.82c.55.52.82,1.14.82,1.85s-.27,1.35-.82,1.9c-.52.52-1.13.78-1.85.78Zm16.87,25.99c-.98,0-1.87-.27-2.67-.82-.78-.57-1.35-1.38-1.72-2.41l-7.15-19.27h4.35l6.38,17.8c.11.29.24.49.39.6.14.11.3.17.47.17.2,0,.36-.06.47-.17.14-.11.27-.32.39-.6l6.42-17.8h4.27l-7.15,19.27c-.4,1.03-.99,1.84-1.77,2.41-.78.55-1.67.82-2.67.82Zm25.28-.52c-2.41,0-4.55-.45-6.42-1.34-1.87-.92-3.33-2.2-4.4-3.84-1.03-1.67-1.55-3.61-1.55-5.82s.44-4.14,1.34-5.86c.89-1.75,2.13-3.13,3.71-4.14,1.58-1.01,3.42-1.51,5.52-1.51,2.27,0,4.15.49,5.65,1.47,1.52.98,2.66,2.3,3.4,3.97.75,1.64,1.12,3.48,1.12,5.52,0,.32-.01.65-.04.99,0,.34-.03.65-.09.91h-16.38c.14,1.35.59,2.5,1.34,3.45.75.92,1.69,1.62,2.85,2.11,1.18.46,2.47.69,3.88.69h5.73v3.41h-5.65Zm-8.19-12.46h12.54c0-.55-.06-1.12-.17-1.72-.12-.63-.32-1.24-.6-1.81-.29-.6-.68-1.14-1.16-1.59-.46-.49-1.05-.88-1.77-1.16-.69-.29-1.51-.43-2.46-.43-1.01,0-1.9.2-2.67.6-.75.37-1.39.89-1.94,1.55-.55.63-.96,1.35-1.25,2.16-.29.8-.46,1.61-.52,2.41Z"/>
      </g>
    </g>
    <path class="cls-3" d="m135.72,309.58l17.58-46.77c.79-2.02,1.87-3.5,3.25-4.43,1.38-.94,2.98-1.4,4.8-1.4s3.42.47,4.8,1.4c1.43.89,2.51,2.34,3.25,4.36l17.66,46.84h-7.76l-4.51-12.49h-27.04l-4.58,12.49h-7.46Zm14.26-18.77h22.68l-9.24-25.64c-.25-.64-.52-1.13-.81-1.48-.3-.34-.71-.52-1.26-.52-.49,0-.89.17-1.18.52-.3.34-.54.84-.74,1.48l-9.46,25.64Z"/>
    <path class="cls-4" d="m189.96,309.58v-6.28h9.97v-39.16h-9.97v-6.28h26.97v6.28h-9.9v39.16h9.9v6.28h-26.97Z"/>
  </g>
</svg>