<?xml version="1.0" encoding="UTF-8"?>
<svg id="Layer_4" data-name="Layer 4" xmlns="http://www.w3.org/2000/svg" xmlns:xlink="http://www.w3.org/1999/xlink" viewBox="0 0 149 119">
  <defs>
    <style>
      .cls-1 {
        letter-spacing: -.08em;
      }

      .cls-2 {
        letter-spacing: -.08em;
      }

      .cls-3 {
        mask: url(#mask);
      }

      .cls-4 {
        letter-spacing: -.01em;
      }

      .cls-5 {
        letter-spacing: -.07em;
      }

      .cls-6 {
        font-family: HiraKakuStdN-W8-83pv-RKSJ-H, 'Hiragino Kaku Gothic StdN';
        font-size: 16px;
      }

      .cls-6, .cls-7 {
        fill: #fff;
      }

      .cls-8 {
        letter-spacing: 0em;
      }

      .cls-9 {
        letter-spacing: -.06em;
      }

      .cls-10 {
        fill: #471111;
        fill-rule: evenodd;
      }

      .cls-10, .cls-11, .cls-12, .cls-7 {
        stroke-width: 0px;
      }

      .cls-13 {
        letter-spacing: -.04em;
      }

      .cls-11 {
        fill: #923e1f;
      }

      .cls-12 {
        fill: #f3754b;
      }
    </style>
    <mask id="mask" x=".47" y="-86" width="196" height="205" maskUnits="userSpaceOnUse">
      <g id="mask0_291_2311" data-name="mask0 291 2311">
        <rect class="cls-12" x=".47" width="149" height="119" rx="16" ry="16"/>
      </g>
    </mask>
  </defs>
  <g>
    <rect class="cls-11" x=".47" width="149" height="119" rx="16" ry="16"/>
    <g class="cls-3">
      <path class="cls-10" d="m144.61-82.4c15.26-1.14,34.1-8.71,44.73,2.3,11,11.4.79,30.53,2.19,46.32.98,11.03,5.9,21.03,4.77,32.04-1.39,13.51-3.2,27.52-11.95,37.9-10.16,12.05-24.07,21.69-39.74,23.44-16.55,1.85-34.49-2.51-46.75-13.79-11.76-10.83-12.04-28.47-15.98-43.96-3.63-14.29-10.28-28.6-6.06-42.73,4.27-14.28,15.91-25.17,28.67-32.87,12-7.25,26.13-7.6,40.12-8.64Z"/>
    </g>
    <path class="cls-7" d="m125.47,30c-.4,0-.78.12-1.11.34-.33.22-.58.53-.74.9-.15.37-.19.77-.11,1.16.08.39.27.74.55,1.02.28.28.64.47,1.02.55.39.08.79.04,1.15-.11.37-.15.68-.41.9-.74s.34-.72.34-1.11c0-.53-.21-1.04-.59-1.41-.38-.38-.88-.59-1.41-.59Z"/>
    <path class="cls-7" d="m126.58,25.66c-.33.22-.71.34-1.11.34-.53,0-1.04-.21-1.41-.59-.38-.38-.59-.88-.59-1.41,0-.4.12-.78.34-1.11.22-.33.53-.59.9-.74.36-.15.77-.19,1.15-.11.39.08.75.27,1.02.55.28.28.47.64.55,1.02.08.39.04.79-.11,1.16-.15.37-.41.68-.74.9Z"/>
  </g>
  <text class="cls-6" transform="translate(15.08 91.7)"><tspan class="cls-13" x="0" y="0">カ</tspan><tspan class="cls-5" x="15.3" y="0">ス</tspan><tspan class="cls-1" x="30.1" y="0">タ</tspan><tspan class="cls-2" x="44.77" y="0">マ</tspan><tspan class="cls-9" x="59.47" y="0">イ</tspan><tspan x="74.53" y="0">ズ</tspan><tspan class="cls-8" x="90.53" y="0">学</tspan><tspan class="cls-4" x="106.4" y="0">習</tspan></text>
  <path class="cls-7" d="m125.26,30c-.4,0-.78.12-1.11.34-.33.22-.58.53-.74.9-.15.37-.19.77-.11,1.16.08.39.27.74.55,1.02.28.28.64.47,1.02.55.39.08.79.04,1.15-.11.37-.15.68-.41.9-.74s.34-.72.34-1.11c0-.53-.21-1.04-.59-1.41-.38-.38-.88-.59-1.41-.59Z"/>
  <path class="cls-7" d="m126.38,25.66c-.33.22-.71.34-1.11.34-.53,0-1.04-.21-1.41-.59-.38-.38-.59-.88-.59-1.41,0-.4.12-.78.34-1.11.22-.33.53-.59.9-.74.36-.15.77-.19,1.15-.11.39.08.75.27,1.02.55.28.28.47.64.55,1.02.08.39.04.79-.11,1.16-.15.37-.41.68-.74.9Z"/>
  <path class="cls-7" d="m17.35,47.25v-3.99c0-.78.2-1.52.61-2.21.41-.69.97-1.21,1.69-1.57,1.22-.62,2.6-1.14,4.14-1.57,1.53-.43,3.23-.64,5.07-.64s3.54.21,5.07.64c1.53.43,2.91.95,4.14,1.57.72.36,1.28.88,1.69,1.57.41.69.61,1.43.61,2.21v3.99h-23.02Zm11.51-11.41c-1.58,0-2.94-.56-4.06-1.68-1.13-1.12-1.69-2.46-1.69-4.03h-.36c-.22,0-.39-.07-.52-.2-.13-.13-.2-.3-.2-.52,0-.21.07-.39.2-.52.13-.13.31-.2.52-.2h.36c0-1.07.26-2.03.79-2.89.53-.86,1.22-1.53,2.09-2.03v1.36c0,.21.07.39.2.52.13.13.31.2.52.2.22,0,.39-.07.52-.2.13-.13.2-.3.2-.52v-1.93c.22-.07.44-.13.68-.16.24-.04.49-.05.76-.05.26,0,.52.02.76.05.24.04.47.09.68.16v1.93c0,.21.07.39.2.52.13.13.31.2.52.2.22,0,.39-.07.52-.2.13-.13.2-.3.2-.52v-1.36c.86.5,1.56,1.18,2.09,2.03.53.86.79,1.82.79,2.89h.36c.22,0,.39.07.52.2.13.13.2.3.2.52,0,.21-.07.39-.2.52-.13.13-.31.2-.52.2h-.36c0,1.57-.56,2.91-1.69,4.03-1.13,1.12-2.48,1.68-4.06,1.68Zm0-2.85c.79,0,1.47-.28,2.03-.84.56-.56.85-1.23.84-2.01h-5.76c0,.78.28,1.46.85,2.02.56.56,1.24.84,2.03.84Zm10.79,5.71l-.22-1.07c-.14-.05-.28-.1-.41-.16-.13-.06-.26-.15-.38-.27l-1.01.36-.72-1.28.79-.71v-.86l-.79-.71.72-1.28,1.01.36c.1-.1.22-.18.36-.25s.29-.13.43-.18l.22-1.07h1.44l.22,1.07c.14.05.29.11.43.18.14.07.26.15.36.25l1.01-.36.72,1.28-.79.71v.86l.79.71-.72,1.28-1.01-.36c-.12.12-.25.21-.38.27-.13.06-.27.11-.41.16l-.22,1.07h-1.44Zm.72-2.5c.29,0,.54-.11.76-.32.22-.21.32-.46.32-.75s-.11-.53-.32-.75c-.22-.21-.47-.32-.76-.32s-.54.11-.76.32c-.22.21-.32.46-.32.75s.11.53.32.75c.22.21.47.32.76.32Zm2.59-4.64l-.29-1.5c-.22-.07-.41-.16-.59-.27-.18-.11-.34-.23-.49-.37l-1.51.5-1.01-1.71,1.22-1.07c-.05-.12-.07-.21-.07-.29v-.57c0-.07.02-.17.07-.29l-1.22-1.07,1.01-1.71,1.51.5c.14-.14.31-.27.49-.38.18-.11.38-.2.59-.27l.29-1.5h2.01l.29,1.5c.22.07.41.16.59.27.18.11.34.23.48.37l1.51-.5,1.01,1.71-1.22,1.07c.05.12.07.21.07.29v.57c0,.07-.02.17-.07.29l1.22,1.07-1.01,1.71-1.51-.5c-.14.14-.31.27-.48.38-.18.11-.38.2-.59.27l-.29,1.5h-2.01Zm1.01-3.21c.5,0,.93-.17,1.28-.52.35-.35.52-.77.52-1.27,0-.5-.17-.92-.52-1.27-.35-.35-.77-.52-1.28-.52-.5,0-.93.17-1.28.52-.35.35-.52.77-.52,1.27,0,.5.17.92.52,1.27.35.35.77.52,1.28.52Z"/>
</svg>