<?xml version="1.0" encoding="UTF-8"?>
<svg id="Layer_1" data-name="Layer 1" xmlns="http://www.w3.org/2000/svg" xmlns:xlink="http://www.w3.org/1999/xlink" viewBox="0 0 1601.83 395.59">
  <defs>
    <style>
      .cls-1 {
        clip-path: url(#clippath);
      }

      .cls-2 {
        fill: none;
      }

      .cls-2, .cls-3, .cls-4 {
        stroke-width: 0px;
      }

      .cls-3 {
        fill: #6d64ad;
      }

      .cls-4 {
        fill: #36bdb1;
      }
    </style>
    <clipPath id="clippath">
      <rect class="cls-2" width="1601.83" height="395.59"/>
    </clipPath>
  </defs>
  <g class="cls-1">
    <g>
      <path class="cls-3" d="m181.25,298.32c-10.62,0-19.85-2.24-27.67-6.71-7.64-4.66-13.6-10.9-17.89-18.73-4.1-8.01-6.15-16.96-6.15-26.83V102.65h26.83v146.75c0,7.27,2.24,13.32,6.71,18.17,4.66,4.66,10.71,6.99,18.17,6.99h52.55v23.76h-52.55Zm77.06,0v-142.56h26v142.56h-26Zm13.14-165.2c-4.66,0-8.76-1.68-12.3-5.03-3.35-3.54-5.03-7.64-5.03-12.3s1.68-8.67,5.03-12.02c3.54-3.54,7.64-5.31,12.3-5.31s8.66,1.77,12.02,5.31c3.54,3.35,5.31,7.36,5.31,12.02s-1.77,8.76-5.31,12.3c-3.35,3.35-7.36,5.03-12.02,5.03Zm49.27,165.2v-82.46c0-12.67,2.8-23.76,8.39-33.26,5.78-9.5,13.7-16.86,23.76-22.08,10.06-5.4,21.52-8.11,34.38-8.11s24.5,2.7,34.38,8.11c10.06,5.22,17.89,12.58,23.48,22.08,5.78,9.5,8.66,20.59,8.66,33.26v82.46h-25.72v-82.18c0-8.57-1.96-15.93-5.87-22.08-3.73-6.34-8.76-11.18-15.09-14.54-6.15-3.35-12.76-5.03-19.85-5.03s-13.79,1.68-20.13,5.03c-6.15,3.35-11.18,8.2-15.09,14.54-3.73,6.15-5.59,13.51-5.59,22.08v82.18h-25.72Zm191.21,56.74v-22.08h69.88c6.9,0,12.21-2.05,15.93-6.15,3.91-4.1,5.87-9.5,5.87-16.21v-39.13h-.56c-3.54,5.4-7.83,10.25-12.86,14.54-5.03,4.29-10.81,7.73-17.33,10.34-6.52,2.42-13.88,3.63-22.08,3.63-13.42,0-25.25-3.07-35.5-9.22-10.25-6.34-18.26-15-24.04-26-5.78-11.18-8.66-23.95-8.66-38.29s2.89-26.55,8.66-37.74c5.78-11.18,14.07-20.03,24.88-26.55,10.99-6.52,24.23-9.78,39.69-9.78s27.86,3.17,38.85,9.5c10.99,6.34,19.47,15.19,25.44,26.55,6.15,11.18,9.22,24.32,9.22,39.41v84.42c0,13.04-3.82,23.39-11.46,31.03-7.64,7.83-18.08,11.74-31.31,11.74h-74.63Zm43.61-77.15c9.5,0,17.8-2.24,24.88-6.71,7.27-4.47,12.86-10.53,16.77-18.17,4.1-7.83,6.15-16.59,6.15-26.28s-1.96-18.73-5.87-26.55c-3.91-7.83-9.41-13.98-16.49-18.45-7.08-4.66-15.56-6.99-25.44-6.99s-18.08,2.33-25.16,6.99c-6.89,4.47-12.3,10.72-16.21,18.73-3.73,7.83-5.59,16.68-5.59,26.55,0,9.32,1.86,17.89,5.59,25.72,3.91,7.64,9.32,13.79,16.21,18.45,7.08,4.47,15.47,6.71,25.16,6.71Zm176.28,23.76c-12.86,0-24.41-2.61-34.66-7.83-10.06-5.4-17.98-12.86-23.76-22.36-5.59-9.5-8.39-20.59-8.39-33.26v-82.46h25.99v82.18c0,8.57,1.87,16.03,5.59,22.36,3.73,6.15,8.66,10.9,14.82,14.26,6.34,3.35,13.04,5.03,20.12,5.03s13.98-1.68,20.12-5.03c6.34-3.35,11.37-8.11,15.1-14.26,3.91-6.34,5.87-13.79,5.87-22.36v-82.18h26v82.46c0,12.67-2.89,23.76-8.67,33.26-5.77,9.5-13.7,16.96-23.76,22.36-10.06,5.22-21.52,7.83-34.38,7.83Zm162.69,0c-13.79,0-25.72-3.26-35.78-9.78-10.06-6.71-17.8-15.75-23.2-27.11-5.4-11.37-8.11-23.95-8.11-37.74s2.98-26.55,8.94-37.74c5.97-11.37,14.54-20.31,25.72-26.83,11.18-6.71,24.6-10.06,40.25-10.06s28.05,3.26,38.86,9.78c10.8,6.52,19.1,15.37,24.88,26.55,5.96,11.18,8.94,23.67,8.94,37.46v72.12h-26v-29.07h-.56c-2.8,5.4-6.61,10.62-11.46,15.65-4.66,4.85-10.53,8.85-17.61,12.02-7.08,3.17-15.38,4.75-24.88,4.75Zm6.71-22.08c9.32,0,17.52-2.24,24.6-6.71,7.27-4.66,12.86-10.99,16.77-19.01,4.1-8.2,6.15-17.33,6.15-27.39s-1.95-18.73-5.87-26.55c-3.72-7.83-9.13-13.98-16.21-18.45-7.08-4.66-15.37-6.99-24.88-6.99-10.06,0-18.73,2.33-25.99,6.99-7.08,4.66-12.58,10.99-16.49,19.01-3.73,7.83-5.59,16.77-5.59,26.83s1.86,18.54,5.59,26.55c3.72,7.83,9.13,14.07,16.21,18.73,7.08,4.66,15.65,6.99,25.71,6.99Z"/>
      <path class="cls-4" d="m1062.36,298.32c-10.62,0-19.85-2.24-27.67-6.71-7.65-4.66-13.61-10.9-17.89-18.73-4.1-8.01-6.15-16.96-6.15-26.83V102.65h26.84v146.75c0,7.27,2.23,13.32,6.71,18.17,4.66,4.66,10.71,6.99,18.17,6.99h52.55v23.76h-52.55Zm77.06,0v-142.56h26v142.56h-26Zm13.14-165.2c-4.66,0-8.76-1.68-12.3-5.03-3.35-3.54-5.03-7.64-5.03-12.3s1.67-8.67,5.03-12.02c3.54-3.54,7.64-5.31,12.3-5.31s8.66,1.77,12.02,5.31c3.54,3.35,5.31,7.36,5.31,12.02s-1.77,8.76-5.31,12.3c-3.35,3.35-7.36,5.03-12.02,5.03Zm109.37,168.55c-6.34,0-12.11-1.77-17.33-5.31-5.03-3.73-8.76-8.94-11.19-15.65l-46.39-124.95h28.23l41.37,115.44c.75,1.86,1.58,3.17,2.52,3.91.93.75,1.96,1.12,3.07,1.12,1.3,0,2.33-.37,3.07-1.12.93-.75,1.77-2.05,2.52-3.91l41.65-115.44h27.67l-46.4,124.95c-2.61,6.71-6.43,11.93-11.46,15.65-5.03,3.54-10.8,5.31-17.33,5.31Zm163.97-3.35c-15.65,0-29.53-2.89-41.65-8.67-12.11-5.96-21.62-14.26-28.51-24.88-6.71-10.81-10.06-23.39-10.06-37.74s2.89-26.83,8.66-38.02c5.78-11.37,13.79-20.31,24.04-26.83,10.25-6.52,22.17-9.78,35.78-9.78,14.72,0,26.93,3.17,36.62,9.5,9.88,6.34,17.24,14.91,22.08,25.72,4.85,10.62,7.27,22.55,7.27,35.78,0,2.05-.09,4.19-.28,6.43,0,2.24-.19,4.19-.56,5.87h-106.22c.93,8.76,3.82,16.21,8.66,22.36,4.84,5.96,10.99,10.53,18.45,13.7,7.64,2.98,16.02,4.47,25.16,4.47h37.18v22.08h-36.62Zm-53.11-80.78h81.34c0-3.54-.38-7.27-1.12-11.18-.75-4.1-2.05-8.01-3.91-11.74-1.87-3.91-4.38-7.36-7.55-10.34-2.98-3.17-6.8-5.68-11.46-7.55-4.47-1.86-9.79-2.8-15.93-2.8-6.52,0-12.3,1.3-17.33,3.91-4.84,2.42-9.04,5.78-12.58,10.06-3.54,4.1-6.25,8.76-8.11,13.98-1.86,5.22-2.98,10.44-3.35,15.65Z"/>
    </g>
  </g>
</svg>