<?xml version="1.0" encoding="UTF-8"?>
<svg id="Layer_1" data-name="Layer 1" xmlns="http://www.w3.org/2000/svg" viewBox="0 0 1098.82 1202.4">
  <defs>
    <style>
      .cls-1 {
        fill: #6d64ad;
      }

      .cls-1, .cls-2 {
        stroke-width: 0px;
      }

      .cls-2 {
        fill: #36bdb1;
      }
    </style>
  </defs>
  <path class="cls-1" d="m148.75,562.85c-30.55,0-57.09-6.43-79.6-19.3-21.98-13.4-39.13-31.36-51.46-53.87C5.9,466.63,0,440.9,0,412.49V0h77.19v422.14c0,20.91,6.43,38.33,19.3,52.26,13.4,13.4,30.82,20.1,52.26,20.1h151.17v68.35h-151.17Zm184.76,0v-152.23h27.76v152.23h-27.76Zm14.03-176.4c-4.98,0-9.35-1.79-13.13-5.37-3.58-3.78-5.37-8.16-5.37-13.13s1.79-9.25,5.37-12.84c3.78-3.78,8.16-5.67,13.13-5.67s9.25,1.89,12.83,5.67c3.78,3.58,5.67,7.86,5.67,12.84s-1.89,9.35-5.67,13.13c-3.58,3.58-7.86,5.37-12.83,5.37Zm52.62,176.4v-88.05c0-13.53,2.98-25.37,8.95-35.52,6.17-10.15,14.63-18.01,25.37-23.58,10.75-5.77,22.98-8.66,36.71-8.66s26.17,2.89,36.71,8.66c10.75,5.57,19.1,13.43,25.07,23.58,6.17,10.15,9.25,21.99,9.25,35.52v88.05h-27.46v-87.75c0-9.15-2.09-17.01-6.27-23.58-3.98-6.77-9.35-11.94-16.12-15.52-6.57-3.58-13.63-5.37-21.19-5.37s-14.73,1.79-21.49,5.37c-6.57,3.58-11.94,8.76-16.12,15.52-3.98,6.57-5.97,14.43-5.97,23.58v87.75h-27.46Zm204.18,60.59v-23.58h74.62c7.36,0,13.04-2.19,17.01-6.57,4.18-4.38,6.27-10.15,6.27-17.31v-41.79h-.6c-3.78,5.77-8.36,10.95-13.73,15.52-5.37,4.58-11.54,8.26-18.5,11.04-6.97,2.59-14.82,3.88-23.58,3.88-14.33,0-26.96-3.28-37.91-9.85-10.95-6.76-19.5-16.02-25.67-27.76-6.17-11.94-9.25-25.57-9.25-40.89s3.08-28.36,9.25-40.29,15.02-21.39,26.56-28.36c11.74-6.96,25.87-10.45,42.39-10.45s29.75,3.38,41.49,10.15c11.74,6.76,20.79,16.22,27.16,28.36,6.57,11.94,9.85,25.97,9.85,42.08v90.14c0,13.93-4.08,24.97-12.24,33.13-8.16,8.36-19.3,12.53-33.43,12.53h-79.7Zm46.56-82.38c10.15,0,19-2.39,26.56-7.17,7.76-4.77,13.73-11.24,17.91-19.4,4.38-8.36,6.57-17.71,6.57-28.06s-2.09-20-6.27-28.36c-4.18-8.36-10.05-14.92-17.61-19.7-7.56-4.97-16.62-7.46-27.16-7.46s-19.3,2.49-26.86,7.46c-7.36,4.78-13.13,11.44-17.31,20-3.98,8.36-5.97,17.81-5.97,28.36,0,9.95,1.99,19.1,5.97,27.46,4.18,8.16,9.95,14.72,17.31,19.7,7.56,4.78,16.52,7.17,26.86,7.17Zm188.24,25.37c-13.73,0-26.07-2.79-37.01-8.36-10.75-5.77-19.2-13.73-25.37-23.88-5.97-10.15-8.95-21.99-8.95-35.52v-88.05h27.76v87.75c0,9.15,1.99,17.11,5.97,23.88,3.98,6.57,9.25,11.64,15.82,15.22,6.76,3.58,13.93,5.37,21.49,5.37s14.92-1.79,21.49-5.37c6.77-3.58,12.14-8.66,16.12-15.22,4.18-6.76,6.27-14.72,6.27-23.88v-87.75h27.76v88.05c0,13.53-3.08,25.37-9.25,35.52s-14.63,18.11-25.37,23.88c-10.75,5.57-22.98,8.36-36.71,8.36Zm173.72,0c-14.72,0-27.46-3.48-38.2-10.45-10.75-7.17-19-16.82-24.78-28.95-5.77-12.14-8.66-25.57-8.66-40.29s3.18-28.36,9.55-40.29c6.37-12.14,15.52-21.69,27.46-28.65,11.94-7.16,26.27-10.75,42.98-10.75s29.95,3.48,41.49,10.45c11.54,6.97,20.4,16.42,26.56,28.36,6.37,11.94,9.55,25.27,9.55,40v77.01h-27.76v-31.04h-.6c-2.98,5.77-7.07,11.34-12.24,16.72-4.98,5.17-11.24,9.45-18.81,12.83-7.56,3.38-16.42,5.08-26.56,5.08Zm7.16-23.58c9.95,0,18.71-2.39,26.27-7.16,7.76-4.97,13.73-11.74,17.91-20.3,4.38-8.76,6.57-18.51,6.57-29.25s-2.09-20-6.27-28.36c-3.98-8.36-9.75-14.92-17.31-19.7-7.56-4.98-16.42-7.46-26.56-7.46-10.75,0-20,2.49-27.76,7.46-7.56,4.97-13.43,11.74-17.61,20.3-3.98,8.36-5.97,17.91-5.97,28.65s1.99,19.8,5.97,28.36c3.98,8.36,9.75,15.02,17.31,20,7.56,4.98,16.72,7.46,27.46,7.46Z"/>
  <path class="cls-2" d="m550.22,1198.82c-30.55,0-57.09-6.43-79.6-19.3-21.98-13.4-39.13-31.36-51.46-53.87-11.79-23.05-17.69-48.78-17.69-77.19v-412.49h77.19v422.14c0,20.91,6.43,38.33,19.3,52.26,13.4,13.4,30.82,20.1,52.26,20.1h151.17v68.35h-151.17Zm184.76,0v-152.23h27.76v152.23h-27.76Zm14.03-176.4c-4.98,0-9.35-1.79-13.13-5.37-3.58-3.78-5.37-8.16-5.37-13.13s1.79-9.25,5.37-12.84c3.78-3.78,8.16-5.67,13.13-5.67s9.25,1.89,12.83,5.67c3.78,3.58,5.67,7.86,5.67,12.84s-1.89,9.35-5.67,13.13c-3.58,3.58-7.86,5.37-12.83,5.37Zm116.79,179.99c-6.76,0-12.93-1.89-18.5-5.67-5.37-3.98-9.35-9.55-11.94-16.71l-49.55-133.42h30.15l44.17,123.27c.8,1.99,1.69,3.38,2.69,4.18,1,.79,2.09,1.19,3.28,1.19,1.39,0,2.49-.4,3.28-1.19.99-.8,1.89-2.19,2.69-4.18l44.47-123.27h29.55l-49.55,133.42c-2.79,7.16-6.87,12.73-12.24,16.71-5.37,3.78-11.54,5.67-18.51,5.67Zm175.09-3.58c-16.72,0-31.54-3.08-44.47-9.25-12.93-6.37-23.08-15.22-30.45-26.56-7.16-11.54-10.74-24.97-10.74-40.29s3.08-28.65,9.25-40.59c6.17-12.14,14.73-21.69,25.67-28.65,10.95-6.96,23.68-10.45,38.21-10.45,15.72,0,28.75,3.38,39.1,10.15,10.55,6.76,18.41,15.92,23.58,27.46,5.17,11.34,7.76,24.08,7.76,38.21,0,2.19-.1,4.48-.3,6.86,0,2.39-.2,4.48-.6,6.27h-113.42c.99,9.35,4.08,17.31,9.25,23.88,5.17,6.37,11.74,11.24,19.7,14.63,8.16,3.18,17.11,4.78,26.86,4.78h39.7v23.58h-39.1Zm-56.71-86.26h86.86c0-3.78-.4-7.76-1.19-11.94-.8-4.38-2.19-8.56-4.18-12.54-1.99-4.18-4.68-7.86-8.06-11.04-3.18-3.38-7.26-6.07-12.24-8.06-4.78-1.99-10.45-2.98-17.01-2.98-6.97,0-13.13,1.39-18.51,4.18-5.17,2.59-9.65,6.17-13.43,10.75-3.78,4.38-6.67,9.35-8.66,14.92-1.99,5.57-3.18,11.14-3.58,16.72Z"/>
</svg>