<?xml version="1.0" encoding="UTF-8"?>
<svg id="Layer_1" data-name="Layer 1" xmlns="http://www.w3.org/2000/svg" viewBox="0 0 15.77 11.09">
  <defs>
    <style>
      .cls-1 {
        fill: #fff;
        fill-rule: evenodd;
        stroke-width: 0px;
      }
    </style>
  </defs>
  <path class="cls-1" d="m15.61,2.39s-.15-1.09-.63-1.56c-.6-.63-1.27-.63-1.58-.67-2.2-.16-5.52-.16-5.52-.16h0s-3.31,0-5.52.16c-.31.04-.98.04-1.58.67-.47.48-.62,1.56-.62,1.56,0,0-.16,1.28-.16,2.55v1.2c0,1.28.16,2.55.16,2.55,0,0,.15,1.09.62,1.56.6.63,1.39.61,1.74.67,1.26.12,5.36.16,5.36.16,0,0,3.31,0,5.52-.16.31-.04.98-.04,1.58-.67.47-.48.63-1.57.63-1.57,0,0,.16-1.28.16-2.55v-1.19c0-1.28-.16-2.55-.16-2.55h0ZM6.25,7.59V3.16l4.26,2.22s-4.26,2.21-4.26,2.21Z"/>
</svg>