<?xml version="1.0" encoding="UTF-8"?>
<svg id="Layer_4" data-name="Layer 4" xmlns="http://www.w3.org/2000/svg" xmlns:xlink="http://www.w3.org/1999/xlink" viewBox="0 0 149 119">
  <defs>
    <style>
      .cls-1 {
        mask: url(#mask);
      }

      .cls-2 {
        letter-spacing: -.07em;
      }

      .cls-3 {
        letter-spacing: -.05em;
      }

      .cls-4 {
        font-family: HiraKakuStdN-W8-83pv-RKSJ-H, 'Hiragino Kaku Gothic StdN';
        font-size: 16px;
      }

      .cls-4, .cls-5 {
        fill: #fff;
      }

      .cls-6 {
        letter-spacing: -.05em;
      }

      .cls-7 {
        fill: #55c9ef;
        fill-rule: evenodd;
      }

      .cls-7, .cls-8, .cls-5, .cls-9 {
        stroke-width: 0px;
      }

      .cls-10 {
        letter-spacing: -.09em;
      }

      .cls-8 {
        fill: #f3754b;
      }

      .cls-9 {
        fill: #008cad;
      }
    </style>
    <mask id="mask" x=".47" y="-86" width="196" height="205" maskUnits="userSpaceOnUse">
      <g id="mask0_291_2311" data-name="mask0 291 2311">
        <rect class="cls-8" x=".47" width="149" height="119" rx="16" ry="16"/>
      </g>
    </mask>
  </defs>
  <g>
    <rect class="cls-9" x=".47" width="149" height="119" rx="16" ry="16"/>
    <g class="cls-1">
      <path class="cls-7" d="m144.61-82.4c15.26-1.14,34.1-8.71,44.73,2.3,11,11.4.79,30.53,2.19,46.32.98,11.03,5.9,21.03,4.77,32.04-1.39,13.51-3.2,27.52-11.95,37.9-10.16,12.05-24.07,21.69-39.74,23.44-16.55,1.85-34.49-2.51-46.75-13.79-11.76-10.83-12.04-28.47-15.98-43.96-3.63-14.29-10.28-28.6-6.06-42.73,4.27-14.28,15.91-25.17,28.67-32.87,12-7.25,26.13-7.6,40.12-8.64Z"/>
    </g>
    <path class="cls-5" d="m125.47,30c-.4,0-.78.12-1.11.34-.33.22-.58.53-.74.9-.15.37-.19.77-.11,1.16.08.39.27.74.55,1.02.28.28.64.47,1.02.55.39.08.79.04,1.15-.11.37-.15.68-.41.9-.74s.34-.72.34-1.11c0-.53-.21-1.04-.59-1.41-.38-.38-.88-.59-1.41-.59Z"/>
    <path class="cls-5" d="m126.58,25.66c-.33.22-.71.34-1.11.34-.53,0-1.04-.21-1.41-.59-.38-.38-.59-.88-.59-1.41,0-.4.12-.78.34-1.11.22-.33.53-.59.9-.74.36-.15.77-.19,1.15-.11.39.08.75.27,1.02.55.28.28.47.64.55,1.02.08.39.04.79-.11,1.16-.15.37-.41.68-.74.9Z"/>
  </g>
  <text class="cls-4" transform="translate(32.35 93.62)"><tspan x="0" y="0">論</tspan><tspan class="cls-6" x="16" y="0">文</tspan><tspan class="cls-2" x="31.28" y="0">レ</tspan><tspan class="cls-10" x="46.18" y="0">ビ</tspan><tspan class="cls-3" x="60.77" y="0">ュ</tspan><tspan x="75.9" y="0">ー</tspan></text>
  <path class="cls-5" d="m125.26,30c-.4,0-.78.12-1.11.34-.33.22-.58.53-.74.9-.15.37-.19.77-.11,1.16.08.39.27.74.55,1.02.28.28.64.47,1.02.55.39.08.79.04,1.15-.11.37-.15.68-.41.9-.74s.34-.72.34-1.11c0-.53-.21-1.04-.59-1.41-.38-.38-.88-.59-1.41-.59Z"/>
  <path class="cls-5" d="m126.38,25.66c-.33.22-.71.34-1.11.34-.53,0-1.04-.21-1.41-.59-.38-.38-.59-.88-.59-1.41,0-.4.12-.78.34-1.11.22-.33.53-.59.9-.74.36-.15.77-.19,1.15-.11.39.08.75.27,1.02.55.28.28.47.64.55,1.02.08.39.04.79-.11,1.16-.15.37-.41.68-.74.9Z"/>
  <path class="cls-5" d="m18.6,43.5c-.76,0-1.4-.26-1.94-.79-.54-.53-.81-1.16-.81-1.91v-21.6c0-.74.27-1.38.81-1.91.54-.53,1.19-.79,1.94-.79h16.5c.76,0,1.4.26,1.94.79.54.53.81,1.16.81,1.91v21.6c0,.74-.27,1.38-.81,1.91s-1.19.79-1.94.79h-16.5Zm6.88-14.85l3.44-2.02,3.44,2.02v-9.45h-6.88v9.45Z"/>
</svg>