<?xml version="1.0" encoding="UTF-8"?>
<svg id="Layer_4" data-name="Layer 4" xmlns="http://www.w3.org/2000/svg" xmlns:xlink="http://www.w3.org/1999/xlink" viewBox="0 0 149 119">
  <defs>
    <style>
      .cls-1 {
        mask: url(#mask);
      }

      .cls-2 {
        letter-spacing: 0em;
      }

      .cls-3 {
        letter-spacing: -.05em;
      }

      .cls-4 {
        letter-spacing: -.1em;
      }

      .cls-5 {
        letter-spacing: -.07em;
      }

      .cls-6 {
        font-family: HiraKakuStdN-W8-83pv-RKSJ-H, 'Hiragino Kaku Gothic StdN';
        font-size: 16px;
      }

      .cls-6, .cls-7 {
        fill: #fff;
      }

      .cls-8 {
        letter-spacing: 0em;
      }

      .cls-9 {
        letter-spacing: -.05em;
      }

      .cls-10 {
        fill: #312876;
        fill-rule: evenodd;
      }

      .cls-10, .cls-11, .cls-12, .cls-7 {
        stroke-width: 0px;
      }

      .cls-11 {
        fill: #4e3895;
      }

      .cls-12 {
        fill: #f3754b;
      }
    </style>
    <mask id="mask" x=".47" y="-86" width="196" height="205" maskUnits="userSpaceOnUse">
      <g id="mask0_291_2311" data-name="mask0 291 2311">
        <rect class="cls-12" x=".47" width="149" height="119" rx="16" ry="16"/>
      </g>
    </mask>
  </defs>
  <g>
    <rect class="cls-11" x=".47" width="149" height="119" rx="16" ry="16"/>
    <g class="cls-1">
      <path class="cls-10" d="m144.61-82.4c15.26-1.14,34.1-8.71,44.73,2.3,11,11.4.79,30.53,2.19,46.32.98,11.03,5.9,21.03,4.77,32.04-1.39,13.51-3.2,27.52-11.95,37.9-10.16,12.05-24.07,21.69-39.74,23.44-16.55,1.85-34.49-2.51-46.75-13.79-11.76-10.83-12.04-28.47-15.98-43.96-3.63-14.29-10.28-28.6-6.06-42.73,4.27-14.28,15.91-25.17,28.67-32.87,12-7.25,26.13-7.6,40.12-8.64Z"/>
    </g>
    <path class="cls-7" d="m125.47,30c-.4,0-.78.12-1.11.34-.33.22-.58.53-.74.9-.15.37-.19.77-.11,1.16.08.39.27.74.55,1.02.28.28.64.47,1.02.55.39.08.79.04,1.15-.11.37-.15.68-.41.9-.74s.34-.72.34-1.11c0-.53-.21-1.04-.59-1.41-.38-.38-.88-.59-1.41-.59Z"/>
    <path class="cls-7" d="m126.58,25.66c-.33.22-.71.34-1.11.34-.53,0-1.04-.21-1.41-.59-.38-.38-.59-.88-.59-1.41,0-.4.12-.78.34-1.11.22-.33.53-.59.9-.74.36-.15.77-.19,1.15-.11.39.08.75.27,1.02.55.28.28.47.64.55,1.02.08.39.04.79-.11,1.16-.15.37-.41.68-.74.9Z"/>
    <path class="cls-7" d="m37.88,50.88c-4.31,0-8.08-1.43-11.28-4.29-3.21-2.86-5.04-6.43-5.51-10.72h3.85c.44,3.25,1.88,5.94,4.34,8.07,2.46,2.13,5.32,3.19,8.61,3.19,3.66,0,6.76-1.27,9.31-3.82s3.82-5.65,3.82-9.31c0-3.66-1.27-6.76-3.82-9.31s-5.65-3.82-9.31-3.82c-2.16,0-4.17.5-6.05,1.5-1.88,1-3.46,2.38-4.74,4.13h5.16v3.75h-11.26v-11.26h3.75v4.41c1.59-2,3.54-3.55,5.84-4.64s4.73-1.64,7.29-1.64c2.35,0,4.54.45,6.59,1.34,2.05.89,3.83,2.09,5.35,3.61,1.52,1.52,2.72,3.3,3.61,5.35.89,2.05,1.34,4.24,1.34,6.59,0,2.35-.45,4.54-1.34,6.59-.89,2.05-2.09,3.83-3.61,5.35-1.52,1.52-3.3,2.72-5.35,3.61-2.05.89-4.24,1.34-6.59,1.34Zm5.25-9.01l-7.13-7.13v-10.13h3.75v8.63l6,6-2.63,2.63Z"/>
  </g>
  <text class="cls-6" transform="translate(14.94 91.7)"><tspan class="cls-5" x="0" y="0">ス</tspan><tspan class="cls-9" x="14.82" y="0">ケ</tspan><tspan class="cls-4" x="30.02" y="0">ジ</tspan><tspan class="cls-3" x="44.38" y="0">ュ</tspan><tspan class="cls-2" x="59.52" y="0">ー</tspan><tspan class="cls-8" x="75.38" y="0">ル</tspan><tspan x="91.26" y="0">機能</tspan></text>
  <path class="cls-7" d="m125.26,30c-.4,0-.78.12-1.11.34-.33.22-.58.53-.74.9-.15.37-.19.77-.11,1.16.08.39.27.74.55,1.02.28.28.64.47,1.02.55.39.08.79.04,1.15-.11.37-.15.68-.41.9-.74s.34-.72.34-1.11c0-.53-.21-1.04-.59-1.41-.38-.38-.88-.59-1.41-.59Z"/>
  <path class="cls-7" d="m126.38,25.66c-.33.22-.71.34-1.11.34-.53,0-1.04-.21-1.41-.59-.38-.38-.59-.88-.59-1.41,0-.4.12-.78.34-1.11.22-.33.53-.59.9-.74.36-.15.77-.19,1.15-.11.39.08.75.27,1.02.55.28.28.47.64.55,1.02.08.39.04.79-.11,1.16-.15.37-.41.68-.74.9Z"/>
</svg>