<?xml version="1.0" encoding="UTF-8"?>
<svg xmlns="http://www.w3.org/2000/svg" xmlns:xlink="http://www.w3.org/1999/xlink" viewBox="0 0 352.64 457.65">
  <defs>
    <style>
      .cls-1 {
        clip-path: url(#clippath);
      }

      .cls-2, .cls-3, .cls-4, .cls-5 {
        fill: none;
      }

      .cls-2, .cls-6, .cls-7, .cls-8, .cls-9, .cls-10, .cls-11, .cls-12, .cls-13, .cls-14, .cls-15 {
        stroke-width: 0px;
      }

      .cls-16 {
        mask: url(#mask);
      }

      .cls-17 {
        clip-path: url(#clippath-1);
      }

      .cls-18 {
        clip-path: url(#clippath-4);
      }

      .cls-19 {
        clip-path: url(#clippath-3);
      }

      .cls-20 {
        clip-path: url(#clippath-2);
      }

      .cls-21 {
        clip-path: url(#clippath-5);
      }

      .cls-3 {
        stroke-width: 2px;
      }

      .cls-3, .cls-4, .cls-5 {
        stroke-linecap: round;
        stroke-linejoin: round;
      }

      .cls-3, .cls-5 {
        stroke: #fff;
      }

      .cls-6 {
        fill: #1a99b5;
      }

      .cls-6, .cls-7, .cls-8 {
        fill-rule: evenodd;
      }

      .cls-7 {
        fill: #ffc278;
      }

      .cls-8 {
        fill: #ff81d4;
      }

      .cls-4 {
        stroke: #333;
        stroke-width: 1.5px;
      }

      .cls-22 {
        mask: url(#mask-3);
      }

      .cls-23 {
        mask: url(#mask-2);
      }

      .cls-24 {
        mask: url(#mask-5);
      }

      .cls-25 {
        mask: url(#mask-4);
      }

      .cls-26 {
        mask: url(#mask-1);
      }

      .cls-10 {
        fill: #62185f;
      }

      .cls-11 {
        fill: #17102b;
      }

      .cls-12 {
        fill: #333;
      }

      .cls-13 {
        fill: #ff7648;
      }

      .cls-14 {
        fill: #83187f;
      }

      .cls-15 {
        fill: #fff;
      }

      .cls-5 {
        stroke-width: 3px;
      }
    </style>
    <clipPath id="clippath">
      <rect class="cls-2" x="29.62" y="2.01" width="21.27" height="21.27"/>
    </clipPath>
    <clipPath id="clippath-1">
      <rect class="cls-2" x="3.03" y="23.28" width="348.29" height="622.14"/>
    </clipPath>
    <clipPath id="clippath-2">
      <rect class="cls-2" x="3.03" y="430.95" width="348.29" height="105.46"/>
    </clipPath>
    <mask id="mask" x="9.23" y="362.39" width="170.99" height="174.02" maskUnits="userSpaceOnUse">
      <g id="mask2_42_712" data-name="mask2 42 712">
        <rect class="cls-10" x="9.23" y="430.95" width="132.05" height="105.46" rx="14.18" ry="14.18"/>
      </g>
    </mask>
    <mask id="mask-1" x="153.69" y="362.39" width="170.99" height="174.02" maskUnits="userSpaceOnUse">
      <g id="mask3_42_712" data-name="mask3 42 712">
        <rect class="cls-10" x="153.69" y="430.95" width="132.05" height="105.46" rx="14.18" ry="14.18"/>
      </g>
    </mask>
    <clipPath id="clippath-3">
      <rect class="cls-2" x="3.03" y="282.95" width="348.29" height="105.46"/>
    </clipPath>
    <mask id="mask-2" x="9.23" y="214.39" width="170.99" height="174.02" maskUnits="userSpaceOnUse">
      <g id="mask4_42_712" data-name="mask4 42 712">
        <rect class="cls-10" x="9.23" y="282.95" width="132.05" height="105.46" rx="14.18" ry="14.18"/>
      </g>
    </mask>
    <mask id="mask-3" x="153.69" y="214.39" width="170.99" height="174.02" maskUnits="userSpaceOnUse">
      <g id="mask5_42_712" data-name="mask5 42 712">
        <rect class="cls-10" x="153.69" y="282.95" width="132.05" height="105.46" rx="14.18" ry="14.18"/>
      </g>
    </mask>
    <clipPath id="clippath-4">
      <rect class="cls-2" x="3.03" y="134.94" width="348.29" height="105.46"/>
    </clipPath>
    <mask id="mask-4" x="153.69" y="66.39" width="170.99" height="174.02" maskUnits="userSpaceOnUse">
      <g id="mask6_42_712" data-name="mask6 42 712">
        <rect class="cls-13" x="153.69" y="134.94" width="132.05" height="105.46" rx="14.18" ry="14.18"/>
      </g>
    </mask>
    <mask id="mask-5" x="9.23" y="66.39" width="170.99" height="174.02" maskUnits="userSpaceOnUse">
      <g id="mask7_42_712" data-name="mask7 42 712">
        <rect class="cls-13" x="9.23" y="134.94" width="132.05" height="105.46" rx="14.18" ry="14.18"/>
      </g>
    </mask>
    <clipPath id="clippath-5">
      <rect class="cls-2" x="312.33" y="149.12" width="34.56" height="34.56"/>
    </clipPath>
  </defs>
  <g id="Layer_2" data-name="Layer 2">
    <rect class="cls-15" width="352.64" height="457.65"/>
  </g>
  <g id="Layer_6" data-name="Layer 6">
    <g class="cls-1">
      <path class="cls-4" d="m42.03,8.21l-4.43,4.43,4.43,4.43"/>
    </g>
    <g class="cls-17">
      <g>
        <g class="cls-20">
          <g>
            <rect class="cls-14" x="9.23" y="430.95" width="132.05" height="105.46" rx="14.18" ry="14.18"/>
            <g class="cls-16">
              <path class="cls-8" d="m134.27,365.58c13.52-1.01,30.22-7.72,39.64,2.04,9.75,10.1.7,27.06,1.95,41.05.87,9.77,5.23,18.64,4.23,28.4-1.23,11.97-2.84,24.39-10.59,33.59-9,10.68-21.33,19.22-35.22,20.77-14.67,1.64-30.57-2.22-41.43-12.22-10.42-9.59-10.67-25.23-14.16-38.96-3.22-12.67-9.11-25.35-5.37-37.87,3.78-12.65,14.1-22.31,25.41-29.13,10.64-6.42,23.16-6.73,35.55-7.66Z"/>
            </g>
            <path class="cls-15" d="m120.02,457.54c-.35,0-.69.1-.98.3-.29.2-.52.47-.65.8-.13.32-.17.68-.1,1.02.07.34.24.66.49.91.25.25.56.42.91.49.34.07.7.03,1.02-.1.32-.13.6-.36.8-.65.19-.29.3-.63.3-.98,0-.47-.19-.92-.52-1.25s-.78-.52-1.25-.52Z"/>
            <path class="cls-15" d="m121,453.69c-.29.19-.63.3-.98.3-.47,0-.92-.19-1.25-.52s-.52-.78-.52-1.25c0-.35.1-.69.3-.98.19-.29.47-.52.8-.65.32-.13.68-.17,1.02-.1.34.07.66.24.91.49.25.25.42.56.49.91.07.34.03.7-.1,1.02-.13.32-.36.6-.65.8Z"/>
            <path class="cls-5" d="m34.79,452.22h-7.68c-.51,0-1,.2-1.36.56-.36.36-.56.85-.56,1.36v14.08c0,.51.2,1,.56,1.36.36.36.85.56,1.36.56h19.2c.51,0,1-.2,1.36-.56.36-.36.56-.85.56-1.36v-6.4m-11.52,8.32v5.12"/>
            <path class="cls-5" d="m41.83,452.22l-2.56,2.56,2.56,2.56m3.84-5.12l2.56,2.56-2.56,2.56m-15.36,17.92h12.8"/>
            <rect class="cls-14" x="153.69" y="430.95" width="132.05" height="105.46" rx="14.18" ry="14.18"/>
            <g class="cls-26">
              <path class="cls-8" d="m278.73,365.58c13.52-1.01,30.22-7.72,39.64,2.04,9.75,10.1.7,27.06,1.95,41.05.87,9.77,5.23,18.64,4.23,28.4-1.23,11.97-2.84,24.39-10.59,33.59-9,10.68-21.33,19.22-35.22,20.77-14.67,1.64-30.57-2.22-41.43-12.22-10.42-9.59-10.67-25.23-14.16-38.96-3.22-12.67-9.11-25.35-5.37-37.87,3.78-12.65,14.1-22.31,25.41-29.13,10.64-6.42,23.16-6.73,35.55-7.66Z"/>
            </g>
            <path class="cls-15" d="m264.47,457.54c-.35,0-.69.1-.98.3-.29.2-.52.47-.65.8-.13.32-.17.68-.1,1.02.07.34.24.66.49.91.25.25.56.42.91.49.34.07.7.03,1.02-.1.32-.13.6-.36.8-.65.19-.29.3-.63.3-.98,0-.47-.19-.92-.52-1.25s-.78-.52-1.25-.52Z"/>
            <path class="cls-15" d="m265.46,453.69c-.29.19-.63.3-.98.3-.47,0-.92-.19-1.25-.52s-.52-.78-.52-1.25c0-.35.1-.69.3-.98.19-.29.47-.52.8-.65.32-.13.68-.17,1.02-.1.34.07.66.24.91.49.25.25.42.56.49.91.07.34.03.7-.1,1.02-.13.32-.36.6-.65.8Z"/>
            <path class="cls-15" d="m192.76,450.45h-18.75c-.45,0-.89.18-1.21.5-.32.32-.5.75-.5,1.2v15.23c0,.45.18.88.5,1.2.32.32.75.5,1.21.5h18.75c.45,0,.89-.18,1.21-.5.32-.32.5-.75.5-1.2v-15.23c0-.45-.18-.88-.5-1.2-.32-.32-.75-.5-1.21-.5Zm-13.12,11.17c.18.13.3.34.33.56.03.22-.03.45-.16.63-.14.18-.34.3-.56.33-.22.03-.45-.03-.63-.16l-3.41-2.54c-.11-.08-.19-.18-.25-.3-.06-.12-.09-.25-.09-.38s.03-.26.09-.38c.06-.12.15-.22.25-.3l3.41-2.54c.18-.13.41-.19.63-.16.22.03.43.15.56.33.14.18.19.4.16.63-.03.22-.15.42-.33.56l-2.5,1.86,2.5,1.86Zm6.27-7.55l-3.41,11.84c-.03.11-.08.21-.15.3-.07.09-.16.16-.25.22-.1.05-.21.09-.32.1-.11.01-.23,0-.34-.03-.11-.03-.21-.08-.3-.15-.09-.07-.16-.16-.22-.26-.05-.1-.09-.21-.1-.32-.01-.11,0-.22.03-.33l3.41-11.84c.07-.21.21-.39.41-.5.2-.11.43-.13.64-.07.22.06.4.2.51.4.11.19.14.42.08.63Zm5.66,6.37l-3.41,2.54c-.18.13-.41.19-.63.16-.22-.03-.43-.15-.56-.33-.14-.18-.19-.4-.16-.63.03-.22.15-.42.33-.56l2.5-1.86-2.5-1.86c-.09-.07-.16-.15-.22-.25-.06-.1-.09-.2-.11-.31-.02-.11,0-.22.02-.33.03-.11.08-.21.14-.3.07-.09.15-.16.25-.22.1-.06.2-.09.31-.11.11-.02.22,0,.33.02.11.03.21.08.3.14l3.41,2.54c.11.08.19.18.25.3.06.12.09.25.09.38s-.03.26-.09.38c-.06.12-.15.22-.25.3Z"/>
            <rect class="cls-14" x="298.15" y="430.95" width="132.05" height="105.46" rx="14.18" ry="14.18"/>
            <path class="cls-15" d="m313.22,467.29v-3.03c0-.6.16-1.16.46-1.68.31-.52.74-.92,1.28-1.19.93-.47,1.98-.87,3.14-1.19,1.17-.32,2.45-.49,3.85-.49s2.69.16,3.85.49c1.17.33,2.21.72,3.14,1.19.55.27.97.67,1.28,1.19.31.52.46,1.08.46,1.68v3.03h-17.48Zm8.74-8.67c-1.2,0-2.23-.42-3.09-1.27-.86-.85-1.28-1.87-1.28-3.06h-.27c-.16,0-.3-.05-.4-.15-.1-.1-.15-.23-.15-.39,0-.16.05-.29.15-.39.1-.1.23-.15.4-.15h.27c0-.81.2-1.54.6-2.19.4-.65.93-1.16,1.58-1.54v1.03c0,.16.05.29.15.39.1.1.23.15.4.15s.3-.05.4-.15c.1-.1.15-.23.15-.39v-1.46c.16-.05.34-.1.52-.12.18-.03.37-.04.57-.04.2,0,.39.01.57.04.18.03.36.07.52.12v1.46c0,.16.05.29.15.39.1.1.23.15.4.15s.3-.05.4-.15c.1-.1.15-.23.15-.39v-1.03c.65.38,1.18.89,1.58,1.54.4.65.6,1.38.6,2.19h.27c.16,0,.3.05.4.15.1.1.15.23.15.39,0,.16-.05.29-.15.39-.1.1-.23.15-.4.15h-.27c0,1.19-.43,2.21-1.28,3.06-.86.85-1.89,1.27-3.09,1.27Zm0-2.17c.6,0,1.12-.21,1.54-.64s.64-.93.64-1.53h-4.37c0,.6.21,1.11.64,1.53s.94.64,1.54.64Zm8.2,4.33l-.16-.81c-.11-.04-.21-.08-.31-.12-.1-.05-.2-.11-.29-.2l-.76.27-.55-.97.6-.54v-.65l-.6-.54.55-.97.76.27c.07-.07.16-.14.27-.19.11-.05.22-.1.33-.14l.16-.81h1.09l.16.81c.11.04.22.08.33.14.11.05.2.12.27.19l.76-.27.55.97-.6.54v.65l.6.54-.55.97-.76-.27c-.09.09-.19.16-.29.2-.1.05-.2.09-.31.12l-.16.81h-1.09Zm.55-1.9c.22,0,.41-.08.57-.24.16-.16.25-.35.25-.57s-.08-.41-.25-.57c-.16-.16-.35-.24-.57-.24s-.41.08-.57.24c-.16.16-.25.35-.25.57s.08.41.25.57c.16.16.35.24.57.24Zm1.97-3.52l-.22-1.14c-.16-.05-.31-.12-.45-.2-.14-.08-.26-.18-.37-.28l-1.15.38-.76-1.3.93-.81c-.04-.09-.05-.16-.05-.22v-.43c0-.05.02-.13.05-.22l-.93-.81.76-1.3,1.15.38c.11-.11.23-.2.37-.28.14-.08.29-.15.45-.2l.22-1.14h1.53l.22,1.14c.16.05.31.12.45.2s.26.18.37.28l1.15-.38.76,1.3-.93.81c.04.09.05.16.05.22v.43c0,.05-.02.13-.05.22l.93.81-.76,1.3-1.15-.38c-.11.11-.23.2-.37.29s-.29.15-.45.2l-.22,1.14h-1.53Zm.76-2.44c.38,0,.71-.13.97-.39.26-.26.4-.58.4-.96,0-.38-.13-.7-.4-.96-.26-.26-.59-.39-.97-.39-.38,0-.71.13-.97.39-.26.26-.4.58-.4.96,0,.38.13.7.4.96.26.26.59.39.97.39Z"/>
          </g>
        </g>
        <g class="cls-19">
          <g>
            <rect class="cls-11" x="9.23" y="282.95" width="132.05" height="105.46" rx="14.18" ry="14.18"/>
            <g class="cls-23">
              <path class="cls-6" d="m134.27,217.58c13.52-1.01,30.22-7.72,39.64,2.04,9.75,10.1.7,27.06,1.95,41.05.87,9.77,5.23,18.64,4.23,28.4-1.23,11.97-2.84,24.39-10.59,33.59-9,10.68-21.33,19.22-35.22,20.77-14.67,1.64-30.57-2.22-41.43-12.22-10.42-9.59-10.67-25.23-14.16-38.96-3.22-12.67-9.11-25.35-5.37-37.87,3.78-12.65,14.1-22.31,25.41-29.13,10.64-6.42,23.16-6.73,35.55-7.66Z"/>
            </g>
            <path class="cls-15" d="m24.21,363.28h8.64v1.45h-8.64v-1.45Zm-.51,3.66h8.67v1.43h-8.67v-1.43Zm-1.44,3.93h11.22v1.45h-11.22v-1.45Zm4.83-9.84h1.55v10.56h-1.55v-10.56Zm-2.87.15l1.54.35c-.55,1.92-1.45,3.83-2.42,5.02-.3-.26-.96-.69-1.34-.91.98-1.04,1.77-2.75,2.22-4.47Zm16.23-.15l1.34.26c-.45,2.06-1.27,4.03-2.27,5.27-.24-.22-.82-.65-1.13-.83.99-1.09,1.69-2.87,2.06-4.7Zm4.17,1.94h1.4s-.01.48-.02.67c-.24,5.57-.46,7.61-.93,8.23-.29.42-.56.57-.97.65-.35.07-.87.07-1.41.05-.04-.42-.19-1.05-.41-1.46.46.05.88.06,1.12.06.19,0,.3-.06.45-.24.35-.43.58-2.36.78-7.63v-.32Zm-3.8,0h4.43v1.38h-5.11l.68-1.38Zm.87.45l1.08.53c-.5,2.13-1.59,4.59-2.94,5.86-.29-.29-.76-.63-1.14-.84,1.44-1.13,2.53-3.46,3-5.55Zm1.72.14l1.15.53c-.6,3.23-1.91,6.6-3.96,8.31-.29-.3-.81-.67-1.22-.87,2.17-1.55,3.45-4.79,4.02-7.98Zm-9.05,4.24c1.22-.27,3.03-.78,4.74-1.27l.2,1.32c-1.56.48-3.26.99-4.58,1.38l-.36-1.43Zm2.23-6.76h1.36v11.65h-1.36v-11.65Zm-1.64.71l1.24.21c-.16,1.64-.46,3.37-.91,4.48-.22-.17-.76-.52-1.05-.67.4-.99.61-2.54.72-4.02Zm.34,1.69h3.7v1.43h-3.97l.27-1.43Zm18.99,2.88v1.49h-4.12v-1.49h4.12Zm4.51,5.26v-9.02h3.61c.66,0,1.22.1,1.66.3.44.2.78.47,1,.82.22.35.33.75.33,1.2,0,.35-.07.66-.21.93-.14.26-.33.48-.58.65-.24.17-.52.29-.84.36v.09c.34.02.67.11.96.29.3.18.55.43.74.75.19.32.28.7.28,1.15,0,.48-.12.91-.36,1.28-.23.37-.58.67-1.04.89-.46.22-1.03.33-1.71.33h-3.86Zm1.91-1.56h1.56c.53,0,.92-.1,1.16-.3.24-.21.37-.48.37-.82,0-.25-.06-.47-.18-.66-.12-.19-.29-.34-.52-.45-.22-.11-.48-.16-.79-.16h-1.6v2.4Zm0-3.69h1.41c.26,0,.49-.05.7-.14.21-.09.37-.23.48-.4.12-.17.18-.37.18-.61,0-.33-.12-.59-.35-.79-.23-.2-.56-.3-.98-.3h-1.45v2.23Zm6.26,5.25v-6.77h1.88v6.77h-1.88Zm.94-7.64c-.28,0-.52-.09-.72-.28-.2-.19-.3-.41-.3-.67s.1-.48.3-.66c.2-.19.44-.28.72-.28s.52.09.71.28c.2.18.3.41.3.66s-.1.49-.3.67c-.2.19-.43.28-.71.28Zm5.5,7.77c-.68,0-1.28-.15-1.78-.44-.5-.29-.88-.7-1.15-1.22-.27-.53-.41-1.14-.41-1.83s.14-1.31.41-1.83c.27-.53.65-.93,1.15-1.22.5-.29,1.09-.44,1.78-.44s1.27.15,1.77.44c.5.29.88.7,1.15,1.22.27.52.41,1.13.41,1.83s-.14,1.3-.41,1.83c-.27.52-.66.93-1.15,1.22-.5.29-1.09.44-1.77.44Zm0-1.45c.31,0,.57-.09.78-.26.21-.18.37-.42.47-.73.11-.31.16-.66.16-1.05s-.05-.74-.16-1.05c-.11-.31-.26-.55-.47-.73-.21-.18-.47-.27-.78-.27s-.58.09-.79.27c-.21.18-.37.42-.48.73-.11.31-.16.66-.16,1.05s.05.74.16,1.05c.11.31.27.55.48.73.21.18.48.26.79.26Zm6.42-7.7v9.02h-1.88v-9.02h1.88Zm4.56,9.16c-.68,0-1.28-.15-1.78-.44-.5-.29-.88-.7-1.15-1.22-.27-.53-.41-1.14-.41-1.83s.14-1.31.41-1.83c.27-.53.65-.93,1.15-1.22.5-.29,1.09-.44,1.78-.44s1.27.15,1.77.44c.5.29.88.7,1.15,1.22.27.52.41,1.13.41,1.83s-.14,1.3-.41,1.83c-.27.52-.66.93-1.15,1.22-.5.29-1.09.44-1.77.44Zm0-1.45c.31,0,.57-.09.78-.26.21-.18.37-.42.47-.73.11-.31.16-.66.16-1.05s-.05-.74-.16-1.05c-.11-.31-.26-.55-.47-.73-.21-.18-.47-.27-.78-.27s-.58.09-.79.27c-.21.18-.37.42-.48.73-.11.31-.16.66-.16,1.05s.05.74.16,1.05c.11.31.27.55.48.73.21.18.48.26.79.26Zm7.59,4c-.61,0-1.13-.08-1.56-.25-.43-.16-.78-.39-1.03-.67-.26-.29-.42-.61-.5-.96l1.74-.23c.05.14.14.26.25.38.11.12.27.21.45.28.19.07.42.11.7.11.41,0,.74-.1,1.01-.3.27-.2.4-.53.4-.99v-1.24h-.08c-.08.19-.21.37-.37.53-.16.17-.38.3-.63.41-.26.11-.57.16-.93.16-.51,0-.97-.12-1.39-.35-.41-.24-.74-.6-.99-1.09-.24-.49-.37-1.11-.37-1.86s.12-1.41.37-1.92c.25-.51.58-.9,1-1.15.42-.26.87-.38,1.37-.38.38,0,.7.06.95.19.26.13.46.28.62.48.16.19.28.37.37.55h.07v-1.14h1.86v6.83c0,.58-.14,1.06-.42,1.44-.28.39-.67.68-1.17.87-.5.2-1.07.3-1.71.3Zm.04-4.19c.3,0,.56-.08.77-.23.21-.15.37-.37.48-.65.11-.28.17-.63.17-1.02s-.06-.74-.17-1.03c-.11-.29-.27-.52-.48-.68-.21-.16-.47-.24-.77-.24s-.57.08-.78.25c-.21.16-.37.39-.48.69-.11.29-.16.63-.16,1.02s.05.73.16,1.01c.11.28.27.5.48.66.21.15.47.23.78.23Zm5.92,4.04c-.24,0-.46-.02-.67-.06-.21-.04-.38-.08-.51-.14l.42-1.4c.22.07.42.1.59.11.18,0,.33-.04.46-.12.13-.09.24-.24.32-.45l.11-.29-2.43-6.96h1.97l1.4,4.97h.07l1.41-4.97h1.99l-2.63,7.5c-.13.36-.3.68-.51.95-.21.27-.49.48-.82.63-.33.15-.73.23-1.19.23Z"/>
            <path class="cls-15" d="m120.02,309.53c-.35,0-.69.1-.98.3-.29.19-.52.47-.65.8-.13.32-.17.68-.1,1.02.07.34.24.66.49.91.25.25.56.42.91.49.34.07.7.03,1.02-.1.32-.13.6-.36.8-.65.19-.29.3-.63.3-.98,0-.47-.19-.92-.52-1.25s-.78-.52-1.25-.52Z"/>
            <path class="cls-15" d="m121,305.69c-.29.19-.63.3-.98.3-.47,0-.92-.19-1.25-.52s-.52-.78-.52-1.25c0-.35.1-.69.3-.98.19-.29.47-.52.8-.65.32-.13.68-.17,1.02-.1.34.07.66.24.91.49.25.25.42.56.49.91.07.34.03.7-.1,1.02-.13.32-.36.6-.65.8Z"/>
            <path class="cls-5" d="m43.51,310.71c2.06.88,4.38.95,6.49.19m-18.13,18.13c.76-2.12.69-4.44-.19-6.51-.69-1.65-.88-3.46-.54-5.21.34-1.75,1.19-3.37,2.44-4.64,1.29-1.27,2.92-2.14,4.7-2.48"/>
            <path class="cls-5" d="m36.83,323.06c1.78-.35,3.43-1.22,4.71-2.5m0,0c1.26-1.27,2.11-2.88,2.45-4.64.34-1.75.15-3.57-.54-5.21-.86-2.07-.91-4.39-.13-6.49m-1.78,16.34l-7.88-7.88m-8.48,9.68c2.11-.76,4.43-.69,6.49.21"/>
            <rect class="cls-11" x="153.69" y="282.95" width="132.05" height="105.46" rx="14.18" ry="14.18"/>
            <g class="cls-22">
              <path class="cls-6" d="m278.73,217.58c13.52-1.01,30.22-7.72,39.64,2.04,9.75,10.1.7,27.06,1.95,41.05.87,9.77,5.23,18.64,4.23,28.4-1.23,11.97-2.84,24.39-10.59,33.59-9,10.68-21.33,19.22-35.22,20.77-14.67,1.64-30.57-2.22-41.43-12.22-10.42-9.59-10.67-25.23-14.16-38.96-3.22-12.67-9.11-25.35-5.37-37.87,3.78-12.65,14.1-22.31,25.41-29.13,10.64-6.42,23.16-6.73,35.55-7.66Z"/>
            </g>
            <path class="cls-15" d="m172.5,361.04l1.34.26c-.45,2.06-1.27,4.03-2.27,5.27-.24-.22-.82-.65-1.13-.83.99-1.09,1.69-2.87,2.06-4.7Zm4.17,1.94h1.4s-.01.48-.02.67c-.24,5.57-.46,7.61-.93,8.23-.29.42-.56.57-.97.65-.35.07-.87.07-1.41.05-.04-.42-.19-1.05-.41-1.46.46.05.88.06,1.12.06.19,0,.3-.06.45-.24.35-.43.58-2.36.78-7.63v-.32Zm-3.8,0h4.43v1.38h-5.11l.68-1.38Zm.87.45l1.08.53c-.5,2.13-1.59,4.59-2.94,5.86-.29-.29-.76-.63-1.14-.84,1.44-1.13,2.53-3.46,3-5.55Zm1.72.14l1.15.53c-.6,3.23-1.91,6.6-3.96,8.31-.29-.3-.81-.67-1.22-.87,2.17-1.55,3.45-4.79,4.02-7.98Zm-9.05,4.24c1.22-.27,3.03-.78,4.74-1.27l.2,1.32c-1.56.48-3.26.99-4.58,1.38l-.36-1.43Zm2.23-6.76h1.36v11.65h-1.36v-11.65Zm-1.64.71l1.24.21c-.16,1.64-.46,3.37-.91,4.48-.22-.17-.76-.52-1.05-.67.4-.99.61-2.54.72-4.02Zm.34,1.69h3.7v1.43h-3.97l.27-1.43Zm17.52,1.6v1.07h3.76v-1.07h-3.76Zm0-2.21v1.04h3.76v-1.04h-3.76Zm-1.34-1.27h6.51v5.79h-6.51v-5.79Zm-.09,6.86h6.74v1.34h-6.74v-1.34Zm-.87,2.53h8.02v1.34h-8.02v-1.34Zm-3.64-9.21h4.12v1.39h-4.12v-1.39Zm.12,3.57h3.78v1.38h-3.78v-1.38Zm-.26,4.71c1.07-.27,2.66-.77,4.14-1.25l.26,1.43c-1.39.47-2.88.96-4.07,1.34l-.34-1.51Zm1.51-7.74h1.41v7.63l-1.41.22v-7.85Zm5.83-.2h1.25v4.68h.14v4.81h-1.53v-4.81h.14v-4.68Zm12.6,4.22v1.49h-4.11v-1.49h4.11Zm4.51,5.26v-9.02h3.56c.68,0,1.27.13,1.75.39.48.26.85.62,1.1,1.08.26.46.38.99.38,1.59s-.13,1.13-.39,1.59c-.26.46-.63.82-1.12,1.07-.49.26-1.08.38-1.77.38h-2.27v-1.53h1.96c.37,0,.67-.06.91-.19.24-.13.42-.31.54-.53.12-.23.18-.49.18-.79s-.06-.56-.18-.78c-.12-.23-.3-.4-.54-.52-.24-.13-.55-.19-.92-.19h-1.29v7.46h-1.91Zm9.87-3.91v3.91h-1.88v-9.02h1.82v3.45h.08c.15-.4.4-.71.74-.94.34-.23.77-.34,1.28-.34.47,0,.88.1,1.23.31.35.2.63.5.82.88.2.38.29.83.29,1.36v4.31h-1.88v-3.97c0-.42-.1-.74-.32-.97-.21-.23-.51-.35-.89-.35-.26,0-.48.05-.68.16-.19.11-.35.27-.46.48-.11.21-.16.45-.17.74Zm6.78,6.45c-.24,0-.46-.02-.67-.06-.21-.04-.38-.08-.51-.14l.42-1.4c.22.07.42.1.59.11.18,0,.33-.04.46-.12.13-.09.24-.24.32-.45l.11-.29-2.43-6.96h1.97l1.4,4.97h.07l1.41-4.97h1.99l-2.63,7.5c-.13.36-.3.68-.52.95-.21.27-.49.48-.82.63-.33.15-.72.23-1.19.23Zm11.74-7.38l-1.72.11c-.03-.15-.09-.28-.19-.4-.1-.12-.23-.22-.38-.29-.16-.07-.34-.11-.56-.11-.29,0-.54.06-.74.18-.2.12-.3.28-.3.48,0,.16.06.3.19.41.13.11.35.2.67.27l1.22.25c.66.14,1.15.35,1.47.65.32.3.48.69.48,1.18,0,.44-.13.83-.39,1.17-.26.34-.61.6-1.07.78-.45.19-.97.28-1.56.28-.9,0-1.61-.19-2.14-.56-.53-.38-.84-.89-.93-1.53l1.85-.1c.06.27.19.48.41.63.21.14.49.21.82.21s.59-.06.79-.19c.2-.13.3-.3.31-.5,0-.17-.08-.31-.22-.42-.14-.11-.36-.2-.65-.26l-1.17-.23c-.66-.13-1.15-.36-1.48-.69-.32-.33-.48-.74-.48-1.25,0-.44.12-.81.35-1.12.24-.31.57-.56,1-.73.43-.17.94-.26,1.52-.26.85,0,1.53.18,2.02.54.49.36.78.85.86,1.48Zm1.34,4.84v-6.77h1.88v6.77h-1.88Zm.94-7.64c-.28,0-.52-.09-.72-.28-.2-.19-.3-.41-.3-.67s.1-.48.3-.66c.2-.19.44-.28.72-.28s.52.09.71.28c.2.18.3.41.3.66s-.1.49-.3.67c-.2.19-.43.28-.71.28Zm5.5,7.77c-.69,0-1.29-.15-1.79-.44-.5-.3-.88-.71-1.15-1.23-.26-.53-.4-1.13-.4-1.82s.13-1.3.4-1.82c.27-.53.65-.94,1.15-1.23.5-.3,1.09-.44,1.77-.44.59,0,1.11.11,1.55.32.44.21.79.52,1.05.9.26.39.4.84.43,1.37h-1.77c-.05-.34-.18-.61-.4-.82-.21-.21-.49-.31-.83-.31-.29,0-.55.08-.76.24-.21.16-.38.38-.5.68-.12.3-.18.66-.18,1.09s.06.8.18,1.1c.12.3.29.53.51.69.22.16.47.24.76.24.21,0,.41-.04.58-.13.17-.09.32-.22.43-.38.11-.17.19-.37.23-.61h1.77c-.03.52-.17.97-.42,1.37-.25.39-.59.7-1.04.92-.44.22-.96.33-1.56.33Zm9.86-4.97l-1.72.11c-.03-.15-.09-.28-.19-.4-.1-.12-.22-.22-.38-.29-.16-.07-.34-.11-.56-.11-.29,0-.54.06-.74.18-.2.12-.3.28-.3.48,0,.16.06.3.19.41.13.11.35.2.66.27l1.22.25c.66.14,1.15.35,1.47.65.32.3.48.69.48,1.18,0,.44-.13.83-.39,1.17-.26.34-.61.6-1.07.78-.45.19-.97.28-1.56.28-.9,0-1.61-.19-2.14-.56-.53-.38-.84-.89-.93-1.53l1.85-.1c.06.27.19.48.41.63.21.14.49.21.82.21s.59-.06.79-.19c.2-.13.31-.3.31-.5,0-.17-.07-.31-.22-.42-.14-.11-.36-.2-.65-.26l-1.17-.23c-.66-.13-1.15-.36-1.48-.69-.32-.33-.48-.74-.48-1.25,0-.44.12-.81.35-1.12.24-.31.57-.56,1-.73.43-.17.94-.26,1.52-.26.86,0,1.53.18,2.02.54.49.36.78.85.86,1.48Z"/>
            <path class="cls-15" d="m264.47,309.53c-.35,0-.69.1-.98.3-.29.19-.52.47-.65.8-.13.32-.17.68-.1,1.02.07.34.24.66.49.91.25.25.56.42.91.49.34.07.7.03,1.02-.1.32-.13.6-.36.8-.65.19-.29.3-.63.3-.98,0-.47-.19-.92-.52-1.25s-.78-.52-1.25-.52Z"/>
            <path class="cls-15" d="m265.46,305.69c-.29.19-.63.3-.98.3-.47,0-.92-.19-1.25-.52s-.52-.78-.52-1.25c0-.35.1-.69.3-.98.19-.29.47-.52.8-.65.32-.13.68-.17,1.02-.1.34.07.66.24.91.49.25.25.42.56.49.91.07.34.03.7-.1,1.02-.13.32-.36.6-.65.8Z"/>
            <path class="cls-15" d="m184.71,313.4c.38,0,.75.15,1.03.43.27.27.43.64.43,1.03s-.15.75-.43,1.03c-.27.27-.64.43-1.03.43s-.75-.15-1.03-.43c-.27-.27-.43-.64-.43-1.03s.15-.75.43-1.03c.27-.27.64-.43,1.03-.43Zm-11.29-9.84c2.08-2.08,6.58-1.15,11.29,1.95,4.72-3.09,9.22-4.02,11.29-1.95,2.08,2.08,1.15,6.58-1.95,11.29,3.09,4.72,4.02,9.22,1.95,11.29-2.08,2.08-6.58,1.15-11.29-1.95-4.72,3.09-9.22,4.02-11.29,1.95-2.08-2.08-1.15-6.58,1.95-11.29-3.09-4.72-4.02-9.22-1.95-11.29Zm16.43,6.15c.89.9,1.7,1.82,2.45,2.73,2-3.09,2.73-5.75,1.64-6.82-1.07-1.09-3.73-.36-6.82,1.64.91.76,1.83,1.57,2.73,2.45Zm-10.28,10.28c-.89-.9-1.7-1.82-2.45-2.73-2,3.09-2.73,5.75-1.64,6.82,1.07,1.09,3.73.36,6.82-1.64-.91-.76-1.83-1.57-2.73-2.45Zm-4.09-14.37c-1.09,1.07-.36,3.73,1.64,6.82.76-.91,1.57-1.83,2.45-2.73.9-.89,1.82-1.7,2.73-2.45-3.09-2-5.75-2.73-6.82-1.64Zm6.15,12.31c1.02,1.02,2.06,1.95,3.08,2.77,1.02-.83,2.06-1.76,3.08-2.77,1.02-1.02,1.95-2.06,2.77-3.08-.83-1.02-1.76-2.06-2.77-3.08-1.02-1.02-2.06-1.95-3.08-2.77-1.02.83-2.06,1.76-3.08,2.77-1.02,1.02-1.95,2.06-2.77,3.08.83,1.02,1.76,2.06,2.77,3.08Zm12.31,6.15c1.09-1.07.36-3.73-1.64-6.82-.76.91-1.57,1.83-2.45,2.73-.9.89-1.82,1.7-2.73,2.45,3.09,2,5.75,2.73,6.82,1.64Z"/>
            <rect class="cls-11" x="298.15" y="282.95" width="132.05" height="105.46" rx="14.18" ry="14.18"/>
            <path class="cls-15" d="m316.48,361.36h1.51v8.93c0,.74.09.87.69.87h1.81c.61,0,.71-.43.79-2.18.36.26.97.53,1.39.62-.19,2.15-.58,2.94-2.05,2.94h-2.13c-1.56,0-2.02-.5-2.02-2.26v-8.92Zm4.65,2.07l1.09,1.3c-1.4.99-3.18,1.92-4.79,2.68-.1-.35-.38-.87-.6-1.19,1.54-.73,3.19-1.85,4.29-2.79Zm-7.05-2.23l1.46.5c-.93,2.21-2.46,4.5-4.02,5.94-.15-.38-.58-1.2-.86-1.58,1.34-1.15,2.64-2.99,3.41-4.86Zm-1.32,3.5l1.46-1.46.02.02v9.4h-1.49v-7.97Zm13.09.58h5.72v1.28h-5.72v-1.28Zm-2.22,2.78h11.1v1.38h-11.1v-1.38Zm4.78-.79h1.53v3.83c0,.77-.19,1.15-.78,1.38-.58.2-1.38.22-2.43.22-.1-.42-.37-1.05-.61-1.44.79.02,1.72.02,1.97.02s.32-.06.32-.24v-3.78Zm2.68-1.99h.37l.31-.07.94.72c-.86.92-2.08,1.89-3.3,2.47-.17-.25-.57-.66-.79-.86.96-.5,2.01-1.38,2.47-1.99v-.27Zm-7.31-2.27h10.82v3.04h-1.48v-1.72h-7.94v1.72h-1.4v-3.04Zm8.6-1.89l1.61.47c-.57.82-1.22,1.66-1.72,2.21l-1.22-.45c.47-.61,1.03-1.54,1.33-2.23Zm-7.77.61l1.27-.57c.45.48.94,1.15,1.14,1.64l-1.35.62c-.17-.46-.63-1.17-1.05-1.69Zm3.13-.27l1.32-.5c.4.55.82,1.3.98,1.8l-1.41.55c-.12-.5-.51-1.28-.88-1.85Zm15.47,4.86v1.49h-4.11v-1.49h4.11Zm12.47-.61h-1.93c-.04-.25-.11-.47-.22-.67-.11-.2-.25-.36-.42-.5-.17-.14-.37-.24-.59-.32-.22-.07-.46-.11-.72-.11-.47,0-.87.12-1.22.35-.35.23-.62.56-.81,1-.19.44-.29.97-.29,1.6s.1,1.18.29,1.62c.19.44.46.77.81.99.35.22.75.33,1.2.33.26,0,.49-.03.71-.1.22-.07.42-.17.59-.3.17-.13.31-.29.42-.48.11-.19.19-.4.24-.64h1.93c-.05.42-.18.82-.37,1.21-.2.38-.46.72-.8,1.03-.33.3-.73.54-1.19.71-.46.17-.98.26-1.56.26-.8,0-1.52-.18-2.16-.55-.63-.36-1.13-.89-1.5-1.58-.36-.69-.55-1.53-.55-2.51s.19-1.82.55-2.51c.37-.69.87-1.22,1.51-1.58.63-.36,1.35-.55,2.14-.55.52,0,1.01.07,1.45.22.45.15.85.36,1.19.64.35.28.63.62.85,1.03.22.41.36.87.42,1.39Zm3.21,1.95v3.91h-1.88v-9.02h1.82v3.45h.08c.15-.4.4-.71.74-.94.34-.23.77-.34,1.28-.34.47,0,.88.1,1.23.31.35.2.63.5.82.88.2.38.29.83.29,1.36v4.31h-1.88v-3.97c0-.42-.1-.74-.32-.97-.21-.23-.51-.35-.89-.35-.26,0-.48.05-.68.16-.19.11-.35.27-.46.48-.11.21-.16.45-.17.74Zm8.95,4.04c-.7,0-1.3-.14-1.8-.42-.5-.29-.88-.69-1.15-1.21-.27-.52-.41-1.14-.41-1.85s.13-1.31.41-1.83c.27-.53.65-.94,1.14-1.23.49-.29,1.07-.44,1.74-.44.45,0,.86.07,1.25.22.39.14.73.35,1.01.64.29.28.52.64.68,1.07.16.43.24.93.24,1.51v.52h-5.71v-1.16h3.95c0-.27-.06-.51-.18-.72-.12-.21-.28-.37-.49-.49-.21-.12-.45-.18-.72-.18s-.54.07-.76.2c-.22.13-.39.3-.51.52-.12.22-.19.46-.19.73v1.11c0,.33.06.62.18.87.13.24.3.43.53.56.23.13.5.2.82.2.21,0,.4-.03.57-.09.17-.06.32-.15.44-.26.12-.12.22-.26.28-.43l1.74.11c-.09.42-.27.78-.54,1.09-.27.31-.62.55-1.05.72-.43.17-.92.26-1.48.26Zm4.33-.13v-6.77h1.79v1.19h.08c.14-.4.38-.71.7-.94.33-.23.72-.34,1.18-.34s.86.12,1.18.35c.33.23.54.54.65.93h.07c.14-.39.39-.7.75-.93.36-.23.79-.35,1.29-.35.63,0,1.14.2,1.54.6.4.4.6.97.6,1.7v4.55h-1.87v-4.18c0-.38-.1-.66-.3-.85-.2-.19-.45-.28-.75-.28-.34,0-.61.11-.8.33-.19.21-.29.5-.29.85v4.13h-1.82v-4.22c0-.33-.1-.6-.29-.79-.19-.2-.44-.3-.74-.3-.21,0-.4.05-.56.16-.16.1-.3.25-.39.44-.1.19-.15.4-.15.65v4.06h-1.88Zm11.32,0v-6.77h1.88v6.77h-1.88Zm.94-7.64c-.28,0-.52-.09-.72-.28-.2-.19-.3-.41-.3-.67s.1-.48.3-.66c.2-.19.44-.28.72-.28s.52.09.71.28c.2.18.3.41.3.66s-.1.49-.3.67c-.2.19-.44.28-.71.28Zm8.07,2.8l-1.72.11c-.03-.15-.09-.28-.19-.4-.1-.12-.23-.22-.38-.29-.16-.07-.34-.11-.56-.11-.29,0-.54.06-.74.18-.2.12-.3.28-.3.48,0,.16.06.3.19.41.13.11.35.2.67.27l1.22.25c.66.14,1.15.35,1.47.65.32.3.48.69.48,1.18,0,.44-.13.83-.39,1.17-.26.34-.61.6-1.07.78-.45.19-.97.28-1.56.28-.9,0-1.61-.19-2.14-.56-.53-.38-.84-.89-.93-1.53l1.85-.1c.06.27.19.48.41.63.21.14.49.21.82.21s.59-.06.79-.19c.2-.13.31-.3.31-.5,0-.17-.08-.31-.22-.42-.14-.11-.36-.2-.65-.26l-1.17-.23c-.66-.13-1.15-.36-1.48-.69-.32-.33-.48-.74-.48-1.25,0-.44.12-.81.35-1.12.24-.31.57-.56,1-.73.43-.17.94-.26,1.52-.26.86,0,1.53.18,2.02.54.49.36.78.85.86,1.48Zm4.94-1.93v1.41h-4.08v-1.41h4.08Zm-3.15-1.62h1.88v6.31c0,.17.03.31.08.41.05.09.13.16.22.2.1.04.21.06.33.06.09,0,.18,0,.26-.02.09-.02.16-.03.2-.04l.3,1.4c-.09.03-.23.06-.4.1-.17.04-.38.07-.62.07-.45.02-.85-.04-1.19-.18-.34-.14-.6-.35-.79-.64s-.28-.66-.28-1.1v-6.56Zm4.37,8.39v-6.77h1.82v1.18h.07c.12-.42.33-.74.62-.95.29-.22.62-.33,1-.33.09,0,.19,0,.3.02.11.01.2.03.29.05v1.67c-.09-.03-.21-.05-.37-.07-.16-.02-.3-.03-.43-.03-.28,0-.52.06-.74.18-.21.12-.38.28-.51.49-.12.21-.18.46-.18.73v3.83h-1.88Zm6.44,2.54c-.24,0-.46-.02-.67-.06-.21-.04-.38-.08-.51-.14l.42-1.4c.22.07.42.1.59.11.18,0,.33-.04.46-.12.13-.09.24-.24.32-.45l.11-.29-2.43-6.96h1.97l1.4,4.97h.07l1.41-4.97h1.99l-2.63,7.5c-.13.36-.3.68-.52.95-.21.27-.49.48-.81.63-.33.15-.73.23-1.19.23Z"/>
            <path class="cls-15" d="m335.58,318.06l-6.41-8.81v-8.57h1.77v-1.77h-10.63v1.77h1.77v8.57l-6.41,8.81c-.39.53-.62,1.16-.67,1.81-.05.65.08,1.31.38,1.9.3.59.75,1.08,1.31,1.42.56.34,1.2.52,1.86.52h14.15c.66,0,1.3-.18,1.86-.52.56-.34,1.01-.83,1.31-1.42.3-.58.43-1.24.38-1.9-.05-.65-.28-1.28-.67-1.81h0Zm-11.73-8.24v-9.15h3.54v9.15l2.37,3.26h-8.28l2.37-3.26Zm8.85,12.12h-14.15c-.33,0-.65-.09-.93-.26-.28-.17-.51-.42-.66-.71-.15-.29-.22-.62-.19-.95s.14-.64.34-.91l3.09-4.25h10.86l3.09,4.25c.19.27.31.58.34.91.03.33-.04.66-.19.95-.15.29-.38.54-.66.71-.28.17-.6.26-.93.26Z"/>
          </g>
        </g>
        <path class="cls-9" d="m30.08,119.09h8.07v1.53h-8.07v-1.53Zm.19-5.63h7.83v1.5h-7.83v-1.5Zm2.68,4.48l1.77.38c-.78,1.64-1.82,3.59-2.58,4.87l-1.68-.51c.75-1.23,1.8-3.22,2.49-4.74Zm2.27,2.22l1.75.14c-.57,3.35-2.25,4.69-6.05,5.46-.11-.53-.46-1.2-.78-1.58,3.17-.4,4.56-1.4,5.07-4.02Zm1.13-9.2l1.61.64c-.53.72-1.04,1.45-1.45,1.95l-1.23-.56c.37-.56.81-1.42,1.07-2.03Zm-3.05-.21h1.75v7.42h-1.75v-7.42Zm-2.65.85l1.37-.57c.43.61.83,1.42.97,1.99l-1.47.64c-.11-.56-.48-1.4-.88-2.06Zm2.7,2.62l1.24.75c-.8,1.26-2.33,2.65-3.67,3.4-.22-.41-.64-1.05-.99-1.4,1.29-.53,2.73-1.66,3.41-2.74Zm1.55.46c.57.27,2.39,1.34,2.84,1.64l-1.02,1.32c-.59-.59-2.01-1.72-2.71-2.22l.89-.75Zm4.31-1.02h5.85v1.77h-5.85v-1.77Zm.18-2.9l1.93.27c-.49,3.3-1.45,6.37-2.92,8.31-.3-.35-1.08-1.04-1.52-1.36,1.34-1.63,2.12-4.37,2.5-7.23Zm2.89,3.99l1.96.18c-.69,5.46-2.33,8.87-6.37,10.9-.19-.46-.75-1.34-1.1-1.75,3.64-1.6,5.03-4.59,5.5-9.32Zm-1.98.34c.64,4.04,2.04,7.48,4.98,8.98-.45.38-1.05,1.15-1.34,1.68-3.21-1.91-4.59-5.62-5.38-10.39l1.74-.27Zm-8.42,7.63l1.02-1.31c1.88.72,3.88,1.83,4.96,2.7l-1.32,1.36c-1.02-.89-2.87-2.01-4.66-2.74Zm17.42-6.48h7.35v1.64h-7.35v-1.64Zm-2.86,3.57h14.28v1.77h-14.28v-1.77Zm6.14-1.02h1.96v4.93c0,.99-.24,1.48-1.01,1.77-.75.26-1.77.29-3.13.29-.13-.54-.48-1.36-.78-1.85,1.02.03,2.22.03,2.54.03s.41-.08.41-.3v-4.87Zm3.45-2.55h.48l.4-.1,1.21.93c-1.1,1.18-2.68,2.42-4.24,3.17-.22-.32-.73-.85-1.02-1.1,1.23-.64,2.58-1.77,3.17-2.55v-.35Zm-9.4-2.92h13.91v3.91h-1.9v-2.22h-10.21v2.22h-1.8v-3.91Zm11.06-2.42l2.07.61c-.73,1.05-1.56,2.14-2.22,2.84l-1.56-.57c.61-.78,1.32-1.98,1.71-2.87Zm-9.99.78l1.63-.73c.57.62,1.21,1.48,1.47,2.11l-1.74.8c-.22-.59-.81-1.5-1.36-2.17Zm4.02-.35l1.69-.64c.51.7,1.05,1.68,1.26,2.31l-1.82.7c-.16-.64-.65-1.64-1.13-2.38Z"/>
        <path class="cls-9" d="m41.55,265.28c0,3.94-.96,6.35-4.82,8.06l-1.71-1.61c3.09-1.07,4.43-2.46,4.43-6.38v-4.24c0-.64-.03-1.16-.1-1.47h2.28c-.03.32-.1.83-.1,1.47v4.18Zm-5.77-5.52c-.03.3-.1.81-.1,1.45v5.7c0,.72.05,1.37.08,1.67h-2.23c.03-.3.08-.96.08-1.67v-5.71c0-.45-.03-.94-.1-1.44h2.27Zm-5.25,2.87c.29.05.94.16,1.72.16h10.46c.85,0,1.32-.05,1.77-.11v2.12c-.35-.05-.93-.05-1.75-.05h-10.48c-.8,0-1.36.03-1.72.05v-2.17Zm16.03,3.49c2.86-.73,5.18-1.77,6.97-2.87,1.63-1.01,3.45-2.6,4.48-3.86l1.72,1.63c-1.45,1.47-3.4,2.97-5.28,4.1-1.8,1.07-4.39,2.27-6.91,3.02l-.99-2.01Zm6.64-1.83l2.27-.54v7.19c0,.7.03,1.69.14,2.09h-2.54c.06-.38.13-1.39.13-2.09v-6.65Zm10.37-3.11c.41.06,1.08.11,1.52.11h8.69c.48,0,1.04-.05,1.48-.11v2.2c-.46-.05-1.02-.08-1.48-.08h-8.69c-.43,0-1.1.03-1.52.08v-2.2Zm4.61,9.83v-8.6h2.22v8.6h-2.22Zm-5.63-1.31c.51.08,1.08.13,1.56.13h10.53c.56,0,1.07-.08,1.48-.13v2.3c-.45-.05-1.12-.06-1.48-.06h-10.53c-.46,0-1.04.02-1.56.06v-2.3Zm18.62-9.51c1.1.75,3.17,2.41,4.12,3.38l-1.63,1.66c-.83-.89-2.84-2.63-4-3.43l1.52-1.61Zm-2.01,10.62c2.5-.35,4.56-1.16,6.11-2.07,2.73-1.63,4.8-4.05,5.82-6.21l1.23,2.23c-1.2,2.17-3.32,4.37-5.89,5.92-1.63.97-3.69,1.85-5.92,2.23l-1.36-2.11Zm27.1-9.3c-.13.18-.41.65-.56.99-.65,1.52-1.83,3.69-3.21,5.28-1.79,2.06-4.2,4.04-6.67,5.2l-1.66-1.72c2.58-.96,5.04-2.9,6.54-4.56,1.05-1.2,2.03-2.78,2.39-3.91h-5.42c-.65,0-1.53.08-1.88.11v-2.28c.43.06,1.42.11,1.88.11h5.63c.7,0,1.32-.08,1.66-.19l1.29.97Zm-3.56,4.95c1.64,1.34,3.91,3.72,4.95,4.99l-1.82,1.58c-1.18-1.64-2.92-3.54-4.63-5.09l1.5-1.48Z"/>
        <path class="cls-9" d="m32.83,408.98c.51.06,1.16.11,1.71.11h6.41c.53,0,1.16-.05,1.71-.11v2.06c-.54-.03-1.16-.06-1.71-.06h-6.41c-.54,0-1.23.03-1.71.06v-2.06Zm-1.87,4.07c.48.06,1.04.1,1.53.1h10.45c.34,0,1.04-.02,1.47-.1v2.07c-.41-.02-1.02-.03-1.47-.03h-10.45c-.46,0-1.08.02-1.53.05v-2.09Zm8.17,1.12c0,2.09-.37,3.68-1.05,5.01-.54,1.12-1.79,2.35-3.19,3.08l-1.88-1.36c1.13-.45,2.27-1.36,2.89-2.3.8-1.21,1.02-2.71,1.02-4.42l2.22-.02Zm20.79-2.87c-.18.3-.4.73-.53,1.13-.43,1.44-1.34,3.56-2.79,5.33-1.52,1.85-3.43,3.32-6.43,4.5l-1.88-1.68c3.25-.99,5.03-2.38,6.43-3.96,1.08-1.24,2.01-3.16,2.27-4.34h-5.38l.73-1.82h4.55c.49,0,1.04-.06,1.39-.19l1.64,1.02Zm-5.2-2.54c-.38.56-.8,1.29-.97,1.63-1.08,1.93-2.98,4.18-5.28,5.74l-1.79-1.32c2.79-1.71,4.2-3.76,4.98-5.14.24-.38.57-1.12.72-1.67l2.35.77Zm19.15.78c-.27.56-.51,1.26-.69,1.77-.67,1.83-1.71,4.24-3,5.85-1.37,1.71-3.59,3.65-6.06,4.64l-1.8-1.87c2.49-.86,4.63-2.44,6.06-4.16,1.53-1.85,2.57-4.59,3.02-6.89l2.47.65Zm4.67.35c.64.02,1.24.03,1.68.03h8.79c.4,0,.99,0,1.58-.02-.03.48-.03,1.05-.03,1.55v7.82c0,.62.02,2.15.03,2.22h-2.22c0-.06.05-1.31.05-2.19v-7.34h-7.72v7.34c0,.77.02,2.11.02,2.19h-2.19c0-.08.03-1.48.03-2.25v-7.78c0-.46,0-1.1-.02-1.56Zm10.66,8.69v2.03h-9.59v-2.03h9.59Zm14.92-9.62c.45.67,1.1,1.72,1.45,2.46l-1.37.61c-.48-1.01-.83-1.69-1.42-2.52l1.34-.54Zm2.2-.78c.49.64,1.12,1.69,1.5,2.39l-1.37.61c-.51-1.01-.89-1.63-1.48-2.42l1.36-.57Zm-9.12.46c1.05.57,2.81,1.71,3.64,2.28l-1.2,1.77c-.88-.62-2.55-1.71-3.61-2.3l1.16-1.75Zm-2.95,11.33c1.77-.3,3.69-.83,5.42-1.79,2.71-1.52,4.93-3.7,6.21-5.98l1.23,2.17c-1.48,2.2-3.73,4.23-6.35,5.73-1.61.93-3.91,1.72-5.31,1.98l-1.2-2.11Zm.49-7.69c1.07.57,2.82,1.68,3.64,2.25l-1.16,1.79c-.91-.62-2.55-1.71-3.64-2.27l1.16-1.77Zm15.15,1.53c.59.05,1.74.11,2.57.11h8.57c.75,0,1.45-.08,1.88-.11v2.52c-.38-.02-1.2-.1-1.87-.1h-8.58c-.89,0-1.96.05-2.57.1v-2.52Z"/>
        <g class="cls-18">
          <g>
            <g>
              <rect class="cls-13" x="153.69" y="134.94" width="132.05" height="105.46" rx="14.18" ry="14.18"/>
              <g class="cls-25">
                <path class="cls-7" d="m278.73,69.57c13.52-1.01,30.22-7.72,39.64,2.04,9.75,10.1.7,27.06,1.95,41.05.87,9.77,5.23,18.64,4.23,28.4-1.23,11.97-2.84,24.39-10.59,33.59-9,10.68-21.33,19.22-35.22,20.77-14.67,1.64-30.57-2.22-41.43-12.22-10.42-9.59-10.67-25.23-14.16-38.96-3.22-12.67-9.11-25.35-5.37-37.87,3.78-12.65,14.1-22.31,25.41-29.13,10.64-6.42,23.16-6.73,35.55-7.66Z"/>
              </g>
              <path class="cls-15" d="m177.73,215.43h3.05v1.25h-3.64l.58-1.25Zm-.26-2.39l1.35.22c-.34,2.31-.96,4.55-2,5.99-.17-.3-.63-.91-.91-1.18.86-1.18,1.3-3.06,1.55-5.04Zm-3.6-.01h1.07v3.98h-1.07v-3.98Zm-1.48,1.05h.96v2.23h2.17v-2.23h.99v3.44h-4.12v-3.44Zm-.12,4.34h4.28v1.24h-4.28v-1.24Zm2.03,3.67c.66-.16,1.58-.45,2.52-.74l.19,1.08c-.79.32-1.61.65-2.35.93l-.36-1.27Zm.43-3.04h1.22v3.09l-1.22.31v-3.4Zm3.25-2.54c.36,3.05,1.13,5.79,2.99,6.96-.3.26-.74.81-.94,1.18-1.96-1.49-2.68-4.48-3.06-8l1.02-.14Zm1.09-.31l1.27.1c-.37,3.96-1.29,6.7-3.75,8.39-.12-.27-.52-.86-.77-1.12,2.22-1.39,2.98-3.9,3.25-7.37Zm-6.17,3h1.19v.87c0,1.12-.15,3-1.41,4.27-.17-.29-.56-.74-.83-.96.97-1.04,1.05-2.43,1.05-3.35v-.83Zm-1.87-6.18l1.34.51c-.68,1.08-1.71,2.25-2.66,3.01-.17-.31-.52-.87-.74-1.14.77-.61,1.64-1.6,2.06-2.38Zm.2,2.62l1.29.46c-.71,1.51-1.82,3.18-2.85,4.22-.14-.31-.55-1.03-.78-1.35.87-.83,1.79-2.08,2.35-3.33Zm-.84,2.72l1.34-1.35h0v7.68h-1.34v-6.33Zm12.98-4.17h1.45v10.48h-1.45v-10.48Zm-1.68,2.23h4.36v1.39h-4.36v-1.39Zm1.8.66l.87.38c-.47,1.77-1.34,3.98-2.28,5.21-.14-.43-.47-1.05-.69-1.43.86-.99,1.72-2.79,2.11-4.17Zm1.8-3.92l.99,1.15c-1.24.46-2.92.76-4.33.91-.05-.31-.25-.82-.41-1.14,1.34-.19,2.83-.52,3.75-.92Zm-.6,4.95c.31.26,1.39,1.38,1.63,1.66l-.86,1.17c-.29-.6-1.03-1.72-1.41-2.25l.65-.58Zm4.09-5.07h1.48v3.97h-1.48v-3.97Zm-2.43.57h6.5v.91h-6.5v-.91Zm.22,1.33h5.99v.86h-5.99v-.86Zm-.61,1.28h7.13v.93h-7.13v-.93Zm2.11,3.64v.53h3.02v-.53h-3.02Zm0,1.38v.53h3.02v-.53h-3.02Zm0-2.74v.51h3.02v-.51h-3.02Zm-1.34-.92h5.76v5.11h-5.76v-5.11Zm3.2,5.68l.99-.72c.81.48,1.8,1.08,2.36,1.48l-1.29.69c-.47-.37-1.33-.99-2.06-1.45Zm-1.81-.78l1.15.77c-.76.58-2,1.19-3,1.51-.22-.27-.63-.68-.92-.93.99-.29,2.17-.87,2.77-1.35Zm7.84-4.88h6.71v1.45h-6.71v-1.45Zm6.23,0h1.56s-.01.46-.02.65c-.14,3.77-.29,5.25-.72,5.76-.31.42-.66.53-1.13.61-.43.06-1.15.05-1.89.02-.02-.43-.22-1.08-.5-1.5.69.06,1.34.07,1.65.07.22,0,.36-.04.5-.17.3-.32.43-1.71.55-5.16v-.27Zm-4.83-4.39l1.61.47c-.93,2.16-2.44,4.16-4.01,5.38-.29-.32-.93-.92-1.29-1.2,1.56-1.03,2.94-2.77,3.69-4.65Zm4.73-.02c.78,1.58,2.35,3.39,3.71,4.43-.41.32-.98.93-1.27,1.35-1.4-1.29-2.93-3.3-3.91-5.2l1.46-.58Zm-3.91,4.84h1.61c-.24,2.79-.77,5.38-4.47,6.76-.19-.41-.62-1.04-.97-1.36,3.33-1.09,3.62-3.19,3.82-5.4Zm15.62.3v1.49h-4.11v-1.49h4.11Zm12.47-.61h-1.93c-.04-.25-.11-.47-.22-.67-.11-.2-.25-.36-.42-.5-.17-.14-.37-.24-.59-.32-.22-.07-.46-.11-.72-.11-.47,0-.87.12-1.22.35-.35.23-.62.56-.81,1-.19.44-.29.97-.29,1.6s.1,1.18.29,1.62c.19.44.46.77.81.99.35.22.75.33,1.2.33.26,0,.49-.03.71-.1.22-.07.42-.17.59-.3.17-.13.31-.29.42-.48.11-.19.19-.4.24-.64h1.93c-.05.42-.18.82-.37,1.21-.2.38-.46.72-.8,1.03-.33.3-.73.54-1.19.71-.46.17-.98.26-1.56.26-.8,0-1.52-.18-2.16-.55-.63-.36-1.13-.89-1.5-1.58-.36-.69-.55-1.53-.55-2.51s.19-1.82.55-2.51c.37-.69.87-1.22,1.51-1.58.63-.36,1.35-.55,2.14-.55.52,0,1.01.07,1.45.22.45.15.85.36,1.19.64.35.28.63.62.85,1.03.22.41.36.87.42,1.39Zm3.26,5.99c-.43,0-.82-.07-1.15-.22-.34-.15-.6-.38-.8-.67-.19-.3-.29-.67-.29-1.12,0-.38.07-.69.21-.95.14-.26.33-.46.56-.62.24-.16.51-.27.81-.35.31-.08.63-.14.96-.17.39-.04.71-.08.95-.12.24-.04.42-.09.52-.17.11-.07.16-.18.16-.33v-.03c0-.28-.09-.5-.26-.65-.17-.15-.42-.23-.74-.23-.34,0-.61.08-.81.23-.2.15-.33.33-.4.55l-1.74-.14c.09-.41.26-.77.52-1.07.26-.3.59-.53,1-.7.41-.16.89-.25,1.43-.25.38,0,.74.04,1.08.13.35.09.65.23.92.41.27.19.48.42.64.71.16.29.23.63.23,1.04v4.57h-1.78v-.94h-.05c-.11.21-.25.4-.44.56-.18.16-.4.28-.66.37-.26.09-.55.13-.89.13Zm.54-1.29c.28,0,.52-.05.73-.16.21-.11.38-.26.5-.45.12-.19.18-.4.18-.64v-.72c-.06.04-.14.07-.24.11-.1.03-.21.06-.34.08-.13.02-.25.05-.38.07-.13.02-.24.03-.34.05-.22.03-.41.08-.58.15-.16.07-.29.17-.38.29-.09.12-.14.26-.14.44,0,.26.09.45.28.59.19.13.43.2.71.2Zm6.61-7.86v9.02h-1.88v-9.02h1.88Zm4.56,9.16c-.69,0-1.29-.15-1.79-.44-.5-.3-.88-.71-1.15-1.23-.26-.53-.4-1.13-.4-1.82s.13-1.3.4-1.82c.27-.53.65-.94,1.15-1.23.5-.3,1.09-.44,1.77-.44.59,0,1.11.11,1.55.32.44.21.79.52,1.05.9.26.39.4.84.43,1.37h-1.77c-.05-.34-.18-.61-.4-.82-.21-.21-.49-.31-.83-.31-.29,0-.55.08-.76.24-.21.16-.38.38-.5.68-.12.3-.18.66-.18,1.09s.06.8.18,1.1c.12.3.29.53.51.69.22.16.47.24.76.24.21,0,.41-.04.58-.13.17-.09.32-.22.43-.38.11-.17.19-.37.22-.61h1.77c-.03.52-.17.97-.42,1.37-.25.39-.6.7-1.04.92-.44.22-.96.33-1.56.33Zm8.56-3.01v-3.89h1.88v6.77h-1.8v-1.23h-.07c-.15.4-.41.72-.76.96-.35.24-.78.36-1.29.36-.45,0-.85-.1-1.19-.31s-.61-.5-.81-.88c-.19-.38-.29-.83-.29-1.36v-4.31h1.88v3.97c0,.4.11.72.32.95.21.23.49.35.85.35.23,0,.44-.05.63-.15.2-.11.36-.26.48-.47.12-.21.18-.46.18-.76Zm5.26-6.14v9.02h-1.88v-9.02h1.88Zm5.84,6.14v-3.89h1.88v6.77h-1.8v-1.23h-.07c-.15.4-.41.72-.76.96-.35.24-.78.36-1.29.36-.45,0-.85-.1-1.19-.31s-.61-.5-.81-.88c-.19-.38-.29-.83-.29-1.36v-4.31h1.88v3.97c0,.4.11.72.32.95.21.23.5.35.85.35.23,0,.44-.05.63-.15.2-.11.36-.26.48-.47.12-.21.18-.46.18-.76Zm9.01-1.96l-1.72.11c-.03-.15-.09-.28-.19-.4-.1-.12-.22-.22-.38-.29-.16-.07-.34-.11-.56-.11-.29,0-.54.06-.74.18-.2.12-.3.28-.3.48,0,.16.06.3.19.41.13.11.35.2.66.27l1.23.25c.66.14,1.15.35,1.47.65.32.3.48.69.48,1.18,0,.44-.13.83-.39,1.17-.26.34-.61.6-1.07.78-.45.19-.97.28-1.56.28-.9,0-1.61-.19-2.14-.56-.53-.38-.84-.89-.93-1.53l1.85-.1c.06.27.19.48.41.63.21.14.49.21.82.21s.59-.06.79-.19c.2-.13.31-.3.31-.5,0-.17-.07-.31-.22-.42-.14-.11-.36-.2-.65-.26l-1.17-.23c-.66-.13-1.15-.36-1.48-.69-.32-.33-.48-.74-.48-1.25,0-.44.12-.81.35-1.12.24-.31.57-.56,1-.73.43-.17.94-.26,1.52-.26.85,0,1.53.18,2.02.54.49.36.78.85.86,1.48Z"/>
              <path class="cls-15" d="m264.47,161.53c-.35,0-.69.1-.98.3-.29.19-.52.47-.65.8-.13.32-.17.68-.1,1.02.07.34.24.66.49.91.25.25.56.42.91.49.34.07.7.03,1.02-.1.32-.13.6-.36.8-.65.19-.29.3-.63.3-.98,0-.47-.19-.92-.52-1.25s-.78-.52-1.25-.52Z"/>
              <path class="cls-15" d="m265.46,157.69c-.29.19-.63.3-.98.3-.47,0-.92-.19-1.25-.52s-.52-.78-.52-1.25c0-.35.1-.69.3-.98.19-.29.47-.52.8-.65.32-.13.68-.17,1.02-.1.34.07.66.24.91.49.25.25.42.56.49.91.07.34.03.7-.1,1.02-.13.32-.36.6-.65.8Z"/>
            </g>
            <path class="cls-15" d="m192.85,160.03c-.85-.64-2.08-.06-2.13,1.01l-.07,1.53h2.03c.23,0,.46.09.63.26.17.17.26.39.26.63s-.09.46-.26.63-.39.26-.63.26h-2.11l-.35,7.84c-.12,2.6-3.18,3.91-5.14,2.2l-.08-.07c-.09-.08-.16-.17-.21-.27-.05-.1-.08-.22-.09-.33,0-.12,0-.23.05-.34.04-.11.1-.21.17-.3.08-.09.17-.16.27-.21.1-.05.22-.08.33-.09.12,0,.23,0,.34.04.11.04.21.1.3.17l.08.07c.84.73,2.15.17,2.2-.94l.35-7.76h-1.44c-.23,0-.46-.09-.63-.26-.17-.17-.26-.39-.26-.63s.09-.46.26-.63c.17-.17.39-.26.63-.26h1.52l.07-1.61c.11-2.49,2.97-3.84,4.96-2.34l.19.14c.09.07.17.16.23.26.06.1.1.21.12.33.02.12,0,.23-.02.34-.03.11-.08.22-.15.31-.07.09-.16.17-.26.23-.1.06-.21.1-.33.12-.12.02-.23,0-.34-.02-.11-.03-.22-.08-.31-.15l-.19-.14Zm.79,7.89c.05-.03.11-.05.17-.05.06,0,.12,0,.18.02.06.02.11.05.16.09s.08.09.11.14l.72,1.53-2.92,2.92c-.16.17-.25.39-.25.62,0,.23.1.45.26.62.16.16.39.26.62.26.23,0,.46-.09.62-.25l2.47-2.47.69,1.47c.14.31.36.57.62.79.26.21.57.36.9.43.33.07.67.07,1,0s.63-.23.9-.45l.45-.37c.09-.07.17-.16.23-.27.06-.1.09-.22.1-.33.01-.12,0-.24-.03-.35-.03-.11-.09-.22-.16-.31-.08-.09-.17-.17-.27-.22-.1-.05-.22-.09-.34-.1-.12,0-.23,0-.35.04-.11.04-.22.09-.3.17l-.45.37c-.05.04-.11.07-.18.09-.07.02-.13.02-.2,0-.07-.02-.13-.04-.18-.09-.05-.04-.1-.1-.12-.16l-.96-2.05,2.4-2.4c.08-.08.15-.18.2-.29.05-.11.07-.22.07-.34,0-.12-.02-.23-.07-.34-.05-.11-.11-.21-.19-.29-.08-.08-.18-.15-.29-.19-.11-.04-.23-.07-.34-.07-.12,0-.23.02-.34.07-.11.05-.21.11-.29.2l-1.95,1.95-.45-.95c-.13-.27-.31-.52-.54-.72s-.49-.35-.78-.44c-.29-.09-.59-.13-.89-.1-.3.03-.59.12-.86.26l-.53.29c-.2.12-.35.31-.41.53-.06.22-.04.46.08.67.11.2.3.35.52.42.22.07.46.04.67-.07l.53-.29Z"/>
            <path class="cls-15" d="m180.02,175.14c-.28,1.56-.84,2.7-1.82,3.41-.98.71-2.24.85-3.79.57-.56-.14-1.68-.28-2.1-.57l.7-2.13c.42.14,1.26.43,1.68.43,1.54.28,2.38-.43,2.67-2.13l3.37-19.31c.28-1.7.98-2.84,1.96-3.69.98-.71,2.38-.99,3.93-.71.56.14,1.68.28,2.53.71l-.7,1.99c-.28-.14-1.26-.28-1.68-.43-1.82-.28-2.81.57-3.23,2.7l-3.51,19.17Z"/>
            <g>
              <rect class="cls-13" x="9.23" y="134.94" width="132.05" height="105.46" rx="14.18" ry="14.18"/>
              <g class="cls-24">
                <path class="cls-7" d="m134.27,69.57c13.52-1.01,30.22-7.72,39.64,2.04,9.75,10.1.7,27.06,1.95,41.05.87,9.77,5.23,18.64,4.23,28.4-1.23,11.97-2.84,24.39-10.59,33.59-9,10.68-21.33,19.22-35.22,20.77-14.67,1.64-30.57-2.22-41.43-12.22-10.42-9.59-10.67-25.23-14.16-38.96-3.22-12.67-9.11-25.35-5.37-37.87,3.78-12.65,14.1-22.31,25.41-29.13,10.64-6.42,23.16-6.73,35.55-7.66Z"/>
              </g>
              <path class="cls-15" d="m26.87,213.04h1.45c-.09,5.42,1.25,10.26,3.52,10.26.42,0,.58-.31.69-1.53.31.31.78.6,1.14.72-.29,1.79-.74,2.18-1.9,2.18-3.59,0-4.89-5.68-4.91-11.64Zm3.14,5.53l.87-.67c.5.31,1.1.78,1.39,1.13l-.92.73c-.27-.35-.86-.86-1.34-1.19Zm-5.19,3.04l.97-.81c.58.41,1.41,1.04,1.84,1.44l-1.03.92c-.37-.42-1.18-1.08-1.77-1.55Zm-2.51-6.38l.67-.88c.68.48,1.55,1.2,1.95,1.69l-.71.99c-.38-.52-1.23-1.28-1.91-1.8Zm2.97,1.24l.98-.36c.35.69.73,1.61.87,2.2l-1.04.42c-.12-.6-.47-1.54-.81-2.26Zm-3.08,2.61h11.32v1.23h-11.32v-1.23Zm.11-1.75c1.04-.02,2.57-.1,4.11-.17v1.04c-1.38.12-2.77.24-3.86.34l-.25-1.2Zm1.77-4.28l1.15.53c-.51.69-1.01,1.5-1.41,2l-.79-.42c.36-.57.82-1.48,1.05-2.11Zm1.39,1.08l1.13.55c-.83,1.09-1.89,2.39-2.72,3.2l-.81-.46c.81-.86,1.82-2.26,2.39-3.29Zm3,1.02l.62-.92c.66.42,1.51,1.07,1.9,1.5l-.65,1.04c-.37-.46-1.22-1.15-1.87-1.63Zm3.03.99l1.05-.37c.43.71.86,1.65.99,2.26l-1.12.43c-.12-.62-.52-1.59-.93-2.32Zm-2.82.93c1.02-.05,2.49-.14,3.97-.24v.99c-1.32.15-2.66.29-3.72.4l-.25-1.15Zm1.43-4.04l1.15.5c-.47.68-.98,1.45-1.39,1.94l-.84-.42c.37-.55.84-1.4,1.08-2.01Zm1.45,1.02l1.1.53c-.82,1.07-1.85,2.35-2.68,3.13l-.78-.45c.79-.84,1.79-2.21,2.36-3.21Zm-.32,6.25l1.3.55c-1.25,1.87-3.34,3.1-5.73,3.86-.19-.37-.53-.87-.87-1.2,2.21-.56,4.26-1.64,5.3-3.2Zm-7.17-.43h1.5c-.21,1.86-.69,3.7-2.64,4.84-.19-.35-.58-.83-.91-1.09,1.61-.88,1.9-2.37,2.05-3.75Zm14.33-5.76h7.68v1.43h-7.68v-1.43Zm5.43.52h1.5v8.31c0,.86-.19,1.25-.72,1.5-.53.22-1.38.27-2.53.26-.06-.42-.3-1.09-.51-1.51.82.04,1.68.04,1.94.02.25,0,.32-.06.32-.3v-8.29Zm-5.29,2.25h1.39v5.34h-1.39v-5.34Zm.61,0h3.54v4.52h-3.54v-1.28h2.16v-1.95h-2.16v-1.29Zm-2.03-3.86l1.39.45c-.77,2.1-2.05,4.32-3.39,5.71-.12-.35-.53-1.18-.78-1.54,1.1-1.1,2.16-2.87,2.78-4.62Zm-1.12,3.49l1.48-1.48h0v9.64h-1.48v-8.16Zm13.34.78h5.72v1.28h-5.72v-1.28Zm-2.22,2.78h11.1v1.38h-11.1v-1.38Zm4.78-.79h1.53v3.83c0,.77-.19,1.15-.78,1.38-.58.2-1.38.22-2.43.22-.1-.42-.37-1.05-.61-1.44.79.02,1.72.02,1.97.02s.32-.06.32-.24v-3.78Zm2.68-1.99h.37l.31-.07.94.72c-.86.92-2.08,1.89-3.3,2.47-.17-.25-.57-.66-.79-.86.96-.5,2.01-1.38,2.47-1.99v-.27Zm-7.31-2.27h10.82v3.04h-1.48v-1.72h-7.94v1.72h-1.4v-3.04Zm8.6-1.89l1.61.47c-.57.82-1.22,1.66-1.72,2.21l-1.22-.45c.47-.61,1.03-1.54,1.33-2.23Zm-7.77.61l1.27-.57c.45.48.94,1.15,1.14,1.64l-1.35.62c-.17-.46-.63-1.17-1.05-1.69Zm3.13-.27l1.32-.5c.4.55.82,1.3.98,1.8l-1.41.55c-.12-.5-.51-1.28-.88-1.85Zm15.47,4.86v1.49h-4.12v-1.49h4.12Zm10.49-.85c-.06-.21-.15-.4-.26-.57-.11-.17-.25-.31-.41-.42-.16-.12-.34-.21-.55-.27-.2-.06-.43-.09-.67-.09-.46,0-.87.11-1.22.34-.35.23-.62.56-.81,1-.19.44-.29.97-.29,1.6s.1,1.16.29,1.6c.19.44.46.78.81,1.01.35.23.76.34,1.24.34.43,0,.8-.08,1.11-.23.31-.16.54-.37.7-.66.16-.28.25-.62.25-1l.39.06h-2.33v-1.44h3.78v1.14c0,.79-.17,1.47-.5,2.04-.33.57-.8,1-1.38,1.31-.59.31-1.26.46-2.02.46-.85,0-1.59-.19-2.23-.56-.64-.38-1.14-.91-1.5-1.6-.36-.69-.53-1.52-.53-2.47,0-.73.11-1.38.32-1.96.21-.58.51-1.06.9-1.46.38-.4.83-.7,1.34-.91.51-.21,1.06-.31,1.66-.31.51,0,.99.07,1.43.23.44.15.83.36,1.17.62.34.27.62.59.84.97.22.37.36.78.42,1.22h-1.94Zm6.5,6.24c-.7,0-1.3-.14-1.8-.42-.5-.29-.88-.69-1.15-1.21-.27-.52-.41-1.14-.41-1.85s.14-1.31.41-1.83c.27-.53.65-.94,1.14-1.23.49-.29,1.07-.44,1.74-.44.45,0,.86.07,1.25.22.39.14.73.35,1.01.64.29.28.52.64.68,1.07.16.43.24.93.24,1.51v.52h-5.71v-1.16h3.95c0-.27-.06-.51-.18-.72-.12-.21-.28-.37-.49-.49-.21-.12-.44-.18-.72-.18s-.54.07-.76.2c-.22.13-.39.3-.51.52-.12.22-.19.46-.19.73v1.11c0,.33.06.62.19.87.13.24.3.43.53.56.23.13.5.2.82.2.21,0,.4-.03.57-.09.17-.06.32-.15.44-.26.12-.12.22-.26.28-.43l1.74.11c-.09.42-.27.78-.54,1.09-.27.31-.62.55-1.05.72-.43.17-.92.26-1.48.26Zm7.39,0c-.68,0-1.28-.15-1.78-.44-.5-.29-.88-.7-1.15-1.22-.27-.53-.41-1.14-.41-1.83s.14-1.31.41-1.83c.27-.53.65-.93,1.15-1.22.5-.29,1.09-.44,1.78-.44s1.27.15,1.77.44c.5.29.88.7,1.15,1.22.27.52.41,1.13.41,1.83s-.14,1.3-.41,1.83c-.27.52-.65.93-1.15,1.22-.5.29-1.09.44-1.77.44Zm0-1.45c.31,0,.57-.09.78-.26.21-.18.37-.42.47-.73.11-.31.16-.66.16-1.05s-.05-.74-.16-1.05c-.11-.31-.26-.55-.47-.73-.21-.18-.47-.27-.78-.27s-.58.09-.79.27c-.21.18-.37.42-.48.73-.11.31-.16.66-.16,1.05s.05.74.16,1.05c.11.31.27.55.48.73.21.18.48.26.79.26Zm4.54,1.32v-6.77h1.79v1.19h.08c.14-.4.38-.71.7-.94.33-.23.72-.34,1.18-.34s.86.12,1.19.35c.33.23.54.54.65.93h.07c.14-.39.39-.7.75-.93.36-.23.79-.35,1.29-.35.63,0,1.14.2,1.54.6.4.4.59.97.59,1.7v4.55h-1.87v-4.18c0-.38-.1-.66-.3-.85-.2-.19-.45-.28-.75-.28-.34,0-.61.11-.8.33-.19.21-.29.5-.29.85v4.13h-1.82v-4.22c0-.33-.1-.6-.29-.79-.19-.2-.44-.3-.75-.3-.21,0-.4.05-.56.16-.16.1-.3.25-.39.44-.1.19-.15.4-.15.65v4.06h-1.88Zm14.4.13c-.7,0-1.29-.14-1.8-.42-.5-.29-.88-.69-1.15-1.21-.27-.52-.41-1.14-.41-1.85s.13-1.31.41-1.83c.27-.53.65-.94,1.14-1.23.49-.29,1.07-.44,1.74-.44.45,0,.86.07,1.25.22.39.14.72.35,1.01.64.29.28.52.64.68,1.07.16.43.24.93.24,1.51v.52h-5.71v-1.16h3.95c0-.27-.06-.51-.18-.72-.12-.21-.28-.37-.49-.49-.21-.12-.44-.18-.72-.18s-.54.07-.76.2c-.22.13-.39.3-.51.52-.12.22-.19.46-.19.73v1.11c0,.33.06.62.19.87.13.24.3.43.53.56.23.13.5.2.82.2.21,0,.4-.03.57-.09.17-.06.32-.15.45-.26.12-.12.22-.26.28-.43l1.74.11c-.09.42-.27.78-.54,1.09-.27.31-.62.55-1.05.72-.43.17-.92.26-1.48.26Zm7.93-6.9v1.41h-4.08v-1.41h4.08Zm-3.15-1.62h1.88v6.31c0,.17.03.31.08.41.05.09.13.16.22.2.1.04.21.06.33.06.09,0,.18,0,.26-.02.09-.02.16-.03.2-.04l.3,1.4c-.09.03-.23.06-.4.1-.17.04-.38.07-.62.07-.45.02-.85-.04-1.19-.18-.34-.14-.6-.35-.79-.64-.19-.29-.28-.66-.28-1.1v-6.56Zm4.37,8.39v-6.77h1.82v1.18h.07c.12-.42.33-.74.62-.95.29-.22.63-.33,1-.33.09,0,.2,0,.3.02.11.01.2.03.29.05v1.67c-.09-.03-.21-.05-.37-.07-.16-.02-.3-.03-.43-.03-.28,0-.52.06-.74.18-.21.12-.38.28-.51.49-.12.21-.18.46-.18.73v3.83h-1.88Zm6.44,2.54c-.24,0-.46-.02-.67-.06-.21-.04-.38-.08-.51-.14l.42-1.4c.22.07.42.1.59.11.18,0,.33-.04.46-.12.13-.09.24-.24.32-.45l.11-.29-2.43-6.96h1.97l1.4,4.97h.07l1.41-4.97h1.99l-2.63,7.5c-.13.36-.3.68-.52.95-.21.27-.49.48-.81.63-.33.15-.73.23-1.19.23Z"/>
              <path class="cls-15" d="m120.02,161.53c-.35,0-.69.1-.98.3-.29.19-.52.47-.65.8-.13.32-.17.68-.1,1.02.07.34.24.66.49.91.25.25.56.42.91.49.34.07.7.03,1.02-.1.32-.13.6-.36.8-.65.19-.29.3-.63.3-.98,0-.47-.19-.92-.52-1.25s-.78-.52-1.25-.52Z"/>
              <path class="cls-15" d="m121,157.69c-.29.19-.63.3-.98.3-.47,0-.92-.19-1.25-.52s-.52-.78-.52-1.25c0-.35.1-.69.3-.98.19-.29.47-.52.8-.65.32-.13.68-.17,1.02-.1.34.07.66.24.91.49.25.25.42.56.49.91.07.34.03.7-.1,1.02-.13.32-.36.6-.65.8Z"/>
              <path class="cls-5" d="m33.72,180.14l6.65-20.09m3.32,0l2.46,7.43m1.58,4.77l2.61,7.89m-8.31-26.78c.88,0,1.73.35,2.35.98.62.63.97,1.48.97,2.37s-.35,1.74-.97,2.37c-.62.63-1.47.98-2.35.98s-1.73-.35-2.35-.98c-.62-.63-.97-1.48-.97-2.37s.35-1.74.97-2.37c.62-.63,1.47-.98,2.35-.98Zm0,0v-3.35m-13.29,15.07c2.54,4.95,7.62,8.37,13.29,8.37s10.76-3.43,13.29-8.37"/>
            </g>
            <g>
              <rect class="cls-13" x="298.15" y="134.94" width="132.05" height="105.46" rx="14.18" ry="14.18"/>
              <path class="cls-15" d="m324.32,214.81h1.51v2.05h-1.51v-2.05Zm-.73,2.31l1.55.42c-.41.93-.87,1.95-1.24,2.59l-1.23-.4c.33-.71.73-1.81.92-2.62Zm2.26,1.2l1.14-.6c.71.86,1.54,2.03,1.89,2.83l-1.24.68c-.31-.78-1.08-2.01-1.79-2.92Zm-4.07-2.06h6.84v1.33h-6.84v-1.33Zm.07,3.15c1.43-.07,3.59-.22,5.61-.38v1.28c-1.94.17-4,.33-5.48.45l-.12-1.34Zm3.6,1.69h1.39v3.57c0,.36.02.4.2.4h.42c.19,0,.22-.2.26-1.54.27.24.87.46,1.24.56-.12,1.8-.46,2.3-1.35,2.3h-.83c-1.09,0-1.33-.43-1.33-1.71v-3.57Zm-6.45-6.28l1.29.48c-.51.94-1.08,2.05-1.56,2.74l-.99-.43c.45-.73.98-1.92,1.27-2.79Zm1.43,1.46l1.2.55c-.89,1.43-2.11,3.15-3.05,4.23l-.86-.48c.92-1.13,2.06-2.95,2.7-4.29Zm-3.34,1.48l.71-1.02c.66.57,1.43,1.35,1.75,1.92l-.77,1.15c-.3-.6-1.05-1.46-1.69-2.06Zm2.97,1.49l.98-.41c.48.83.96,1.92,1.1,2.64l-1.05.47c-.14-.72-.56-1.85-1.03-2.7Zm-2.98,1.03c1.14-.04,2.82-.1,4.45-.17v1.18c-1.54.11-3.13.21-4.33.3l-.12-1.3Zm3.25,2.06l1.04-.33c.31.71.63,1.64.77,2.26l-1.09.38c-.12-.62-.45-1.58-.72-2.31Zm-2.72-.24l1.23.21c-.12,1.19-.4,2.43-.76,3.23-.26-.16-.82-.42-1.13-.55.36-.73.56-1.84.66-2.89Zm1.39-1.17h1.3v5.53h-1.3v-5.53Zm4.16.16h1.41c-.1,2.64-.43,4.4-2.69,5.4-.16-.35-.53-.86-.84-1.12,1.89-.78,2.05-2.12,2.12-4.28Zm11.43-2.12h6.72v1.48h-6.72v-1.48Zm2.62-4.12h1.51v11.6h-1.51v-11.6Zm-7.06,3.76h4.01v1.12h-4.01v-1.12Zm.07-3.42h3.96v1.13h-3.96v-1.13Zm-.07,5.11h4.01v1.13h-4.01v-1.13Zm-.61-3.44h5.11v1.18h-5.11v-1.18Zm1.29,5.16h3.29v3.77h-3.29v-1.18h1.99v-1.41h-1.99v-1.18Zm-.72,0h1.29v4.27h-1.29v-4.27Zm19.31-1.94v1.49h-4.11v-1.49h4.11Zm9.4-1.17c-.03-.36-.19-.63-.45-.83-.27-.2-.63-.3-1.09-.3-.31,0-.57.04-.79.13-.21.09-.38.2-.49.36-.11.15-.17.33-.17.52,0,.16.03.3.1.42.08.12.18.23.31.31.13.09.28.16.46.23.17.06.36.11.55.16l.81.19c.39.09.76.21,1.08.35.33.15.61.33.86.54.24.21.43.47.56.76.14.29.2.62.21,1,0,.55-.14,1.03-.42,1.44-.28.4-.68.72-1.2.94-.52.22-1.15.33-1.88.33s-1.36-.11-1.9-.34c-.54-.22-.96-.55-1.26-.99-.3-.44-.46-.99-.47-1.64h1.85c.02.3.11.56.26.76.16.2.36.35.62.45.26.1.56.15.89.15s.6-.05.84-.14c.24-.09.43-.22.56-.39.13-.17.2-.36.2-.58,0-.2-.06-.37-.18-.51-.12-.14-.29-.26-.52-.35-.23-.1-.5-.19-.83-.26l-.98-.25c-.76-.19-1.36-.48-1.8-.87-.44-.39-.66-.92-.66-1.59,0-.55.14-1.02.44-1.43.3-.41.7-.73,1.22-.96.52-.23,1.1-.34,1.76-.34s1.25.11,1.75.34c.5.23.89.55,1.17.96.28.41.42.88.43,1.42h-1.83Zm6.8-.34v1.41h-4.08v-1.41h4.08Zm-3.15-1.62h1.88v6.31c0,.17.03.31.08.41.05.09.13.16.22.2.1.04.21.06.34.06.09,0,.18,0,.26-.02.09-.02.16-.03.2-.04l.3,1.4c-.09.03-.23.06-.4.1-.17.04-.38.07-.62.07-.45.02-.85-.04-1.19-.18-.34-.14-.6-.35-.79-.64-.19-.29-.28-.66-.28-1.1v-6.56Zm6.3,8.52c-.43,0-.82-.07-1.15-.22-.34-.15-.6-.38-.8-.67-.19-.3-.29-.67-.29-1.12,0-.38.07-.69.21-.95.14-.26.33-.46.56-.62.24-.16.51-.27.81-.35.31-.08.63-.14.96-.17.39-.04.71-.08.95-.12.24-.04.42-.09.52-.17.11-.07.16-.18.16-.33v-.03c0-.28-.09-.5-.26-.65-.17-.15-.42-.23-.74-.23-.34,0-.61.08-.81.23-.2.15-.33.33-.4.55l-1.74-.14c.09-.41.26-.77.52-1.07.26-.3.59-.53,1-.7.41-.16.89-.25,1.43-.25.38,0,.74.04,1.08.13.35.09.65.23.92.41.27.19.48.42.64.71.16.29.23.63.23,1.04v4.57h-1.78v-.94h-.05c-.11.21-.25.4-.44.56-.18.16-.4.28-.66.37-.26.09-.55.13-.89.13Zm.54-1.29c.28,0,.52-.05.73-.16.21-.11.38-.26.5-.45.12-.19.18-.4.18-.64v-.72c-.06.04-.14.07-.24.11-.1.03-.21.06-.34.08-.13.02-.25.05-.38.07-.13.02-.24.03-.34.05-.22.03-.41.08-.58.15-.16.07-.29.17-.38.29-.09.12-.14.26-.14.44,0,.26.09.45.28.59.19.13.43.2.71.2Zm8.33-5.6v1.41h-4.07v-1.41h4.07Zm-3.15-1.62h1.88v6.31c0,.17.03.31.08.41.05.09.13.16.22.2.1.04.21.06.33.06.09,0,.18,0,.26-.02.09-.02.16-.03.2-.04l.3,1.4c-.09.03-.23.06-.4.1-.17.04-.38.07-.62.07-.45.02-.85-.04-1.19-.18-.34-.14-.6-.35-.79-.64s-.28-.66-.28-1.1v-6.56Zm4.37,8.39v-6.77h1.88v6.77h-1.88Zm.94-7.64c-.28,0-.52-.09-.72-.28-.2-.19-.3-.41-.3-.67s.1-.48.3-.66c.2-.19.44-.28.72-.28s.52.09.71.28c.2.18.3.41.3.66s-.1.49-.3.67c-.2.19-.43.28-.71.28Zm8.07,2.8l-1.72.11c-.03-.15-.09-.28-.19-.4-.1-.12-.22-.22-.38-.29-.16-.07-.34-.11-.56-.11-.29,0-.54.06-.74.18-.2.12-.3.28-.3.48,0,.16.06.3.19.41.13.11.35.2.67.27l1.22.25c.66.14,1.15.35,1.47.65.32.3.48.69.48,1.18,0,.44-.13.83-.39,1.17-.26.34-.61.6-1.07.78-.45.19-.97.28-1.56.28-.9,0-1.61-.19-2.14-.56-.53-.38-.84-.89-.93-1.53l1.85-.1c.06.27.19.48.41.63.21.14.49.21.82.21s.59-.06.79-.19c.2-.13.31-.3.31-.5,0-.17-.07-.31-.22-.42-.14-.11-.36-.2-.65-.26l-1.17-.23c-.66-.13-1.15-.36-1.48-.69-.32-.33-.48-.74-.48-1.25,0-.44.12-.81.35-1.12.24-.31.57-.56,1-.73.43-.17.94-.26,1.52-.26.85,0,1.53.18,2.02.54.49.36.78.85.86,1.48Zm4.94-1.93v1.41h-4.07v-1.41h4.07Zm-3.15-1.62h1.88v6.31c0,.17.03.31.08.41.05.09.13.16.22.2.1.04.21.06.34.06.09,0,.18,0,.26-.02.09-.02.16-.03.2-.04l.3,1.4c-.09.03-.23.06-.4.1-.17.04-.38.07-.62.07-.45.02-.85-.04-1.19-.18-.34-.14-.6-.35-.79-.64-.19-.29-.28-.66-.28-1.1v-6.56Zm4.37,8.39v-6.77h1.88v6.77h-1.88Zm.94-7.64c-.28,0-.52-.09-.72-.28-.2-.19-.3-.41-.3-.67s.1-.48.3-.66c.2-.19.44-.28.72-.28s.52.09.71.28c.2.18.3.41.3.66s-.1.49-.3.67c-.2.19-.43.28-.71.28Zm5.5,7.77c-.69,0-1.29-.15-1.79-.44-.5-.3-.88-.71-1.15-1.23-.26-.53-.4-1.13-.4-1.82s.13-1.3.4-1.82c.27-.53.65-.94,1.15-1.23.5-.3,1.09-.44,1.77-.44.59,0,1.11.11,1.55.32.44.21.79.52,1.05.9.26.39.4.84.43,1.37h-1.77c-.05-.34-.18-.61-.4-.82-.21-.21-.49-.31-.83-.31-.29,0-.55.08-.76.24-.21.16-.38.38-.5.68-.12.3-.18.66-.18,1.09s.06.8.18,1.1c.12.3.29.53.51.69.22.16.47.24.76.24.21,0,.41-.04.58-.13.17-.09.32-.22.43-.38.11-.17.19-.37.23-.61h1.77c-.03.52-.17.97-.42,1.37-.25.39-.59.7-1.04.92-.44.22-.96.33-1.56.33Zm9.86-4.97l-1.72.11c-.03-.15-.09-.28-.19-.4-.1-.12-.22-.22-.38-.29-.16-.07-.34-.11-.56-.11-.29,0-.54.06-.74.18-.2.12-.3.28-.3.48,0,.16.06.3.19.41.13.11.35.2.67.27l1.22.25c.66.14,1.15.35,1.47.65.32.3.48.69.48,1.18,0,.44-.13.83-.39,1.17-.26.34-.61.6-1.07.78-.45.19-.97.28-1.56.28-.9,0-1.61-.19-2.14-.56-.53-.38-.84-.89-.93-1.53l1.85-.1c.06.27.19.48.41.63.21.14.49.21.82.21s.59-.06.79-.19c.2-.13.31-.3.31-.5,0-.17-.07-.31-.22-.42-.14-.11-.36-.2-.65-.26l-1.17-.23c-.66-.13-1.15-.36-1.48-.69-.32-.33-.48-.74-.48-1.25,0-.44.12-.81.35-1.12.24-.31.57-.56,1-.73.43-.17.94-.26,1.52-.26.85,0,1.53.18,2.02.54.49.36.78.85.86,1.48Z"/>
              <g class="cls-21">
                <g>
                  <path class="cls-3" d="m316.65,149.12v23.04c0,.76.3,1.5.84,2.04.54.54,1.27.84,2.04.84h23.04"/>
                  <path class="cls-3" d="m322.41,164.97l5.76-5.76,5.76,5.76,8.64-8.64"/>
                  <path class="cls-3" d="m338.25,156.33h4.32v4.32"/>
                </g>
              </g>
            </g>
          </g>
        </g>
        <path class="cls-12" d="m31.5,46.74h20.07v1.54h-20.07v-1.54Zm8.16-9.75h3.79v1.17h-3.79v-1.17Zm6.22-2.76h3.57v1.39h-3.57v-1.39Zm.15,4.21h3.24v1.37h-3.24v-1.37Zm-.04,4.12h3.22v1.37h-3.22v-1.37Zm-12.17-4.12h3.26v1.37h-3.26v-1.37Zm.11,4.12h3.13v1.37h-3.13v-1.37Zm3.81-8.33h7.65v13.16h-1.3v-11.86h-5.09v11.86h-1.26v-13.16Zm2.98,6.44v2.95h1.61v-2.95h-1.61Zm-.86-1.08h3.35v5.12h-3.35v-5.12Zm-6.73-5.29l1.87.42c-.02.13-.15.22-.42.26l.37,12.39h-1.43l-.4-13.08Zm15.43-.07h1.48c-.04,4.26-.22,10.08-.46,13.32h-1.43c.24-3.31.44-9.15.42-13.32Zm-11.69-.99l1.17,1.23c-1.21.64-2.71,1.23-3.97,1.68-.09-.33-.31-.84-.49-1.17,1.15-.49,2.49-1.19,3.29-1.74Zm6.66,16.49l1.19-1.1c2.45,1.12,5.14,2.6,6.75,3.66l-1.54,1.15c-1.5-1.06-4.01-2.54-6.39-3.7Zm-5.67-1.12l1.57,1.01c-1.72,1.37-4.41,2.89-6.5,3.79-.31-.33-.88-.86-1.28-1.17,2.16-.9,4.85-2.43,6.22-3.64Zm22.89-6.53h12.77v1.59h-12.77v-1.59Zm.86-5.34h10.98v1.59h-10.98v-1.59Zm4.5-3.51h1.65v20.13h-1.65v-20.13Zm-.35,9.7l1.32.42c-1.39,3.62-3.9,6.99-6.61,8.75-.26-.4-.75-.97-1.15-1.3,2.67-1.5,5.16-4.65,6.44-7.87Zm2.38-.02c1.17,3.06,3.4,6.24,5.64,7.81-.4.31-.95.93-1.23,1.37-2.25-1.87-4.45-5.36-5.69-8.73l1.28-.44Zm-13.16-7.78h4.98v12.83h-4.98v-1.59h3.46v-9.66h-3.46v-1.59Zm-.82,0h1.52v14.57h-1.52v-14.57Zm32.85,1.46c-.29,2.29-.73,4.87-1.41,7.23-1.35,4.52-3.11,6.86-5.14,6.86s-3.95-2.25-3.95-5.91c0-4.78,4.26-8.95,9.66-8.95s8.45,3.64,8.45,8.11-3.04,7.7-8.29,8.38l-1.01-1.63c.71-.07,1.37-.15,1.9-.26,2.82-.64,5.6-2.76,5.6-6.57,0-3.53-2.45-6.44-6.68-6.44-4.85,0-7.87,3.99-7.87,7.23,0,2.78,1.26,4.01,2.25,4.01s2.23-1.5,3.35-5.23c.64-2.09,1.1-4.59,1.32-6.88l1.83.04Zm20.02-2.4c-.09.26-.18.66-.24.97-.37,1.85-.75,5.34-.75,8.36s.62,5.51,1.3,7.59l-1.61.49c-.64-1.96-1.24-5.09-1.24-7.89,0-3.02.44-6.59.64-8.49.04-.4.07-.79.07-1.08l1.83.07Zm-3.55,2.71c3.88,0,7.72-.31,10.76-.99l.02,1.63c-3.18.55-7.52.88-10.8.88-.95,0-2.67-.09-3.57-.13l-.04-1.65c.77.13,2.69.26,3.64.26Zm9.19,2.6c-.13.29-.33.88-.46,1.23-1.3,4.08-3.51,7.14-5.82,8.93-1.41,1.08-3.18,1.9-4.74,1.9-1.46,0-2.6-.88-2.6-2.76,0-3.02,2.8-6.13,6.06-7.39,1.48-.57,3.26-.9,4.7-.9,4.17,0,6.79,2.43,6.79,5.51s-2.09,5.91-7.21,6.73l-.95-1.48c3.97-.44,6.44-2.49,6.44-5.34,0-2.14-1.81-4.01-5.09-4.01-1.85,0-3.48.53-4.61,1.04-2.49,1.1-4.48,3.53-4.48,5.56,0,.9.44,1.35,1.26,1.35,1.1,0,2.54-.62,3.95-1.85,1.96-1.72,3.77-4.1,4.78-7.67.09-.33.2-.93.22-1.28l1.76.44Zm11.27-4.1c.49.04,1.1.07,1.54.07,1.17,0,6.39-.15,7.56-.26.66-.07.97-.11,1.21-.2l1.01,1.3c-.4.26-.84.55-1.26.88-1.08.84-4.08,3.42-5.8,4.83,1.01-.33,2.07-.44,3.06-.44,3.66,0,6.28,2.18,6.28,5.16,0,3.55-2.93,5.87-7.61,5.87-3,0-4.83-1.3-4.83-3.15,0-1.5,1.37-2.87,3.4-2.87,2.93,0,4.41,2.07,4.57,4.3l-1.59.26c-.13-1.87-1.21-3.22-2.98-3.22-1.01,0-1.79.62-1.79,1.39,0,1.08,1.21,1.72,2.95,1.72,3.75,0,6.11-1.54,6.11-4.3,0-2.18-2.07-3.79-4.96-3.79-3.66,0-5.64,1.54-8.42,4.39l-1.28-1.28c1.83-1.5,4.67-3.88,5.93-4.96,1.24-1.01,4.01-3.33,5.12-4.32-1.17.07-5.58.24-6.73.31-.51.04-.99.07-1.48.13l-.04-1.81Zm17.93,11.33h19.8v1.43h-19.8v-1.43Zm.55-11.84h18.74v1.41h-18.74v-1.41Zm12.61,9.88h1.63v6.88c0,.93-.22,1.35-.95,1.59-.73.22-1.94.22-3.84.22-.07-.44-.31-1.01-.53-1.46,1.43.04,2.8.04,3.2.02.37-.02.48-.11.48-.42v-6.84Zm-4.17-11.62h1.65v11.25h-1.65v-11.25Zm-5.62,16.14l1.21-.88c1.3.84,2.82,2.09,3.53,3l-1.3,1.01c-.68-.9-2.18-2.23-3.44-3.13Zm.35-7.3v1.81h12.35v-1.81h-12.35Zm0-2.95v1.79h12.35v-1.79h-12.35Zm-1.54-1.23h15.5v7.23h-15.5v-7.23Zm21.54-.31h6.13v1.26h-6.13v-1.26Zm10.14,0h6.24v1.26h-6.24v-1.26Zm5.53-3.33h1.65v16.98c0,1.12-.26,1.65-1.01,1.92-.77.29-2.07.31-4.08.31-.09-.46-.37-1.23-.62-1.72,1.52.09,3.04.07,3.48.04.44-.02.57-.13.57-.55v-16.98Zm-15.54,0h6.97v8.09h-6.97v-1.39h5.4v-5.31h-5.4v-1.39Zm16.41,0v1.39h-5.78v5.34h5.78v1.39h-7.36v-8.11h7.36Zm-17.33,0h1.63v19.23h-1.63v-19.23Zm24.17,7.3h12.61v1.61h-12.61v-1.61Zm12.06,0h1.72s-.02.57-.04.79c-.31,6.84-.62,9.39-1.41,10.23-.44.55-.93.71-1.7.77-.73.07-2.12.04-3.51-.02-.02-.51-.24-1.19-.55-1.68,1.46.13,2.82.15,3.35.15.44,0,.71-.04.93-.29.59-.6.93-3.11,1.21-9.66v-.31Zm-9.04-7.89l1.74.51c-1.59,3.73-4.19,7.01-6.97,9.13-.31-.35-1.01-.99-1.43-1.3,2.82-1.9,5.27-4.94,6.66-8.33Zm7.7-.04c1.43,2.95,4.28,6.31,6.68,8-.44.35-1.06,1.01-1.39,1.48-2.45-1.98-5.23-5.56-6.88-8.84l1.59-.64Zm-6.06,8.38h1.76c-.51,4.83-1.65,9.39-7.81,11.6-.2-.42-.68-1.08-1.06-1.43,5.78-1.92,6.66-6,7.1-10.16Zm16.25-2.6v2.43h6.7v-2.43h-6.7Zm0-3.7v2.4h6.7v-2.4h-6.7Zm-1.39-1.37h9.53v8.89h-9.53v-8.89Zm-.04,11.36h9.59v1.52h-9.59v-1.52Zm-.71,5.36c2.65-.33,6.81-.88,10.83-1.43l.04,1.48c-3.81.57-7.87,1.17-10.65,1.57l-.22-1.61Zm11-16.69h8.05v1.5h-8.05v-1.5Zm-.24,7.1h8.62v1.57h-8.62v-1.57Zm7.59-7.1h.4l.35-.09,1.08.73c-1.15,1.76-2.93,3.68-4.59,4.87-.22-.29-.68-.73-.95-.95,1.39-1.06,2.95-2.89,3.7-4.26v-.31Zm-6.46,3.86l1.04-1.01c1.96.99,4.21,2.62,5.34,3.77l-1.06,1.15c-1.15-1.21-3.37-2.87-5.31-3.9Zm6.99,3.24h.26l.26-.07,1.12.29c-.55,1.83-1.21,3.95-1.87,5.25l-1.35-.37c.55-1.19,1.17-3.2,1.57-4.81v-.29Zm-4.56.77h1.63v9.26c0,.93-.18,1.43-.88,1.72-.68.26-1.81.26-3.46.26-.07-.46-.31-1.15-.55-1.63,1.32.04,2.45.04,2.82.02.35,0,.44-.11.44-.42v-9.22Zm-9.53-7.39h1.43v7.76h.09v8.16h-1.59v-8.16h.07v-7.76Zm26.57-.53c-.2.86-.44,2.07-1.01,3.55-.55,1.35-1.37,2.82-2.25,3.97.86-.51,2.12-.82,3.09-.82,1.7,0,3.02,1.01,3.02,2.8,0,1.15.04,3.68.07,5.05h-1.7c.09-1.17.11-3.44.09-4.59-.02-1.28-.9-1.87-2.05-1.87-1.41,0-2.8.71-3.81,1.61-.64.62-1.26,1.41-1.99,2.32l-1.52-1.12c3.17-3.04,4.65-5.6,5.4-7.47.49-1.21.79-2.54.86-3.57l1.81.15Zm-7.56,2.38c1.19.15,2.71.22,3.73.22,2.98,0,6.79-.18,9.9-.73v1.63c-3.09.46-7.19.66-9.99.66-.95,0-2.4-.04-3.64-.13v-1.65Zm16.85,5.31c-.55.18-1.34.49-1.94.71-1.57.62-3.66,1.46-5.8,2.56-2.18,1.15-3.73,2.34-3.73,3.86,0,1.72,1.7,1.98,3.97,1.98,1.72,0,4.1-.2,6.04-.55l-.07,1.79c-1.68.2-4.12.37-6.04.37-3.13,0-5.67-.68-5.67-3.35s2.73-4.34,5.36-5.69c2.1-1.08,3.88-1.76,5.34-2.45.66-.31,1.21-.55,1.83-.86l.71,1.63Zm7.89-.09v7.81h-1.57v-6.26h-2.71v-1.54h4.28Zm0,7.14c1.04,1.65,3,2.4,5.62,2.51,2.49.11,7.67.04,10.39-.13-.2.35-.46,1.1-.53,1.57-2.51.11-7.32.15-9.83.07-2.93-.11-4.94-.9-6.33-2.65-.95.95-1.94,1.9-3,2.89l-.86-1.57c.95-.73,2.12-1.72,3.13-2.69h1.41Zm-4.17-14.49l1.28-.84c1.3,1.06,2.78,2.58,3.4,3.68l-1.39.95c-.57-1.1-2.01-2.69-3.29-3.79Zm5.8,7.96h13.38v1.28h-13.38v-1.28Zm-.71,3.4h14.77v1.3h-14.77v-1.3Zm3.97-4.98h1.59v5.62h-1.59v-5.62Zm5.2,0h1.57v5.62h-1.57v-5.62Zm-7.92-4.28h3.88v-1.43h-4.72v-1.15h6.17v3.75h-5.34v-1.17Zm-.46,0h1.41v2.29c0,.42.11.51.82.51h2.4c.53,0,.64-.13.71-1.1.26.22.82.4,1.21.46-.15,1.43-.57,1.81-1.7,1.81h-2.78c-1.63,0-2.07-.33-2.07-1.65v-2.32Zm7.74,0h3.81v-1.43h-4.7v-1.15h6.13v3.75h-5.25v-1.17Zm-.49,0h1.41v2.29c0,.42.13.51.88.51h2.6c.55,0,.66-.13.73-1.17.29.2.84.37,1.23.46-.15,1.5-.57,1.87-1.76,1.87h-2.95c-1.68,0-2.14-.33-2.14-1.68v-2.29Zm.73,11.55l1.19-.73c1.61.77,3.42,1.85,4.48,2.67l-1.63.73c-.88-.82-2.51-1.87-4.04-2.67Zm-4.04-.77l1.46.51c-1.12,1.08-2.91,2.16-4.39,2.87-.24-.29-.86-.82-1.21-1.04,1.5-.6,3.15-1.43,4.14-2.34Zm23.17-12.08c-.2.26-.46.66-.71,1.08-.99,1.52-3.02,5.18-4.14,7.32,1.06-.95,2.2-1.37,3.26-1.37,1.48,0,2.54.95,2.6,2.69.04,1.3,0,2.98.09,4.06.07,1.1.82,1.59,1.76,1.59,2.47,0,3.92-3.04,4.48-5.4l1.48,1.19c-1.17,3.55-3.02,6.02-6.22,6.02-2.36,0-3.13-1.48-3.2-2.78-.07-1.3-.04-3-.11-4.21-.04-.95-.62-1.54-1.61-1.54-1.76,0-3.44,1.81-4.28,3.55-.68,1.3-1.61,3.92-1.92,5.01l-1.9-.66c1.61-4.45,6.44-13.49,7.65-15.61.24-.53.53-1.06.79-1.72l1.96.79Zm10.61,1.85c.84-.02,1.54-.07,1.98-.11,1.41-.15,5.58-.55,9.64-.9,2.43-.2,4.48-.33,5.95-.37l.02,1.76c-1.28-.02-3.2.02-4.32.33-3.15,1.01-5.07,4.39-5.07,6.99,0,4.3,4.04,5.69,7.61,5.82l-.64,1.81c-4.08-.15-8.71-2.32-8.71-7.25,0-3.42,2.1-6.24,4.1-7.43-2.36.24-7.98.79-10.36,1.3l-.2-1.94Zm14.4,3.06c.51.73,1.35,2.09,1.83,3.09l-1.15.51c-.51-1.06-1.12-2.18-1.79-3.11l1.1-.49Zm2.4-.93c.55.73,1.41,2.07,1.92,3.04l-1.12.55c-.53-1.06-1.19-2.16-1.87-3.09l1.08-.51ZM46.03,61.97c-.49.35-1.17.95-1.52,1.26-1.52,1.32-4.7,3.81-6.33,5.18-1.32,1.15-1.34,1.48.09,2.67,2.01,1.65,5.91,4.78,8.25,7.14l-1.57,1.43c-.46-.53-.99-1.06-1.52-1.61-1.57-1.59-4.9-4.45-6.97-6.15-2.07-1.74-1.83-2.69.15-4.37,1.68-1.39,5.03-4.04,6.5-5.53.44-.44,1.01-1.08,1.26-1.48l1.65,1.46Zm15.61-.77c-.13.48-.31,1.32-.4,1.74-.31,1.59-.77,4.1-1.39,6.28-.79,3.13-2.27,7.7-3.44,10.1l-1.94-.64c1.34-2.27,2.89-6.77,3.7-9.88.55-2.03,1.12-4.78,1.28-5.95.09-.62.13-1.37.09-1.83l2.09.18Zm-4.87,3.68c2.43,0,5.67-.37,8.4-1.08v1.74c-2.73.62-6.06.97-8.45.97-.97,0-1.74-.02-2.56-.09l-.04-1.7c1.04.13,1.83.16,2.65.16Zm6.97,3.04c1.15-.11,2.6-.2,4.04-.2,1.28,0,2.62.04,3.81.18l-.04,1.68c-1.15-.13-2.43-.24-3.73-.24-1.39,0-2.73.07-4.08.22v-1.63Zm.44,5.36c-.18.71-.31,1.41-.31,1.98,0,1.04.6,2.05,3.73,2.05,1.43,0,2.95-.18,4.32-.44l-.07,1.79c-1.19.15-2.67.31-4.28.31-3.46,0-5.36-1.08-5.36-3.26,0-.84.13-1.65.33-2.6l1.63.18Zm5.01-11.4c.57.77,1.37,2.14,1.83,3.02l-1.19.53c-.44-.88-1.21-2.23-1.81-3.07l1.17-.48Zm2.45-.9c.6.82,1.43,2.18,1.85,3.02l-1.19.53c-.46-.97-1.21-2.2-1.83-3.04l1.17-.51Zm14.51,1.63c-.13-.48-.33-1.15-.55-1.74l1.9-.22c.2,1.28.77,3.17,1.28,4.61.68,1.9,1.81,3.95,2.76,5.23.29.44.62.82.95,1.17l-.88,1.26c-1.06-.26-3.75-.51-5.34-.62l.13-1.46c1.23.11,2.87.24,3.66.33-.93-1.41-2.14-3.59-2.87-5.6-.49-1.26-.79-2.27-1.04-2.95Zm-8.07,1.72c3.68.42,7.17.44,9.68.18,1.74-.2,3.92-.6,5.64-1.19l.2,1.74c-1.57.44-3.66.79-5.27.99-2.8.33-6.31.35-10.21.02l-.04-1.74Zm3.42,7.01c-.66,1.08-1.06,2.03-1.06,3.07,0,2.12,1.92,3.02,5.2,3.06,2.23,0,4.15-.22,5.67-.55l-.07,1.76c-1.39.24-3.24.49-5.71.46-4.19-.02-6.84-1.52-6.84-4.52,0-1.24.44-2.38,1.08-3.68l1.72.4Zm20.09-8.49c-.11.51-.18,1.57-.2,2.14-.02,1.37,0,3.4.15,5.2.37,3.68,1.43,6.13,3.02,6.13,1.12,0,2.16-2.27,2.73-4.48l1.39,1.57c-1.35,3.73-2.67,5.01-4.17,5.01-2.09,0-4.08-2.07-4.7-7.78-.2-1.9-.24-4.59-.24-5.87,0-.51,0-1.46-.13-1.96l2.14.04Zm11.47.59c1.98,2.56,3.57,7.25,3.9,10.98l-1.79.71c-.37-3.97-1.72-8.51-3.81-11.09l1.7-.6Z"/>
      </g>
    </g>
  </g>
</svg>