<?xml version="1.0" encoding="UTF-8"?>
<svg id="Layer_1" data-name="Layer 1" xmlns="http://www.w3.org/2000/svg" xmlns:xlink="http://www.w3.org/1999/xlink" viewBox="0 0 149 119">
  <defs>
    <style>
      .cls-1 {
        clip-path: url(#clippath);
      }

      .cls-2 {
        fill: none;
      }

      .cls-2, .cls-3, .cls-4, .cls-5 {
        stroke-width: 0px;
      }

      .cls-6 {
        mask: url(#mask);
      }

      .cls-7 {
        letter-spacing: -.01em;
      }

      .cls-8 {
        font-family: HiraKakuStdN-W8-83pv-RKSJ-H, 'Hiragino Kaku Gothic StdN';
        font-size: 16px;
      }

      .cls-8, .cls-5 {
        fill: #fff;
      }

      .cls-9 {
        letter-spacing: 0em;
      }

      .cls-10 {
        letter-spacing: 0em;
      }

      .cls-3 {
        fill: #fdc279;
        fill-rule: evenodd;
      }

      .cls-4 {
        fill: #f3754b;
      }
    </style>
    <mask id="mask" x="0" y="-86" width="196" height="205" maskUnits="userSpaceOnUse">
      <g id="mask0_291_2311" data-name="mask0 291 2311">
        <rect class="cls-4" width="149" height="119" rx="16" ry="16"/>
      </g>
    </mask>
    <clipPath id="clippath">
      <rect class="cls-2" x="22.54" y="14.35" width="31.31" height="31.31"/>
    </clipPath>
  </defs>
  <g>
    <rect class="cls-4" width="149" height="119" rx="16" ry="16"/>
    <g class="cls-6">
      <path class="cls-3" d="m144.14-82.4c15.26-1.14,34.1-8.71,44.73,2.3,11,11.4.79,30.53,2.19,46.32.98,11.03,5.9,21.03,4.77,32.04-1.39,13.51-3.2,27.52-11.95,37.9-10.16,12.05-24.07,21.69-39.74,23.44-16.55,1.85-34.49-2.51-46.75-13.79-11.76-10.83-12.04-28.47-15.98-43.96-3.63-14.29-10.28-28.6-6.06-42.73,4.27-14.28,15.91-25.17,28.67-32.87,12-7.25,26.13-7.6,40.12-8.64Z"/>
    </g>
    <path class="cls-5" d="m125,30c-.4,0-.78.12-1.11.34-.33.22-.58.53-.74.9-.15.37-.19.77-.11,1.16.08.39.27.74.55,1.02.28.28.64.47,1.02.55.39.08.79.04,1.15-.11.37-.15.68-.41.9-.74s.34-.72.34-1.11c0-.53-.21-1.04-.59-1.41-.38-.38-.88-.59-1.41-.59Z"/>
    <path class="cls-5" d="m126.11,25.66c-.33.22-.71.34-1.11.34-.53,0-1.04-.21-1.41-.59-.38-.38-.59-.88-.59-1.41,0-.4.12-.78.34-1.11.22-.33.53-.59.9-.74.36-.15.77-.19,1.15-.11.39.08.75.27,1.02.55.28.28.47.64.55,1.02.08.39.04.79-.11,1.16-.15.37-.41.68-.74.9Z"/>
    <g class="cls-1">
      <path class="cls-5" d="m52.45,20.42h-15.19l-5.96,20.99c-.18.56-.69.95-1.28.97-.02,0-.03,0-.05,0-.57,0-1.08-.35-1.29-.88l-2.44-6.09h-2.31c-.77,0-1.39-.62-1.39-1.39s.62-1.39,1.39-1.39h3.25c.57,0,1.08.35,1.29.88l1.35,3.38,5.09-18.27c.19-.58.72-.97,1.33-.97h16.2c.77,0,1.39.62,1.39,1.39s-.62,1.39-1.39,1.39Zm.75,18.73l-5.49-6.17,5.24-5.81c.09-.1.11-.25.06-.38-.06-.13-.18-.21-.32-.21h-3.31c-.1,0-.2.04-.26.12l-3.51,4.08-3.49-4.07c-.07-.08-.16-.12-.26-.12h-3.46c-.14,0-.26.08-.32.21-.06.13-.03.27.06.37l5.18,5.81-5.45,6.17c-.09.1-.11.25-.06.37.06.13.18.2.32.2h3.43c.1,0,.2-.05.27-.13l3.64-4.37,3.72,4.37c.07.08.16.12.27.12h3.51c.14,0,.26-.08.32-.21.06-.13.03-.27-.06-.38Z"/>
    </g>
  </g>
  <text class="cls-8" transform="translate(26.74 89.78)"><tspan x="0" y="0">専</tspan><tspan class="cls-9" x="16" y="0">門</tspan><tspan x="31.94" y="0">用語</tspan><tspan class="cls-10" x="63.94" y="0">学</tspan><tspan class="cls-7" x="79.81" y="0">習</tspan></text>
</svg>