<?xml version="1.0" encoding="UTF-8"?>
<svg id="Layer_2" data-name="Layer 2" xmlns="http://www.w3.org/2000/svg" xmlns:xlink="http://www.w3.org/1999/xlink" viewBox="0 0 149 119">
  <defs>
    <style>
      .cls-1 {
        letter-spacing: -.02em;
      }

      .cls-2 {
        letter-spacing: 0em;
      }

      .cls-3 {
        letter-spacing: -.07em;
      }

      .cls-4 {
        mask: url(#mask);
      }

      .cls-5 {
        font-family: HiraKakuStdN-W8-83pv-RKSJ-H, 'Hiragino Kaku Gothic StdN';
        font-size: 16px;
      }

      .cls-5, .cls-6 {
        fill: #fff;
      }

      .cls-7 {
        letter-spacing: 0em;
      }

      .cls-8 {
        fill: #44b2e5;
        fill-rule: evenodd;
      }

      .cls-8, .cls-9, .cls-10, .cls-6 {
        stroke-width: 0px;
      }

      .cls-9 {
        fill: #16335a;
      }

      .cls-10 {
        fill: #f3754b;
      }

      .cls-11 {
        letter-spacing: -.05em;
      }
    </style>
    <mask id="mask" x=".28" y="-86" width="196" height="205" maskUnits="userSpaceOnUse">
      <g id="mask0_291_2311" data-name="mask0 291 2311">
        <rect class="cls-10" x=".28" width="149" height="119" rx="16" ry="16"/>
      </g>
    </mask>
  </defs>
  <g>
    <rect class="cls-9" x=".28" width="149" height="119" rx="16" ry="16"/>
    <g class="cls-4">
      <path class="cls-8" d="m144.42-82.4c15.26-1.14,34.1-8.71,44.73,2.3,11,11.4.79,30.53,2.19,46.32.98,11.03,5.9,21.03,4.77,32.04-1.39,13.51-3.2,27.52-11.95,37.9-10.16,12.05-24.07,21.69-39.74,23.44-16.55,1.85-34.49-2.51-46.75-13.79-11.76-10.83-12.04-28.47-15.98-43.96-3.63-14.29-10.28-28.6-6.06-42.73,4.27-14.28,15.91-25.17,28.67-32.87,12-7.25,26.13-7.6,40.12-8.64Z"/>
    </g>
    <path class="cls-6" d="m125.28,30c-.4,0-.78.12-1.11.34-.33.22-.58.53-.74.9-.15.37-.19.77-.11,1.16.08.39.27.74.55,1.02.28.28.64.47,1.02.55.39.08.79.04,1.15-.11.37-.15.68-.41.9-.74s.34-.72.34-1.11c0-.53-.21-1.04-.59-1.41-.38-.38-.88-.59-1.41-.59Z"/>
    <path class="cls-6" d="m126.39,25.66c-.33.22-.71.34-1.11.34-.53,0-1.04-.21-1.41-.59-.38-.38-.59-.88-.59-1.41,0-.4.12-.78.34-1.11.22-.33.53-.59.9-.74.36-.15.77-.19,1.15-.11.39.08.75.27,1.02.55.28.28.47.64.55,1.02.08.39.04.79-.11,1.16-.15.37-.41.68-.74.9Z"/>
    <path class="cls-6" d="m37.03,30.36c.43,0,.85.17,1.16.48.31.31.48.72.48,1.16s-.17.85-.48,1.16c-.31.31-.72.48-1.16.48s-.85-.17-1.16-.48c-.31-.31-.48-.72-.48-1.16s.17-.85.48-1.16c.31-.31.72-.48,1.16-.48Zm-12.74-11.11c2.34-2.34,7.42-1.29,12.74,2.19,5.32-3.49,10.4-4.54,12.74-2.19,2.34,2.34,1.29,7.42-2.19,12.74,3.49,5.32,4.54,10.4,2.19,12.74-2.34,2.34-7.42,1.29-12.74-2.19-5.32,3.49-10.4,4.54-12.74,2.19-2.34-2.34-1.29-7.42,2.19-12.74-3.49-5.32-4.54-10.4-2.19-12.74Zm18.54,6.95c1,1.02,1.92,2.05,2.77,3.08,2.26-3.49,3.08-6.49,1.85-7.7-1.21-1.23-4.21-.41-7.7,1.85,1.03.85,2.06,1.77,3.08,2.77Zm-11.6,11.6c-1-1.02-1.92-2.05-2.77-3.08-2.26,3.49-3.08,6.49-1.85,7.7,1.21,1.23,4.21.41,7.7-1.85-1.03-.85-2.06-1.77-3.08-2.77Zm-4.62-16.22c-1.23,1.21-.41,4.21,1.85,7.7.85-1.03,1.77-2.06,2.77-3.08,1.02-1,2.05-1.92,3.08-2.77-3.49-2.26-6.49-3.08-7.7-1.85Zm6.95,13.89c1.15,1.15,2.33,2.19,3.47,3.13,1.15-.93,2.33-1.98,3.47-3.13,1.15-1.15,2.19-2.33,3.13-3.47-.93-1.15-1.98-2.33-3.13-3.47-1.15-1.15-2.33-2.19-3.47-3.13-1.15.93-2.33,1.98-3.47,3.13-1.15,1.15-2.19,2.33-3.13,3.47.93,1.15,1.98,2.33,3.13,3.47Zm13.89,6.95c1.23-1.21.41-4.21-1.85-7.7-.85,1.03-1.77,2.06-2.77,3.08-1.02,1-2.05,1.92-3.08,2.77,3.49,2.26,6.49,3.08,7.7,1.85Z"/>
  </g>
  <text class="cls-5" transform="translate(22.02 89.78)"><tspan x="0" y="0">通勤</tspan><tspan class="cls-7" x="32" y="0">学</tspan><tspan class="cls-1" x="47.87" y="0">習</tspan><tspan class="cls-2" x="63.55" y="0">モ</tspan><tspan class="cls-3" x="79.46" y="0">ー</tspan><tspan class="cls-11" x="94.35" y="0">ド</tspan></text>
  <path class="cls-6" d="m125.07,30c-.4,0-.78.12-1.11.34-.33.22-.58.53-.74.9-.15.37-.19.77-.11,1.16.08.39.27.74.55,1.02.28.28.64.47,1.02.55.39.08.79.04,1.15-.11.37-.15.68-.41.9-.74s.34-.72.34-1.11c0-.53-.21-1.04-.59-1.41-.38-.38-.88-.59-1.41-.59Z"/>
  <path class="cls-6" d="m126.18,25.66c-.33.22-.71.34-1.11.34-.53,0-1.04-.21-1.41-.59-.38-.38-.59-.88-.59-1.41,0-.4.12-.78.34-1.11.22-.33.53-.59.9-.74.36-.15.77-.19,1.15-.11.39.08.75.27,1.02.55.28.28.47.64.55,1.02.08.39.04.79-.11,1.16-.15.37-.41.68-.74.9Z"/>
</svg>