<?xml version="1.0" encoding="UTF-8"?>
<svg xmlns="http://www.w3.org/2000/svg" viewBox="0 0 352.64 457.65">
  <defs>
    <style>
      .cls-1 {
        isolation: isolate;
        opacity: .5;
        stroke: #333;
      }

      .cls-1, .cls-2 {
        fill: none;
      }

      .cls-1, .cls-3 {
        stroke-linecap: round;
      }

      .cls-4 {
        fill: #23c3b4;
        stroke-width: 1.72px;
      }

      .cls-4, .cls-3 {
        stroke: #f2f2f7;
      }

      .cls-5 {
        fill: #d7d7d7;
      }

      .cls-5, .cls-6 {
        stroke-width: .65px;
      }

      .cls-5, .cls-6, .cls-7, .cls-8, .cls-9, .cls-10, .cls-11 {
        stroke: #e7eff1;
      }

      .cls-6 {
        fill: #8e8e93;
      }

      .cls-12 {
        fill: #5334c0;
        stroke: #54e7db;
        stroke-width: 1.29px;
      }

      .cls-7 {
        fill: #f2f2f2;
      }

      .cls-7, .cls-8, .cls-9 {
        stroke-width: .32px;
      }

      .cls-8 {
        fill: #fcfcfc;
      }

      .cls-9 {
        fill: #959595;
      }

      .cls-13, .cls-14 {
        fill: #333;
      }

      .cls-13, .cls-14, .cls-15 {
        stroke-width: 0px;
      }

      .cls-13, .cls-3 {
        fill-rule: evenodd;
      }

      .cls-2, .cls-16 {
        stroke: #fff;
      }

      .cls-10 {
        fill: #a9a8a8;
        stroke-width: 1.03px;
      }

      .cls-15 {
        fill: #fff;
      }

      .cls-3 {
        fill: #f2f2f7;
        stroke-linejoin: round;
        stroke-width: .86px;
      }

      .cls-16 {
        fill: #b3b3b3;
      }

      .cls-16, .cls-11 {
        stroke-width: .97px;
      }

      .cls-11 {
        fill: #c7c7cc;
      }
    </style>
  </defs>
  <g id="Layer_2" data-name="Layer 2">
    <rect class="cls-15" width="352.64" height="457.65"/>
  </g>
  <g id="Layer_3" data-name="Layer 3">
    <g>
      <line class="cls-2" x1="182.9" y1="300.28" x2="165.8" y2="225.71"/>
      <line class="cls-2" x1="177.51" y1="282.64" x2="113.21" y2="209.44"/>
      <line class="cls-2" x1="177.83" y1="282.75" x2="90.27" y2="300.53"/>
      <line class="cls-2" x1="177.99" y1="282.67" x2="74.01" y2="373.65"/>
      <line class="cls-2" x1="211.83" y1="297.78" x2="81.86" y2="242.37"/>
      <line class="cls-2" x1="177.43" y1="282.46" x2="159.64" y2="139.49"/>
      <line class="cls-2" x1="177.47" y1="282.23" x2="228.09" y2="199.46"/>
      <line class="cls-2" x1="177.54" y1="282.16" x2="289.04" y2="184.34"/>
      <line class="cls-2" x1="177.7" y1="282.08" x2="261.16" y2="267.03"/>
      <line class="cls-2" x1="178.05" y1="282.22" x2="217.04" y2="341.05"/>
      <line class="cls-2" x1="178.08" y1="282.27" x2="219.12" y2="371.88"/>
      <line class="cls-2" x1="178.1" y1="282.33" x2="215.72" y2="429.4"/>
      <line class="cls-2" x1="177.89" y1="282.1" x2="292.13" y2="327.93"/>
      <circle class="cls-8" cx="81.76" cy="242.5" r="11.97"/>
      <path class="cls-15" d="m73.28,242.42v-1.44h.5c.11,0,.21.02.28.06.07.04.13.09.16.15.04.06.06.14.06.22,0,.08-.02.15-.05.22-.03.06-.09.12-.16.15-.07.04-.17.06-.28.06h-.29v.58h-.22Zm.22-.76h.28c.1,0,.18-.02.22-.07.05-.05.07-.11.07-.18s-.02-.14-.07-.19c-.04-.05-.12-.07-.22-.07h-.28v.5Zm.99.76v-1.02h.2l.02.19c.04-.07.09-.12.15-.16.06-.04.14-.06.23-.06v.23h-.06c-.06,0-.11.01-.16.03-.05.02-.08.05-.11.1-.03.05-.04.11-.04.2v.49h-.22Zm1.23.02c-.1,0-.19-.02-.26-.07-.08-.05-.14-.11-.18-.19-.05-.08-.07-.18-.07-.28s.02-.2.07-.28c.05-.08.11-.14.19-.19.08-.05.17-.07.26-.07s.18.02.26.07c.08.04.14.11.19.19.05.08.07.17.07.28s-.02.2-.07.28c-.05.08-.11.14-.19.19-.08.04-.17.07-.26.07Zm0-.19c.05,0,.1-.01.14-.04.05-.03.08-.06.11-.11.03-.05.04-.12.04-.19s-.01-.14-.04-.19c-.03-.05-.06-.09-.11-.12-.04-.03-.09-.04-.14-.04s-.1.01-.15.04c-.04.03-.08.06-.11.12-.03.05-.04.11-.04.19s.01.14.04.19c.03.05.06.09.11.11.04.03.09.04.14.04Zm1.12-.15c-.05,0-.1,0-.15-.02l-.09.09s.03.02.06.02c.02,0,.05.01.09.02.04,0,.09.01.16.02.14.01.23.05.29.1.06.05.09.12.09.21,0,.06-.02.12-.05.17-.03.05-.08.1-.15.13-.07.03-.15.05-.26.05-.14,0-.26-.03-.35-.08-.09-.05-.13-.14-.13-.25,0-.04.01-.08.03-.13.02-.04.06-.08.11-.12-.03-.01-.05-.03-.08-.04-.02-.02-.04-.03-.06-.05v-.05l.18-.18c-.08-.07-.12-.16-.12-.27,0-.07.02-.13.05-.18.03-.06.08-.1.14-.13.06-.03.14-.05.22-.05.06,0,.11,0,.16.02h.38v.14h-.18c.03.07.05.13.05.2s-.02.13-.05.19c-.03.05-.08.1-.14.13-.06.03-.13.05-.22.05Zm0-.17c.06,0,.11-.02.15-.05.04-.03.06-.08.06-.14s-.02-.11-.06-.14c-.04-.03-.09-.05-.15-.05s-.12.02-.16.05c-.04.03-.06.08-.06.14s.02.11.06.14c.04.03.09.05.16.05Zm-.27.61c0,.06.03.1.08.13.05.03.12.05.2.05s.14-.02.18-.05c.05-.03.07-.07.07-.13,0-.04-.02-.07-.05-.1-.03-.03-.09-.05-.18-.05-.07,0-.12-.01-.18-.02-.05.03-.08.05-.1.08-.02.03-.03.06-.03.09Zm1.01-.13v-1.02h.2l.02.19c.04-.07.09-.12.15-.16.06-.04.14-.06.23-.06v.23h-.06c-.06,0-.11.01-.16.03-.05.02-.08.05-.11.1-.03.05-.04.11-.04.2v.49h-.22Zm1.13.02c-.09,0-.16-.01-.21-.04-.06-.03-.1-.07-.13-.11-.03-.05-.04-.1-.04-.16,0-.1.04-.18.12-.23.08-.06.19-.09.33-.09h.27v-.02c0-.08-.02-.14-.07-.18-.04-.04-.1-.06-.17-.06-.06,0-.11.02-.16.05-.04.03-.07.07-.08.13h-.22c0-.07.03-.14.07-.19.04-.05.1-.09.16-.12.07-.03.14-.04.22-.04.14,0,.25.04.33.11.08.07.12.18.12.31v.63h-.19l-.02-.18c-.03.06-.07.1-.13.14-.05.04-.13.06-.22.06Zm.04-.18c.06,0,.11-.01.15-.04.04-.03.07-.07.09-.11.02-.05.04-.1.04-.15h-.24c-.09,0-.15.02-.19.05-.04.03-.05.07-.05.11s.02.08.05.11c.04.03.08.04.14.04Zm.76.15v-1.02h.19l.02.14c.03-.05.08-.09.13-.12.05-.03.12-.05.19-.05.16,0,.27.06.34.19.04-.06.09-.11.15-.14.06-.03.13-.05.2-.05.13,0,.23.04.3.11.07.08.11.19.11.34v.59h-.22v-.57c0-.2-.08-.3-.23-.3-.08,0-.14.03-.19.09-.05.06-.07.14-.07.25v.53h-.22v-.57c0-.2-.08-.3-.23-.3-.08,0-.14.03-.19.09-.05.06-.07.14-.07.25v.53h-.22Zm2.01-1.22s-.08-.01-.1-.04c-.03-.03-.04-.06-.04-.1s.01-.07.04-.1c.03-.03.06-.04.1-.04s.07.01.1.04c.03.03.04.06.04.1s-.01.07-.04.1c-.03.02-.06.04-.1.04Zm-.11,1.22v-1.02h.22v1.02h-.22Zm.51,0v-1.02h.19l.02.18c.03-.06.08-.11.14-.15.06-.04.13-.06.21-.06.12,0,.22.04.29.11.07.08.11.19.11.34v.59h-.22v-.57c0-.2-.08-.3-.24-.3-.08,0-.15.03-.2.09-.05.06-.08.14-.08.25v.53h-.22Zm1.63-.31c-.05,0-.1,0-.15-.02l-.09.09s.03.02.06.02c.02,0,.05.01.09.02.04,0,.09.01.16.02.14.01.23.05.29.1.06.05.09.12.09.21,0,.06-.02.12-.05.17-.03.05-.08.1-.15.13-.07.03-.15.05-.26.05-.14,0-.26-.03-.35-.08-.09-.05-.13-.14-.13-.25,0-.04.01-.08.03-.13.02-.04.06-.08.11-.12-.03-.01-.05-.03-.08-.04-.02-.02-.04-.03-.06-.05v-.05l.18-.18c-.08-.07-.12-.16-.12-.27,0-.07.02-.13.05-.18.03-.06.08-.1.14-.13.06-.03.14-.05.22-.05.06,0,.11,0,.16.02h.38v.14h-.18c.03.07.05.13.05.2s-.02.13-.05.19c-.03.05-.08.1-.14.13-.06.03-.13.05-.22.05Zm0-.17c.06,0,.11-.02.15-.05.04-.03.06-.08.06-.14s-.02-.11-.06-.14c-.04-.03-.09-.05-.15-.05s-.12.02-.16.05c-.04.03-.06.08-.06.14s.02.11.06.14c.04.03.09.05.16.05Zm-.27.61c0,.06.03.1.08.13.05.03.12.05.2.05s.14-.02.18-.05c.05-.03.07-.07.07-.13,0-.04-.02-.07-.05-.1-.03-.03-.09-.05-.18-.05-.07,0-.12-.01-.18-.02-.05.03-.08.05-.1.08-.02.03-.03.06-.03.09Z"/>
      <circle class="cls-7" cx="261.1" cy="267.33" r="11.97"/>
      <path class="cls-15" d="m252.61,267.25v-1.44h.5c.11,0,.21.02.28.06.07.04.13.09.16.15.04.06.06.14.06.22,0,.08-.02.15-.05.22-.03.06-.09.12-.16.15-.07.04-.17.06-.28.06h-.29v.58h-.22Zm.22-.76h.28c.1,0,.18-.02.22-.07s.07-.11.07-.18-.02-.14-.07-.19c-.04-.05-.12-.07-.22-.07h-.28v.5Zm.99.76v-1.02h.2l.02.19c.04-.07.09-.12.15-.16.06-.04.14-.06.23-.06v.23h-.06c-.06,0-.11.01-.16.03-.05.02-.08.05-.11.1-.03.05-.04.11-.04.2v.49h-.22Zm1.23.03c-.1,0-.19-.02-.26-.07-.08-.05-.14-.11-.18-.19-.05-.08-.07-.18-.07-.28s.02-.2.07-.28c.05-.08.11-.14.19-.19.08-.05.17-.07.26-.07s.18.02.26.07c.08.04.14.11.19.19.05.08.07.17.07.28s-.02.2-.07.28c-.05.08-.11.14-.19.19-.08.04-.17.07-.26.07Zm0-.19c.05,0,.1-.01.14-.04.05-.03.08-.06.11-.11.03-.05.04-.12.04-.19s-.01-.14-.04-.19c-.03-.05-.06-.09-.11-.12-.04-.03-.09-.04-.14-.04s-.1.01-.15.04c-.04.03-.08.06-.11.12-.03.05-.04.11-.04.19s.01.14.04.19c.03.05.06.09.11.11.04.03.09.04.14.04Zm1.12-.15c-.05,0-.1,0-.15-.02l-.09.09s.03.02.06.02c.02,0,.05.01.09.02.04,0,.09.01.16.02.14.01.23.05.29.1.06.05.09.12.09.21,0,.06-.02.12-.05.17-.03.05-.08.1-.15.13-.07.03-.15.05-.26.05-.14,0-.26-.03-.35-.08-.09-.05-.13-.14-.13-.25,0-.04.01-.08.03-.13.02-.04.06-.08.11-.12-.03-.01-.05-.03-.08-.04-.02-.02-.04-.03-.06-.05v-.05l.18-.18c-.08-.07-.12-.16-.12-.27,0-.07.02-.13.05-.18.03-.06.08-.1.14-.13.06-.03.14-.05.22-.05.06,0,.11,0,.16.02h.38v.14h-.18c.03.07.05.13.05.2s-.02.13-.05.19c-.03.05-.08.1-.14.13-.06.03-.13.05-.22.05Zm0-.17c.06,0,.11-.02.15-.05.04-.03.06-.08.06-.14s-.02-.11-.06-.14c-.04-.03-.09-.05-.15-.05s-.12.02-.16.05c-.04.03-.06.08-.06.14s.02.11.06.14c.04.03.09.05.16.05Zm-.27.61c0,.06.03.1.08.13.05.03.12.05.2.05s.14-.02.18-.05c.05-.03.07-.07.07-.13,0-.04-.02-.07-.05-.1-.03-.03-.09-.05-.18-.05-.07,0-.12-.01-.18-.02-.05.03-.08.05-.1.08-.02.03-.03.06-.03.09Zm1.01-.13v-1.02h.2l.02.19c.04-.07.09-.12.15-.16.06-.04.14-.06.23-.06v.23h-.06c-.06,0-.11.01-.16.03-.05.02-.08.05-.11.1-.03.05-.04.11-.04.2v.49h-.22Zm1.13.03c-.09,0-.16-.01-.21-.04-.06-.03-.1-.07-.13-.11-.03-.05-.04-.1-.04-.16,0-.1.04-.18.12-.23.08-.06.19-.09.33-.09h.27v-.02c0-.08-.02-.14-.07-.18-.04-.04-.1-.06-.17-.06-.06,0-.11.02-.16.05-.04.03-.07.07-.08.13h-.22c0-.07.03-.14.07-.19.04-.05.1-.09.16-.12.07-.03.14-.04.22-.04.14,0,.25.04.33.11.08.07.12.18.12.31v.63h-.19l-.02-.18c-.03.06-.07.1-.13.14-.05.04-.13.06-.22.06Zm.04-.18c.06,0,.11-.01.15-.04.04-.03.07-.07.1-.11.02-.05.04-.1.04-.15h-.24c-.09,0-.15.02-.19.05-.04.03-.05.07-.05.11s.02.08.05.11c.04.03.08.04.14.04Zm.76.15v-1.02h.19l.02.14c.03-.05.08-.09.13-.12.05-.03.12-.05.19-.05.16,0,.27.06.34.19.04-.06.09-.11.15-.14.06-.03.13-.05.2-.05.13,0,.23.04.3.11.07.08.11.19.11.34v.59h-.22v-.56c0-.2-.08-.3-.23-.3-.08,0-.14.03-.19.09-.05.06-.07.14-.07.25v.53h-.22v-.56c0-.2-.08-.3-.23-.3-.08,0-.14.03-.19.09-.05.06-.07.14-.07.25v.53h-.22Zm2.01-1.21s-.08-.01-.1-.04c-.03-.03-.04-.06-.04-.1s.01-.07.04-.1c.03-.03.06-.04.1-.04s.07.01.1.04c.03.03.04.06.04.1s-.01.07-.04.1c-.03.03-.06.04-.1.04Zm-.11,1.21v-1.02h.22v1.02h-.22Zm.51,0v-1.02h.19l.02.18c.03-.06.08-.11.14-.15.06-.04.13-.06.21-.06.12,0,.22.04.29.11.07.08.11.19.11.34v.59h-.22v-.56c0-.2-.08-.3-.24-.3-.08,0-.15.03-.2.09-.05.06-.08.14-.08.25v.53h-.22Zm1.63-.31c-.05,0-.1,0-.15-.02l-.09.09s.03.02.06.02c.02,0,.05.01.09.02.04,0,.09.01.16.02.14.01.23.05.29.1.06.05.09.12.09.21,0,.06-.02.12-.05.17-.03.05-.08.1-.15.13-.07.03-.15.05-.26.05-.14,0-.26-.03-.35-.08-.09-.05-.13-.14-.13-.25,0-.04.01-.08.03-.13.02-.04.06-.08.11-.12-.03-.01-.05-.03-.08-.04-.02-.02-.04-.03-.06-.05v-.05l.18-.18c-.08-.07-.12-.16-.12-.27,0-.07.02-.13.05-.18.03-.06.08-.1.14-.13.06-.03.14-.05.22-.05.06,0,.11,0,.16.02h.38v.14h-.18c.03.07.05.13.05.2s-.02.13-.05.19c-.03.05-.08.1-.14.13-.06.03-.13.05-.22.05Zm0-.17c.06,0,.11-.02.15-.05.04-.03.06-.08.06-.14s-.02-.11-.06-.14c-.04-.03-.09-.05-.15-.05s-.12.02-.16.05c-.04.03-.06.08-.06.14s.02.11.06.14c.04.03.09.05.16.05Zm-.27.61c0,.06.03.1.08.13.05.03.12.05.2.05s.14-.02.18-.05c.05-.03.07-.07.07-.13,0-.04-.02-.07-.05-.1-.03-.03-.09-.05-.18-.05-.07,0-.12-.01-.18-.02-.05.03-.08.05-.1.08-.02.03-.03.06-.03.09Z"/>
      <circle class="cls-9" cx="219.14" cy="210.92" r="20.74" transform="translate(-24.16 393.44) rotate(-80.78)"/>
      <path class="cls-15" d="m214.18,214.12c-.47,0-.88-.11-1.25-.32-.36-.21-.65-.5-.86-.87-.2-.38-.31-.81-.31-1.3s.1-.92.31-1.29c.21-.38.5-.67.86-.88.37-.21.79-.32,1.25-.32.59,0,1.08.15,1.47.46.4.31.66.72.78,1.24h-1.06c-.06-.26-.2-.47-.42-.61-.22-.15-.47-.22-.77-.22-.25,0-.48.06-.69.19-.21.12-.38.3-.51.55-.13.24-.19.53-.19.88s.06.65.19.89c.13.24.3.42.51.55.21.13.44.19.69.19.29,0,.55-.07.77-.22.22-.15.36-.35.42-.62h1.06c-.11.51-.36.92-.77,1.24-.4.31-.9.47-1.48.47Zm5.57,0c-.47,0-.88-.1-1.24-.31-.36-.21-.64-.5-.84-.87-.2-.37-.31-.8-.31-1.29s.1-.94.3-1.31c.2-.38.49-.67.84-.88.36-.21.79-.32,1.26-.32s.87.11,1.22.32c.34.2.61.48.8.82s.29.72.29,1.14c0,.06,0,.13,0,.21,0,.07,0,.15,0,.24h-3.7c.03.46.18.81.45,1.05.27.24.59.35.95.35.29,0,.53-.06.72-.19.2-.13.34-.31.44-.54h1.02c-.13.45-.38.82-.77,1.12-.38.3-.85.45-1.41.45Zm0-4.15c-.34,0-.64.1-.9.31-.26.2-.42.5-.48.9h2.68c-.02-.37-.15-.66-.39-.88-.24-.22-.55-.33-.91-.33Zm3.37,4.03v-6.9h1.02v6.9h-1.02Zm2.3,0v-6.9h1.02v6.9h-1.02Z"/>
      <circle class="cls-8" cx="218.65" cy="372.05" r="11.97" transform="translate(-167.96 563.77) rotate(-85.93)"/>
      <path class="cls-15" d="m210.16,371.96v-1.44h.5c.11,0,.21.02.28.06.07.04.13.09.16.15.04.06.06.14.06.22s-.02.15-.05.22c-.03.06-.09.12-.16.15-.07.04-.17.06-.28.06h-.29v.58h-.22Zm.22-.76h.28c.1,0,.18-.02.22-.07.05-.05.07-.11.07-.18s-.02-.14-.07-.19c-.04-.05-.12-.07-.22-.07h-.28v.5Zm.99.76v-1.02h.2l.02.19c.04-.07.08-.12.15-.16.06-.04.14-.06.23-.06v.23h-.06c-.06,0-.11.01-.16.03-.05.02-.08.05-.11.1-.03.05-.04.11-.04.2v.49h-.22Zm1.23.02c-.1,0-.19-.02-.26-.07-.08-.05-.14-.11-.18-.19-.05-.08-.07-.18-.07-.28s.02-.2.07-.28c.05-.08.11-.14.19-.19.08-.05.16-.07.26-.07s.18.02.26.07c.08.04.14.11.19.19.05.08.07.17.07.28s-.02.2-.07.28c-.05.08-.11.14-.19.19-.08.04-.17.07-.26.07Zm0-.19c.05,0,.1-.01.14-.04.05-.03.08-.06.11-.11.03-.05.04-.12.04-.19s-.01-.14-.04-.19c-.03-.05-.06-.09-.11-.12-.04-.03-.09-.04-.14-.04s-.1.01-.15.04c-.04.03-.08.06-.11.12-.03.05-.04.11-.04.19s.01.14.04.19c.03.05.06.09.11.11.04.03.09.04.14.04Zm1.12-.15c-.05,0-.1,0-.15-.02l-.09.09s.03.02.06.02c.02,0,.05.01.09.02.04,0,.09.01.16.02.14.01.23.05.29.1.06.05.09.12.09.21,0,.06-.02.12-.05.17-.03.06-.08.1-.15.13-.07.03-.15.05-.26.05-.14,0-.26-.03-.35-.08-.09-.05-.13-.14-.13-.25,0-.04.01-.08.03-.13.02-.04.06-.08.11-.12-.03-.01-.05-.03-.08-.04-.02-.02-.04-.03-.06-.05v-.05l.18-.18c-.08-.07-.12-.16-.12-.27,0-.07.02-.13.05-.18.03-.06.08-.1.14-.13.06-.03.14-.05.22-.05.06,0,.11,0,.16.02h.38v.14h-.18c.03.07.05.13.05.2s-.02.13-.05.19c-.03.05-.08.1-.14.13-.06.03-.13.05-.22.05Zm0-.17c.06,0,.11-.02.15-.05.04-.03.06-.08.06-.14s-.02-.11-.06-.14c-.04-.03-.09-.05-.15-.05s-.12.02-.16.05c-.04.03-.06.08-.06.14s.02.11.06.14c.04.03.09.05.16.05Zm-.27.61c0,.06.03.1.08.13.05.03.12.05.2.05s.14-.02.18-.05c.05-.03.07-.07.07-.13,0-.04-.02-.07-.05-.1-.03-.03-.09-.04-.18-.05-.07,0-.12-.01-.18-.02-.05.03-.08.05-.1.08s-.03.06-.03.09Zm1.01-.13v-1.02h.2l.02.19c.04-.07.08-.12.15-.16.06-.04.14-.06.23-.06v.23h-.06c-.06,0-.11.01-.16.03-.05.02-.08.05-.11.1-.03.05-.04.11-.04.2v.49h-.22Zm1.13.02c-.09,0-.16-.01-.21-.04-.06-.03-.1-.07-.13-.11-.03-.05-.04-.1-.04-.16,0-.1.04-.18.11-.23.08-.06.19-.09.33-.09h.27v-.02c0-.08-.02-.14-.07-.18-.04-.04-.1-.06-.17-.06-.06,0-.11.02-.16.05-.04.03-.07.07-.08.13h-.22c0-.07.03-.14.07-.19.04-.05.1-.09.16-.12.07-.03.14-.04.22-.04.14,0,.25.04.33.11.08.07.12.18.12.31v.63h-.19l-.02-.18c-.03.06-.07.1-.13.14-.05.04-.13.06-.22.06Zm.04-.18c.06,0,.11-.01.15-.04.04-.03.07-.07.09-.11.02-.05.04-.1.04-.15h-.24c-.09,0-.15.02-.19.05-.04.03-.05.07-.05.11s.02.08.05.11c.04.03.08.04.14.04Zm.76.15v-1.02h.19l.02.14c.03-.05.08-.09.13-.12.05-.03.12-.05.19-.05.16,0,.27.06.34.19.04-.06.09-.11.15-.14.06-.03.13-.05.2-.05.13,0,.23.04.3.11.07.08.11.19.11.34v.59h-.22v-.57c0-.2-.08-.3-.23-.3-.08,0-.14.03-.19.09-.05.06-.07.14-.07.25v.53h-.22v-.57c0-.2-.08-.3-.23-.3-.08,0-.14.03-.19.09-.05.06-.07.14-.07.25v.53h-.22Zm2.01-1.22s-.08-.01-.1-.04c-.03-.03-.04-.06-.04-.1s.01-.07.04-.09c.03-.03.06-.04.1-.04s.08.01.1.04c.03.02.04.06.04.09s-.01.07-.04.1c-.03.02-.06.04-.1.04Zm-.11,1.22v-1.02h.22v1.02h-.22Zm.51,0v-1.02h.19l.02.18c.03-.06.08-.11.14-.15.06-.04.13-.06.21-.06.12,0,.22.04.29.11.07.08.11.19.11.34v.59h-.22v-.57c0-.2-.08-.3-.24-.3-.08,0-.15.03-.2.09-.05.06-.08.14-.08.25v.53h-.22Zm1.63-.31c-.05,0-.1,0-.15-.02l-.09.09s.03.02.06.02c.02,0,.05.01.09.02.04,0,.09.01.16.02.14.01.23.05.29.1.06.05.09.12.09.21,0,.06-.02.12-.05.17-.03.06-.08.1-.15.13-.07.03-.15.05-.26.05-.14,0-.26-.03-.35-.08-.09-.05-.13-.14-.13-.25,0-.04.01-.08.03-.13.02-.04.06-.08.11-.12-.03-.01-.05-.03-.08-.04-.02-.02-.04-.03-.06-.05v-.05l.18-.18c-.08-.07-.12-.16-.12-.27,0-.07.02-.13.05-.18.03-.06.08-.1.14-.13.06-.03.14-.05.22-.05.06,0,.11,0,.16.02h.38v.14h-.18c.03.07.05.13.05.2s-.02.13-.05.19c-.03.05-.08.1-.14.13-.06.03-.13.05-.22.05Zm0-.17c.06,0,.11-.02.15-.05.04-.03.06-.08.06-.14s-.02-.11-.06-.14c-.04-.03-.09-.05-.15-.05s-.12.02-.16.05c-.04.03-.06.08-.06.14s.02.11.06.14c.04.03.09.05.16.05Zm-.27.61c0,.06.03.1.08.13.05.03.12.05.2.05s.14-.02.18-.05c.05-.03.07-.07.07-.13,0-.04-.02-.07-.05-.1-.03-.03-.09-.04-.18-.05-.07,0-.12-.01-.18-.02-.05.03-.08.05-.1.08s-.03.06-.03.09Z"/>
      <path class="cls-16" d="m196.21,139.43c0,19.83-16.08,35.91-35.91,35.91s-35.91-16.08-35.91-35.91,16.08-35.91,35.91-35.91,35.91,16.08,35.91,35.91Z"/>
      <path class="cls-15" d="m137.62,138.46c-.28,0-.55-.03-.79-.1l-.47.46c.08.05.18.09.3.13.12.04.28.07.49.1.21.03.5.06.86.09.72.07,1.24.24,1.57.53.32.28.48.65.48,1.12,0,.32-.09.62-.26.91-.17.29-.43.53-.8.7-.36.18-.82.27-1.38.27-.76,0-1.38-.15-1.85-.44-.47-.28-.7-.72-.7-1.3,0-.23.06-.45.18-.68.12-.22.32-.43.58-.62-.15-.07-.29-.13-.4-.21-.11-.08-.21-.16-.3-.24v-.26l.94-.96c-.42-.36-.63-.84-.63-1.43,0-.36.08-.68.25-.97.18-.3.43-.54.76-.71.33-.18.72-.26,1.18-.26.31,0,.59.04.85.13h2.02v.77l-.96.05c.18.3.26.63.26,1s-.09.69-.26.99c-.17.29-.42.53-.74.7-.32.18-.71.26-1.17.26Zm0-.91c.34,0,.61-.09.81-.26.21-.18.32-.44.32-.77s-.11-.59-.32-.77c-.2-.18-.47-.26-.81-.26s-.62.09-.83.26c-.2.18-.31.43-.31.77s.1.58.31.77c.21.18.49.26.83.26Zm-1.46,3.26c0,.31.14.55.42.7.28.16.62.24,1.04.24s.73-.09.97-.26c.25-.17.37-.39.37-.68,0-.21-.08-.39-.25-.55-.17-.15-.48-.24-.95-.27-.35-.02-.66-.05-.93-.1-.26.14-.43.29-.53.45-.1.16-.14.32-.14.47Zm7.69-.56c-.53,0-1.01-.12-1.42-.35-.41-.24-.73-.57-.96-1-.23-.42-.35-.92-.35-1.48s.11-1.07.34-1.5c.23-.43.55-.77.96-1.01.42-.24.9-.36,1.44-.36s1,.12,1.39.36c.39.23.7.55.92.94.22.39.33.83.33,1.3,0,.07,0,.15-.01.24,0,.08,0,.17-.01.27h-4.22c.04.53.21.93.51,1.2.31.27.68.4,1.08.4.33,0,.6-.07.82-.22.23-.15.39-.36.5-.61h1.16c-.15.51-.44.94-.88,1.28-.43.34-.97.51-1.61.51Zm0-4.74c-.39,0-.73.12-1.03.35-.3.23-.48.57-.55,1.03h3.06c-.02-.42-.17-.76-.45-1.01-.28-.25-.62-.37-1.04-.37Zm3.85,4.61v-5.43h1.03l.09.95c.17-.34.41-.6.73-.79.33-.2.7-.3,1.13-.3.66,0,1.17.2,1.54.61.38.41.57,1.02.57,1.83v3.12h-1.15v-3c0-1.05-.43-1.58-1.29-1.58-.43,0-.79.15-1.07.46-.28.31-.42.74-.42,1.31v2.8h-1.16Zm9,.13c-.52,0-.99-.12-1.4-.35-.41-.24-.73-.57-.97-1-.24-.43-.36-.93-.36-1.5s.12-1.07.36-1.49c.25-.43.58-.76,1-1,.42-.24.88-.36,1.39-.36s.98.12,1.39.36c.42.23.74.57.99,1,.25.42.37.92.37,1.49s-.12,1.07-.37,1.5c-.24.42-.57.76-.99,1-.42.23-.88.35-1.4.35Zm0-1c.28,0,.53-.07.77-.21.24-.14.43-.34.58-.61.15-.28.22-.62.22-1.03s-.07-.75-.22-1.02c-.14-.28-.33-.49-.57-.62-.23-.14-.49-.21-.77-.21s-.54.07-.78.21c-.23.14-.42.35-.57.62-.15.27-.22.61-.22,1.02s.07.75.22,1.03c.15.27.34.47.57.61.23.14.49.21.77.21Zm6.08.86c-.53,0-.96-.13-1.27-.38-.31-.26-.47-.73-.47-1.39v-2.68h-.93v-.97h.93l.14-1.38h1.02v1.38h1.53v.97h-1.53v2.68c0,.3.06.51.19.62.13.11.35.16.67.16h.62v.99h-.9Zm2.78,2.41l1.3-2.86h-.32l-2.15-4.98h1.26l1.66,4.02,1.74-4.02h1.23l-3.5,7.84h-1.23Zm5.68,0v-7.84h1.04l.12.84c.18-.26.42-.48.72-.68.31-.2.7-.3,1.18-.3.53,0,.99.12,1.39.37.4.25.72.59.94,1.02.23.43.35.92.35,1.47s-.12,1.04-.35,1.47c-.23.42-.54.76-.94,1.01-.4.24-.87.36-1.4.36-.42,0-.8-.08-1.13-.25-.32-.17-.58-.4-.77-.71v3.24h-1.16Zm2.86-3.28c.5,0,.91-.17,1.23-.5.32-.34.48-.79.48-1.34,0-.36-.07-.67-.22-.95-.15-.28-.35-.49-.6-.65-.26-.16-.55-.24-.89-.24-.5,0-.9.17-1.23.51-.31.34-.47.78-.47,1.32s.16.99.47,1.34c.32.34.73.5,1.23.5Zm6.68,1.01c-.53,0-1.01-.12-1.42-.35-.41-.24-.73-.57-.96-1-.23-.42-.35-.92-.35-1.48s.11-1.07.34-1.5c.23-.43.55-.77.96-1.01.42-.24.9-.36,1.44-.36s1,.12,1.39.36c.39.23.7.55.92.94.22.39.33.83.33,1.3,0,.07,0,.15-.01.24,0,.08,0,.17-.01.27h-4.22c.04.53.21.93.51,1.2.31.27.67.4,1.08.4.33,0,.6-.07.82-.22.23-.15.39-.36.5-.61h1.16c-.15.51-.44.94-.88,1.28-.43.34-.97.51-1.61.51Zm0-4.74c-.39,0-.73.12-1.03.35-.3.23-.48.57-.55,1.03h3.06c-.02-.42-.17-.76-.45-1.01-.28-.25-.62-.37-1.04-.37Z"/>
      <circle class="cls-5" cx="289.36" cy="183.26" r="23.94"/>
      <path class="cls-15" d="m278.16,186.78c-.46,0-.84-.08-1.14-.23-.3-.15-.52-.35-.67-.6-.15-.26-.22-.53-.22-.83,0-.53.2-.94.61-1.25.41-.31.99-.46,1.75-.46h1.42v-.1c0-.42-.12-.74-.35-.95-.23-.21-.52-.32-.89-.32-.32,0-.6.08-.84.24-.23.15-.38.38-.43.69h-1.16c.04-.39.17-.73.39-1.01.23-.28.53-.5.88-.65.36-.15.75-.23,1.17-.23.76,0,1.35.2,1.76.6.42.39.62.93.62,1.62v3.34h-1.01l-.1-.93c-.15.3-.38.55-.67.76s-.68.31-1.15.31Zm.23-.94c.31,0,.58-.07.79-.22.22-.15.39-.35.5-.6.12-.25.2-.52.23-.82h-1.29c-.46,0-.79.08-.99.24-.19.16-.28.36-.28.6s.09.45.27.59c.19.14.45.21.77.21Zm4.05.81v-7.88h1.16v7.88h-1.16Zm2.63,0v-7.88h1.16v7.88h-1.16Zm5.17.13c-.53,0-1.01-.12-1.42-.35-.41-.24-.73-.57-.96-1s-.35-.92-.35-1.48.11-1.07.34-1.5c.23-.43.55-.77.96-1.01.42-.24.9-.36,1.44-.36s1,.12,1.39.36c.39.23.7.55.92.94s.33.83.33,1.3c0,.07,0,.15-.01.24,0,.08,0,.17-.01.27h-4.22c.04.53.21.93.51,1.2.31.27.68.4,1.08.4.33,0,.6-.07.82-.22.23-.15.39-.36.5-.61h1.16c-.15.51-.44.94-.88,1.28-.43.34-.97.51-1.61.51Zm0-4.74c-.39,0-.73.12-1.03.35-.3.23-.48.57-.55,1.03h3.06c-.02-.42-.17-.76-.45-1.01-.28-.25-.62-.37-1.04-.37Zm3.85,4.61v-7.88h1.16v7.88h-1.16Zm5.17.13c-.53,0-1.01-.12-1.42-.35-.41-.24-.73-.57-.96-1-.23-.42-.35-.92-.35-1.48s.11-1.07.34-1.5c.23-.43.55-.77.96-1.01.42-.24.9-.36,1.44-.36s1,.12,1.39.36c.39.23.7.55.92.94.22.39.33.83.33,1.3,0,.07,0,.15-.01.24,0,.08,0,.17-.01.27h-4.22c.04.53.21.93.51,1.2.31.27.67.4,1.08.4.33,0,.6-.07.82-.22.23-.15.39-.36.5-.61h1.16c-.15.51-.44.94-.88,1.28-.43.34-.97.51-1.61.51Zm0-4.74c-.39,0-.73.12-1.03.35-.3.23-.48.57-.55,1.03h3.06c-.02-.42-.17-.76-.45-1.01-.28-.25-.62-.37-1.04-.37Z"/>
      <circle class="cls-11" cx="266.19" cy="315.43" r="32.69"/>
      <path class="cls-15" d="m250.55,318.39v-4.41h.84l.07.77c.14-.27.33-.49.6-.64.27-.16.57-.24.92-.24.53,0,.95.17,1.25.5.31.33.46.83.46,1.49v2.53h-.93v-2.44c0-.85-.35-1.28-1.05-1.28-.35,0-.64.12-.87.37-.23.25-.34.6-.34,1.07v2.28h-.94Zm6.87.11c-.53,0-.95-.17-1.26-.5-.3-.33-.45-.83-.45-1.49v-2.53h.94v2.44c0,.85.35,1.28,1.05,1.28.35,0,.64-.12.86-.37.23-.25.34-.6.34-1.07v-2.28h.94v4.41h-.84l-.07-.77c-.14.27-.34.49-.6.65-.26.15-.56.23-.91.23Zm5.71,0c-.43,0-.82-.1-1.16-.29-.34-.2-.6-.47-.8-.81-.19-.35-.28-.75-.28-1.21s.09-.86.28-1.2c.2-.35.46-.62.8-.82.34-.2.73-.29,1.16-.29.55,0,1,.14,1.37.43.37.28.61.67.72,1.16h-.99c-.06-.24-.19-.43-.39-.57-.2-.14-.44-.2-.71-.2-.23,0-.44.06-.64.18-.2.11-.35.28-.47.51-.12.22-.18.49-.18.82s.06.6.18.83c.12.22.28.39.47.51.2.12.41.18.64.18.27,0,.51-.07.71-.2.2-.14.33-.33.39-.58h.99c-.1.47-.34.86-.71,1.15s-.83.44-1.38.44Zm3.11-.11v-6.4h.94v6.4h-.94Zm4.2.11c-.43,0-.82-.1-1.16-.28-.33-.2-.59-.47-.78-.81-.19-.34-.28-.74-.28-1.2s.09-.87.28-1.22c.19-.35.45-.62.78-.82.34-.2.73-.29,1.17-.29s.81.1,1.13.29c.32.19.57.44.75.76.18.32.27.67.27,1.06,0,.06,0,.12,0,.2,0,.06,0,.14,0,.22h-3.43c.03.43.17.75.42.98.26.22.55.33.88.33.27,0,.49-.06.67-.18.18-.12.32-.29.41-.5h.94c-.12.42-.36.76-.71,1.04-.35.28-.79.42-1.31.42Zm0-3.85c-.31,0-.59.1-.84.28-.24.18-.39.46-.44.84h2.49c-.02-.34-.14-.62-.36-.82-.23-.2-.51-.3-.84-.3Zm4.76,3.85c-.53,0-.95-.17-1.26-.5-.3-.33-.45-.83-.45-1.49v-2.53h.94v2.44c0,.85.35,1.28,1.05,1.28.35,0,.64-.12.86-.37.23-.25.34-.6.34-1.07v-2.28h.94v4.41h-.84l-.07-.77c-.14.27-.34.49-.6.65-.26.15-.56.23-.91.23Zm5.38,0c-.56,0-1.02-.14-1.38-.41-.36-.27-.57-.63-.62-1.08h.95c.05.2.16.38.34.52.18.14.41.21.7.21s.49-.06.62-.18c.13-.12.2-.26.2-.41,0-.23-.09-.38-.28-.45-.18-.08-.43-.16-.75-.22-.25-.05-.5-.12-.75-.21-.24-.09-.45-.21-.61-.37-.16-.17-.24-.39-.24-.67,0-.39.15-.71.44-.96.3-.26.71-.39,1.24-.39.49,0,.89.12,1.19.36.31.24.49.57.54,1h-.91c-.03-.19-.12-.34-.27-.44-.14-.11-.34-.16-.58-.16s-.42.05-.55.15c-.13.1-.2.22-.2.37s.09.28.27.36c.18.09.42.17.72.24.3.06.57.14.82.23.25.08.46.21.61.37.15.17.23.41.23.73,0,.4-.15.74-.47,1-.31.27-.74.4-1.29.4Z"/>
      <circle class="cls-11" cx="216.47" cy="341.57" r="16.18"/>
      <circle class="cls-11" cx="165.92" cy="230.89" r="13.82"/>
      <circle class="cls-11" cx="90.53" cy="296.76" r="27.97"/>
      <path class="cls-15" d="m74.1,299.31v-5.91h.87v2.5c.14-.24.33-.42.57-.55.25-.14.52-.21.81-.21.49,0,.87.15,1.15.46.28.31.42.76.42,1.37v2.34h-.86v-2.25c0-.79-.31-1.18-.94-1.18-.33,0-.6.11-.82.34-.21.23-.32.56-.32.99v2.1h-.87Zm6.75.1c-.4,0-.76-.09-1.07-.26-.31-.18-.55-.43-.72-.75-.18-.32-.26-.69-.26-1.11s.08-.8.25-1.12c.18-.32.42-.57.72-.76.31-.18.67-.27,1.08-.27s.75.09,1.04.27c.3.18.53.41.69.71s.25.62.25.98c0,.05,0,.11,0,.18,0,.06,0,.13,0,.21h-3.17c.03.39.16.7.39.9.24.2.51.3.81.3.25,0,.45-.05.62-.16.17-.11.3-.27.38-.46h.87c-.11.38-.33.7-.66.96-.32.26-.73.39-1.21.39Zm0-3.55c-.29,0-.55.09-.77.26-.22.17-.36.43-.41.77h2.3c-.02-.32-.13-.57-.34-.76-.21-.19-.47-.28-.78-.28Zm2.89,3.46v-4.07h.78l.07.77c.14-.27.34-.48.59-.63.26-.16.57-.24.93-.24v.91h-.24c-.24,0-.46.04-.65.12-.19.08-.34.21-.45.4-.11.19-.16.45-.16.78v1.95h-.87Zm4.91.1c-.4,0-.76-.09-1.07-.26-.31-.18-.55-.43-.72-.75-.18-.32-.26-.69-.26-1.11s.08-.8.25-1.12c.18-.32.42-.57.72-.76.31-.18.67-.27,1.08-.27s.75.09,1.04.27c.3.18.53.41.69.71.16.3.25.62.25.98,0,.05,0,.11,0,.18,0,.06,0,.13,0,.21h-3.17c.03.39.16.7.39.9.24.2.51.3.81.3.25,0,.45-.05.62-.16.17-.11.3-.27.38-.46h.87c-.11.38-.33.7-.66.96-.32.26-.73.39-1.21.39Zm0-3.55c-.29,0-.55.09-.77.26-.22.17-.36.43-.41.77h2.3c-.02-.32-.13-.57-.34-.76-.21-.19-.47-.28-.78-.28Zm4.74,3.55c-.39,0-.74-.09-1.04-.28s-.54-.44-.71-.76c-.17-.32-.25-.69-.25-1.1s.08-.77.25-1.09c.17-.32.4-.57.71-.76.31-.19.66-.28,1.05-.28.32,0,.6.06.85.19.25.13.44.3.57.53v-2.46h.87v5.91h-.78l-.09-.63c-.13.19-.31.36-.54.51s-.53.22-.89.22Zm.16-.76c.37,0,.68-.13.91-.39.24-.26.36-.59.36-.99s-.12-.74-.36-.99c-.24-.26-.54-.39-.91-.39s-.68.13-.92.39c-.24.25-.36.58-.36.99,0,.27.05.51.16.71.11.21.26.37.45.49.2.11.42.17.66.17Zm3.73-4.19c-.16,0-.3-.05-.41-.15-.1-.1-.16-.23-.16-.39s.05-.28.16-.38c.11-.1.25-.16.41-.16s.3.05.4.16c.11.1.16.22.16.38s-.05.28-.16.39c-.1.1-.24.15-.4.15Zm-.44,4.84v-4.07h.87v4.07h-.87Zm3.73,0c-.4,0-.72-.1-.95-.29-.24-.2-.35-.54-.35-1.04v-2.01h-.7v-.73h.7l.11-1.03h.76v1.03h1.15v.73h-1.15v2.01c0,.22.05.38.14.47.1.08.27.12.5.12h.47v.74h-.67Zm2.09,1.81l.98-2.14h-.24l-1.61-3.73h.94l1.25,3.01,1.31-3.01h.92l-2.63,5.88h-.92Z"/>
      <circle class="cls-6" cx="213.55" cy="417.39" r="23.94"/>
      <path class="cls-15" d="m206.85,418.79c-.23,0-.42-.04-.57-.11-.15-.08-.26-.18-.33-.3-.07-.13-.11-.27-.11-.42,0-.26.1-.47.31-.62.2-.15.5-.23.88-.23h.71v-.05c0-.21-.06-.37-.18-.48-.11-.11-.26-.16-.44-.16-.16,0-.3.04-.42.12-.12.08-.19.19-.21.34h-.58c.02-.2.08-.37.2-.5.12-.14.26-.25.44-.32.18-.08.37-.11.59-.11.38,0,.67.1.88.3.21.2.31.47.31.81v1.67h-.5l-.05-.47c-.08.15-.19.27-.33.38-.15.1-.34.15-.57.15Zm.11-.47c.16,0,.29-.04.39-.11.11-.08.19-.18.25-.3.06-.12.1-.26.11-.41h-.65c-.23,0-.39.04-.49.12-.09.08-.14.18-.14.3s.05.22.14.3c.1.07.22.1.38.1Zm2.02.4v-3.94h.58v3.94h-.58Zm1.64-3.23c-.11,0-.2-.03-.27-.1-.07-.07-.1-.16-.1-.26s.03-.19.1-.25c.07-.07.16-.1.27-.1s.2.03.27.1c.07.07.11.15.11.25s-.04.19-.11.26c-.07.07-.16.1-.27.1Zm-.29,3.23v-2.71h.58v2.71h-.58Zm2.62.07c-.27,0-.5-.06-.71-.18-.2-.12-.36-.29-.48-.5-.12-.21-.18-.46-.18-.74s.06-.53.17-.75c.12-.22.28-.38.48-.5.21-.12.45-.18.72-.18s.5.06.7.18c.2.12.35.27.46.47.11.2.16.41.16.65,0,.04,0,.08,0,.12,0,.04,0,.09,0,.14h-2.11c.02.26.1.46.26.6.16.13.34.2.54.2.16,0,.3-.04.41-.11.11-.08.2-.18.25-.31h.58c-.07.26-.22.47-.44.64-.21.17-.48.26-.8.26Zm0-2.37c-.19,0-.36.06-.51.18-.15.11-.24.28-.27.51h1.53c-.01-.21-.09-.38-.22-.5-.14-.12-.31-.19-.52-.19Zm1.93,2.3v-2.71h.51l.04.48c.08-.17.21-.3.37-.39.16-.1.35-.15.56-.15.33,0,.59.1.77.31.19.2.28.51.28.91v1.56h-.57v-1.5c0-.53-.21-.79-.65-.79-.21,0-.39.08-.54.23-.14.15-.21.37-.21.66v1.4h-.58Zm4.31.07c-.34,0-.63-.08-.85-.25-.22-.17-.35-.39-.38-.67h.59c.03.12.1.23.21.32.11.09.25.13.43.13s.3-.04.38-.11c.08-.07.12-.16.12-.25,0-.14-.06-.23-.17-.28-.11-.05-.26-.1-.46-.14-.15-.03-.31-.08-.46-.13-.15-.05-.28-.13-.38-.23-.1-.1-.15-.24-.15-.41,0-.24.09-.43.27-.59.18-.16.44-.24.77-.24.3,0,.55.07.73.22.19.15.3.35.33.62h-.56c-.02-.12-.07-.21-.16-.27-.09-.07-.21-.1-.36-.1s-.26.03-.34.09c-.08.06-.12.13-.12.23s.05.17.16.22c.11.05.26.1.44.15.18.04.35.09.5.14.16.05.28.13.38.23.1.1.14.25.14.45,0,.25-.09.45-.29.62-.19.16-.46.25-.79.25Z"/>
      <path class="cls-6" d="m142.66,202.04c0,18.95-15.52,34.32-34.67,34.32s-34.67-15.37-34.67-34.32,15.52-34.32,34.67-34.32,34.67,15.37,34.67,34.32Z"/>
      <path class="cls-15" d="m80.89,206.6c-.47,0-.88-.11-1.25-.32-.36-.21-.65-.5-.86-.87-.2-.38-.31-.81-.31-1.3s.1-.92.31-1.29c.21-.38.5-.67.86-.88.37-.21.79-.32,1.25-.32.59,0,1.08.15,1.47.46.4.31.66.72.78,1.24h-1.06c-.06-.26-.2-.47-.42-.61-.22-.15-.47-.22-.77-.22-.25,0-.48.06-.69.19-.21.12-.38.3-.51.55-.13.24-.19.53-.19.88s.06.65.19.89c.13.24.3.42.51.55.21.13.44.19.69.19.29,0,.55-.07.77-.22.22-.15.36-.35.42-.62h1.06c-.11.51-.36.92-.77,1.24-.4.31-.9.47-1.48.47Zm3.35-.11v-6.9h1.02v2.91c.16-.27.38-.49.66-.64.29-.16.6-.24.95-.24.57,0,1.02.18,1.34.54.33.36.49.89.49,1.6v2.73h-1.01v-2.62c0-.92-.37-1.38-1.1-1.38-.38,0-.7.13-.96.4-.25.27-.37.65-.37,1.15v2.45h-1.02Zm5.65,0v-4.75h.91l.09.9c.17-.31.4-.56.69-.74.3-.19.66-.28,1.08-.28v1.06h-.28c-.28,0-.53.05-.76.14-.22.09-.39.25-.53.47-.13.22-.19.52-.19.91v2.28h-1.02Zm5.73.11c-.45,0-.86-.1-1.23-.31-.36-.21-.64-.5-.85-.87-.21-.38-.32-.81-.32-1.31s.11-.93.32-1.3c.22-.38.51-.67.87-.87.36-.21.77-.32,1.22-.32s.86.11,1.22.32c.36.2.65.49.86.87.22.37.33.8.33,1.3s-.11.94-.33,1.31c-.21.37-.5.66-.86.87-.36.2-.77.31-1.23.31Zm0-.87c.24,0,.47-.06.67-.18.21-.12.38-.3.51-.54.13-.24.19-.54.19-.9s-.06-.65-.19-.89c-.12-.24-.29-.42-.5-.55-.2-.12-.43-.18-.67-.18s-.47.06-.68.18c-.2.12-.37.3-.5.55-.13.24-.19.53-.19.89s.06.66.19.9c.13.24.29.42.5.54.2.12.43.18.67.18Zm3.51.76v-4.75h.9l.09.67c.15-.24.35-.43.6-.57.26-.14.55-.21.88-.21.75,0,1.28.3,1.57.89.17-.27.4-.49.69-.65.29-.16.61-.24.95-.24.59,0,1.06.18,1.4.54.34.36.51.89.51,1.6v2.73h-1.02v-2.62c0-.92-.35-1.38-1.05-1.38-.36,0-.65.13-.88.4-.22.27-.34.65-.34,1.15v2.45h-1.02v-2.62c0-.92-.35-1.38-1.06-1.38-.35,0-.64.13-.87.4-.22.27-.34.65-.34,1.15v2.45h-1.02Zm10.99.11c-.45,0-.86-.1-1.23-.31-.36-.21-.64-.5-.85-.87-.21-.38-.32-.81-.32-1.31s.11-.93.32-1.3c.22-.38.51-.67.87-.87.36-.21.77-.32,1.22-.32s.86.11,1.22.32c.36.2.65.49.86.87.22.37.33.8.33,1.3s-.11.94-.33,1.31c-.21.37-.5.66-.86.87-.36.2-.77.31-1.23.31Zm0-.87c.24,0,.47-.06.67-.18.21-.12.38-.3.51-.54.13-.24.19-.54.19-.9s-.06-.65-.19-.89c-.12-.24-.29-.42-.5-.55-.2-.12-.43-.18-.67-.18s-.47.06-.68.18c-.2.12-.37.3-.5.55-.13.24-.19.53-.19.89s.06.66.19.9c.13.24.29.42.5.54.2.12.43.18.67.18Zm5.41.87c-.6,0-1.1-.15-1.48-.44-.39-.29-.61-.68-.67-1.17h1.02c.05.22.17.41.36.57.19.15.44.23.76.23s.53-.06.67-.19c.14-.13.21-.27.21-.44,0-.24-.1-.41-.3-.49-.19-.09-.46-.17-.8-.24-.27-.06-.54-.13-.8-.23-.26-.1-.48-.23-.66-.4-.17-.18-.26-.42-.26-.72,0-.42.16-.76.48-1.03.32-.28.77-.42,1.34-.42.53,0,.96.13,1.28.38.33.26.53.62.58,1.08h-.98c-.03-.2-.13-.36-.29-.48-.15-.11-.36-.17-.62-.17s-.45.05-.59.16c-.14.1-.21.24-.21.4s.1.3.29.39c.2.1.46.18.78.26.32.07.61.15.88.25.27.09.49.22.66.4.17.18.25.44.25.79,0,.43-.16.79-.51,1.08-.34.29-.8.43-1.39.43Zm5.23,0c-.45,0-.86-.1-1.23-.31-.36-.21-.64-.5-.85-.87-.21-.38-.32-.81-.32-1.31s.11-.93.32-1.3c.22-.38.51-.67.87-.87.36-.21.77-.32,1.22-.32s.86.11,1.22.32c.36.2.65.49.86.87.22.37.33.8.33,1.3s-.11.94-.33,1.31c-.21.37-.5.66-.86.87-.36.2-.77.31-1.23.31Zm0-.87c.24,0,.47-.06.67-.18.21-.12.38-.3.51-.54.13-.24.19-.54.19-.9s-.06-.65-.19-.89c-.12-.24-.29-.42-.5-.55-.2-.12-.43-.18-.67-.18s-.47.06-.68.18c-.2.12-.37.3-.5.55-.13.24-.19.53-.19.89s.06.66.19.9c.13.24.29.42.5.54.2.12.43.18.67.18Zm3.51.76v-4.75h.9l.09.67c.15-.24.35-.43.6-.57.26-.14.55-.21.88-.21.75,0,1.28.3,1.57.89.17-.27.4-.49.69-.65.29-.16.61-.24.95-.24.59,0,1.06.18,1.4.54.34.36.51.89.51,1.6v2.73h-1.02v-2.62c0-.92-.35-1.38-1.05-1.38-.36,0-.65.13-.88.4-.22.27-.34.65-.34,1.15v2.45h-1.02v-2.62c0-.92-.35-1.38-1.06-1.38-.35,0-.64.13-.87.4-.22.27-.34.65-.34,1.15v2.45h-1.02Zm10.99.11c-.47,0-.88-.1-1.24-.31-.36-.21-.64-.5-.84-.87-.2-.37-.31-.8-.31-1.29s.1-.94.3-1.31c.2-.38.48-.67.84-.88.36-.21.79-.32,1.26-.32s.87.11,1.22.32c.34.2.61.48.8.82s.29.72.29,1.14c0,.06,0,.13,0,.21,0,.07,0,.15,0,.24h-3.7c.03.46.18.81.45,1.05.27.24.59.35.95.35.29,0,.53-.06.72-.19.2-.13.34-.31.44-.54h1.02c-.13.45-.38.82-.77,1.12-.38.3-.85.45-1.41.45Zm0-4.15c-.34,0-.64.1-.9.31-.26.2-.42.5-.48.9h2.68c-.02-.37-.15-.66-.39-.88-.24-.22-.55-.33-.91-.33Z"/>
      <path class="cls-10" d="m111.75,372.38c0,21.15-17.15,38.3-38.3,38.3s-38.3-17.15-38.3-38.3,17.15-38.3,38.3-38.3,38.3,17.15,38.3,38.3Z"/>
      <path class="cls-15" d="m45.6,376.13v-6.79h1.29l.12.96c.22-.35.51-.62.86-.82.36-.2.78-.3,1.26-.3,1.08,0,1.82.42,2.24,1.27.25-.39.57-.7.99-.93.42-.23.87-.34,1.35-.34.85,0,1.51.26,2,.77.48.51.73,1.27.73,2.28v3.9h-1.45v-3.75c0-1.31-.5-1.97-1.5-1.97-.51,0-.93.19-1.26.57-.32.38-.48.93-.48,1.64v3.5h-1.45v-3.75c0-1.31-.51-1.97-1.52-1.97-.5,0-.92.19-1.24.57-.32.38-.48.93-.48,1.64v3.5h-1.45Zm15.04.16c-.82,0-1.47-.26-1.94-.77-.47-.51-.7-1.27-.7-2.28v-3.9h1.45v3.75c0,1.31.54,1.97,1.61,1.97.54,0,.98-.19,1.33-.57.35-.38.52-.93.52-1.64v-3.5h1.45v6.79h-1.29l-.11-1.19c-.21.42-.52.75-.93,1-.4.24-.87.36-1.4.36Zm8.41-.16c-.67,0-1.19-.16-1.59-.48-.39-.33-.59-.91-.59-1.74v-3.35h-1.16v-1.22h1.16l.18-1.72h1.27v1.72h1.92v1.22h-1.92v3.35c0,.37.08.63.23.78.16.14.44.21.83.21h.78v1.23h-1.12Zm4.98.16c-.57,0-1.05-.1-1.42-.29-.37-.19-.65-.44-.83-.75-.18-.32-.27-.67-.27-1.04,0-.66.26-1.18.77-1.56.51-.38,1.24-.57,2.19-.57h1.78v-.12c0-.53-.15-.93-.44-1.19-.28-.26-.65-.4-1.11-.4-.4,0-.75.1-1.05.3-.29.19-.47.48-.53.86h-1.45c.05-.49.21-.91.49-1.26.29-.36.66-.62,1.09-.81.45-.19.93-.29,1.46-.29.95,0,1.68.25,2.2.75.52.49.78,1.17.78,2.02v4.17h-1.26l-.12-1.16c-.19.37-.47.69-.83.94-.36.26-.84.38-1.44.38Zm.29-1.18c.39,0,.72-.09.99-.27.27-.19.48-.44.63-.75.16-.31.25-.65.29-1.03h-1.61c-.57,0-.99.1-1.23.3-.24.2-.36.45-.36.75s.11.56.34.74c.24.17.56.26.96.26Zm7.77,1.01c-.67,0-1.19-.16-1.59-.48-.39-.33-.59-.91-.59-1.74v-3.35h-1.16v-1.22h1.16l.18-1.72h1.27v1.72h1.92v1.22h-1.92v3.35c0,.37.08.63.23.78.16.14.44.21.83.21h.78v1.23h-1.12Zm3.51-8.07c-.27,0-.5-.08-.68-.25-.17-.17-.26-.39-.26-.64s.09-.47.26-.63c.18-.17.41-.26.68-.26s.5.09.67.26c.18.16.27.37.27.63s-.09.47-.27.64c-.17.16-.4.25-.67.25Zm-.73,8.07v-6.79h1.45v6.79h-1.45Zm6.54.16c-.65,0-1.23-.15-1.75-.44-.51-.3-.92-.72-1.22-1.24-.3-.54-.45-1.16-.45-1.87s.15-1.33.45-1.86c.31-.54.73-.95,1.24-1.24.52-.3,1.1-.45,1.74-.45s1.23.15,1.74.45c.52.29.93.71,1.23,1.24.31.53.47,1.15.47,1.86s-.16,1.34-.47,1.87c-.3.53-.71.94-1.23,1.24-.52.29-1.1.44-1.75.44Zm0-1.24c.35,0,.67-.09.96-.26.3-.17.54-.43.73-.77.18-.35.27-.78.27-1.29s-.09-.94-.27-1.27c-.17-.35-.41-.61-.71-.78-.29-.17-.61-.26-.96-.26s-.67.09-.97.26c-.29.17-.53.43-.71.78-.18.34-.27.76-.27,1.27s.09.94.27,1.29c.18.34.42.59.71.77.29.17.61.26.96.26Zm5.02,1.08v-6.79h1.29l.11,1.19c.21-.42.52-.75.92-.99.41-.25.88-.37,1.41-.37.82,0,1.46.26,1.93.77.47.51.71,1.27.71,2.28v3.9h-1.44v-3.75c0-1.31-.54-1.97-1.61-1.97-.54,0-.99.19-1.34.57-.35.38-.52.93-.52,1.64v3.5h-1.45Z"/>
      <circle class="cls-12" cx="174.09" cy="270.53" r="47.87"/>
      <path class="cls-15" d="m147.43,271.42c.25,0,.47-.03.66-.1.19-.07.34-.17.46-.29.13-.12.22-.27.28-.44.07-.17.1-.36.1-.56,0-.42-.13-.74-.38-.99-.25-.25-.62-.37-1.12-.37s-.87.12-1.12.37c-.25.24-.37.57-.37.99,0,.2.03.38.09.55.07.17.16.32.28.44.13.12.28.22.47.29.19.07.41.1.66.1Zm2.29,4.79c0-.16-.05-.3-.15-.4s-.23-.18-.4-.24c-.17-.06-.37-.1-.6-.13-.22-.03-.47-.05-.72-.06-.25-.02-.51-.03-.79-.04-.27-.01-.53-.03-.79-.07-.22.13-.41.27-.55.44-.14.17-.21.37-.21.59,0,.15.04.28.11.41.08.13.19.24.35.34.16.09.37.16.63.21.26.05.57.08.94.08s.7-.03.98-.09c.27-.05.5-.13.67-.24.18-.1.31-.22.39-.36.08-.14.12-.29.12-.45Zm2.02-8.51v.76c0,.24-.15.39-.44.44l-.76.14c.11.29.17.61.17.95,0,.42-.08.79-.25,1.13-.16.33-.39.62-.69.85-.3.24-.65.42-1.05.55-.4.13-.83.19-1.3.19-.16,0-.32,0-.48-.02-.15-.02-.3-.04-.45-.07-.26.16-.39.34-.39.53,0,.17.08.3.23.38.16.08.37.13.62.16.26.03.55.05.88.07.33,0,.66.02,1.01.05.34.03.68.08,1.01.15.33.07.62.17.88.32.26.15.46.35.62.61.16.25.24.58.24.98,0,.37-.09.73-.28,1.08-.18.35-.45.66-.8.94-.34.27-.77.49-1.28.66-.5.17-1.08.25-1.72.25s-1.19-.06-1.66-.19c-.47-.12-.86-.28-1.17-.49-.31-.2-.54-.44-.7-.71s-.23-.55-.23-.84c0-.39.12-.72.35-.99.24-.27.57-.48.99-.64-.22-.11-.4-.27-.53-.46s-.2-.44-.2-.76c0-.13.02-.25.07-.39.05-.14.12-.27.21-.4.09-.13.21-.25.34-.37.14-.12.3-.23.48-.32-.43-.23-.76-.54-1.01-.92-.24-.38-.36-.83-.36-1.35,0-.42.08-.79.25-1.12.17-.34.4-.63.7-.86.3-.24.65-.42,1.06-.55.41-.13.86-.19,1.34-.19.36,0,.7.04,1.02.11.32.07.61.18.87.32h2.42Zm6.57,2.96c0-.26-.04-.51-.11-.74-.07-.24-.18-.44-.33-.62-.15-.18-.34-.31-.57-.41-.22-.1-.49-.16-.79-.16-.59,0-1.05.17-1.39.5-.33.33-.55.81-.64,1.42h3.83Zm-3.87,1.22c.03.43.11.81.23,1.12.12.31.28.57.48.78.2.2.43.36.7.46.27.1.57.15.9.15s.61-.04.85-.11c.24-.08.45-.16.62-.25.18-.09.34-.18.47-.25.14-.08.27-.11.39-.11.17,0,.3.06.38.19l.58.74c-.22.26-.48.48-.76.66-.28.18-.57.32-.88.43-.3.1-.61.18-.93.22-.31.04-.62.07-.91.07-.59,0-1.13-.1-1.63-.29-.5-.2-.94-.48-1.31-.86-.37-.38-.66-.85-.88-1.41-.21-.56-.32-1.21-.32-1.95,0-.57.09-1.11.28-1.62.19-.51.45-.95.8-1.32.35-.38.77-.68,1.27-.89.5-.22,1.07-.33,1.7-.33.53,0,1.02.08,1.47.25.45.17.83.42,1.16.75.32.32.57.72.76,1.2.19.47.28,1.01.28,1.62,0,.31-.03.51-.1.62-.07.1-.19.16-.38.16h-5.21Zm9.11-3.43c.17-.17.35-.33.53-.47.19-.15.39-.27.6-.37.21-.1.44-.18.68-.24.24-.06.5-.09.79-.09.46,0,.87.08,1.22.24.36.15.65.37.89.66.24.28.42.62.54,1.01.13.39.19.82.19,1.29v5.36h-2.03v-5.36c0-.51-.12-.91-.35-1.19-.24-.28-.59-.43-1.08-.43-.35,0-.68.08-.99.24-.31.16-.6.37-.87.65v6.09h-2.03v-8.42h1.24c.26,0,.44.12.52.37l.14.66Zm12.8,2.21c0-.26-.04-.51-.11-.74-.07-.24-.18-.44-.33-.62-.15-.18-.34-.31-.57-.41-.22-.1-.49-.16-.79-.16-.59,0-1.05.17-1.39.5-.33.33-.55.81-.64,1.42h3.83Zm-3.87,1.22c.03.43.11.81.23,1.12.12.31.28.57.48.78.2.2.43.36.7.46.27.1.57.15.9.15s.61-.04.85-.11c.24-.08.45-.16.62-.25.18-.09.34-.18.47-.25.14-.08.27-.11.39-.11.17,0,.3.06.38.19l.58.74c-.22.26-.48.48-.76.66-.28.18-.57.32-.88.43-.3.1-.61.18-.93.22-.31.04-.62.07-.91.07-.59,0-1.13-.1-1.63-.29-.5-.2-.94-.48-1.31-.86-.37-.38-.66-.85-.88-1.41-.21-.56-.32-1.21-.32-1.95,0-.57.09-1.11.28-1.62.19-.51.45-.95.8-1.32.35-.38.77-.68,1.27-.89.5-.22,1.07-.33,1.7-.33.53,0,1.02.08,1.47.25.45.17.83.42,1.16.75.32.32.57.72.76,1.2.19.47.28,1.01.28,1.62,0,.31-.03.51-.1.62-.07.1-.19.16-.38.16h-5.21Zm15.63,3.96h-2.03v-6.9h-3.91v4.56c0,.26.06.47.19.62.13.15.31.22.53.22.13,0,.23-.01.31-.04.09-.03.16-.07.22-.1.07-.03.12-.06.17-.09.05-.03.1-.05.15-.05.06,0,.11.02.15.05.04.03.08.07.12.13l.61.99c-.3.25-.63.43-1.02.56s-.78.19-1.19.19c-.73,0-1.3-.21-1.69-.62-.39-.42-.58-.99-.58-1.72v-4.7h-.86c-.11,0-.2-.04-.28-.11-.08-.07-.11-.18-.11-.32v-.8l1.35-.23.43-2.29c.03-.11.08-.19.16-.25s.18-.09.3-.09h1.05v2.65h5.93v8.35Zm.35-10.91c0,.18-.04.34-.11.5-.07.15-.17.29-.29.4-.11.11-.25.21-.42.28-.16.07-.33.1-.51.1s-.34-.03-.49-.1c-.15-.07-.29-.16-.4-.28-.11-.11-.21-.25-.28-.4-.07-.16-.1-.33-.1-.5s.03-.35.1-.5c.07-.16.16-.3.28-.41.11-.12.25-.21.4-.28.15-.07.32-.11.49-.11s.35.04.51.11c.16.07.3.16.42.28.12.11.22.25.29.41.07.15.11.32.11.5Zm7.75,4.27c-.06.08-.12.14-.18.18-.05.04-.14.07-.25.07s-.21-.03-.3-.09c-.1-.07-.22-.14-.35-.21-.14-.08-.3-.15-.49-.21-.19-.07-.42-.1-.7-.1-.36,0-.67.07-.94.2-.27.13-.49.31-.67.55-.18.24-.31.53-.39.88-.09.34-.13.73-.13,1.16s.05.85.14,1.2c.1.35.24.65.42.89.18.24.4.42.66.54.26.12.55.18.87.18s.58-.04.78-.11c.2-.08.37-.17.51-.26.14-.1.25-.19.35-.26.1-.08.22-.12.34-.12.16,0,.29.06.37.19l.58.74c-.22.26-.47.48-.73.66-.26.18-.54.32-.82.43-.28.1-.57.18-.87.22-.3.04-.59.07-.89.07-.52,0-1.01-.1-1.47-.29-.46-.2-.86-.48-1.21-.85s-.62-.83-.82-1.36c-.2-.54-.3-1.16-.3-1.85,0-.62.09-1.19.26-1.72.18-.53.44-.99.79-1.37.34-.39.77-.69,1.28-.91.51-.22,1.09-.33,1.76-.33s1.18.1,1.65.3c.48.2.9.49,1.28.87l-.53.74Zm7.03-.14c-.05.09-.11.15-.17.19-.06.03-.14.05-.23.05-.1,0-.21-.03-.32-.08-.11-.05-.24-.11-.39-.18-.15-.07-.32-.13-.51-.19-.19-.05-.41-.08-.66-.08-.4,0-.71.08-.94.25-.22.17-.34.39-.34.66,0,.18.06.33.17.46.12.12.28.23.47.32.2.09.42.18.66.25.25.07.5.15.75.24.26.09.51.19.76.3.25.11.47.25.66.43.2.17.35.37.47.62.12.24.18.53.18.87,0,.4-.07.78-.22,1.12-.14.34-.36.63-.64.89-.28.25-.64.44-1.06.58-.42.14-.9.21-1.44.21-.29,0-.57-.03-.85-.08-.27-.05-.54-.12-.8-.21-.25-.09-.49-.2-.71-.33-.21-.13-.4-.26-.57-.41l.47-.77c.06-.09.13-.16.21-.21s.19-.07.31-.07.24.04.35.11c.11.07.25.15.39.23s.32.16.52.23c.2.07.46.11.76.11.24,0,.45-.03.62-.08.18-.06.32-.14.43-.23.11-.09.2-.2.25-.32.05-.13.08-.25.08-.39,0-.2-.06-.36-.18-.48-.11-.13-.27-.24-.47-.33-.19-.09-.41-.18-.66-.25-.25-.08-.5-.16-.76-.25-.26-.09-.51-.19-.76-.3-.25-.12-.47-.27-.66-.45-.19-.18-.35-.4-.47-.66-.11-.26-.17-.58-.17-.95,0-.34.07-.67.21-.99.14-.31.34-.58.6-.81.27-.24.6-.42.99-.56.4-.14.86-.21,1.38-.21.58,0,1.11.1,1.58.29s.87.44,1.19.76l-.46.73Z"/>
      <circle class="cls-4" cx="204.34" cy="234.13" r="10.78"/>
      <path class="cls-3" d="m209.42,230.37c.21.19.23.51.04.72l-5.23,5.82c-.66.73-1.78.82-2.54.21l-2.39-1.91c-.22-.18-.25-.49-.08-.71.18-.22.49-.25.71-.08l2.39,1.91c.35.28.86.24,1.16-.1l5.23-5.82c.19-.21.51-.23.72-.04Z"/>
    </g>
    <g>
      <path class="cls-14" d="m36.33,34.68h12.25v1.29h-12.25v-1.29Zm-.78,5.18h12.39v1.27h-12.39v-1.27Zm-1.93,5.78h15.78v1.29h-15.78v-1.29Zm7.21-14.39h1.36v15.04h-1.36v-15.04Zm-3.98.28l1.36.3c-.78,2.74-2.01,5.35-3.43,7.05-.27-.23-.87-.62-1.2-.8,1.45-1.57,2.6-4.03,3.27-6.56Zm22.9-.3l1.2.25c-.65,2.9-1.82,5.58-3.3,7.33-.21-.19-.74-.58-1.02-.76,1.48-1.59,2.53-4.14,3.13-6.82Zm6.1,2.97h1.25s0,.49-.02.69c-.41,8.06-.78,10.83-1.5,11.7-.35.48-.69.64-1.24.69-.46.07-1.24.05-2.01,0-.04-.39-.16-.95-.37-1.31.8.07,1.52.09,1.86.09.28,0,.46-.07.67-.3.58-.67.99-3.48,1.36-11.24v-.32Zm-6.22,0h6.75v1.25h-7.32l.57-1.25Zm1.78.39l1.01.51c-.76,3.13-2.44,6.66-4.45,8.41-.27-.27-.69-.58-1.04-.78,2.07-1.63,3.76-5.05,4.49-8.15Zm2.53.11l1.06.49c-.88,4.75-2.86,9.63-5.83,12.02-.27-.28-.74-.62-1.13-.81,3.09-2.21,5.05-7,5.9-11.7Zm-13.01,6.34c1.66-.42,4.19-1.17,6.59-1.89l.18,1.17c-2.24.71-4.63,1.45-6.41,2.01l-.35-1.29Zm3.3-9.79h1.24v16.24h-1.24v-16.24Zm-2.19,1.01l1.15.19c-.27,2.35-.71,4.74-1.38,6.31-.21-.16-.72-.46-1.01-.58.67-1.5,1.03-3.75,1.24-5.92Zm.11,2.6h5.14v1.29h-5.35l.21-1.29Zm19.86,2.35h8.75v1.17h-8.75v-1.17Zm-2.97,4.03h15.62v1.24h-15.62v-1.24Zm7.1-1.29h1.36v5.97c0,.8-.21,1.18-.88,1.38-.64.19-1.66.21-3.27.21-.09-.37-.35-.92-.57-1.27,1.36.04,2.56.04,2.92.02s.44-.11.44-.37v-5.94Zm4.21-2.74h.34l.28-.07.85.65c-1.2,1.22-3.06,2.44-4.74,3.16-.16-.23-.51-.58-.74-.78,1.48-.64,3.18-1.8,4.01-2.7v-.27Zm-10.96-3.02h14.97v3.94h-1.31v-2.74h-12.41v2.74h-1.25v-3.94Zm12.64-2.83l1.38.46c-.74,1.1-1.7,2.28-2.44,3.06l-1.04-.44c.71-.83,1.61-2.14,2.1-3.07Zm-11.43.62l1.11-.53c.69.74,1.41,1.75,1.71,2.46l-1.18.57c-.28-.67-.99-1.73-1.64-2.49Zm4.54-.39l1.15-.42c.6.83,1.24,1.98,1.45,2.72l-1.22.48c-.21-.74-.8-1.91-1.38-2.77Zm18.56,2.56c1.93.34,5.51.27,7.26,0v1.43c-1.89.21-5.32.21-7.25,0l-.02-1.43Zm.69,7.21c-.16.64-.25,1.13-.25,1.61,0,.81.57,1.61,2.99,1.61,1.57,0,2.95-.14,4.37-.48l.04,1.48c-1.1.23-2.58.37-4.42.37-2.95,0-4.28-.99-4.28-2.65,0-.58.09-1.22.28-2.07l1.27.12Zm-4.05-8.57c-.11.3-.25.87-.32,1.18-.34,1.64-.88,4.79-.88,6.79,0,.85.05,1.59.16,2.46.3-.8.71-1.86,1.01-2.58l.74.58c-.44,1.25-1.1,3.11-1.25,3.96-.05.25-.09.58-.09.8.02.18.04.42.05.62l-1.25.09c-.35-1.25-.65-3.29-.65-5.69,0-2.6.58-5.62.8-7.09.05-.41.11-.85.12-1.24l1.57.12Zm17.48,6.96h8.66v.99h-8.66v-.99Zm-.28,2.39h9.23v1.02h-9.23v-1.02Zm3.85-1.91h1.22v1.75c0,1.56-.51,3.46-4.45,4.7-.18-.27-.53-.67-.78-.88,3.64-1.01,4.01-2.69,4.01-3.83v-1.73Zm1.2,2.33c.64,1.57,2.09,2.67,4.17,3.09-.26.23-.58.67-.74.97-2.21-.58-3.73-1.91-4.45-3.83l1.02-.23Zm-3.66-4.26l1.04-.34c.42.55.83,1.29.97,1.78l-1.1.37c-.14-.53-.51-1.27-.92-1.82Zm5.16-.37l1.2.39c-.42.69-.87,1.4-1.24,1.89l-.88-.35c.32-.55.72-1.38.92-1.93Zm-8.52-3.55h4.97v.9h-4.97v-.9Zm8.11,0h5.02v.9h-5.02v-.9Zm4.52-2.39h1.31v13.93c0,.72-.16,1.11-.64,1.34-.44.21-1.2.23-2.33.23-.04-.34-.21-.92-.39-1.27.78.04,1.52.04,1.75.02.21,0,.3-.09.3-.34v-13.91Zm-12.53,0h5.67v5.74h-5.67v-.99h4.42v-3.76h-4.42v-.99Zm13.17,0v.99h-4.67v3.78h4.67v.99h-5.94v-5.76h5.94Zm-13.96,0h1.31v15.52h-1.31v-15.52Zm20.45,6.22v6.26h-1.27v-5.02h-2.24v-1.24h3.52Zm0,5.73c.83,1.31,2.39,1.91,4.49,1.98,1.96.09,6.04.04,8.18-.11-.16.3-.37.92-.42,1.31-2,.09-5.78.12-7.76.04-2.33-.09-3.94-.71-5.04-2.1-.78.76-1.59,1.52-2.47,2.3l-.69-1.29c.78-.57,1.73-1.36,2.56-2.12h1.15Zm-3.36-11.52l1.01-.72c1.1.8,2.33,2.01,2.88,2.88l-1.1.83c-.49-.88-1.71-2.12-2.79-2.99Zm4.37.41h11.12v1.11h-11.12v-1.11Zm-.26,9.33h11.65v1.11h-11.65v-1.11Zm5.05-10.9h1.31v14.03h-1.31v-14.03Zm-2.72,7.23v1.41h6.84v-1.41h-6.84Zm0-2.33v1.4h6.84v-1.4h-6.84Zm-1.22-.99h9.35v5.74h-9.35v-5.74Zm22.57-3.07c-.04.21-.09.9-.09,1.11-.05,1.15-.02,4.56,0,5.97l-1.34-.69c0-.78-.02-4.29-.07-5.27-.04-.48-.09-.97-.12-1.13h1.63Zm-9.4,2.47c2.4-.04,6.82-.19,9.54-.19,2.16,0,4.35,0,5.18.02l-.02,1.31c-.99-.05-2.58-.09-5.18-.09-3.04,0-6.82.12-9.49.32l-.03-1.36Zm9.28,5.12c0,2.37-1.1,3.55-2.7,3.55-1.48,0-2.92-1.04-2.92-2.97,0-1.75,1.45-3.06,3.13-3.06,2.05,0,3.09,1.52,3.09,3.55,0,2.4-1.17,5.05-5.27,6.27l-1.18-1.15c3.22-.76,5.09-2.33,5.09-5.25,0-1.59-.78-2.26-1.73-2.26s-1.8.72-1.8,1.87.83,1.75,1.8,1.75c1.1,0,1.8-.92,1.52-2.81l.97.49Zm10.92-6.61c.39.04.88.05,1.24.05.94,0,5.12-.12,6.06-.21.53-.05.78-.09.97-.16l.81,1.04c-.32.21-.67.44-1.01.71-.87.67-3.27,2.74-4.65,3.87.81-.27,1.66-.35,2.46-.35,2.93,0,5.04,1.75,5.04,4.14,0,2.85-2.35,4.7-6.1,4.7-2.4,0-3.87-1.04-3.87-2.53,0-1.2,1.1-2.3,2.72-2.3,2.35,0,3.53,1.66,3.66,3.45l-1.27.21c-.11-1.5-.97-2.58-2.39-2.58-.81,0-1.43.49-1.43,1.11,0,.87.97,1.38,2.37,1.38,3,0,4.9-1.24,4.9-3.45,0-1.75-1.66-3.04-3.98-3.04-2.93,0-4.52,1.24-6.75,3.52l-1.02-1.02c1.47-1.2,3.75-3.11,4.75-3.98.99-.81,3.22-2.67,4.1-3.46-.94.05-4.47.19-5.39.25-.41.04-.79.05-1.18.11l-.04-1.45Zm21.56,1.91h1.36v12.53h-1.36v-12.53Zm-4.19,3.48v1.89h9.95v-1.89h-9.95Zm0-2.97v1.89h9.95v-1.89h-9.95Zm-1.29-1.11h12.6v7.1h-12.6v-7.1Zm-1.68,8.71h15.82v1.24h-15.82v-1.24Zm1.64-11.15l1.13-.53c.67.76,1.45,1.8,1.8,2.49l-1.18.62c-.34-.71-1.08-1.8-1.75-2.58Zm4.49-.27l1.18-.46c.58.85,1.22,1.98,1.47,2.74l-1.25.49c-.23-.74-.81-1.91-1.4-2.77Zm6.66-.41l1.43.46c-.71,1.13-1.57,2.39-2.26,3.2l-1.15-.42c.69-.87,1.52-2.26,1.98-3.23Zm12.41,9.86h7.48v6.29h-1.29v-5.07h-4.93v5.14h-1.25v-6.36Zm-.48-6.26h7.48v4.33h-1.29v-3.16h-6.19v-1.17Zm2.54-2.53l1.31.11c-.32,2.17-.81,5.07-1.18,6.75h-1.31c.41-1.75.9-4.72,1.18-6.86Zm-2.83-.44h8.75v1.15h-8.75v-1.15Zm-.53,6.7h9.84v1.18h-9.84v-1.18Zm1.86,6.87h6.33v1.2h-6.33v-1.2Zm-7.53-8.78h4.98v1.04h-4.98v-1.04Zm.11-4.82h4.86v1.06h-4.86v-1.06Zm-.11,7.23h4.98v1.06h-4.98v-1.06Zm-.83-4.86h6.43v1.1h-6.43v-1.1Zm1.47,7.28h4.42v5.16h-4.42v-1.1h3.25v-2.95h-3.25v-1.11Zm-.65,0h1.15v5.97h-1.15v-5.97Zm24.32-9.4c-.16.69-.35,1.66-.81,2.85-.44,1.08-1.1,2.26-1.8,3.18.69-.41,1.7-.65,2.47-.65,1.36,0,2.42.81,2.42,2.24,0,.92.04,2.95.05,4.05h-1.36c.07-.94.09-2.76.07-3.68-.02-1.03-.72-1.5-1.64-1.5-1.13,0-2.24.57-3.06,1.29-.51.49-1.01,1.13-1.59,1.86l-1.22-.9c2.54-2.44,3.73-4.49,4.33-5.99.39-.97.64-2.03.69-2.86l1.45.12Zm-6.06,1.91c.95.12,2.17.18,2.99.18,2.39,0,5.44-.14,7.93-.58v1.31c-2.47.37-5.76.53-8.01.53-.76,0-1.93-.04-2.92-.11v-1.33Zm13.5,4.26c-.44.14-1.08.39-1.55.57-1.26.49-2.93,1.17-4.65,2.05-1.75.92-2.99,1.87-2.99,3.09,0,1.38,1.36,1.59,3.18,1.59,1.38,0,3.29-.16,4.84-.44l-.05,1.43c-1.34.16-3.3.3-4.84.3-2.51,0-4.54-.55-4.54-2.69s2.19-3.48,4.29-4.56c1.68-.87,3.11-1.41,4.28-1.96.53-.25.97-.44,1.47-.69l.57,1.31Zm11.52-3.29h4.79v1.04h-4.79v-1.04Zm-.18,2.74h5.21v1.04h-5.21v-1.04Zm2-4.24h1.08v4.84h-1.08v-4.84Zm-3.29-1.52h7.72v1.17h-7.72v-1.17Zm2.1,8.15h4.05v4.58h-4.05v-1.03h3.02v-2.54h-3.02v-1.01Zm-.55,0h1.01v5.27h-1.01v-5.27Zm5.67-8.15h1.24v13.85c0,.78-.16,1.2-.65,1.41-.5.23-1.38.25-2.7.25-.05-.35-.21-.95-.41-1.33.97.05,1.89.04,2.19.02.26,0,.34-.07.34-.35v-13.85Zm-7.9,0h1.22v6.34c0,2.77-.19,6.68-1.68,9.3-.21-.23-.74-.6-1.04-.74,1.4-2.46,1.5-5.94,1.5-8.55v-6.34Zm-5.88,4.61h4.54v1.06h-4.54v-1.06Zm.11-4.72h4.38v1.06h-4.38v-1.06Zm-.11,7.09h4.54v1.06h-4.54v-1.06Zm-.73-4.77h5.71v1.1h-5.71v-1.1Zm1.34,7.16h3.91v5.14h-3.91v-1.1h2.79v-2.95h-2.79v-1.1Zm-.65,0h1.1v5.97h-1.1v-5.97ZM33.47,62.88c.44-.34.81-.67,1.27-1.17.95-.95,2.42-2.97,3.48-4.22,1.02-1.2,1.94-1.38,3.11-.18,1.06,1.08,2.42,2.83,3.55,4.03,1.06,1.18,2.83,3.04,4.42,4.45l-1.15,1.27c-1.33-1.25-2.92-3.09-4.14-4.47-1.15-1.31-2.49-3-3.32-3.91-.74-.83-1.08-.69-1.7.05-.83,1.02-2.28,2.97-3.2,4.06-.35.46-.76,1.02-1.02,1.41l-1.31-1.34Zm11.42-7.42c.44.67,1.25,1.98,1.68,2.83l-1.06.48c-.42-.94-1.04-2.05-1.64-2.86l1.03-.44Zm2.28-.88c.46.62,1.31,1.94,1.73,2.76l-1.02.49c-.48-.92-1.11-2.01-1.7-2.79l.99-.46Zm3.94,1.08c.67-.02,1.24-.05,1.59-.09,1.15-.12,4.47-.44,7.74-.72,1.93-.16,3.57-.27,4.75-.3l.02,1.41c-1.03-.02-2.56.02-3.46.27-2.53.81-4.06,3.52-4.06,5.6,0,3.45,3.23,4.54,6.1,4.67l-.49,1.45c-3.29-.12-7-1.86-7-5.81,0-2.76,1.68-5,3.3-5.96-1.91.19-6.4.64-8.32,1.04l-.16-1.56Zm28.09-1.29c-.39.28-.94.76-1.22,1.01-1.22,1.06-3.76,3.06-5.07,4.15-1.06.92-1.08,1.18.07,2.14,1.61,1.33,4.74,3.83,6.61,5.73l-1.25,1.15c-.37-.42-.8-.85-1.22-1.29-1.25-1.27-3.92-3.57-5.58-4.93-1.66-1.4-1.47-2.16.12-3.5,1.34-1.11,4.03-3.23,5.21-4.44.35-.35.81-.87,1.01-1.18l1.33,1.17Zm12.51-.62c-.11.39-.25,1.06-.32,1.4-.25,1.27-.62,3.29-1.11,5.04-.64,2.51-1.82,6.17-2.76,8.09l-1.56-.51c1.08-1.82,2.32-5.43,2.97-7.92.44-1.63.9-3.83,1.03-4.77.07-.49.11-1.1.07-1.47l1.68.14Zm-3.91,2.95c1.94,0,4.54-.3,6.73-.87v1.4c-2.19.49-4.86.78-6.77.78-.78,0-1.4-.02-2.05-.07l-.04-1.36c.83.11,1.47.12,2.12.12Zm5.58,2.44c.92-.09,2.09-.16,3.23-.16,1.03,0,2.1.04,3.06.14l-.04,1.34c-.92-.11-1.94-.19-2.99-.19-1.11,0-2.19.05-3.27.18v-1.31Zm.35,4.29c-.14.57-.25,1.13-.25,1.59,0,.83.48,1.64,2.99,1.64,1.15,0,2.37-.14,3.46-.35l-.05,1.43c-.95.12-2.14.25-3.43.25-2.77,0-4.29-.87-4.29-2.62,0-.67.11-1.33.27-2.09l1.31.14Zm4.01-9.14c.46.62,1.1,1.71,1.47,2.42l-.95.42c-.35-.71-.97-1.78-1.45-2.46l.94-.39Zm1.96-.72c.48.65,1.15,1.75,1.48,2.42l-.95.42c-.37-.78-.97-1.77-1.47-2.44l.94-.41Zm11.63,1.31c-.11-.39-.26-.92-.44-1.4l1.52-.18c.16,1.03.62,2.54,1.02,3.69.55,1.52,1.45,3.16,2.21,4.19.23.35.49.65.76.94l-.71,1.01c-.85-.21-3-.41-4.28-.49l.11-1.17c.99.09,2.3.19,2.93.27-.74-1.13-1.71-2.88-2.3-4.49-.39-1.01-.64-1.82-.83-2.37Zm-6.47,1.38c2.95.34,5.74.35,7.76.14,1.4-.16,3.15-.48,4.52-.95l.16,1.4c-1.25.35-2.93.64-4.22.8-2.24.27-5.05.28-8.18.02l-.04-1.4Zm2.74,5.62c-.53.87-.85,1.63-.85,2.46,0,1.7,1.54,2.42,4.17,2.46,1.78,0,3.32-.18,4.54-.44l-.05,1.41c-1.11.19-2.6.39-4.58.37-3.36-.02-5.48-1.22-5.48-3.62,0-.99.35-1.91.87-2.95l1.38.32Zm16.1-6.8c-.09.41-.14,1.25-.16,1.71-.02,1.1,0,2.72.12,4.17.3,2.95,1.15,4.91,2.42,4.91.9,0,1.73-1.82,2.19-3.59l1.11,1.25c-1.08,2.99-2.14,4.01-3.34,4.01-1.68,0-3.27-1.66-3.76-6.24-.16-1.52-.19-3.68-.19-4.7,0-.41,0-1.17-.11-1.57l1.71.04Zm9.19.48c1.59,2.05,2.86,5.81,3.13,8.8l-1.43.57c-.3-3.18-1.38-6.82-3.06-8.89l1.36-.48Z"/>
      <path class="cls-1" d="m32.66,97.22h163.37"/>
      <path class="cls-14" d="m57.02,88.61c-.4,0-.76-.05-1.09-.16l-.71.67c.1.08.23.14.38.2.16.05.39.09.68.14.29.04.71.08,1.24.13.95.07,1.62.28,2.03.65s.61.85.61,1.45c0,.41-.11.8-.34,1.16-.22.37-.56.67-1.02.91-.45.24-1.04.36-1.76.36-.63,0-1.2-.09-1.69-.26-.49-.16-.88-.41-1.15-.75-.27-.33-.41-.75-.41-1.26,0-.27.07-.55.21-.87.14-.3.41-.59.8-.87-.21-.09-.39-.18-.54-.27-.14-.1-.27-.22-.4-.34v-.33l1.21-1.19c-.56-.47-.84-1.1-.84-1.88,0-.46.11-.89.33-1.26.22-.38.54-.68.95-.89.42-.23.92-.34,1.52-.34.41,0,.78.06,1.11.17h2.6v.89l-1.32.06c.27.4.41.86.41,1.38,0,.46-.11.89-.34,1.26-.22.38-.54.68-.95.91-.41.22-.91.33-1.51.33Zm0-.98c.5,0,.9-.13,1.19-.38.3-.27.45-.64.45-1.14s-.15-.85-.45-1.11c-.29-.27-.69-.4-1.19-.4s-.92.13-1.22.4c-.29.26-.44.63-.44,1.11s.15.87.44,1.14c.3.26.71.38,1.22.38Zm-2.07,4.11c0,.47.2.82.6,1.05.4.24.89.36,1.49.36s1.06-.13,1.41-.38c.36-.26.54-.6.54-1.02,0-.3-.12-.57-.37-.8-.25-.22-.7-.35-1.36-.38-.52-.04-.97-.09-1.35-.14-.39.21-.64.43-.77.67-.12.25-.18.46-.18.65Zm10.02-.74c-.67,0-1.27-.15-1.79-.45-.52-.31-.93-.74-1.24-1.29-.29-.55-.44-1.2-.44-1.95s.15-1.38.44-1.93c.29-.56.7-.99,1.22-1.29.53-.31,1.14-.47,1.83-.47s1.27.16,1.76.47c.5.3.89.71,1.15,1.21.27.5.4,1.04.4,1.62,0,.1,0,.21-.01.31v.36h-5.61c.03.54.15.99.37,1.35.23.35.51.62.84.8.34.18.7.27,1.08.27.49,0,.9-.11,1.24-.34.33-.23.57-.54.72-.92h1.18c-.19.65-.55,1.2-1.09,1.63-.53.43-1.21.64-2.05.64Zm0-6.38c-.57,0-1.07.18-1.52.53-.44.34-.69.84-.75,1.51h4.43c-.03-.63-.25-1.13-.65-1.49-.41-.36-.91-.54-1.51-.54Zm4.92,6.21v-7.05h1.08l.07,1.26c.23-.45.55-.8.98-1.05.43-.26.91-.38,1.45-.38.83,0,1.5.26,1.99.77.5.5.75,1.28.75,2.33v4.12h-1.19v-3.99c0-1.47-.61-2.2-1.82-2.2-.61,0-1.11.22-1.52.67-.4.44-.6,1.06-.6,1.88v3.65h-1.19Zm11.3.17c-.67,0-1.27-.15-1.79-.45-.52-.31-.93-.74-1.24-1.29-.29-.55-.44-1.2-.44-1.95s.15-1.38.44-1.93c.29-.56.7-.99,1.22-1.29.53-.31,1.14-.47,1.83-.47s1.27.16,1.76.47c.5.3.89.71,1.15,1.21.27.5.4,1.04.4,1.62,0,.1,0,.21-.01.31v.36h-5.61c.03.54.15.99.37,1.35.23.35.51.62.84.8.34.18.7.27,1.08.27.49,0,.9-.11,1.24-.34.33-.23.57-.54.72-.92h1.18c-.19.65-.55,1.2-1.09,1.63-.53.43-1.21.64-2.05.64Zm0-6.38c-.57,0-1.07.18-1.52.53-.44.34-.69.84-.75,1.51h4.43c-.03-.63-.25-1.13-.65-1.49-.41-.36-.91-.54-1.51-.54Zm7.47,6.21c-.64,0-1.15-.16-1.52-.47-.37-.31-.55-.88-.55-1.69v-3.88h-1.22v-1.01h1.22l.16-1.69h1.04v1.69h2.07v1.01h-2.07v3.88c0,.45.09.75.27.91.18.15.5.23.95.23h.74v1.02h-1.08Zm3.43-8.61c-.24,0-.44-.08-.6-.23-.15-.16-.23-.36-.23-.6s.08-.42.23-.57c.16-.15.36-.23.6-.23s.42.08.58.23c.16.15.24.34.24.57s-.08.44-.24.6c-.16.15-.36.23-.58.23Zm-.6,8.61v-7.05h1.19v7.05h-1.19Zm6.51.17c-.67,0-1.28-.15-1.82-.45-.53-.31-.95-.74-1.26-1.29-.3-.56-.45-1.21-.45-1.95s.15-1.38.45-1.93c.31-.56.73-.99,1.26-1.29.54-.31,1.15-.47,1.82-.47.83,0,1.53.22,2.1.65.58.44.94,1.02,1.09,1.75h-1.22c-.09-.44-.33-.77-.7-1.01-.37-.25-.8-.37-1.29-.37-.4,0-.77.1-1.12.3-.35.2-.63.5-.85.89-.22.4-.33.89-.33,1.48s.11,1.08.33,1.48c.22.4.5.7.85.91.35.2.72.3,1.12.3.49,0,.92-.12,1.29-.36.37-.25.6-.59.7-1.04h1.22c-.14.71-.5,1.29-1.08,1.73-.58.45-1.28.67-2.12.67Zm7.56,0c-.84,0-1.54-.21-2.1-.64-.56-.43-.89-1-.98-1.73h1.22c.08.37.27.69.58.97.32.27.75.4,1.29.4.5,0,.87-.1,1.11-.31.24-.22.36-.47.36-.77,0-.43-.16-.71-.47-.85-.3-.14-.73-.27-1.29-.38-.38-.08-.76-.18-1.14-.33-.38-.14-.7-.34-.95-.6-.26-.27-.38-.61-.38-1.04,0-.62.23-1.12.68-1.51.46-.4,1.09-.6,1.88-.6s1.36.19,1.83.57c.48.37.76.9.84,1.59h-1.18c-.05-.36-.2-.64-.47-.84-.26-.21-.6-.31-1.04-.31s-.76.09-.99.27c-.23.18-.34.42-.34.71s.15.51.44.67c.3.16.71.3,1.22.41.44.09.85.21,1.24.36.4.13.72.34.97.61.26.27.38.65.38,1.16,0,.63-.23,1.16-.72,1.58-.48.41-1.14.61-1.97.61Z"/>
      <path class="cls-13" d="m38.58,88.37c2.04,0,3.7-1.66,3.7-3.7s-1.66-3.7-3.7-3.7-3.7,1.66-3.7,3.7,1.66,3.7,3.7,3.7Zm4.59-3.7c0,2.53-2.05,4.59-4.59,4.59s-4.59-2.05-4.59-4.59,2.05-4.59,4.59-4.59,4.59,2.05,4.59,4.59Z"/>
    </g>
  </g>
</svg>