<?xml version="1.0" encoding="UTF-8"?>
<svg id="Layer_6" data-name="Layer 6" xmlns="http://www.w3.org/2000/svg" xmlns:xlink="http://www.w3.org/1999/xlink" viewBox="0 0 149 119">
  <defs>
    <style>
      .cls-1 {
        clip-path: url(#clippath);
      }

      .cls-2 {
        fill: none;
      }

      .cls-2, .cls-3, .cls-4, .cls-5 {
        stroke-width: 0px;
      }

      .cls-6 {
        mask: url(#mask);
      }

      .cls-7 {
        letter-spacing: -.09em;
      }

      .cls-8 {
        letter-spacing: -.1em;
      }

      .cls-9 {
        letter-spacing: -.06em;
      }

      .cls-10 {
        letter-spacing: -.03em;
      }

      .cls-11 {
        letter-spacing: 0em;
      }

      .cls-12 {
        letter-spacing: -.05em;
      }

      .cls-3 {
        fill: #2b3482;
        fill-rule: evenodd;
      }

      .cls-13 {
        font-family: HiraKakuStdN-W8-83pv-RKSJ-H, 'Hiragino Kaku Gothic StdN';
        font-size: 15px;
      }

      .cls-13, .cls-5 {
        fill: #fff;
      }

      .cls-4 {
        fill: #8e93c9;
      }
    </style>
    <mask id="mask" x=".83" y="-109.01" width="220" height="228" maskUnits="userSpaceOnUse">
      <g id="mask0_291_2279" data-name="mask0 291 2279">
        <rect class="cls-4" x=".83" y="0" width="148" height="119" rx="16" ry="16"/>
      </g>
    </mask>
    <clipPath id="clippath">
      <rect class="cls-2" x="16.83" y="14.07" width="33.83" height="33.83"/>
    </clipPath>
  </defs>
  <rect class="cls-4" x=".83" y="0" width="148" height="119" rx="16" ry="16"/>
  <g class="cls-6">
    <path class="cls-3" d="m131.17-107.65c17.35-5.1,36.04,5.01,50.47,15.93,14.25,10.79,22.32,27.11,28.54,43.89,6.47,17.47,15.31,36.96,7.73,53.97-7.48,16.78-29.09,20.16-44.92,29.44-13.85,8.12-25.77,21.3-41.81,21.4-16.08.1-31.51-8.83-42.2-20.87-9.59-10.79-6.57-27.21-12.31-40.47-6.72-15.53-29.51-27.32-23.98-43.31,5.57-16.1,32.23-9.27,45.75-19.6,14.11-10.78,15.71-35.39,32.74-40.39Z"/>
  </g>
  <g class="cls-1">
    <path class="cls-5" d="m42.55,16.55c-7.97-4.86-18.4-2.33-23.26,5.64-4.86,7.97-2.33,18.4,5.64,23.26.44.27.9.52,1.35.74,0,0,.01,0,.02.01,2.37,1.16,4.9,1.72,7.41,1.72,5.71,0,11.29-2.89,14.48-8.11,4.86-7.97,2.33-18.4-5.64-23.26Zm-12.92.63l-.21.82-4.41,2.48-.9-.23c1.57-1.41,3.45-2.47,5.52-3.08Zm-4.07,18.22l-.24.26c-.74.82-1.06,1.91-.87,2.99l.67,3.91c-2.7-2-4.6-4.86-5.4-8.17-.61-2.5-.54-5.05.17-7.46l4.15,2.38c.41.24.62.72.5,1.18-.3,1.19.03,2.43.87,3.32l.13.13c.38.4.39,1.03.02,1.44Zm8.79,10.01l-.26-1.58.21-.09c.75-.33,1.63-.08,2.09.6l.49.73c-.84.19-1.69.3-2.53.34Zm11.69-6.9c-1.59,2.61-3.92,4.61-6.68,5.77-.02-.04-.04-.08-.07-.12l-.81-1.21c-1.14-1.7-3.32-2.33-5.19-1.5l-1.09.48c-.52.23-.82.79-.73,1.35l.33,2.02c-1.32-.18-2.61-.54-3.85-1.09l-1.02-5.97c-.06-.32.04-.65.26-.89l.24-.26c1.24-1.37,1.22-3.5-.05-4.84l-.13-.13c-.25-.27-.35-.64-.26-.99.39-1.54-.31-3.18-1.69-3.97l-4.47-2.56c.18-.37.38-.73.6-1.09.24-.39.5-.77.77-1.14l2.69.68c.1.03.2.04.31.04.21,0,.43-.05.61-.16l5.32-2.99c.3-.17.52-.45.6-.79l.59-2.33c.01-.05.02-.11.03-.16.48-.05.95-.07,1.43-.07,2.62,0,5.19.72,7.48,2.11.27.16.53.33.78.51,0,0,0,0,0,0l-2.04,2.23-5.38.21c-.42.02-.8.24-1.02.59l-2.34,3.78c-.27.44-.25,1,.06,1.41l1.48,1.97c.31.41.47.91.47,1.43v2.57c-.02,1.02.42,1.98,1.2,2.63.63.53,1.41.81,2.21.81.19,0,.39-.02.58-.05l2.86-.49c1.05-.18,2.03-.71,2.75-1.5.43-.47,1.02-.74,1.66-.76.64-.02,1.24.21,1.7.65l.8.77c.1.1.22.18.35.23-.34.97-.78,1.91-1.32,2.81Zm1.98-5.55l-.08-.07c-.95-.91-2.2-1.39-3.51-1.35-1.31.04-2.53.6-3.42,1.57-.35.38-.82.64-1.33.73l-2.86.49c-.37.06-.63-.1-.75-.21-.12-.1-.33-.33-.33-.71v-2.57c.02-1.06-.33-2.1-.96-2.94l-.97-1.29,1.54-2.49,5.23-.2c.33-.01.65-.16.88-.41l2.39-2.62s.05-.06.07-.09c1.86,1.85,3.17,4.18,3.81,6.8.43,1.78.52,3.59.28,5.36Z"/>
  </g>
  <path class="cls-5" d="m124.83,30.99c-.4,0-.78.12-1.11.34-.33.22-.58.53-.74.9-.15.37-.19.77-.11,1.16.08.39.27.74.55,1.02.28.28.64.47,1.02.55.39.08.79.04,1.15-.11.37-.15.68-.41.9-.74s.34-.72.34-1.11c0-.53-.21-1.04-.59-1.41-.38-.38-.88-.59-1.41-.59Z"/>
  <path class="cls-5" d="m125.94,26.66c-.33.22-.71.34-1.11.34-.53,0-1.04-.21-1.41-.59-.38-.38-.59-.88-.59-1.41,0-.4.12-.78.34-1.11.22-.33.53-.59.9-.74.36-.15.77-.19,1.15-.11.39.08.75.27,1.02.55.28.28.47.64.55,1.02.08.39.04.79-.11,1.16-.15.37-.41.68-.74.9Z"/>
  <path class="cls-5" d="m124.83,30.99c-.4,0-.78.12-1.11.34-.33.22-.58.53-.74.9-.15.37-.19.77-.11,1.16.08.39.27.74.55,1.02.28.28.64.47,1.02.55.39.08.79.04,1.15-.11.37-.15.68-.41.9-.74s.34-.72.34-1.11c0-.53-.21-1.04-.59-1.41-.38-.38-.88-.59-1.41-.59Z"/>
  <path class="cls-5" d="m125.94,26.66c-.33.22-.71.34-1.11.34-.53,0-1.04-.21-1.41-.59-.38-.38-.59-.88-.59-1.41,0-.4.12-.78.34-1.11.22-.33.53-.59.9-.74.36-.15.77-.19,1.15-.11.39.08.75.27,1.02.55.28.28.47.64.55,1.02.08.39.04.79-.11,1.16-.15.37-.41.68-.74.9Z"/>
  <text class="cls-13" transform="translate(12.83 95.05)"><tspan x="0" y="0">業界特</tspan><tspan class="cls-11" x="45" y="0">有</tspan><tspan class="cls-12" x="59.9" y="0">の</tspan><tspan class="cls-7" x="74.15" y="0">レ</tspan><tspan class="cls-8" x="87.75" y="0">ッ</tspan><tspan class="cls-9" x="101.31" y="0">ス</tspan><tspan class="cls-10" x="115.47" y="0">ン</tspan></text>
</svg>