<?xml version="1.0" encoding="UTF-8"?>
<svg id="Layer_1" data-name="Layer 1" xmlns="http://www.w3.org/2000/svg" xmlns:xlink="http://www.w3.org/1999/xlink" viewBox="0 0 2347.78 579.82">
  <defs>
    <style>
      .cls-1 {
        clip-path: url(#clippath);
      }

      .cls-2 {
        fill: none;
      }

      .cls-2, .cls-3, .cls-4 {
        stroke-width: 0px;
      }

      .cls-3 {
        fill: #6d64ad;
      }

      .cls-4 {
        fill: #36bdb1;
      }
    </style>
    <clipPath id="clippath">
      <rect class="cls-2" width="2347.78" height="579.82"/>
    </clipPath>
  </defs>
  <g class="cls-1">
    <g>
      <path class="cls-3" d="m265.65,437.24c-15.57,0-29.09-3.28-40.56-9.83-11.2-6.83-19.94-15.98-26.22-27.45-6.01-11.74-9.01-24.85-9.01-39.33v-210.17h39.33v215.09c0,10.65,3.28,19.53,9.83,26.63,6.83,6.83,15.7,10.24,26.63,10.24h77.02v34.82h-77.02Zm112.94,0v-208.94h38.1v208.94h-38.1Zm19.26-242.13c-6.83,0-12.84-2.46-18.03-7.38-4.92-5.19-7.37-11.2-7.37-18.03s2.46-12.7,7.37-17.62c5.19-5.19,11.2-7.78,18.03-7.78s12.7,2.59,17.62,7.78c5.19,4.92,7.78,10.79,7.78,17.62s-2.59,12.84-7.78,18.03c-4.92,4.92-10.79,7.38-17.62,7.38Zm72.22,242.13v-120.86c0-18.57,4.1-34.82,12.29-48.75,8.47-13.93,20.07-24.72,34.82-32.37,14.75-7.92,31.55-11.88,50.39-11.88s35.92,3.96,50.39,11.88c14.75,7.65,26.22,18.44,34.41,32.37,8.47,13.93,12.7,30.18,12.7,48.75v120.86h-37.69v-120.45c0-12.56-2.87-23.35-8.6-32.37-5.46-9.29-12.84-16.39-22.12-21.3-9.01-4.92-18.71-7.37-29.09-7.37s-20.21,2.46-29.5,7.37c-9.01,4.92-16.39,12.02-22.12,21.3-5.46,9.01-8.19,19.8-8.19,32.37v120.45h-37.69Zm280.26,83.17v-32.37h102.42c10.11,0,17.89-3,23.35-9.01,5.74-6.01,8.6-13.93,8.6-23.76v-57.36h-.82c-5.19,7.92-11.47,15.02-18.85,21.3-7.38,6.28-15.84,11.33-25.4,15.16-9.56,3.55-20.35,5.33-32.37,5.33-19.67,0-37.01-4.51-52.03-13.52-15.02-9.29-26.77-21.99-35.23-38.1-8.47-16.39-12.7-35.1-12.7-56.13s4.23-38.92,12.7-55.31c8.47-16.39,20.62-29.36,36.46-38.92,16.12-9.56,35.51-14.34,58.18-14.34s40.83,4.64,56.95,13.93c16.12,9.29,28.54,22.26,37.28,38.92,9.01,16.39,13.52,35.64,13.52,57.77v123.73c0,19.12-5.6,34.28-16.8,45.48-11.2,11.47-26.49,17.21-45.89,17.21h-109.39Zm63.91-113.08c13.93,0,26.08-3.28,36.46-9.83,10.65-6.55,18.85-15.43,24.58-26.63,6.01-11.47,9.01-24.31,9.01-38.51s-2.87-27.45-8.6-38.92c-5.74-11.47-13.79-20.48-24.17-27.04-10.38-6.83-22.81-10.24-37.28-10.24s-26.49,3.41-36.87,10.24c-10.11,6.56-18.03,15.71-23.76,27.45-5.46,11.47-8.19,24.44-8.19,38.92,0,13.66,2.73,26.22,8.19,37.69,5.74,11.2,13.66,20.21,23.76,27.04,10.38,6.55,22.67,9.83,36.87,9.83Zm258.37,34.82c-18.85,0-35.78-3.82-50.8-11.47-14.75-7.92-26.36-18.85-34.83-32.78-8.19-13.93-12.29-30.18-12.29-48.75v-120.86h38.1v120.45c0,12.56,2.74,23.49,8.19,32.77,5.47,9.01,12.7,15.98,21.72,20.89,9.29,4.92,19.11,7.38,29.49,7.38s20.48-2.46,29.49-7.38c9.29-4.92,16.66-11.88,22.13-20.89,5.73-9.29,8.6-20.21,8.6-32.77v-120.45h38.11v120.86c0,18.57-4.24,34.82-12.71,48.75-8.46,13.93-20.07,24.86-34.82,32.78-14.75,7.65-31.55,11.47-50.4,11.47Zm238.46,0c-20.22,0-37.7-4.78-52.44-14.34-14.75-9.83-26.09-23.08-34.01-39.74-7.92-16.66-11.88-35.1-11.88-55.31s4.37-38.92,13.11-55.31c8.74-16.66,21.31-29.77,37.7-39.33,16.39-9.83,36.05-14.75,58.99-14.75s41.11,4.78,56.96,14.34c15.84,9.56,27.99,22.53,36.46,38.92,8.74,16.39,13.11,34.69,13.11,54.9v105.7h-38.11v-42.61h-.82c-4.1,7.92-9.7,15.57-16.8,22.94-6.82,7.1-15.43,12.97-25.81,17.62-10.38,4.64-22.54,6.96-36.46,6.96Zm9.83-32.37c13.66,0,25.67-3.28,36.05-9.83,10.66-6.83,18.85-16.11,24.58-27.86,6.01-12.02,9.01-25.4,9.01-40.15s-2.86-27.45-8.6-38.92c-5.46-11.47-13.38-20.48-23.76-27.04-10.38-6.83-22.53-10.24-36.46-10.24-14.74,0-27.45,3.41-38.1,10.24-10.38,6.83-18.44,16.12-24.17,27.86-5.47,11.47-8.19,24.58-8.19,39.33s2.73,27.18,8.19,38.92c5.46,11.47,13.38,20.62,23.76,27.45,10.38,6.83,22.94,10.24,37.69,10.24Z"/>
      <path class="cls-4" d="m1557.08,437.24c-15.57,0-29.1-3.28-40.56-9.83-11.21-6.83-19.94-15.98-26.22-27.45-6.01-11.74-9.01-24.85-9.01-39.33v-210.17h39.33v215.09c0,10.65,3.27,19.53,9.83,26.63,6.82,6.83,15.7,10.24,26.63,10.24h77.02v34.82h-77.02Zm112.94,0v-208.94h38.11v208.94h-38.11Zm19.26-242.13c-6.83,0-12.84-2.46-18.03-7.38-4.91-5.19-7.37-11.2-7.37-18.03s2.45-12.7,7.37-17.62c5.19-5.19,11.2-7.78,18.03-7.78s12.7,2.59,17.61,7.78c5.19,4.92,7.78,10.79,7.78,17.62s-2.59,12.84-7.78,18.03c-4.91,4.92-10.79,7.38-17.61,7.38Zm160.31,247.04c-9.29,0-17.76-2.59-25.4-7.78-7.38-5.46-12.84-13.11-16.4-22.94l-68-183.13h41.38l60.63,169.2c1.09,2.73,2.32,4.64,3.69,5.74,1.37,1.09,2.87,1.64,4.51,1.64,1.91,0,3.41-.55,4.51-1.64,1.37-1.09,2.59-3,3.69-5.74l61.04-169.2h40.56l-68.01,183.13c-3.82,9.83-9.42,17.48-16.8,22.94-7.38,5.19-15.84,7.78-25.4,7.78Zm240.33-4.92c-22.94,0-43.29-4.23-61.04-12.7-17.76-8.74-31.68-20.89-41.78-36.46-9.84-15.84-14.75-34.28-14.75-55.31s4.23-39.33,12.7-55.72c8.47-16.66,20.22-29.77,35.24-39.33,15.02-9.56,32.5-14.34,52.44-14.34,21.58,0,39.47,4.64,53.67,13.93,14.48,9.29,25.26,21.85,32.37,37.69,7.11,15.57,10.66,33.05,10.66,52.44,0,3-.13,6.15-.41,9.42,0,3.28-.28,6.15-.82,8.6h-155.69c1.37,12.84,5.6,23.76,12.7,32.78,7.1,8.74,16.11,15.43,27.04,20.07,11.2,4.37,23.49,6.55,36.87,6.55h54.49v32.37h-53.68Zm-77.84-118.4h119.22c0-5.19-.55-10.65-1.64-16.39-1.09-6.01-3-11.74-5.73-17.21-2.74-5.74-6.43-10.79-11.06-15.16-4.37-4.64-9.97-8.33-16.8-11.06-6.56-2.73-14.34-4.1-23.35-4.1-9.56,0-18.03,1.91-25.4,5.74-7.1,3.55-13.25,8.47-18.44,14.75-5.19,6.01-9.15,12.84-11.88,20.48-2.73,7.65-4.37,15.29-4.91,22.94Z"/>
    </g>
  </g>
</svg>