<?xml version="1.0" encoding="UTF-8"?>
<svg id="Layer_1" data-name="Layer 1" xmlns="http://www.w3.org/2000/svg" viewBox="0 0 16 16">
  <defs>
    <style>
      .cls-1 {
        fill: #fff;
        stroke-width: 0px;
      }
    </style>
  </defs>
  <path class="cls-1" d="m13.89,3.94c-1.56-.33-2.73-1.65-2.88-3.24v-.34h-2.63v10.43c0,1.22-1,2.21-2.22,2.2-.69,0-1.34-.32-1.75-.87h0s0,0,0,0c-.74-.97-.55-2.36.42-3.1.57-.44,1.32-.56,2.01-.35v-2.67c-2.64-.37-5.08,1.48-5.45,4.12-.2,1.48.29,2.97,1.33,4.04,1.86,1.91,4.92,1.94,6.83.08.93-.91,1.45-2.15,1.45-3.45v-5.33c1.06.76,2.34,1.17,3.64,1.16v-2.61c-.26,0-.51-.03-.77-.08Z"/>
</svg>