<?xml version="1.0" encoding="UTF-8"?>
<svg id="Layer_3" data-name="Layer 3" xmlns="http://www.w3.org/2000/svg" viewBox="0 0 16 16">
  <defs>
    <style>
      .cls-1 {
        fill: #fff;
        fill-rule: evenodd;
        stroke-width: 0px;
      }
    </style>
  </defs>
  <path class="cls-1" d="m15.05,5.36s-.14-.99-.57-1.43c-.55-.57-1.16-.58-1.44-.61-2.01-.15-5.03-.15-5.03-.15h0s-3.02,0-5.03.15c-.28.03-.89.04-1.44.61-.43.44-.57,1.43-.57,1.43,0,0-.14,1.16-.14,2.33v1.09c0,1.16.14,2.33.14,2.33,0,0,.14.99.57,1.43.55.57,1.27.55,1.59.62,1.15.11,4.89.14,4.89.14,0,0,3.03,0,5.04-.15.28-.03.89-.04,1.44-.61.43-.44.57-1.43.57-1.43,0,0,.14-1.16.14-2.33v-1.09c0-1.16-.15-2.33-.15-2.33h0Zm-8.54,4.74v-4.04l3.89,2.03s-3.89,2.02-3.89,2.02Z"/>
</svg>