<?xml version="1.0" encoding="UTF-8"?>
<svg xmlns="http://www.w3.org/2000/svg" viewBox="0 0 352.64 457.65">
  <defs>
    <style>
      .cls-1 {
        fill: none;
        stroke: #7a7a7a;
        stroke-dasharray: 0 0 2 16;
      }

      .cls-2 {
        fill: #f9f9f9;
        stroke: #d76b66;
        stroke-width: 8px;
      }

      .cls-3 {
        fill: #75c57f;
      }

      .cls-3, .cls-4, .cls-5, .cls-6, .cls-7, .cls-8, .cls-9, .cls-10, .cls-11, .cls-12 {
        stroke-width: 0px;
      }

      .cls-4 {
        fill: #7a7a7a;
      }

      .cls-5 {
        fill: #565656;
      }

      .cls-6 {
        fill: #242424;
      }

      .cls-7 {
        fill: #e0e0e0;
      }

      .cls-8 {
        fill: #d76b66;
      }

      .cls-9 {
        fill: #333;
      }

      .cls-10 {
        fill: #fff;
      }

      .cls-11 {
        fill: #ea973d;
      }

      .cls-12 {
        fill: #f6cf7d;
      }
    </style>
  </defs>
  <g id="Layer_2" data-name="Layer 2">
    <rect class="cls-10" width="352.64" height="457.65"/>
  </g>
  <g id="Layer_1" data-name="Layer 1">
    <path class="cls-1" d="m63.2,138.05c-.77,5.29-1.19,10.66-1.23,16.07h.5c0,.34,0,.67,0,1.01h.92c0-.33,0-.66,0-1h.5c.05-5.32.45-10.59,1.21-15.8l-.49-.07c.1-.66.2-1.31.3-1.97l.49.08c.85-5.24,2.06-10.39,3.61-15.43l-.48-.15c.2-.63.4-1.27.6-1.9l.48.15c1.64-5.03,3.63-9.94,5.94-14.69l-.45-.22c.29-.6.59-1.19.89-1.78l.45.23c2.39-4.71,5.11-9.25,8.14-13.6l-.41-.29c.38-.54.76-1.09,1.15-1.62l.41.29c3.09-4.27,6.48-8.34,10.16-12.16l-.36-.35c.23-.24.46-.48.69-.72.23-.23.46-.47.69-.7l.35.35c3.71-3.72,7.64-7.16,11.77-10.28l-.3-.4c.52-.4,1.05-.79,1.58-1.17l.29.4c4.23-3.09,8.65-5.86,13.24-8.31l-.24-.44c.58-.31,1.16-.61,1.74-.91l.23.45c4.65-2.38,9.46-4.42,14.39-6.11l-.16-.47c.62-.21,1.24-.42,1.86-.62l.15.48c4.95-1.6,10.02-2.85,15.18-3.74l-.08-.49c.65-.11,1.29-.22,1.94-.32l.08.49c5.13-.79,10.33-1.21,15.58-1.26v-.5c.32,0,.65,0,.98,0s.66,0,.98,0v.5c5.24.05,10.44.47,15.57,1.26l.08-.49c.65.1,1.29.2,1.94.32l-.09.49c5.15.88,10.22,2.14,15.18,3.74l.15-.48c.62.2,1.24.41,1.86.62l-.16.47c4.93,1.69,9.74,3.73,14.38,6.11l.23-.45c.58.3,1.16.6,1.74.91l-.24.44c4.58,2.45,9.01,5.22,13.24,8.31l.29-.4c.53.39,1.05.78,1.58,1.17l-.3.4c4.13,3.13,8.06,6.56,11.77,10.28l.35-.35c.23.23.46.47.69.7.23.24.46.48.69.72l-.36.35c3.68,3.83,7.07,7.9,10.16,12.16l.4-.29c.39.54.77,1.08,1.15,1.62l-.41.29c3.03,4.34,5.74,8.89,8.14,13.6l.45-.23c.3.59.6,1.19.89,1.78l-.45.22c2.31,4.75,4.29,9.66,5.94,14.69l.47-.16c.21.63.41,1.26.6,1.9l-.48.15c1.55,5.04,2.76,10.19,3.61,15.43l.49-.08c.11.65.21,1.31.3,1.97l-.49.07c.76,5.2,1.17,10.48,1.21,15.8h.5c0,.33,0,.66,0,.99h.92c0-.34,0-.67,0-1.01h.5c-.05-5.41-.46-10.78-1.23-16.08l-.49.07c-.1-.66-.2-1.32-.31-1.99l.49-.08c-.87-5.33-2.1-10.57-3.67-15.7l-.48.15c-.2-.64-.4-1.28-.61-1.91l.48-.15c-1.67-5.12-3.69-10.11-6.04-14.95l-.45.22c-.29-.6-.59-1.2-.89-1.8l.45-.23c-2.43-4.79-5.2-9.41-8.28-13.83l-.41.29c-.38-.55-.77-1.1-1.16-1.64l.4-.29c-3.14-4.34-6.59-8.48-10.33-12.37l-.36.35c-.23-.24-.46-.48-.7-.72-.23-.24-.46-.47-.7-.71l.35-.35c-3.77-3.79-7.77-7.28-11.97-10.46l-.3.4c-.53-.4-1.06-.79-1.59-1.18l.29-.4c-4.3-3.14-8.8-5.96-13.46-8.45l-.24.44c-.58-.31-1.17-.62-1.76-.92l.23-.45c-4.73-2.42-9.62-4.49-14.63-6.21l-.16.47c-.62-.21-1.25-.42-1.88-.63l.15-.48c-5.04-1.63-10.2-2.9-15.44-3.8l-.08.49c-.65-.11-1.3-.22-1.96-.32l.08-.49c-5.22-.8-10.51-1.23-15.85-1.28v.5c-.33,0-.66,0-.99,0s-.66,0-.99,0v-.5c-5.34.05-10.63.48-15.85,1.28l.08.49c-.65.1-1.3.21-1.95.32l-.08-.49c-5.24.9-10.4,2.17-15.44,3.8l.15.48c-.63.2-1.25.41-1.88.63l-.16-.47c-5.01,1.72-9.9,3.8-14.63,6.21l.23.45c-.59.3-1.17.61-1.75.92l-.24-.44c-4.66,2.49-9.16,5.31-13.47,8.45l.29.4c-.53.39-1.06.78-1.59,1.18l-.3-.4c-4.2,3.18-8.2,6.67-11.97,10.46l.35.35c-.23.23-.47.47-.7.71-.23.24-.47.48-.7.72l-.36-.35c-3.74,3.89-7.19,8.03-10.33,12.37l.41.29c-.39.54-.78,1.09-1.16,1.64l-.41-.29c-3.08,4.42-5.84,9.04-8.28,13.83l.45.23c-.3.6-.6,1.2-.89,1.8l-.45-.22c-2.35,4.83-4.37,9.83-6.04,14.95l.48.15c-.21.64-.41,1.27-.61,1.91l-.48-.15c-1.58,5.12-2.81,10.37-3.67,15.7l.49.08c-.11.66-.21,1.32-.31,1.99l-.49-.07Z"/>
    <path class="cls-8" d="m42.24,162.15c-4.41.28-8.24-3.07-8.27-7.49-.26-34.67,12.24-68.33,35.26-94.5,23.02-26.17,54.82-42.85,89.24-47.01,4.39-.53,8.19,2.84,8.48,7.25l.02.3c.28,4.41-3.07,8.19-7.45,8.75-30.1,3.87-57.88,18.56-78.04,41.48-20.17,22.92-31.2,52.34-31.2,82.69,0,4.42-3.32,8.22-7.73,8.51l-.3.02Z"/>
    <path class="cls-12" d="m169.81,20.25c-.19-4.41,3.24-8.17,7.66-8.11,26.81.38,52.96,8.37,75.4,23.04,3.7,2.42,4.44,7.45,1.82,11l-.18.25c-2.62,3.56-7.62,4.29-11.33,1.9-19.43-12.49-41.93-19.37-65.02-19.87-4.42-.1-8.15-3.5-8.34-7.91v-.3Z"/>
    <path class="cls-11" d="m257.24,48.1c2.71-3.49,7.75-4.15,11.08-1.25,12.67,11.02,23.28,24.21,31.33,38.95,2.12,3.88.4,8.66-3.59,10.56l-.27.13c-3.99,1.9-8.74.18-10.89-3.68-6.92-12.45-15.91-23.62-26.58-33.05-3.31-2.92-3.97-7.93-1.26-11.42l.19-.24Z"/>
    <path class="cls-3" d="m296.64,97.61c4.01-1.85,8.79-.11,10.41,4,6.68,16.89,10.04,34.92,9.91,53.09-.03,4.42-3.86,7.76-8.27,7.48l-.3-.02c-4.41-.28-7.73-4.09-7.73-8.51,0-15.45-2.86-30.78-8.43-45.19-1.59-4.12.13-8.87,4.14-10.72l.28-.13Z"/>
    <path class="cls-2" d="m80.96,70.14c5.52,0,10-4.48,10-10s-4.48-10-10-10-10,4.48-10,10,4.48,10,10,10Z"/>
    <path class="cls-6" d="m145.6,150.61c-2.45,0-4.64-.42-6.55-1.26-1.9-.84-3.4-2.01-4.5-3.51-1.1-1.5-1.69-3.23-1.76-5.2h6.41c.06.94.37,1.77.94,2.47.57.69,1.32,1.23,2.27,1.62.94.39,2,.58,3.17.58,1.25,0,2.36-.22,3.32-.65.97-.44,1.72-1.06,2.27-1.84.54-.78.81-1.69.8-2.71.01-1.06-.26-1.99-.82-2.8-.56-.81-1.36-1.44-2.42-1.89-1.04-.45-2.31-.68-3.78-.68h-3.08v-4.88h3.08c1.22,0,2.28-.21,3.19-.63.92-.42,1.64-1.01,2.16-1.77.52-.77.78-1.66.77-2.68.01-.99-.21-1.85-.66-2.57-.44-.74-1.07-1.31-1.89-1.72-.81-.41-1.76-.61-2.85-.61s-2.06.19-2.97.58c-.91.39-1.64.94-2.2,1.65-.56.7-.85,1.54-.89,2.52h-6.09c.05-1.96.61-3.67,1.69-5.15,1.09-1.49,2.55-2.65,4.36-3.48,1.82-.84,3.86-1.26,6.12-1.26s4.35.44,6.07,1.31c1.73.86,3.06,2.03,4.01,3.49.94,1.47,1.42,3.09,1.42,4.86.01,1.97-.57,3.61-1.74,4.94-1.16,1.33-2.68,2.2-4.57,2.61v.27c2.46.34,4.33,1.25,5.64,2.73,1.32,1.47,1.97,3.29,1.96,5.47,0,1.95-.56,3.7-1.67,5.25-1.1,1.53-2.62,2.74-4.57,3.61-1.93.88-4.15,1.31-6.65,1.31Zm28.87,0c-2.27,0-4.31-.43-6.1-1.28-1.79-.86-3.22-2.04-4.28-3.54-1.05-1.5-1.6-3.22-1.67-5.15h6.14c.11,1.43.73,2.6,1.86,3.51,1.12.9,2.48,1.35,4.06,1.35,1.24,0,2.34-.28,3.31-.85.97-.57,1.73-1.36,2.28-2.37.56-1.01.83-2.16.82-3.46.01-1.32-.27-2.49-.84-3.51-.57-1.02-1.35-1.82-2.34-2.4-.99-.59-2.12-.89-3.41-.89-1.04-.01-2.07.18-3.09.58-1.01.4-1.81.92-2.4,1.57l-5.71-.94,1.82-18h20.25v5.28h-15.02l-1.01,9.26h.21c.65-.76,1.56-1.39,2.74-1.89,1.18-.51,2.48-.77,3.89-.77,2.11,0,4,.5,5.66,1.5,1.66.99,2.97,2.35,3.92,4.09.96,1.74,1.43,3.73,1.43,5.97s-.53,4.36-1.6,6.17c-1.06,1.8-2.53,3.21-4.41,4.24-1.88,1.02-4.05,1.53-6.51,1.53Zm34.9-7.02v-1.84c0-1.35.28-2.6.85-3.73.58-1.14,1.42-2.05,2.52-2.74,1.1-.69,2.44-1.04,4.01-1.04s2.97.35,4.06,1.04c1.09.68,1.91,1.59,2.47,2.73.57,1.14.85,2.39.85,3.75v1.84c0,1.35-.28,2.6-.85,3.73-.57,1.14-1.4,2.05-2.51,2.74-1.09.69-2.43,1.04-4.02,1.04s-2.94-.35-4.04-1.04c-1.1-.69-1.94-1.61-2.51-2.74-.56-1.14-.83-2.38-.83-3.73Zm4.45-1.84v1.84c0,.9.22,1.72.65,2.47.43.75,1.19,1.12,2.28,1.12s1.86-.37,2.27-1.11c.42-.75.63-1.58.63-2.49v-1.84c0-.91-.2-1.74-.6-2.49-.4-.76-1.16-1.14-2.3-1.14-1.07,0-1.82.38-2.27,1.14-.44.75-.67,1.58-.67,2.49Zm-22.19-18.14v-1.84c0-1.36.29-2.61.87-3.75.58-1.14,1.42-2.05,2.52-2.73,1.1-.69,2.44-1.04,4.01-1.04s2.95.35,4.04,1.04c1.1.68,1.93,1.59,2.49,2.73.56,1.14.84,2.39.84,3.75v1.84c0,1.36-.28,2.61-.85,3.75-.56,1.12-1.39,2.03-2.49,2.71-1.1.68-2.44,1.02-4.02,1.02s-2.95-.34-4.06-1.02c-1.09-.68-1.92-1.59-2.49-2.73-.57-1.14-.85-2.38-.85-3.73Zm4.48-1.84v1.84c0,.91.21,1.74.63,2.49.43.74,1.19,1.11,2.28,1.11s1.84-.37,2.25-1.11c.42-.75.63-1.58.63-2.49v-1.84c0-.91-.2-1.74-.6-2.49-.4-.76-1.16-1.14-2.28-1.14s-1.84.38-2.27,1.14c-.43.76-.65,1.59-.65,2.49Zm-2.54,28.36l24-34.91h4.26l-24,34.91h-4.26Z"/>
    <path class="cls-9" d="m66.96,184.47h10.4v1.1h-10.4v-1.1Zm-.66,4.4h10.51v1.08h-10.51v-1.08Zm-1.64,4.9h13.39v1.1h-13.39v-1.1Zm6.12-12.21h1.15v12.76h-1.15v-12.76Zm-3.38.24l1.15.26c-.66,2.32-1.71,4.54-2.91,5.99-.23-.2-.74-.53-1.02-.68,1.23-1.34,2.21-3.42,2.78-5.57Zm19.44-.26l1.02.21c-.56,2.46-1.55,4.74-2.81,6.23-.18-.17-.63-.5-.87-.65,1.26-1.35,2.15-3.51,2.65-5.79Zm5.17,2.52h1.07s0,.42-.02.59c-.34,6.84-.66,9.19-1.27,9.93-.3.4-.58.54-1.05.59-.39.06-1.05.04-1.71,0-.03-.33-.13-.81-.31-1.11.67.06,1.29.07,1.58.07.24,0,.39-.06.57-.26.49-.57.84-2.96,1.15-9.54v-.27Zm-5.28,0h5.73v1.07h-6.21l.48-1.07Zm1.51.33l.85.43c-.65,2.65-2.07,5.65-3.78,7.14-.23-.22-.58-.49-.89-.66,1.76-1.38,3.19-4.29,3.81-6.91Zm2.15.09l.9.42c-.75,4.04-2.43,8.18-4.95,10.2-.23-.24-.63-.53-.96-.69,2.62-1.88,4.29-5.94,5.01-9.93Zm-11.04,5.39c1.41-.36,3.56-.99,5.6-1.61l.15.99c-1.9.6-3.93,1.23-5.44,1.71l-.3-1.1Zm2.81-8.31h1.05v13.79h-1.05v-13.79Zm-1.86.86l.98.16c-.23,1.99-.6,4.02-1.17,5.35-.18-.13-.61-.39-.85-.49.57-1.27.87-3.18,1.05-5.02Zm.09,2.21h4.37v1.1h-4.55l.18-1.1Zm16.86,1.99h7.42v.99h-7.42v-.99Zm-2.52,3.42h13.26v1.05h-13.26v-1.05Zm6.03-1.1h1.15v5.07c0,.67-.18,1-.75,1.17-.54.16-1.41.18-2.77.18-.08-.32-.3-.78-.48-1.08,1.15.03,2.18.03,2.47.01.3-.01.38-.09.38-.31v-5.04Zm3.57-2.32h.29l.24-.06.72.55c-1.02,1.04-2.6,2.07-4.02,2.68-.13-.19-.43-.49-.63-.66,1.26-.54,2.7-1.53,3.4-2.29v-.23Zm-9.3-2.57h12.7v3.35h-1.11v-2.32h-10.53v2.32h-1.07v-3.35Zm10.73-2.4l1.17.39c-.63.93-1.44,1.93-2.07,2.6l-.89-.38c.6-.71,1.37-1.82,1.79-2.61Zm-9.71.52l.94-.45c.59.63,1.2,1.49,1.46,2.08l-1.01.48c-.24-.57-.84-1.47-1.4-2.12Zm3.86-.33l.97-.36c.51.71,1.05,1.68,1.23,2.31l-1.03.4c-.18-.63-.68-1.62-1.17-2.35Zm12.74,6.93h7.35v.84h-7.35v-.84Zm-.24,2.02h7.83v.87h-7.83v-.87Zm3.27-1.62h1.03v1.49c0,1.32-.43,2.94-3.78,3.99-.15-.22-.45-.57-.66-.75,3.09-.85,3.4-2.28,3.4-3.25v-1.47Zm1.02,1.98c.54,1.34,1.77,2.26,3.54,2.62-.22.2-.5.57-.63.82-1.88-.49-3.17-1.62-3.78-3.25l.87-.2Zm-3.1-3.62l.88-.28c.36.46.71,1.1.83,1.51l-.93.32c-.12-.45-.44-1.08-.78-1.55Zm4.38-.31l1.02.33c-.36.59-.73,1.19-1.05,1.61l-.75-.3c.27-.46.61-1.17.78-1.63Zm-7.23-3.01h4.22v.76h-4.22v-.76Zm6.89,0h4.26v.76h-4.26v-.76Zm3.84-2.03h1.11v11.82c0,.61-.14.94-.54,1.14-.38.18-1.02.19-1.98.19-.03-.29-.18-.78-.33-1.08.66.03,1.29.03,1.49.01.18,0,.26-.07.26-.28v-11.81Zm-10.64,0h4.82v4.88h-4.82v-.84h3.75v-3.2h-3.75v-.84Zm11.18,0v.84h-3.96v3.21h3.96v.84h-5.04v-4.89h5.04Zm-11.85,0h1.11v13.17h-1.11v-13.17Zm17.36,5.28v5.31h-1.08v-4.26h-1.9v-1.05h2.99Zm0,4.86c.71,1.11,2.03,1.62,3.81,1.68,1.67.07,5.13.03,6.94-.09-.14.26-.32.78-.36,1.11-1.69.08-4.9.11-6.58.03-1.98-.07-3.35-.6-4.28-1.78-.66.64-1.35,1.29-2.1,1.95l-.58-1.1c.66-.48,1.47-1.15,2.18-1.8h.97Zm-2.85-9.78l.85-.62c.93.68,1.98,1.71,2.44,2.45l-.93.71c-.42-.75-1.45-1.8-2.37-2.54Zm3.7.35h9.43v.95h-9.43v-.95Zm-.22,7.92h9.88v.95h-9.88v-.95Zm4.29-9.26h1.11v11.91h-1.11v-11.91Zm-2.31,6.14v1.2h5.8v-1.2h-5.8Zm0-1.98v1.18h5.8v-1.18h-5.8Zm-1.04-.84h7.93v4.88h-7.93v-4.88Zm18.19-.96c-.19,1.56-.5,3.32-.96,4.92-.92,3.07-2.12,4.66-3.5,4.66s-2.68-1.53-2.68-4.02c0-3.26,2.89-6.09,6.57-6.09s5.74,2.48,5.74,5.52-2.07,5.24-5.64,5.7l-.69-1.11c.48-.04.93-.1,1.29-.18,1.92-.43,3.81-1.88,3.81-4.47,0-2.4-1.67-4.38-4.54-4.38-3.3,0-5.36,2.71-5.36,4.92,0,1.89.86,2.73,1.53,2.73s1.51-1.02,2.28-3.56c.44-1.43.75-3.12.9-4.68l1.25.03Zm10.12,9.82h7.94v.96h-7.94v-.96Zm-.45-5.19h8.75v.93h-8.75v-.93Zm0-2.04h8.75v.93h-8.75v-.93Zm-2.31-2.1h13.46v.99h-13.46v-.99Zm2.55-2.02h8.29v.91h-8.29v-.91Zm-.4,8.24h9.12v4.68h-1.15v-3.71h-6.87v3.75h-1.09v-4.72Zm12.87-8.06h13.37v.92h-13.37v-.92Zm0,2.93h13.35v.9h-13.35v-.9Zm3.53-3.93h1.11v3.06h-1.11v-3.06Zm5.13,0h1.11v3.12h-1.11v-3.12Zm-8.7,9.56h13.47v.9h-13.47v-.9Zm6.12-1.24h1.11v5.47h-1.11v-5.47Zm-.39,1.69l.84.42c-1.43,1.38-4.02,2.6-6.18,3.15-.16-.27-.46-.68-.71-.9,2.16-.45,4.73-1.5,6.04-2.67Zm1.92-.06c1.26,1.26,3.78,2.29,6.09,2.71-.24.23-.56.68-.72.96-2.32-.54-4.83-1.79-6.21-3.32l.84-.36Zm-5.56-7.12h1.11v4.71h9.75v.91h-10.86v-5.62Zm3.61-.13h1.07v3.24h3.13v-3.12h1.11v3.87h-5.31v-3.99Zm15.35-.23c1.63.29,4.68.23,6.17,0v1.21c-1.61.18-4.51.18-6.15,0v-1.21Zm.59,6.12c-.14.54-.21.96-.21,1.37,0,.69.48,1.37,2.54,1.37,1.33,0,2.51-.12,3.71-.4l.03,1.26c-.93.19-2.19.32-3.75.32-2.51,0-3.63-.84-3.63-2.25,0-.5.07-1.04.24-1.76l1.08.1Zm-3.43-7.27c-.09.26-.21.74-.27,1.01-.29,1.39-.75,4.06-.75,5.76,0,.72.04,1.35.13,2.09.26-.68.6-1.58.85-2.19l.63.49c-.38,1.07-.93,2.64-1.07,3.36-.04.21-.07.49-.07.68.01.15.03.36.04.52l-1.07.07c-.3-1.06-.55-2.79-.55-4.83,0-2.2.49-4.77.68-6.01.04-.34.09-.72.1-1.05l1.34.1Zm12.1,3.45c.55-.09,1.1-.26,1.66-.42,1.26-.4,4.21-1.49,6.4-1.49,2.48,0,4.46,1.44,4.46,3.95,0,3.6-3.57,5.32-8.19,5.59l-.54-1.24c3.91-.1,7.43-1.3,7.43-4.36,0-1.58-1.15-2.82-3.18-2.82-2.47,0-6.29,1.65-7.49,2.13l-.55-1.34Zm17.26-2.62c-.07.35-.12,1.07-.14,1.46-.01.93,0,2.31.11,3.54.25,2.51.97,4.17,2.05,4.17.76,0,1.47-1.55,1.86-3.05l.95,1.07c-.92,2.54-1.82,3.4-2.84,3.4-1.43,0-2.77-1.41-3.19-5.29-.14-1.29-.17-3.12-.17-3.99,0-.35,0-.99-.09-1.34l1.46.03Zm7.8.4c1.35,1.74,2.43,4.93,2.65,7.47l-1.22.48c-.25-2.7-1.17-5.79-2.59-7.54l1.15-.4Zm4.66.09c.57-.01,1.05-.04,1.35-.07.97-.1,3.79-.38,6.57-.61,1.63-.14,3.03-.23,4.04-.26v1.2c-.85-.01-2.16.01-2.93.23-2.15.69-3.45,2.99-3.45,4.75,0,2.93,2.74,3.86,5.18,3.96l-.42,1.23c-2.79-.1-5.94-1.57-5.94-4.93,0-2.34,1.42-4.24,2.8-5.05-1.62.16-5.43.54-7.07.88l-.13-1.32Zm17.09,10.8c-.97-1.18-2.26-2.46-3.33-3.33l.98-.85c1.08.87,2.43,2.22,3.38,3.32l-1.02.87Zm14.85-.63c-1.73,0-2.79-.72-3.51-1.51l.69-.9c.65.68,1.47,1.28,2.73,1.28s2.24-.8,2.24-2.06-.88-2.19-3.42-2.19v-1.07c2.26,0,3.03-.9,3.03-2.1,0-1.05-.7-1.74-1.85-1.74-.88,0-1.66.45-2.28,1.08l-.74-.88c.83-.75,1.8-1.31,3.06-1.31,1.85,0,3.19,1.01,3.19,2.76,0,1.33-.78,2.22-1.95,2.64v.06c1.29.32,2.34,1.29,2.34,2.8,0,1.95-1.57,3.14-3.54,3.14Zm8.29,0c-1.71,0-2.76-.72-3.51-1.47l.69-.9c.62.65,1.43,1.23,2.68,1.23s2.34-1.01,2.34-2.6-.9-2.52-2.26-2.52c-.74,0-1.2.24-1.83.66l-.74-.47.35-5.14h5.35v1.17h-4.15l-.29,3.18c.49-.27.99-.43,1.65-.43,1.83,0,3.32,1.08,3.32,3.51s-1.75,3.78-3.6,3.78Zm7.48-4.47c-1.51,0-2.51-1.26-2.51-3.48s.99-3.45,2.51-3.45,2.51,1.24,2.51,3.45-.99,3.48-2.51,3.48Zm0-.84c.87,0,1.46-.9,1.46-2.64s-.59-2.61-1.46-2.61-1.47.86-1.47,2.61.6,2.64,1.47,2.64Zm.32,5.31l6.06-11.4h.93l-6.06,11.4h-.93Zm7.35,0c-1.51,0-2.5-1.26-2.5-3.5s.99-3.45,2.5-3.45,2.49,1.26,2.49,3.45-1.01,3.5-2.49,3.5Zm0-.84c.86,0,1.46-.9,1.46-2.65s-.6-2.6-1.46-2.6-1.47.84-1.47,2.6.6,2.65,1.47,2.65Zm-181.99,12.4c-.19,1.56-.49,3.32-.96,4.92-.92,3.07-2.11,4.66-3.5,4.66s-2.68-1.53-2.68-4.02c0-3.26,2.9-6.09,6.57-6.09s5.75,2.48,5.75,5.52-2.07,5.24-5.64,5.7l-.69-1.11c.48-.04.93-.1,1.29-.18,1.92-.43,3.81-1.88,3.81-4.47,0-2.4-1.67-4.38-4.54-4.38-3.3,0-5.35,2.71-5.35,4.92,0,1.89.85,2.73,1.53,2.73s1.51-1.02,2.28-3.56c.43-1.43.75-3.12.9-4.68l1.24.03Zm15.22,8.74h4.44v1.07h-4.44v-1.07Zm-.46-9.81h5.4v11.91h-1.12v-10.85h-3.19v11.01h-1.08v-12.07Zm-4.44,1.23h1.14v3.01c0,2.55-.51,6-3.61,8.22-.15-.24-.56-.68-.79-.84,2.92-2.09,3.27-5.07,3.27-7.4v-3Zm-1.54-.51h5.06v1.05h-5.06v-1.05Zm-1.56,4.04h7.06v1.08h-7.06v-1.08Zm3.88,1.98c.59.52,2.64,2.83,3.12,3.4l-.76.94c-.63-.91-2.36-2.97-3.04-3.7l.69-.65Zm-2.19-8.04l1.1.21c-.44,2.01-1.16,3.94-2.04,5.22-.19-.18-.68-.49-.93-.65.9-1.15,1.51-2.96,1.88-4.79Zm18.84,9.06h3.18v.81h-3.18v-.81Zm-.81-7.41h4.92v.9h-4.92v-.9Zm-.39,3.46h9.25v.93h-9.25v-.93Zm1.17,1.88h3.75v5.01h-3.75v-.84h2.81v-3.33h-2.81v-.84Zm-.38,0h.9v5.82h-.9v-5.82Zm1.57-6.98h1.04v2.07h-1.04v-2.07Zm-1.36,2.85l.81-.18c.27.67.47,1.57.48,2.16l-.87.2c-.01-.59-.18-1.47-.42-2.18Zm5.97-1.8l.86-.35c.66.79,1.31,1.89,1.56,2.64l-.93.4c-.22-.76-.84-1.89-1.49-2.7Zm-3.15,1.54l.96.2c-.24.78-.48,1.69-.69,2.26l-.8-.18c.18-.63.42-1.62.53-2.28Zm1.84-2.58h.99c-.06,7.43.27,12.48,1.68,12.6.25.01.45-.76.54-2.01.17.22.56.49.74.58-.29,2.09-.78,2.67-1.31,2.65-2.4-.13-2.58-5.58-2.64-13.83Zm2.31,6.69l.89.45c-.93,3-2.75,5.25-4.87,6.58-.14-.19-.43-.48-.64-.65,2.07-1.24,3.82-3.45,4.63-6.39Zm-11.8-2.17h3.66v.9h-3.66v-.9Zm.08-4.01h3.56v.9h-3.56v-.9Zm-.08,6.01h3.66v.9h-3.66v-.9Zm-.6-4.05h4.62v.93h-4.62v-.93Zm1.1,6.07h3.18v4.37h-3.18v-.93h2.25v-2.5h-2.25v-.93Zm-.53,0h.92v5.07h-.92v-5.07Zm20.76-7.83c-.13.59-.3,1.41-.69,2.42-.38.91-.93,1.92-1.53,2.7.58-.35,1.44-.55,2.1-.55,1.15,0,2.06.69,2.06,1.9,0,.78.03,2.5.04,3.43h-1.15c.06-.79.07-2.34.06-3.12-.01-.87-.61-1.27-1.39-1.27-.96,0-1.9.48-2.6,1.1-.43.42-.86.96-1.35,1.57l-1.04-.76c2.16-2.07,3.17-3.81,3.68-5.08.33-.83.54-1.73.58-2.43l1.23.1Zm-5.14,1.62c.81.1,1.85.15,2.54.15,2.02,0,4.62-.12,6.73-.49v1.11c-2.1.32-4.89.45-6.79.45-.64,0-1.64-.03-2.47-.09v-1.12Zm11.46,3.61c-.38.12-.92.33-1.32.48-1.07.42-2.49.99-3.94,1.74-1.49.78-2.53,1.59-2.53,2.62,0,1.17,1.15,1.35,2.7,1.35,1.17,0,2.79-.13,4.11-.38l-.04,1.21c-1.14.13-2.81.26-4.11.26-2.13,0-3.86-.46-3.86-2.28s1.86-2.96,3.65-3.87c1.42-.74,2.64-1.2,3.63-1.66.45-.21.82-.38,1.25-.59l.48,1.11Zm7.98-4.03h7.49v1.03h-7.49v-1.03Zm-.6,5.64h8.7v1.05h-8.7v-1.05Zm-.18-2.7h8.99v1.04h-8.99v-1.04Zm3.97-4.81h1.07v5.35h-1.07v-5.35Zm1.98,5.62h1.08v6.75c0,.67-.15.99-.6,1.15-.43.18-1.17.18-2.29.18-.04-.32-.2-.76-.33-1.08.84.03,1.62.03,1.85.01.24-.01.3-.07.3-.28v-6.74Zm-4.67,3.85l.87-.51c.66.79,1.41,1.88,1.72,2.59l-.94.59c-.27-.74-.99-1.86-1.65-2.67Zm-6.3-1.57c1.18-.33,2.96-.87,4.68-1.43l.15,1.04c-1.58.52-3.26,1.06-4.53,1.49l-.3-1.1Zm.21-4.95h4.57v1.05h-4.57v-1.05Zm1.93-3.01h1.07v12.44c0,.61-.15.93-.53,1.11-.35.16-.93.21-1.88.19-.04-.27-.18-.74-.33-1.05.66.03,1.23.03,1.41.01.18,0,.25-.06.25-.27v-12.44Zm14.85,6.6c.43-.07.93-.21,1.39-.36,1.07-.33,3.54-1.23,5.3-1.23,2.13,0,3.67,1.27,3.67,3.32,0,2.89-2.79,4.36-6.82,4.6l-.49-1.15c3.26-.09,6.1-1.02,6.1-3.46,0-1.28-1.01-2.22-2.55-2.22-1.85,0-5.13,1.36-6.09,1.75l-.51-1.24Zm13.11-3.98c.57-.01,1.05-.04,1.35-.07.97-.1,3.79-.38,6.57-.61,1.64-.14,3.03-.23,4.04-.26v1.2c-.85-.01-2.16.01-2.93.23-2.14.69-3.45,2.99-3.45,4.75,0,2.93,2.74,3.86,5.18,3.96l-.42,1.23c-2.79-.1-5.94-1.57-5.94-4.93,0-2.34,1.43-4.24,2.8-5.05-1.62.16-5.43.54-7.06.88l-.14-1.32Zm17.09-.49c-.07.35-.12,1.07-.14,1.46-.01.93,0,2.31.11,3.54.25,2.51.97,4.17,2.05,4.17.76,0,1.47-1.55,1.86-3.05l.95,1.07c-.92,2.54-1.82,3.4-2.84,3.4-1.43,0-2.77-1.41-3.19-5.29-.14-1.29-.17-3.12-.17-3.99,0-.35,0-.99-.09-1.34l1.46.03Zm7.8.4c1.35,1.74,2.43,4.93,2.65,7.47l-1.22.48c-.25-2.7-1.17-5.79-2.59-7.54l1.15-.4Zm12.43-1.85c-.03.26-.06.56-.07,1.01-.03.6-.03,2.61-.03,3.87,0,1.98.22,4.61.22,5.61s-.69,2.12-2.64,2.12c-2.16,0-3.35-.76-3.35-2.22,0-1.37,1.31-2.28,3.46-2.28,3.17,0,5.64,1.71,6.8,2.65l-.69,1.07c-1.35-1.25-3.57-2.75-6.24-2.75-1.44,0-2.21.56-2.21,1.25s.59,1.21,2.07,1.21c.87,0,1.6-.26,1.6-1.3,0-1.16-.15-4.04-.15-5.36v-3.97c0-.26-.01-.71-.06-.9h1.28Zm-5.73,1.62c.96.18,2.83.33,3.82.33,1.9,0,3.91-.13,5.86-.45v1.1c-1.69.2-3.84.39-5.85.39-1.04,0-2.88-.13-3.82-.25v-1.11Zm-.08,3.19c1.07.17,2.78.27,3.76.27,2.18,0,4.17-.15,6.12-.43v1.12c-2.04.25-3.87.36-6.12.36-1.03,0-2.68-.08-3.75-.2v-1.12Zm21.63-4.8c-.03.18-.07.76-.07.95-.04.97-.01,3.87,0,5.07l-1.14-.58c0-.66-.01-3.65-.06-4.47-.03-.4-.08-.82-.11-.96h1.38Zm-7.98,2.1c2.04-.03,5.79-.17,8.1-.17,1.83,0,3.69,0,4.4.02v1.11c-.85-.04-2.21-.07-4.41-.07-2.58,0-5.79.11-8.05.27l-.03-1.15Zm7.88,4.35c0,2.01-.93,3.01-2.29,3.01-1.26,0-2.48-.89-2.48-2.52,0-1.49,1.23-2.6,2.65-2.6,1.74,0,2.62,1.29,2.62,3.01,0,2.04-.99,4.29-4.47,5.32l-1.01-.97c2.73-.65,4.32-1.98,4.32-4.46,0-1.35-.66-1.92-1.47-1.92s-1.53.61-1.53,1.59.71,1.49,1.53,1.49c.93,0,1.53-.78,1.29-2.39l.82.42Zm7.12,1.78c1.26,0,2.28,1.02,2.28,2.28s-1.02,2.28-2.28,2.28-2.29-1.02-2.29-2.28,1.04-2.28,2.29-2.28Zm0,3.79c.84,0,1.51-.67,1.51-1.51s-.68-1.51-1.51-1.51-1.53.68-1.53,1.51.69,1.51,1.53,1.51Z"/>
    <path class="cls-4" d="m138.96,228.11v.57h4.02v-.57h-4.02Zm0-.96v.55h4.02v-.55h-4.02Zm-.58-.43h5.19v2.38h-5.19v-2.38Zm-.95,2.83h7.05v.5h-7.05v-.5Zm3.55,1h2.85v.49h-2.85v-.49Zm-2.51.05h1.98v.45h-1.98v-.45Zm0,1.01h1.98v.45h-1.98v-.45Zm3.35-.61c.46,1.14,1.49,2.02,2.85,2.35-.13.11-.29.33-.37.47-1.41-.42-2.44-1.37-2.97-2.68l.49-.14Zm1.82-.45h.11l.1-.02.37.15c-.53,1.62-1.82,2.62-3.21,3.1-.06-.14-.22-.36-.33-.47,1.28-.38,2.51-1.32,2.95-2.66v-.1Zm-6.29,2.28c.78-.06,1.94-.19,3.07-.32v.5c-1.08.13-2.19.26-3.02.36l-.06-.54Zm2.77-3.12h.58v4.11h-.58v-4.11Zm-2.01,0h.56v3.26h-.56v-3.26Zm11.35,1.35l.36-.38c.57.22,1.26.61,1.63.9l-.37.41c-.37-.29-1.06-.7-1.62-.93Zm-.87,1.52l.36-.42c1.06.29,2.38.82,3.1,1.22l-.36.48c-.7-.43-2.02-.98-3.1-1.28Zm1.03-6.13l.59.1c-.39.87-1,1.84-1.92,2.6-.09-.12-.28-.3-.41-.38.85-.68,1.44-1.59,1.74-2.33Zm-.1.84h2.18v.53h-2.44l.26-.53Zm2,0h.12l.1-.02.38.21c-.7,1.71-2.16,2.93-3.64,3.58-.07-.14-.26-.37-.38-.47,1.44-.58,2.84-1.71,3.42-3.18v-.11Zm-2.1.46c.65,1.26,1.94,2.41,3.33,2.91-.13.11-.3.34-.39.49-1.41-.58-2.7-1.82-3.42-3.22l.48-.18Zm-2.9-1.29l.53.21c-.3.58-.68,1.3-.99,1.74l-.42-.19c.3-.46.67-1.22.88-1.75Zm.9.91l.5.22c-.54.92-1.31,2.08-1.9,2.78l-.37-.21c.59-.72,1.34-1.94,1.77-2.8Zm-2.16.77l.3-.39c.45.38.95.9,1.17,1.26l-.32.46c-.22-.38-.72-.94-1.15-1.32Zm1.88,1.09l.42-.17c.32.5.64,1.18.74,1.6l-.46.21c-.1-.43-.4-1.12-.7-1.64Zm-1.9.82c.7-.02,1.7-.06,2.71-.12v.5c-.97.06-1.94.12-2.66.17l-.05-.54Zm2.11,1.07l.43-.14c.22.45.44,1.06.52,1.46l-.46.16c-.07-.4-.29-1.02-.49-1.48Zm-1.66-.09l.52.1c-.11.75-.31,1.53-.57,2.04-.1-.06-.34-.18-.47-.23.26-.49.42-1.2.52-1.9Zm.86-.76h.54v3.57h-.54v-3.57Zm10.58.06h3.13v.46h-3.13v-.46Zm0,1.31h3.13v.47h-3.13v-.47Zm0,1.32h3.5v.51h-3.5v-.51Zm-.91-5.68h4.37v1.37h-.54v-.85h-3.31v.85h-.52v-1.37Zm2.21,2.1h.56v3.86h-.56v-3.86Zm-1.09-.38h3.05v.52h-3.05v4.3h-.57v-4.28l.52-.54h.05Zm.75-2.54l.58.11c-.46,1.62-1.25,2.95-2.33,3.81-.09-.11-.3-.34-.43-.44,1.06-.77,1.79-2.01,2.18-3.48Zm.83,1.58l.57.14c-.19.42-.41.86-.58,1.17l-.46-.14c.17-.32.38-.82.47-1.18Zm-5.55-1.04h2.82v.55h-2.82v-.55Zm.81,2.34h1.81v3.5h-1.81v-.53h1.28v-2.44h-1.28v-.54Zm.14-2.07l.58.09c-.25,1.68-.66,3.26-1.41,4.3-.06-.14-.23-.43-.34-.57.64-.9.98-2.32,1.18-3.82Zm-.38,2.07h.5v4.13h-.5v-4.13Zm11.98-2.32h.55c-.17,1.3-.56,2.59-1.96,3.29-.06-.13-.23-.33-.36-.42,1.3-.6,1.63-1.77,1.77-2.86Zm-1.47,1.14l.3-.42c.83.28,1.83.78,2.36,1.14l-.29.47c-.54-.39-1.54-.92-2.37-1.2Zm3.36-1.36h.57s0,.18,0,.26c-.08,1.89-.16,2.6-.36,2.83-.13.15-.26.21-.48.23-.19.02-.57,0-.94,0,0-.17-.06-.4-.15-.54.37.03.7.03.83.03.13,0,.2-.02.26-.08.14-.17.22-.81.29-2.62v-.1Zm-2.46,4.26h.56v1.93c0,.2.03.23.26.23h.75c.22,0,.25-.11.27-.91.11.1.35.18.51.22-.06.98-.22,1.22-.72,1.22h-.89c-.61,0-.74-.17-.74-.76v-1.94Zm-.76.27l.49.12c-.09.71-.26,1.49-.68,1.94l-.45-.3c.38-.39.56-1.1.64-1.76Zm.9-1.01l.35-.35c.53.28,1.14.71,1.44,1.05l-.38.41c-.29-.34-.9-.8-1.42-1.1Zm1.86,1.06l.5-.2c.43.58.79,1.37.91,1.91l-.54.22c-.1-.54-.46-1.35-.87-1.94Zm-2.83-4.59h3.54v.52h-3.54v-.52Zm-2.9,2.08h2.27v.48h-2.27v-.48Zm.03-2.14h2.21v.48h-2.21v-.48Zm-.03,3.21h2.27v.48h-2.27v-.48Zm-.36-2.16h2.86v.5h-2.86v-.5Zm.62,3.24h2.01v2.34h-2.01v-.5h1.49v-1.34h-1.49v-.5Zm-.27,0h.51v2.7h-.51v-2.7Zm8.75-4.03h5.24v6.7h-.63v-6.09h-3.99v6.12h-.62v-6.73Zm.41,2.78h4.46v.59h-4.46v-.59Zm0,2.83h4.49v.6h-4.49v-.6Zm10.19-3.78c-.33,0-.61-.24-.61-.6s.28-.61.61-.61.6.24.6.61-.28.6-.6.6Zm0,3.91c-.33,0-.61-.23-.61-.6s.28-.6.61-.6.6.23.6.6-.28.6-.6.6Zm6.71.43v-3.99c0-.3.02-.77.05-1.07h-.04c-.14.29-.3.58-.46.87l-1.34,2h3.26v.58h-4.03v-.48l2.44-3.77h.81v5.86h-.69Zm3.75-6.3h4.18v.58h-4.18v-.58Zm0,1.93h4.21v.58h-4.21v-.58Zm-.06,1.94h4.23v.58h-4.23v-.58Zm-.3-3.86h.61v2.47c0,1.38-.2,3.27-1.58,4.47-.09-.13-.33-.34-.46-.43,1.29-1.13,1.42-2.75,1.42-4.04v-2.47Zm4.28,0h.62v6.06c0,.42-.11.63-.42.74-.31.1-.84.11-1.7.11-.04-.18-.15-.46-.26-.63.66.02,1.32.02,1.5.02.18,0,.25-.06.25-.24v-6.05Zm2.42,6.3v-.42c1.84-1.61,2.68-2.78,2.68-3.78,0-.67-.34-1.17-1.07-1.17-.48,0-.9.3-1.22.68l-.42-.41c.48-.52.99-.86,1.74-.86,1.05,0,1.7.68,1.7,1.73,0,1.18-.92,2.37-2.3,3.67.31-.03.66-.06.96-.06h1.62v.62h-3.68Zm4.79,0v-.61h1.3v-4.37h-1.05v-.47c.53-.09.9-.22,1.22-.42h.56v5.26h1.18v.61h-3.22Zm5.14-6.18h5.24v6.7h-.63v-6.09h-3.99v6.12h-.62v-6.73Zm.41,2.78h4.46v.59h-4.46v-.59Zm0,2.83h4.49v.6h-4.49v-.6Z"/>
    <path class="cls-5" d="m169.21,249.83h2.63c-.05.86-.29,1.63-.71,2.29-.42.67-1,1.19-1.75,1.56-.74.38-1.64.56-2.69.56-.82,0-1.56-.14-2.21-.42-.65-.29-1.21-.7-1.67-1.23-.46-.53-.81-1.18-1.05-1.93-.24-.76-.36-1.6-.36-2.54v-.89c0-.94.12-1.78.37-2.54.25-.76.61-1.41,1.07-1.94.47-.53,1.03-.94,1.68-1.23.65-.29,1.38-.43,2.18-.43,1.07,0,1.96.19,2.7.58.74.39,1.31.92,1.71,1.6.41.68.66,1.45.74,2.32h-2.64c-.03-.52-.13-.95-.31-1.31-.18-.36-.44-.64-.8-.82-.35-.19-.82-.28-1.41-.28-.44,0-.82.08-1.15.25-.33.16-.6.41-.83.75-.22.33-.39.76-.5,1.27-.1.5-.16,1.1-.16,1.78v.91c0,.66.05,1.25.15,1.75.1.5.25.92.46,1.27.21.34.48.6.81.77.33.17.74.25,1.2.25.55,0,1.01-.09,1.36-.26.36-.18.63-.44.82-.78.19-.35.31-.78.34-1.29Zm8.58,4.42c-.74,0-1.4-.12-1.99-.35-.59-.24-1.08-.57-1.49-.99-.4-.42-.72-.91-.93-1.47-.22-.56-.33-1.16-.33-1.79v-.35c0-.72.1-1.38.31-1.98.21-.6.5-1.12.88-1.56.39-.44.85-.78,1.41-1.01.55-.24,1.17-.36,1.86-.36s1.27.11,1.79.33c.52.22.96.54,1.31.95.36.41.63.9.81,1.48.18.57.27,1.2.27,1.9v1.05h-7.56v-1.69h5.07v-.19c0-.35-.07-.67-.19-.94-.12-.28-.31-.5-.56-.67-.25-.16-.57-.25-.97-.25-.33,0-.62.07-.86.22-.24.15-.44.35-.59.62-.15.26-.26.57-.33.93-.07.35-.11.74-.11,1.16v.35c0,.38.05.73.16,1.05.11.32.27.6.46.83.21.23.45.42.74.54.29.13.62.19.99.19.46,0,.88-.09,1.27-.26.4-.18.74-.45,1.03-.82l1.23,1.34c-.2.29-.47.56-.82.83-.34.26-.75.48-1.23.65-.48.16-1.03.25-1.64.25Zm8.01-13.68v13.5h-2.54v-13.5h2.54Zm4.76,0v13.5h-2.54v-13.5h2.54Z"/>
    <path class="cls-5" d="m26.34,234.64v11.44h-1.45v-9.63l-2.91,1.06v-1.3l4.13-1.56h.23Zm4.43,10.67c0-.24.08-.45.23-.62.16-.17.38-.26.67-.26s.51.09.66.26c.16.17.23.37.23.62s-.08.44-.23.61c-.15.17-.37.25-.66.25s-.52-.08-.67-.25c-.15-.17-.23-.37-.23-.61Z"/>
    <path class="cls-5" d="m148.99,314.28h2.23l3.29,9.4,3.29-9.4h2.23l-4.62,12.8h-1.79l-4.62-12.8Zm-1.2,0h2.22l.4,9.16v3.64h-2.63v-12.8Zm11.22,0h2.23v12.8h-2.64v-3.64l.4-9.16Zm7.06,3.29v9.51h-2.54v-9.51h2.54Zm-2.7-2.48c0-.37.13-.67.39-.91.26-.24.6-.36,1.04-.36s.77.12,1.03.36c.26.24.4.54.4.91s-.13.67-.4.91c-.26.24-.6.36-1.03.36s-.78-.12-1.04-.36c-.26-.24-.39-.54-.39-.91Zm9.45,2.48v1.79h-5.54v-1.79h5.54Zm-4.17-2.35h2.53v8.99c0,.28.04.49.11.63.08.15.19.25.33.31.15.05.33.08.55.08.16,0,.3,0,.42-.02.13-.02.24-.04.33-.05v1.86c-.21.07-.44.13-.69.17-.25.04-.53.06-.84.06-.56,0-1.04-.09-1.46-.27-.41-.19-.73-.49-.95-.9-.22-.41-.33-.95-.33-1.62v-9.25Zm4.97,7.2v-.18c0-.7.1-1.34.3-1.92.2-.59.49-1.1.87-1.54.38-.43.85-.77,1.41-1.01.56-.25,1.2-.37,1.92-.37s1.36.12,1.92.37c.56.24,1.04.58,1.42,1.01.39.43.68.95.88,1.54.2.59.3,1.23.3,1.92v.18c0,.69-.1,1.33-.3,1.92-.2.59-.49,1.1-.88,1.54-.38.43-.85.77-1.41,1.01-.56.24-1.19.36-1.92.36s-1.36-.12-1.93-.36c-.56-.24-1.03-.58-1.41-1.01-.38-.44-.67-.95-.87-1.54-.2-.59-.3-1.23-.3-1.92Zm2.53-.18v.18c0,.4.03.77.1,1.12.07.35.18.65.33.91.16.26.36.46.61.61.25.15.56.22.92.22s.65-.07.9-.22c.25-.15.46-.35.61-.61.15-.26.26-.57.33-.91.08-.35.11-.72.11-1.12v-.18c0-.39-.04-.75-.11-1.09-.07-.35-.19-.65-.34-.91-.15-.27-.35-.48-.61-.63-.25-.15-.56-.23-.91-.23s-.66.08-.91.23c-.25.15-.45.36-.61.63-.15.26-.26.57-.33.91-.07.34-.1.7-.1,1.09Zm13.17,2.21c0-.18-.05-.35-.16-.49-.1-.15-.3-.28-.59-.4-.28-.13-.69-.25-1.22-.35-.48-.11-.93-.24-1.35-.4-.41-.16-.77-.36-1.07-.59-.3-.23-.53-.5-.7-.81-.17-.32-.26-.68-.26-1.08s.08-.77.26-1.12c.17-.35.42-.66.75-.93.33-.28.73-.49,1.2-.64.47-.16,1.01-.24,1.6-.24.83,0,1.54.13,2.13.4.6.26,1.05.63,1.37,1.09.32.46.48.98.48,1.56h-2.53c0-.25-.05-.47-.16-.66-.1-.2-.26-.35-.48-.47-.21-.12-.49-.18-.83-.18-.28,0-.52.05-.73.15-.21.09-.36.22-.47.39-.11.16-.16.33-.16.53,0,.15.03.28.09.4.07.11.17.21.31.31.14.09.32.18.54.26.23.08.51.15.84.21.69.14,1.3.33,1.84.55.54.22.97.53,1.28.91.32.38.47.88.47,1.5,0,.42-.09.81-.28,1.16-.19.35-.46.66-.81.92-.35.26-.77.46-1.27.61-.49.14-1.03.21-1.64.21-.88,0-1.63-.16-2.25-.47-.61-.32-1.07-.72-1.39-1.2-.31-.49-.47-1-.47-1.51h2.4c.01.35.1.62.26.83.17.21.38.36.64.46.26.09.55.14.85.14.33,0,.6-.04.82-.13.22-.09.38-.22.49-.37.12-.16.18-.34.18-.54Zm6.78-6.88v9.51h-2.54v-9.51h2.54Zm-2.7-2.48c0-.37.13-.67.39-.91.26-.24.6-.36,1.04-.36s.77.12,1.03.36c.26.24.4.54.4.91s-.13.67-.4.91c-.26.24-.6.36-1.03.36s-.78-.12-1.04-.36c-.26-.24-.39-.54-.39-.91Zm9.93,9.36c0-.18-.05-.35-.16-.49-.1-.15-.3-.28-.59-.4-.28-.13-.69-.25-1.22-.35-.48-.11-.93-.24-1.34-.4-.41-.16-.77-.36-1.07-.59-.3-.23-.53-.5-.7-.81-.17-.32-.25-.68-.25-1.08s.08-.77.25-1.12c.18-.35.43-.66.75-.93.33-.28.73-.49,1.2-.64.47-.16,1.01-.24,1.6-.24.83,0,1.54.13,2.13.4.6.26,1.05.63,1.37,1.09.32.46.48.98.48,1.56h-2.53c0-.25-.05-.47-.16-.66-.1-.2-.26-.35-.47-.47-.21-.12-.49-.18-.83-.18-.28,0-.53.05-.73.15-.21.09-.36.22-.47.39-.11.16-.16.33-.16.53,0,.15.03.28.09.4.07.11.17.21.31.31.14.09.32.18.54.26.23.08.51.15.84.21.69.14,1.3.33,1.84.55.54.22.97.53,1.28.91.32.38.47.88.47,1.5,0,.42-.09.81-.28,1.16-.19.35-.46.66-.81.92-.35.26-.77.46-1.26.61-.49.14-1.03.21-1.64.21-.89,0-1.64-.16-2.25-.47-.61-.32-1.07-.72-1.39-1.2-.31-.49-.46-1-.46-1.51h2.4c.01.35.1.62.26.83.17.21.38.36.64.46.26.09.55.14.85.14.33,0,.6-.04.82-.13.22-.09.38-.22.49-.37.12-.16.18-.34.18-.54Z"/>
    <path class="cls-5" d="m29.04,317.89v1.19h-7.45v-1.04l3.73-4.15c.46-.51.81-.94,1.06-1.3.26-.36.43-.68.53-.96.1-.29.16-.58.16-.88,0-.38-.08-.71-.23-1.02-.15-.31-.38-.55-.67-.73-.3-.18-.66-.27-1.08-.27-.51,0-.93.1-1.27.3-.33.19-.58.46-.75.81-.17.35-.25.75-.25,1.2h-1.45c0-.64.14-1.23.42-1.76.28-.53.7-.95,1.25-1.27.55-.32,1.23-.48,2.04-.48.72,0,1.33.13,1.84.38.51.25.9.6,1.17,1.06.28.45.41.98.41,1.59,0,.33-.06.67-.17,1.02-.11.34-.26.68-.46,1.02-.19.34-.42.67-.68,1-.26.33-.53.65-.82.97l-3.05,3.3h5.7Zm1.73.42c0-.24.08-.45.23-.62.16-.17.38-.26.67-.26s.51.09.66.26c.16.17.23.37.23.62s-.08.44-.23.61c-.15.17-.37.25-.66.25s-.52-.08-.67-.25c-.15-.17-.23-.37-.23-.61Z"/>
    <path class="cls-5" d="m131.21,395.83h2.63c-.05.86-.29,1.63-.71,2.29-.42.67-1,1.19-1.75,1.56-.74.38-1.64.56-2.69.56-.82,0-1.56-.14-2.21-.42-.65-.29-1.21-.7-1.67-1.23-.46-.53-.81-1.18-1.05-1.93-.24-.76-.36-1.6-.36-2.54v-.89c0-.94.12-1.78.37-2.54.25-.76.61-1.41,1.07-1.94.47-.53,1.03-.94,1.68-1.23.65-.29,1.38-.43,2.18-.43,1.07,0,1.97.19,2.7.58.74.39,1.31.92,1.71,1.6.41.68.66,1.45.74,2.32h-2.64c-.03-.52-.13-.95-.31-1.31-.18-.36-.44-.64-.8-.82-.35-.19-.82-.28-1.41-.28-.44,0-.82.08-1.15.25-.33.16-.6.41-.83.75s-.39.75-.5,1.26c-.11.5-.16,1.1-.16,1.78v.9c0,.66.05,1.24.15,1.75.1.5.25.92.46,1.26.21.34.48.6.81.77.33.17.74.26,1.2.26.55,0,1-.09,1.36-.26.36-.18.63-.44.82-.78.19-.35.31-.78.34-1.29Zm6.67-9.26v13.5h-2.53v-13.5h2.53Zm-.36,8.41h-.69c0-.66.09-1.27.26-1.83.17-.56.41-1.05.73-1.46.32-.42.69-.74,1.13-.97.44-.23.94-.34,1.48-.34.47,0,.89.07,1.28.2.39.13.72.34.99.63.28.29.5.66.65,1.13.15.47.23,1.04.23,1.71v6.01h-2.55v-6.03c0-.42-.06-.75-.18-.99-.12-.25-.29-.42-.52-.52-.22-.1-.5-.16-.83-.16-.36,0-.67.07-.93.2-.25.13-.45.32-.61.56-.15.24-.26.51-.33.83-.07.32-.11.66-.11,1.02Zm10.51-2.35v7.44h-2.53v-9.51h2.38l.15,2.07Zm2.87-2.13l-.04,2.35c-.12-.02-.27-.03-.45-.04-.17-.02-.32-.03-.47-.03-.36,0-.67.05-.93.14-.26.09-.47.22-.65.4-.17.18-.3.39-.39.64-.08.25-.13.54-.14.86l-.51-.16c0-.62.06-1.18.18-1.7.12-.52.3-.98.54-1.36.24-.39.53-.68.88-.9.35-.21.74-.32,1.19-.32.14,0,.28.01.43.04.15.02.27.04.36.08Zm.53,4.91v-.18c0-.7.1-1.34.3-1.93.2-.59.49-1.1.87-1.54.38-.43.85-.77,1.41-1.01.56-.25,1.2-.37,1.92-.37s1.36.12,1.92.37c.56.24,1.04.58,1.42,1.01.39.43.68.95.88,1.54.2.59.3,1.23.3,1.93v.18c0,.69-.1,1.33-.3,1.93-.2.59-.49,1.1-.88,1.54-.38.43-.85.77-1.41,1.01-.56.24-1.19.36-1.92.36s-1.36-.12-1.93-.36c-.56-.24-1.03-.58-1.41-1.01-.38-.44-.67-.95-.87-1.54-.2-.59-.3-1.23-.3-1.93Zm2.53-.18v.18c0,.4.03.77.1,1.12.07.35.18.65.33.91.16.26.36.46.61.61.25.15.56.22.92.22s.65-.07.9-.22c.25-.15.46-.35.61-.61.15-.26.26-.57.33-.91.08-.35.11-.72.11-1.12v-.18c0-.39-.04-.75-.11-1.09-.07-.35-.18-.65-.34-.91-.15-.27-.35-.48-.61-.63-.25-.15-.56-.23-.91-.23s-.66.08-.91.23c-.25.15-.45.36-.61.63-.15.26-.26.57-.33.91-.07.34-.1.7-.1,1.09Zm10.56-2.7v7.54h-2.54v-9.51h2.38l.16,1.97Zm-.35,2.45h-.7c0-.66.08-1.27.24-1.83.16-.56.4-1.05.71-1.46.32-.42.71-.74,1.17-.97.46-.23,1-.34,1.61-.34.42,0,.81.07,1.16.19.35.12.65.32.9.59.26.26.46.61.6,1.04.14.42.21.93.21,1.52v6.35h-2.53v-6.06c0-.43-.06-.77-.18-1-.12-.24-.28-.4-.5-.49-.21-.09-.47-.14-.76-.14-.33,0-.62.07-.86.2-.24.13-.44.32-.6.56-.16.24-.27.51-.35.83-.08.32-.11.66-.11,1.02Zm5.66-.29l-.91.11c0-.62.08-1.2.23-1.73.16-.53.39-1,.69-1.41.31-.41.69-.72,1.15-.94.46-.23.98-.34,1.58-.34.46,0,.87.07,1.25.2.38.13.69.34.96.62.27.28.47.65.62,1.11.15.46.22,1.02.22,1.68v6.07h-2.54v-6.07c0-.44-.06-.77-.18-1-.11-.24-.28-.4-.49-.48-.21-.09-.46-.14-.76-.14s-.57.06-.8.18c-.23.12-.42.28-.57.49-.15.21-.27.46-.34.74-.08.27-.11.58-.11.9Zm7.35.72v-.18c0-.7.1-1.34.3-1.93.2-.59.49-1.1.87-1.54.38-.43.85-.77,1.41-1.01.56-.25,1.2-.37,1.92-.37s1.36.12,1.92.37c.56.24,1.04.58,1.42,1.01.39.43.68.95.88,1.54.2.59.3,1.23.3,1.93v.18c0,.69-.1,1.33-.3,1.93-.2.59-.49,1.1-.88,1.54-.38.43-.85.77-1.41,1.01-.56.24-1.19.36-1.92.36s-1.36-.12-1.93-.36c-.56-.24-1.03-.58-1.41-1.01-.38-.44-.67-.95-.87-1.54-.2-.59-.3-1.23-.3-1.93Zm2.53-.18v.18c0,.4.03.77.1,1.12.07.35.18.65.33.91.16.26.36.46.62.61.25.15.56.22.92.22s.65-.07.9-.22c.25-.15.46-.35.61-.61.15-.26.26-.57.33-.91.08-.35.11-.72.11-1.12v-.18c0-.39-.04-.75-.11-1.09-.07-.35-.18-.65-.34-.91-.15-.27-.35-.48-.61-.63-.25-.15-.56-.23-.91-.23s-.66.08-.91.23c-.25.15-.45.36-.61.63-.15.26-.26.57-.33.91-.07.34-.1.7-.1,1.09Zm13.17,2.21c0-.18-.05-.35-.16-.49-.1-.15-.3-.28-.59-.4-.28-.13-.69-.25-1.22-.35-.48-.1-.93-.24-1.35-.39-.41-.17-.77-.36-1.07-.59-.3-.23-.53-.5-.7-.81-.17-.32-.26-.68-.26-1.08s.09-.77.26-1.12c.18-.35.42-.66.75-.93.33-.27.73-.49,1.2-.64.47-.16,1.01-.24,1.6-.24.83,0,1.54.13,2.13.4.6.26,1.05.63,1.37,1.09.32.46.48.98.48,1.56h-2.53c0-.25-.05-.47-.16-.66-.1-.2-.26-.35-.48-.47-.21-.12-.49-.18-.83-.18-.28,0-.52.05-.73.15-.21.09-.36.22-.47.39-.11.16-.16.33-.16.53,0,.15.03.28.09.4.07.11.17.21.31.31.14.09.32.18.54.26.23.08.51.15.84.21.68.14,1.3.33,1.84.55.54.22.97.53,1.28.91.32.38.47.88.47,1.5,0,.42-.09.81-.28,1.16-.19.35-.46.66-.81.92-.35.26-.77.46-1.26.61-.49.14-1.03.21-1.64.21-.88,0-1.63-.16-2.25-.47-.61-.32-1.07-.72-1.39-1.2-.31-.49-.47-1-.47-1.51h2.4c.01.35.1.62.26.84.17.21.38.36.64.46.26.09.55.14.85.14.33,0,.6-.04.82-.13.22-.09.38-.22.49-.37.12-.16.18-.34.18-.55Zm3.7-2.03v-.18c0-.7.1-1.34.3-1.93.2-.59.49-1.1.87-1.54.38-.43.85-.77,1.41-1.01.56-.25,1.19-.37,1.92-.37s1.36.12,1.93.37c.56.24,1.03.58,1.41,1.01.39.43.68.95.88,1.54.2.59.3,1.23.3,1.93v.18c0,.69-.1,1.33-.3,1.93-.2.59-.49,1.1-.88,1.54-.38.43-.85.77-1.41,1.01-.56.24-1.2.36-1.92.36s-1.36-.12-1.92-.36c-.56-.24-1.03-.58-1.42-1.01-.38-.44-.67-.95-.87-1.54-.2-.59-.3-1.23-.3-1.93Zm2.53-.18v.18c0,.4.04.77.11,1.12.07.35.18.65.33.91.16.26.36.46.62.61.25.15.56.22.92.22s.65-.07.91-.22c.25-.15.45-.35.61-.61.15-.26.26-.57.33-.91.08-.35.11-.72.11-1.12v-.18c0-.39-.04-.75-.11-1.09-.07-.35-.18-.65-.34-.91-.15-.27-.35-.48-.61-.63-.25-.15-.56-.23-.91-.23s-.66.08-.91.23c-.25.15-.45.36-.61.63-.15.26-.26.57-.33.91-.07.34-.11.7-.11,1.09Zm10.56-2.7v7.54h-2.54v-9.51h2.38l.16,1.97Zm-.35,2.45h-.7c0-.66.08-1.27.24-1.83.16-.56.4-1.05.71-1.46.32-.42.71-.74,1.17-.97.46-.23,1-.34,1.61-.34.42,0,.81.07,1.16.19.35.12.65.32.91.59.26.26.46.61.6,1.04.14.42.21.93.21,1.52v6.35h-2.53v-6.06c0-.43-.06-.77-.18-1-.12-.24-.28-.4-.5-.49-.21-.09-.47-.14-.76-.14-.33,0-.62.07-.86.2-.24.13-.44.32-.6.56-.16.24-.28.51-.35.83-.08.32-.11.66-.11,1.02Zm5.66-.29l-.9.11c0-.62.08-1.2.23-1.73.16-.53.39-1,.69-1.41.31-.41.7-.72,1.15-.94.46-.23.98-.34,1.58-.34.46,0,.87.07,1.25.2.38.13.69.34.96.62.27.28.48.65.62,1.11.15.46.22,1.02.22,1.68v6.07h-2.54v-6.07c0-.44-.06-.77-.18-1-.11-.24-.27-.4-.49-.48-.21-.09-.46-.14-.76-.14s-.57.06-.8.18c-.23.12-.42.28-.57.49-.15.21-.27.46-.34.74-.08.27-.11.58-.11.9Zm12.13,5.55c-.74,0-1.4-.12-1.99-.35-.58-.24-1.08-.57-1.49-.99-.4-.42-.71-.91-.93-1.47-.22-.56-.33-1.16-.33-1.79v-.35c0-.72.1-1.38.31-1.98.21-.6.5-1.12.88-1.55.39-.44.85-.78,1.41-1.01.55-.24,1.17-.36,1.86-.36s1.27.11,1.79.33c.52.22.96.54,1.31.95.36.41.63.9.81,1.48.18.57.27,1.2.27,1.9v1.05h-7.56v-1.69h5.07v-.19c0-.35-.07-.66-.19-.94-.12-.28-.31-.5-.56-.67-.25-.16-.57-.25-.97-.25-.33,0-.62.07-.86.22-.24.15-.44.35-.59.62-.15.26-.26.57-.33.93-.07.35-.1.74-.1,1.16v.35c0,.38.05.73.16,1.05.11.32.27.6.47.84.21.23.45.42.74.54.29.13.62.19.99.19.46,0,.88-.09,1.27-.26.4-.18.74-.46,1.03-.82l1.23,1.34c-.2.29-.47.56-.82.83-.34.26-.75.48-1.23.65-.48.16-1.03.25-1.64.25Z"/>
    <path class="cls-5" d="m23.7,385.68h1.03c.51,0,.92-.08,1.25-.25.33-.17.58-.4.74-.7.17-.3.25-.63.25-1,0-.44-.07-.8-.22-1.1-.15-.3-.36-.52-.66-.67-.29-.15-.66-.23-1.11-.23-.41,0-.77.08-1.08.24-.31.16-.55.38-.73.67-.17.29-.26.64-.26,1.03h-1.45c0-.58.15-1.11.44-1.58.29-.47.7-.85,1.23-1.13.53-.28,1.15-.42,1.84-.42s1.29.12,1.8.37c.52.24.92.6,1.2,1.08.29.47.43,1.07.43,1.77,0,.29-.07.59-.2.92-.13.32-.34.62-.62.91-.28.28-.64.51-1.08.69-.44.18-.97.27-1.59.27h-1.23v-.88Zm0,1.19v-.87h1.23c.72,0,1.32.09,1.8.26.47.17.85.4,1.12.69.28.29.47.6.58.94.11.34.17.68.17,1.02,0,.53-.09,1-.27,1.41-.18.41-.43.76-.76,1.05-.32.29-.7.5-1.14.65-.44.14-.91.22-1.43.22s-.96-.07-1.4-.21c-.43-.14-.82-.34-1.15-.61-.33-.27-.59-.6-.78-.99-.19-.4-.28-.85-.28-1.35h1.45c0,.4.09.74.26,1.04.18.3.43.53.75.7.33.16.71.24,1.16.24s.82-.08,1.14-.23c.32-.16.57-.39.74-.7.18-.31.27-.71.27-1.18s-.1-.86-.3-1.16c-.2-.31-.48-.53-.84-.68-.36-.15-.78-.23-1.27-.23h-1.03Zm7.07,4.44c0-.24.08-.45.23-.62.16-.17.38-.26.67-.26s.51.09.66.26c.16.17.23.37.23.62s-.08.44-.23.61c-.15.17-.37.25-.66.25s-.52-.08-.67-.25c-.15-.17-.23-.37-.23-.61Z"/>
    <rect class="cls-7" x="14.64" y="261.08" width="99" height="33" rx="5" ry="5"/>
    <path class="cls-9" d="m41.98,276.15v1.42h4.09v-1.42h-4.09Zm0-2.08v1.4h4.09v-1.4h-4.09Zm-.75-.72h5.63v4.93h-5.63v-4.93Zm-.14,6.22h5.93v.76h-5.93v-.76Zm-.85,2.28h7.14v.75h-7.14v-.75Zm-2.99-8.26h3.43v.78h-3.43v-.78Zm.12,3.18h3.16v.78h-3.16v-.78Zm-.23,4.21c.89-.24,2.21-.67,3.49-1.1l.14.79c-1.2.41-2.45.83-3.43,1.16l-.2-.85Zm1.49-7.08h.79v6.82l-.79.15v-6.97Zm5.04-.2h.73v4.24h.06v4.26h-.84v-4.26h.06v-4.24Zm5.61,1.94h3.18v.65h-3.18v-.65Zm0,1.87h3.18v.63h-3.18v-.63Zm0,1.91h3.18v.65h-3.18v-.65Zm4.69-1.36h4.19v.72h-4.19v-.72Zm-4.11-4.22h1.83v.65h-1.83v-.65Zm3.41-.43h4.3v.7h-4.3v-.7Zm-.13,6.71h5.21v.74h-5.21v-.74Zm2.32-3.19h.79v5.99h-.79v-5.99Zm-4.81-.97h.59v3.74h-.59v-3.74Zm6.66-2.55h.75s0,.21-.01.31c-.08,1.84-.19,2.55-.42,2.8-.15.19-.32.25-.61.28-.22.02-.68.02-1.14,0-.01-.22-.09-.51-.19-.69.44.04.84.04.99.04.15.01.25-.01.32-.1.14-.16.23-.8.31-2.53v-.11Zm-3.29,3.62l.72.14c-.22,1.02-.6,2.02-1.07,2.68-.14-.1-.47-.26-.65-.35.47-.62.81-1.54,1-2.48Zm-4.18-4.18l.76.17c-.41,1.49-1.08,2.9-1.86,3.84-.13-.13-.45-.38-.63-.49.78-.85,1.4-2.16,1.73-3.51Zm-.87,2.79h.68v2.93c0,1.34-.13,3.2-.91,4.42-.12-.11-.43-.3-.59-.37.75-1.17.83-2.81.83-4.05v-2.93Zm3.28,0h.69v6.42c0,.41-.09.64-.37.76-.28.12-.73.13-1.49.13-.03-.19-.15-.51-.25-.7.56.02,1.06.02,1.21.01.14-.01.21-.06.21-.2v-6.42Zm2.58-2h.76c-.19,1.52-.66,2.77-2.2,3.47-.1-.18-.3-.44-.46-.56,1.35-.57,1.75-1.66,1.9-2.9Zm-3.34.2h.16l.11-.04.48.32c-.23.68-.65,1.5-.98,2.01-.13-.11-.37-.25-.53-.32.28-.5.58-1.29.75-1.84v-.13Zm8.14,1.01c.42-.01.77-.03.99-.06.7-.08,2.78-.28,4.81-.45,1.21-.1,2.23-.17,2.97-.19v.88c-.63-.01-1.58.01-2.15.16-1.57.51-2.53,2.19-2.53,3.49,0,2.14,2.01,2.84,3.8,2.9l-.32.9c-2.03-.08-4.35-1.16-4.35-3.62,0-1.7,1.04-3.11,2.05-3.71-1.18.12-3.98.4-5.17.65l-.1-.97Zm7.18,1.53c.25.36.67,1.04.91,1.54l-.57.25c-.25-.53-.56-1.09-.89-1.55l.55-.24Zm1.2-.46c.27.36.7,1.03.96,1.52l-.56.28c-.26-.53-.59-1.08-.94-1.54l.54-.25Zm3.73-1.36c1.53.19,2.97.21,4.09.1.9-.08,1.8-.26,2.6-.53l.12.8c-.72.21-1.65.4-2.53.47-1.11.11-2.65.11-4.22-.04l-.06-.8Zm-.22,2.26c1.88.2,3.75.16,5.04.01,1.04-.11,1.94-.33,2.52-.51l.14.81c-.6.16-1.44.33-2.36.44-1.35.18-3.39.21-5.28.07l-.06-.82Zm3.76-2.4c-.09-.32-.19-.66-.31-.98l.94-.12c.11.92.45,2.03.73,2.82.3.86.78,1.91,1.35,2.76.12.18.25.33.42.47l-.46.67c-.62-.15-1.64-.26-2.4-.34l.07-.67c.59.06,1.31.13,1.65.18-.6-.95-1.07-2-1.39-2.89-.27-.76-.44-1.34-.59-1.89Zm-2.16,4.77c-.26.37-.46.75-.46,1.24,0,.9.8,1.36,2.53,1.36,1.02,0,1.83-.08,2.63-.23l-.04.87c-.77.13-1.63.2-2.57.2-2.15,0-3.35-.64-3.38-2.06,0-.63.19-1.09.44-1.57l.86.19Zm10.05-5.19c.24.02.55.03.77.03.58,0,3.19-.08,3.77-.13.33-.03.48-.06.61-.1l.51.65c-.2.13-.42.28-.63.44-.54.42-2.03,1.71-2.89,2.41.51-.16,1.03-.22,1.53-.22,1.83,0,3.14,1.09,3.14,2.57,0,1.77-1.46,2.93-3.79,2.93-1.5,0-2.41-.65-2.41-1.57,0-.75.68-1.43,1.69-1.43,1.46,0,2.2,1.03,2.28,2.15l-.79.13c-.07-.93-.61-1.61-1.49-1.61-.51,0-.89.31-.89.69,0,.54.61.86,1.47.86,1.87,0,3.05-.77,3.05-2.15,0-1.09-1.03-1.89-2.47-1.89-1.83,0-2.82.77-4.2,2.19l-.64-.64c.91-.75,2.33-1.94,2.96-2.47.62-.51,2-1.66,2.55-2.16-.58.03-2.78.12-3.36.15-.25.02-.5.03-.74.07l-.02-.9Z"/>
    <rect class="cls-7" x="126.64" y="261.08" width="99" height="33" rx="5" ry="5"/>
    <path class="cls-9" d="m143.38,278.16h4.3v.64h-4.3v-.64Zm0,1.8h4.3v.65h-4.3v-.65Zm.01,1.81h4.81v.7h-4.81v-.7Zm-1.25-7.81h6.01v1.88h-.74v-1.17h-4.55v1.17h-.72v-1.88Zm3.04,2.88h.77v5.3h-.77v-5.3Zm-1.5-.53h4.19v.72h-4.19v5.92h-.78v-5.89l.72-.75h.07Zm1.03-3.49l.79.15c-.63,2.23-1.72,4.06-3.2,5.24-.12-.15-.42-.46-.59-.61,1.45-1.06,2.46-2.76,3-4.78Zm1.14,2.18l.78.2c-.26.57-.56,1.19-.79,1.61l-.64-.19c.23-.44.52-1.13.65-1.62Zm-7.63-1.43h3.88v.76h-3.88v-.76Zm1.11,3.21h2.49v4.82h-2.49v-.73h1.76v-3.35h-1.76v-.74Zm.19-2.85l.79.12c-.34,2.31-.91,4.48-1.94,5.92-.09-.19-.32-.59-.47-.78.88-1.24,1.35-3.19,1.62-5.26Zm-.53,2.85h.69v5.68h-.69v-5.68Zm14.1-3.43h5.09v.67h-5.09v-.67Zm-.13,3.05h5.42v.68h-5.42v-.68Zm0,1.53h5.4v.68h-5.4v-.68Zm.32,3.82h4.77v.68h-4.77v-.68Zm-1.22-6.88h7.16v.69h-7.16v-.69Zm.79,4.59h5.63v3.45h-.82v-2.78h-4.01v2.82h-.79v-3.49Zm-1.17-6.6l.78.24c-.75,1.86-1.93,3.71-3.15,4.93-.08-.19-.31-.62-.46-.81,1.11-1.04,2.19-2.68,2.83-4.36Zm-1.14,2.84l.78-.78h.01v8.01h-.79v-7.23Zm13.77-2.17c-.04.2-.09.44-.13.65-.08.4-.22,1.3-.37,1.98-.37,1.55-1.15,4.29-2.4,6.29l-.9-.35c1.25-1.68,2.13-4.62,2.43-5.96.21-.88.35-1.87.35-2.72l1.02.11Zm3.78,1.26c.68.89,1.64,2.89,2.01,3.9l-.86.41c-.32-1.12-1.19-3.04-1.96-3.95l.8-.36Zm-7.74,1.14c.34.02.63.01.98,0,.82-.02,3.06-.26,3.81-.26.98,0,1.78.37,1.78,1.86,0,1.31-.18,3.06-.64,3.97-.34.74-.89.92-1.61.92-.42,0-.95-.08-1.29-.16l-.15-.91c.46.14,1.04.22,1.35.22.41,0,.74-.09.96-.56.35-.75.53-2.18.53-3.37,0-1.01-.46-1.2-1.17-1.2s-2.8.25-3.48.32c-.25.03-.7.09-.99.13l-.09-.96Zm7.87-2.74c.27.4.67,1.07.9,1.52l-.59.26c-.22-.45-.59-1.11-.9-1.53l.59-.25Zm1.21-.44c.3.41.71,1.1.93,1.51l-.61.26c-.23-.48-.59-1.11-.91-1.52l.58-.25Zm5.76,1.5h5.49v.76h-5.49v-.76Zm-.44,4.14h6.38v.77h-6.38v-.77Zm-.13-1.98h6.59v.76h-6.59v-.76Zm2.92-3.53h.78v3.93h-.78v-3.93Zm1.45,4.12h.79v4.95c0,.49-.11.73-.44.85-.32.13-.86.13-1.68.13-.03-.23-.14-.56-.24-.79.62.02,1.19.02,1.35.01.18-.01.22-.06.22-.21v-4.94Zm-3.42,2.83l.64-.37c.48.58,1.03,1.38,1.27,1.9l-.69.43c-.2-.54-.73-1.36-1.21-1.96Zm-4.62-1.15c.87-.24,2.17-.64,3.43-1.04l.11.76c-1.15.38-2.39.78-3.32,1.09l-.22-.8Zm.15-3.63h3.35v.77h-3.35v-.77Zm1.42-2.21h.78v9.12c0,.45-.11.68-.38.81-.25.12-.68.15-1.38.14-.03-.2-.13-.54-.24-.77.48.02.9.02,1.03.01.13,0,.19-.04.19-.2v-9.12Zm10.05,1.92c.42-.01.77-.03.99-.06.71-.08,2.78-.27,4.82-.45,1.2-.1,2.22-.16,2.96-.19v.88c-.63-.01-1.58.01-2.14.17-1.57.51-2.53,2.19-2.53,3.49,0,2.15,2.01,2.83,3.79,2.9l-.31.9c-2.05-.08-4.36-1.15-4.36-3.62,0-1.72,1.04-3.11,2.06-3.71-1.19.12-3.98.4-5.18.65l-.1-.97Zm11.13.37c.41.04.88.07,1.35.07,1.19,0,2.57-.14,3.84-.56l.02.81c-1.08.3-2.52.54-3.86.53-.41,0-.88-.01-1.29-.02l-.07-.83Zm3.9-1.79c-.14.54-.37,1.57-.64,2.35-.53,1.58-1.54,3.59-2.45,4.82l-.85-.44c.98-1.14,2-3.1,2.45-4.4.24-.69.48-1.66.52-2.43l.97.1Zm2.6,3.4c-.03.45-.03.78-.02,1.18.02.72.12,2.39.12,3.11,0,.88-.56,1.6-1.93,1.6-1.21,0-2.19-.48-2.19-1.58,0-1.01.96-1.65,2.19-1.65,1.85,0,3.27.92,4.17,1.71l-.46.75c-.85-.77-2.11-1.75-3.73-1.75-.81,0-1.36.37-1.36.88s.43.86,1.29.86c.91,0,1.22-.48,1.22-1.08,0-.84-.12-2.81-.16-4.02h.87Zm2.2.29c-.59-.51-1.79-1.18-2.52-1.52l.44-.66c.8.34,2.05,1.06,2.57,1.45l-.49.73Zm3.7-2.63c-.06.25-.09.78-.1,1.07-.01.68,0,1.69.08,2.6.19,1.84.71,3.06,1.51,3.06.56,0,1.08-1.13,1.36-2.23l.69.78c-.67,1.86-1.33,2.5-2.08,2.5-1.04,0-2.04-1.03-2.34-3.88-.1-.95-.12-2.29-.12-2.93,0-.25,0-.73-.07-.98l1.07.02Zm5.72.3c.99,1.28,1.78,3.62,1.95,5.48l-.89.35c-.19-1.98-.86-4.25-1.9-5.53l.85-.3Z"/>
    <rect class="cls-7" x="238.64" y="261.08" width="99" height="33" rx="5" ry="5"/>
    <path class="cls-9" d="m255.6,273.44c-.04.24-.08.77-.09,1.1v2.01c0,1.2.18,3.4.18,4.37,0,.89-.55,1.66-2.01,1.66s-2.64-.47-2.64-1.73c0-1,.86-1.8,2.76-1.8,2.18,0,4.14,1.1,5.26,2.12l-.53.83c-1.1-1.1-2.9-2.18-4.83-2.18-1.14,0-1.79.39-1.79,1s.62.95,1.68.95c.8,0,1.2-.39,1.2-1.14,0-.81-.13-2.95-.13-4.07,0-.64-.01-1.54-.01-2.01-.01-.41-.04-.89-.09-1.1h1.04Zm-.57,2.22c.76,0,2.55-.06,3.74-.2l.03.83c-1.19.11-2.98.19-3.77.19v-.81Zm13.37-1.69c-.24.18-.58.47-.76.63-.76.66-2.34,1.9-3.16,2.58-.66.57-.67.74.04,1.33,1,.83,2.95,2.39,4.11,3.56l-.78.72c-.23-.26-.49-.53-.76-.8-.78-.79-2.44-2.22-3.48-3.07-1.03-.87-.91-1.34.08-2.18.84-.69,2.51-2.01,3.25-2.76.22-.22.51-.54.63-.74l.82.73Zm5.31,3.04h6.29v.8h-6.29v-.8Zm6.02,0h.86s-.01.29-.02.4c-.15,3.41-.31,4.69-.7,5.1-.22.27-.46.35-.85.38-.36.03-1.06.02-1.75-.01-.01-.25-.12-.59-.27-.84.73.07,1.41.08,1.67.08.22,0,.35-.02.46-.14.3-.3.46-1.55.61-4.82v-.15Zm-4.51-3.94l.87.25c-.79,1.86-2.09,3.5-3.48,4.55-.15-.18-.51-.49-.71-.65,1.41-.95,2.63-2.46,3.32-4.16Zm3.84-.02c.71,1.47,2.13,3.15,3.33,3.99-.22.18-.53.51-.69.74-1.22-.99-2.61-2.77-3.43-4.41l.79-.32Zm-3.03,4.18h.88c-.25,2.41-.82,4.69-3.89,5.79-.1-.21-.34-.54-.53-.72,2.88-.96,3.32-2.99,3.54-5.07Zm11.43-3.73c-.04.21-.09.44-.13.66-.07.4-.22,1.3-.36,1.98-.37,1.54-1.17,4.28-2.41,6.29l-.89-.36c1.25-1.67,2.13-4.61,2.43-5.96.2-.87.35-1.86.35-2.71l1.01.1Zm3.79,1.18c.68.89,1.64,2.92,2,3.94l-.85.41c-.33-1.13-1.19-3.08-1.96-3.98l.8-.36Zm-7.76,1.24c.35.01.64.01.99,0,.81-.02,3.05-.28,3.79-.28.98,0,1.78.37,1.78,1.87,0,1.31-.18,3.06-.63,3.97-.35.74-.9.91-1.61.91-.43,0-.95-.08-1.3-.15l-.14-.92c.46.14,1.03.23,1.34.23.41,0,.74-.09.97-.57.35-.74.52-2.18.52-3.37,0-1-.46-1.19-1.17-1.19s-2.79.24-3.46.31c-.25.03-.71.09-.99.13l-.1-.95Zm13.83-2.46c.95.31,3.29.76,4.27.86l-.21.84c-1.06-.14-3.43-.63-4.28-.85l.22-.85Zm-.24,2.01c-.14.75-.34,2.38-.45,3.09,1.06-.92,2.27-1.35,3.59-1.35,1.68,0,2.81,1.01,2.81,2.31,0,1.96-1.75,3.29-5.83,2.95l-.26-.89c3.48.42,5.17-.58,5.17-2.09,0-.87-.83-1.5-1.95-1.5-1.44,0-2.63.54-3.4,1.47-.16.19-.26.36-.33.54l-.83-.2c.22-1,.49-3.31.56-4.45l.92.12Zm8.62-.32c.41.04.88.07,1.35.07,1.19,0,2.57-.14,3.84-.56l.02.81c-1.08.3-2.52.54-3.86.53-.41,0-.88-.01-1.29-.02l-.07-.83Zm3.9-1.79c-.14.54-.37,1.57-.64,2.35-.53,1.58-1.54,3.59-2.45,4.82l-.85-.44c.98-1.14,2-3.1,2.45-4.4.24-.69.48-1.66.52-2.43l.97.1Zm2.6,3.4c-.03.45-.03.78-.02,1.18.02.72.12,2.39.12,3.11,0,.88-.56,1.6-1.93,1.6-1.21,0-2.19-.48-2.19-1.58,0-1.01.96-1.65,2.19-1.65,1.85,0,3.27.92,4.17,1.71l-.46.75c-.85-.77-2.11-1.75-3.73-1.75-.81,0-1.36.37-1.36.88s.43.86,1.29.86c.91,0,1.22-.48,1.22-1.08,0-.84-.12-2.81-.17-4.02h.87Zm2.2.29c-.59-.51-1.79-1.18-2.52-1.52l.44-.66c.8.34,2.05,1.06,2.57,1.45l-.5.73Zm3.7-2.63c-.05.25-.09.78-.1,1.07-.01.68,0,1.69.08,2.6.19,1.84.71,3.06,1.51,3.06.56,0,1.08-1.13,1.36-2.23l.69.78c-.67,1.86-1.33,2.5-2.08,2.5-1.04,0-2.03-1.03-2.34-3.88-.1-.95-.12-2.29-.12-2.93,0-.25,0-.73-.07-.98l1.07.02Zm5.72.3c.99,1.28,1.78,3.62,1.95,5.48l-.89.35c-.19-1.98-.86-4.25-1.9-5.53l.85-.3Z"/>
    <rect class="cls-7" x="14.64" y="407.08" width="99" height="33" rx="5" ry="5"/>
    <path class="cls-9" d="m41.98,422.15v1.42h4.09v-1.42h-4.09Zm0-2.08v1.4h4.09v-1.4h-4.09Zm-.75-.72h5.63v4.93h-5.63v-4.93Zm-.14,6.22h5.93v.76h-5.93v-.76Zm-.85,2.28h7.14v.75h-7.14v-.75Zm-2.99-8.26h3.43v.78h-3.43v-.78Zm.12,3.18h3.16v.78h-3.16v-.78Zm-.23,4.21c.89-.24,2.21-.67,3.49-1.1l.14.79c-1.2.41-2.45.83-3.43,1.15l-.2-.85Zm1.49-7.08h.79v6.82l-.79.15v-6.97Zm5.04-.2h.73v4.24h.06v4.26h-.84v-4.26h.06v-4.24Zm5.61,1.94h3.18v.65h-3.18v-.65Zm0,1.87h3.18v.63h-3.18v-.63Zm0,1.91h3.18v.65h-3.18v-.65Zm4.69-1.36h4.19v.71h-4.19v-.71Zm-4.11-4.22h1.83v.65h-1.83v-.65Zm3.41-.43h4.3v.7h-4.3v-.7Zm-.13,6.71h5.21v.74h-5.21v-.74Zm2.32-3.19h.79v5.99h-.79v-5.99Zm-4.81-.97h.59v3.74h-.59v-3.74Zm6.66-2.55h.75s0,.21-.01.31c-.08,1.84-.19,2.55-.42,2.81-.15.19-.32.25-.61.27-.22.02-.68.02-1.14,0-.01-.22-.09-.51-.19-.69.44.04.84.04.99.04.15.01.25-.01.32-.1.14-.16.23-.8.31-2.53v-.11Zm-3.29,3.62l.72.14c-.22,1.02-.6,2.02-1.07,2.68-.14-.1-.47-.26-.65-.35.47-.62.81-1.54,1-2.47Zm-4.18-4.18l.76.17c-.41,1.49-1.08,2.9-1.86,3.84-.13-.13-.45-.39-.63-.5.78-.85,1.4-2.16,1.73-3.51Zm-.87,2.79h.68v2.93c0,1.34-.13,3.2-.91,4.42-.12-.11-.43-.3-.59-.37.75-1.17.83-2.8.83-4.05v-2.93Zm3.28,0h.69v6.42c0,.41-.09.64-.37.76-.28.12-.73.13-1.49.13-.03-.19-.15-.51-.25-.7.56.02,1.06.02,1.21.01.14-.01.21-.05.21-.2v-6.42Zm2.58-2h.76c-.19,1.52-.66,2.77-2.2,3.46-.1-.18-.3-.44-.46-.56,1.35-.57,1.75-1.66,1.9-2.9Zm-3.34.2h.16l.11-.04.48.32c-.23.68-.65,1.5-.98,2.01-.13-.11-.37-.25-.53-.32.28-.49.58-1.29.75-1.84v-.13Zm8.14,1.01c.42-.01.77-.03.99-.05.7-.08,2.78-.27,4.81-.45,1.21-.1,2.23-.16,2.97-.19v.88c-.63-.01-1.58.01-2.15.16-1.57.51-2.53,2.19-2.53,3.49,0,2.15,2.01,2.84,3.8,2.9l-.32.9c-2.03-.08-4.35-1.15-4.35-3.62,0-1.71,1.04-3.11,2.05-3.71-1.18.12-3.98.4-5.17.65l-.1-.97Zm7.18,1.53c.25.36.67,1.04.91,1.54l-.57.25c-.25-.53-.56-1.09-.89-1.55l.55-.24Zm1.2-.46c.27.36.7,1.03.96,1.52l-.56.27c-.26-.53-.59-1.08-.94-1.54l.54-.25Zm3.73-1.36c1.53.19,2.97.21,4.09.1.9-.08,1.8-.26,2.6-.53l.12.8c-.72.21-1.65.4-2.53.47-1.11.11-2.65.11-4.22-.04l-.06-.8Zm-.22,2.26c1.88.2,3.75.16,5.04.01,1.04-.11,1.94-.33,2.52-.51l.14.81c-.6.16-1.44.33-2.36.44-1.35.18-3.39.21-5.28.07l-.06-.82Zm3.76-2.4c-.09-.32-.19-.66-.31-.98l.94-.12c.11.92.45,2.04.73,2.82.3.86.78,1.91,1.35,2.76.12.18.25.33.42.47l-.46.67c-.62-.15-1.64-.26-2.4-.34l.07-.67c.59.05,1.31.13,1.65.18-.6-.95-1.07-2-1.39-2.89-.27-.76-.44-1.34-.59-1.89Zm-2.16,4.77c-.26.37-.46.75-.46,1.24,0,.9.8,1.36,2.53,1.36,1.02,0,1.83-.08,2.63-.23l-.04.87c-.77.13-1.63.2-2.57.2-2.15,0-3.35-.64-3.38-2.06,0-.63.19-1.09.44-1.57l.86.19Zm10.05-5.19c.24.02.55.03.77.03.58,0,3.19-.08,3.77-.13.33-.03.48-.05.61-.1l.51.65c-.2.13-.42.28-.63.44-.54.42-2.03,1.71-2.89,2.41.51-.16,1.03-.22,1.53-.22,1.83,0,3.14,1.09,3.14,2.57,0,1.77-1.46,2.93-3.79,2.93-1.5,0-2.41-.65-2.41-1.57,0-.75.68-1.43,1.69-1.43,1.46,0,2.2,1.03,2.28,2.15l-.79.13c-.07-.93-.61-1.61-1.49-1.61-.51,0-.89.31-.89.69,0,.54.61.86,1.47.86,1.87,0,3.05-.77,3.05-2.15,0-1.09-1.03-1.89-2.47-1.89-1.83,0-2.82.77-4.2,2.19l-.64-.64c.91-.75,2.33-1.94,2.96-2.47.62-.51,2-1.66,2.55-2.16-.58.03-2.78.12-3.36.15-.25.02-.5.03-.74.07l-.02-.9Z"/>
    <rect class="cls-7" x="126.64" y="407.08" width="99" height="33" rx="5" ry="5"/>
    <path class="cls-9" d="m143.38,424.16h4.3v.64h-4.3v-.64Zm0,1.8h4.3v.65h-4.3v-.65Zm.01,1.82h4.81v.7h-4.81v-.7Zm-1.25-7.81h6.01v1.88h-.74v-1.17h-4.55v1.17h-.72v-1.88Zm3.04,2.88h.77v5.3h-.77v-5.3Zm-1.5-.53h4.19v.72h-4.19v5.92h-.78v-5.89l.72-.75h.07Zm1.03-3.49l.79.15c-.63,2.23-1.72,4.06-3.2,5.24-.12-.15-.42-.46-.59-.6,1.45-1.06,2.46-2.76,3-4.79Zm1.14,2.18l.78.2c-.26.57-.56,1.19-.79,1.61l-.64-.19c.23-.44.52-1.13.65-1.62Zm-7.63-1.43h3.88v.76h-3.88v-.76Zm1.11,3.21h2.49v4.82h-2.49v-.73h1.76v-3.35h-1.76v-.74Zm.19-2.85l.79.12c-.34,2.31-.91,4.48-1.94,5.92-.09-.19-.32-.59-.47-.78.88-1.24,1.35-3.19,1.62-5.26Zm-.53,2.85h.69v5.68h-.69v-5.68Zm14.1-3.43h5.09v.67h-5.09v-.67Zm-.13,3.05h5.42v.68h-5.42v-.68Zm0,1.53h5.4v.68h-5.4v-.68Zm.32,3.82h4.77v.68h-4.77v-.68Zm-1.22-6.88h7.16v.69h-7.16v-.69Zm.79,4.59h5.63v3.45h-.82v-2.78h-4.01v2.82h-.79v-3.49Zm-1.17-6.6l.78.24c-.75,1.86-1.93,3.71-3.15,4.93-.08-.19-.31-.62-.46-.81,1.11-1.04,2.19-2.68,2.83-4.36Zm-1.14,2.84l.78-.78h.01v8.01h-.79v-7.23Zm13.77-2.17c-.04.2-.09.44-.13.65-.08.4-.22,1.3-.37,1.98-.37,1.55-1.15,4.29-2.4,6.29l-.9-.35c1.25-1.68,2.13-4.62,2.43-5.96.21-.88.35-1.87.35-2.72l1.02.11Zm3.78,1.26c.68.89,1.64,2.89,2.01,3.9l-.86.41c-.32-1.12-1.19-3.04-1.96-3.95l.8-.36Zm-7.74,1.14c.34.02.63.01.98,0,.82-.02,3.06-.26,3.81-.26.98,0,1.78.37,1.78,1.86,0,1.31-.18,3.06-.64,3.97-.34.74-.89.92-1.61.92-.42,0-.95-.08-1.29-.17l-.15-.91c.46.14,1.04.22,1.35.22.41,0,.74-.09.96-.56.35-.75.53-2.18.53-3.37,0-1.01-.46-1.2-1.17-1.2s-2.8.25-3.48.32c-.25.03-.7.09-.99.13l-.09-.96Zm7.87-2.74c.27.4.67,1.07.9,1.52l-.59.26c-.22-.45-.59-1.11-.9-1.53l.59-.25Zm1.21-.44c.3.41.71,1.1.93,1.51l-.61.26c-.23-.48-.59-1.11-.91-1.52l.58-.25Zm5.76,1.5h5.49v.76h-5.49v-.76Zm-.44,4.14h6.38v.77h-6.38v-.77Zm-.13-1.98h6.59v.76h-6.59v-.76Zm2.92-3.53h.78v3.93h-.78v-3.93Zm1.45,4.12h.79v4.95c0,.49-.11.73-.44.85-.32.13-.86.13-1.68.13-.03-.23-.14-.56-.24-.79.62.02,1.19.02,1.35.01.18-.01.22-.05.22-.21v-4.94Zm-3.42,2.83l.64-.37c.48.58,1.03,1.38,1.27,1.9l-.69.43c-.2-.54-.73-1.36-1.21-1.96Zm-4.62-1.15c.87-.24,2.17-.64,3.43-1.04l.11.76c-1.15.38-2.39.78-3.32,1.09l-.22-.8Zm.15-3.63h3.35v.77h-3.35v-.77Zm1.42-2.21h.78v9.12c0,.45-.11.68-.38.81-.25.12-.68.15-1.38.14-.03-.2-.13-.54-.24-.77.48.02.9.02,1.03.01.13,0,.19-.04.19-.2v-9.12Zm10.05,1.93c.42-.01.77-.03.99-.05.71-.08,2.78-.28,4.82-.45,1.2-.1,2.22-.17,2.96-.19v.88c-.63-.01-1.58.01-2.14.17-1.57.51-2.53,2.19-2.53,3.49,0,2.14,2.01,2.83,3.79,2.9l-.31.9c-2.05-.08-4.36-1.15-4.36-3.62,0-1.72,1.04-3.11,2.06-3.71-1.19.12-3.98.4-5.18.65l-.1-.97Zm11.13.37c.41.04.88.07,1.35.07,1.19,0,2.57-.14,3.84-.56l.02.81c-1.08.3-2.52.54-3.86.53-.41,0-.88-.01-1.29-.02l-.07-.82Zm3.9-1.79c-.14.54-.37,1.57-.64,2.35-.53,1.58-1.54,3.59-2.45,4.82l-.85-.44c.98-1.14,2-3.1,2.45-4.4.24-.69.48-1.66.52-2.43l.97.1Zm2.6,3.4c-.03.45-.03.78-.02,1.18.02.71.12,2.39.12,3.11,0,.88-.56,1.6-1.93,1.6-1.21,0-2.19-.48-2.19-1.58,0-1.01.96-1.65,2.19-1.65,1.85,0,3.27.92,4.17,1.71l-.46.75c-.85-.77-2.11-1.75-3.73-1.75-.81,0-1.36.37-1.36.88s.43.86,1.29.86c.91,0,1.22-.48,1.22-1.08,0-.84-.12-2.8-.16-4.01h.87Zm2.2.29c-.59-.51-1.79-1.18-2.52-1.52l.44-.66c.8.34,2.05,1.06,2.57,1.45l-.49.73Zm3.7-2.63c-.06.25-.09.78-.1,1.07-.01.68,0,1.69.08,2.6.19,1.84.71,3.06,1.51,3.06.56,0,1.08-1.13,1.36-2.23l.69.78c-.67,1.86-1.33,2.5-2.08,2.5-1.04,0-2.04-1.03-2.34-3.88-.1-.95-.12-2.29-.12-2.93,0-.25,0-.73-.07-.98l1.07.02Zm5.72.3c.99,1.28,1.78,3.62,1.95,5.48l-.89.35c-.19-1.98-.86-4.25-1.9-5.53l.85-.3Z"/>
    <rect class="cls-7" x="238.64" y="407.08" width="99" height="33" rx="5" ry="5"/>
    <path class="cls-9" d="m255.6,419.44c-.04.24-.08.77-.09,1.1v2.01c0,1.2.18,3.4.18,4.37,0,.89-.55,1.66-2.01,1.66s-2.64-.47-2.64-1.73c0-1,.86-1.8,2.76-1.8,2.18,0,4.14,1.1,5.26,2.12l-.53.82c-1.1-1.1-2.9-2.18-4.83-2.18-1.14,0-1.79.39-1.79,1s.62.95,1.68.95c.8,0,1.2-.38,1.2-1.14,0-.81-.13-2.95-.13-4.07,0-.64-.01-1.54-.01-2.01-.01-.41-.04-.89-.09-1.1h1.04Zm-.57,2.22c.76,0,2.55-.06,3.74-.2l.03.82c-1.19.11-2.98.19-3.77.19v-.81Zm13.37-1.69c-.24.18-.58.47-.76.63-.76.66-2.34,1.9-3.16,2.58-.66.57-.67.74.04,1.33,1,.82,2.95,2.39,4.11,3.56l-.78.71c-.23-.26-.49-.53-.76-.8-.78-.79-2.44-2.22-3.48-3.07-1.03-.87-.91-1.34.08-2.18.84-.69,2.51-2.01,3.25-2.76.22-.22.51-.54.63-.74l.82.73Zm5.31,3.04h6.29v.8h-6.29v-.8Zm6.02,0h.86s-.01.29-.02.4c-.15,3.41-.31,4.69-.7,5.1-.22.27-.46.35-.85.38-.36.03-1.06.02-1.75-.01-.01-.25-.12-.59-.27-.84.73.07,1.41.08,1.67.08.22,0,.35-.02.46-.14.3-.3.46-1.55.61-4.82v-.15Zm-4.51-3.94l.87.25c-.79,1.86-2.09,3.5-3.48,4.55-.15-.18-.51-.5-.71-.65,1.41-.95,2.63-2.46,3.32-4.16Zm3.84-.02c.71,1.47,2.13,3.15,3.33,3.99-.22.18-.53.51-.69.74-1.22-.99-2.61-2.77-3.43-4.41l.79-.32Zm-3.03,4.18h.88c-.25,2.41-.82,4.69-3.89,5.79-.1-.21-.34-.54-.53-.71,2.88-.96,3.32-2.99,3.54-5.07Zm11.43-3.73c-.04.21-.09.44-.13.66-.07.4-.22,1.3-.36,1.98-.37,1.54-1.17,4.28-2.41,6.29l-.89-.36c1.25-1.67,2.13-4.61,2.43-5.96.2-.87.35-1.86.35-2.71l1.01.1Zm3.79,1.18c.68.89,1.64,2.91,2,3.94l-.85.41c-.33-1.13-1.19-3.08-1.96-3.98l.8-.36Zm-7.76,1.24c.35.01.64.01.99,0,.81-.02,3.05-.27,3.79-.27.98,0,1.78.37,1.78,1.87,0,1.31-.18,3.06-.63,3.97-.35.74-.9.91-1.61.91-.43,0-.95-.08-1.3-.15l-.14-.92c.46.14,1.03.23,1.34.23.41,0,.74-.09.97-.57.35-.74.52-2.18.52-3.37,0-1-.46-1.19-1.17-1.19s-2.79.24-3.46.31c-.25.03-.71.09-.99.13l-.1-.95Zm13.83-2.46c.95.31,3.29.76,4.27.86l-.21.84c-1.06-.14-3.43-.63-4.28-.85l.22-.85Zm-.24,2.01c-.14.75-.34,2.38-.45,3.09,1.06-.92,2.27-1.35,3.59-1.35,1.68,0,2.81,1.01,2.81,2.31,0,1.96-1.75,3.29-5.83,2.95l-.26-.89c3.48.42,5.17-.58,5.17-2.09,0-.87-.83-1.5-1.95-1.5-1.44,0-2.63.54-3.4,1.47-.16.19-.26.36-.33.54l-.83-.2c.22-1,.49-3.31.56-4.46l.92.12Zm8.62-.32c.41.04.88.07,1.35.07,1.19,0,2.57-.14,3.84-.56l.02.81c-1.08.3-2.52.54-3.86.53-.41,0-.88-.01-1.29-.02l-.07-.82Zm3.9-1.79c-.14.54-.37,1.57-.64,2.35-.53,1.58-1.54,3.59-2.45,4.82l-.85-.44c.98-1.14,2-3.1,2.45-4.4.24-.69.48-1.66.52-2.43l.97.1Zm2.6,3.4c-.03.45-.03.78-.02,1.18.02.71.12,2.39.12,3.11,0,.88-.56,1.6-1.93,1.6-1.21,0-2.19-.48-2.19-1.58,0-1.01.96-1.65,2.19-1.65,1.85,0,3.27.92,4.17,1.71l-.46.75c-.85-.77-2.11-1.75-3.73-1.75-.81,0-1.36.37-1.36.88s.43.86,1.29.86c.91,0,1.22-.48,1.22-1.08,0-.84-.12-2.8-.17-4.01h.87Zm2.2.29c-.59-.51-1.79-1.18-2.52-1.52l.44-.66c.8.34,2.05,1.06,2.57,1.45l-.5.73Zm3.7-2.63c-.05.25-.09.78-.1,1.07-.01.68,0,1.69.08,2.6.19,1.84.71,3.06,1.51,3.06.56,0,1.08-1.13,1.36-2.23l.69.78c-.67,1.86-1.33,2.5-2.08,2.5-1.04,0-2.03-1.03-2.34-3.88-.1-.95-.12-2.29-.12-2.93,0-.25,0-.73-.07-.98l1.07.02Zm5.72.3c.99,1.28,1.78,3.62,1.95,5.48l-.89.35c-.19-1.98-.86-4.25-1.9-5.53l.85-.3Z"/>
    <rect class="cls-7" x="14.64" y="407.08" width="99" height="33" rx="5" ry="5"/>
    <path class="cls-9" d="m41.98,422.15v1.42h4.09v-1.42h-4.09Zm0-2.08v1.4h4.09v-1.4h-4.09Zm-.75-.72h5.63v4.93h-5.63v-4.93Zm-.14,6.22h5.93v.76h-5.93v-.76Zm-.85,2.28h7.14v.75h-7.14v-.75Zm-2.99-8.26h3.43v.78h-3.43v-.78Zm.12,3.18h3.16v.78h-3.16v-.78Zm-.23,4.21c.89-.24,2.21-.67,3.49-1.1l.14.79c-1.2.41-2.45.83-3.43,1.15l-.2-.85Zm1.49-7.08h.79v6.82l-.79.15v-6.97Zm5.04-.2h.73v4.24h.06v4.26h-.84v-4.26h.06v-4.24Zm5.61,1.94h3.18v.65h-3.18v-.65Zm0,1.87h3.18v.63h-3.18v-.63Zm0,1.91h3.18v.65h-3.18v-.65Zm4.69-1.36h4.19v.71h-4.19v-.71Zm-4.11-4.22h1.83v.65h-1.83v-.65Zm3.41-.43h4.3v.7h-4.3v-.7Zm-.13,6.71h5.21v.74h-5.21v-.74Zm2.32-3.19h.79v5.99h-.79v-5.99Zm-4.81-.97h.59v3.74h-.59v-3.74Zm6.66-2.55h.75s0,.21-.01.31c-.08,1.84-.19,2.55-.42,2.81-.15.19-.32.25-.61.27-.22.02-.68.02-1.14,0-.01-.22-.09-.51-.19-.69.44.04.84.04.99.04.15.01.25-.01.32-.1.14-.16.23-.8.31-2.53v-.11Zm-3.29,3.62l.72.14c-.22,1.02-.6,2.02-1.07,2.68-.14-.1-.47-.26-.65-.35.47-.62.81-1.54,1-2.47Zm-4.18-4.18l.76.17c-.41,1.49-1.08,2.9-1.86,3.84-.13-.13-.45-.39-.63-.5.78-.85,1.4-2.16,1.73-3.51Zm-.87,2.79h.68v2.93c0,1.34-.13,3.2-.91,4.42-.12-.11-.43-.3-.59-.37.75-1.17.83-2.8.83-4.05v-2.93Zm3.28,0h.69v6.42c0,.41-.09.64-.37.76-.28.12-.73.13-1.49.13-.03-.19-.15-.51-.25-.7.56.02,1.06.02,1.21.01.14-.01.21-.05.21-.2v-6.42Zm2.58-2h.76c-.19,1.52-.66,2.77-2.2,3.46-.1-.18-.3-.44-.46-.56,1.35-.57,1.75-1.66,1.9-2.9Zm-3.34.2h.16l.11-.04.48.32c-.23.68-.65,1.5-.98,2.01-.13-.11-.37-.25-.53-.32.28-.49.58-1.29.75-1.84v-.13Zm8.14,1.01c.42-.01.77-.03.99-.05.7-.08,2.78-.27,4.81-.45,1.21-.1,2.23-.16,2.97-.19v.88c-.63-.01-1.58.01-2.15.16-1.57.51-2.53,2.19-2.53,3.49,0,2.15,2.01,2.84,3.8,2.9l-.32.9c-2.03-.08-4.35-1.15-4.35-3.62,0-1.71,1.04-3.11,2.05-3.71-1.18.12-3.98.4-5.17.65l-.1-.97Zm7.18,1.53c.25.36.67,1.04.91,1.54l-.57.25c-.25-.53-.56-1.09-.89-1.55l.55-.24Zm1.2-.46c.27.36.7,1.03.96,1.52l-.56.27c-.26-.53-.59-1.08-.94-1.54l.54-.25Zm3.73-1.36c1.53.19,2.97.21,4.09.1.9-.08,1.8-.26,2.6-.53l.12.8c-.72.21-1.65.4-2.53.47-1.11.11-2.65.11-4.22-.04l-.06-.8Zm-.22,2.26c1.88.2,3.75.16,5.04.01,1.04-.11,1.94-.33,2.52-.51l.14.81c-.6.16-1.44.33-2.36.44-1.35.18-3.39.21-5.28.07l-.06-.82Zm3.76-2.4c-.09-.32-.19-.66-.31-.98l.94-.12c.11.92.45,2.04.73,2.82.3.86.78,1.91,1.35,2.76.12.18.25.33.42.47l-.46.67c-.62-.15-1.64-.26-2.4-.34l.07-.67c.59.05,1.31.13,1.65.18-.6-.95-1.07-2-1.39-2.89-.27-.76-.44-1.34-.59-1.89Zm-2.16,4.77c-.26.37-.46.75-.46,1.24,0,.9.8,1.36,2.53,1.36,1.02,0,1.83-.08,2.63-.23l-.04.87c-.77.13-1.63.2-2.57.2-2.15,0-3.35-.64-3.38-2.06,0-.63.19-1.09.44-1.57l.86.19Zm10.05-5.19c.24.02.55.03.77.03.58,0,3.19-.08,3.77-.13.33-.03.48-.05.61-.1l.51.65c-.2.13-.42.28-.63.44-.54.42-2.03,1.71-2.89,2.41.51-.16,1.03-.22,1.53-.22,1.83,0,3.14,1.09,3.14,2.57,0,1.77-1.46,2.93-3.79,2.93-1.5,0-2.41-.65-2.41-1.57,0-.75.68-1.43,1.69-1.43,1.46,0,2.2,1.03,2.28,2.15l-.79.13c-.07-.93-.61-1.61-1.49-1.61-.51,0-.89.31-.89.69,0,.54.61.86,1.47.86,1.87,0,3.05-.77,3.05-2.15,0-1.09-1.03-1.89-2.47-1.89-1.83,0-2.82.77-4.2,2.19l-.64-.64c.91-.75,2.33-1.94,2.96-2.47.62-.51,2-1.66,2.55-2.16-.58.03-2.78.12-3.36.15-.25.02-.5.03-.74.07l-.02-.9Z"/>
    <rect class="cls-7" x="126.64" y="407.08" width="99" height="33" rx="5" ry="5"/>
    <path class="cls-9" d="m143.38,424.16h4.3v.64h-4.3v-.64Zm0,1.8h4.3v.65h-4.3v-.65Zm.01,1.82h4.81v.7h-4.81v-.7Zm-1.25-7.81h6.01v1.88h-.74v-1.17h-4.55v1.17h-.72v-1.88Zm3.04,2.88h.77v5.3h-.77v-5.3Zm-1.5-.53h4.19v.72h-4.19v5.92h-.78v-5.89l.72-.75h.07Zm1.03-3.49l.79.15c-.63,2.23-1.72,4.06-3.2,5.24-.12-.15-.42-.46-.59-.6,1.45-1.06,2.46-2.76,3-4.79Zm1.14,2.18l.78.2c-.26.57-.56,1.19-.79,1.61l-.64-.19c.23-.44.52-1.13.65-1.62Zm-7.63-1.43h3.88v.76h-3.88v-.76Zm1.11,3.21h2.49v4.82h-2.49v-.73h1.76v-3.35h-1.76v-.74Zm.19-2.85l.79.12c-.34,2.31-.91,4.48-1.94,5.92-.09-.19-.32-.59-.47-.78.88-1.24,1.35-3.19,1.62-5.26Zm-.53,2.85h.69v5.68h-.69v-5.68Zm14.1-3.43h5.09v.67h-5.09v-.67Zm-.13,3.05h5.42v.68h-5.42v-.68Zm0,1.53h5.4v.68h-5.4v-.68Zm.32,3.82h4.77v.68h-4.77v-.68Zm-1.22-6.88h7.16v.69h-7.16v-.69Zm.79,4.59h5.63v3.45h-.82v-2.78h-4.01v2.82h-.79v-3.49Zm-1.17-6.6l.78.24c-.75,1.86-1.93,3.71-3.15,4.93-.08-.19-.31-.62-.46-.81,1.11-1.04,2.19-2.68,2.83-4.36Zm-1.14,2.84l.78-.78h.01v8.01h-.79v-7.23Zm13.77-2.17c-.04.2-.09.44-.13.65-.08.4-.22,1.3-.37,1.98-.37,1.55-1.15,4.29-2.4,6.29l-.9-.35c1.25-1.68,2.13-4.62,2.43-5.96.21-.88.35-1.87.35-2.72l1.02.11Zm3.78,1.26c.68.89,1.64,2.89,2.01,3.9l-.86.41c-.32-1.12-1.19-3.04-1.96-3.95l.8-.36Zm-7.74,1.14c.34.02.63.01.98,0,.82-.02,3.06-.26,3.81-.26.98,0,1.78.37,1.78,1.86,0,1.31-.18,3.06-.64,3.97-.34.74-.89.92-1.61.92-.42,0-.95-.08-1.29-.17l-.15-.91c.46.14,1.04.22,1.35.22.41,0,.74-.09.96-.56.35-.75.53-2.18.53-3.37,0-1.01-.46-1.2-1.17-1.2s-2.8.25-3.48.32c-.25.03-.7.09-.99.13l-.09-.96Zm7.87-2.74c.27.4.67,1.07.9,1.52l-.59.26c-.22-.45-.59-1.11-.9-1.53l.59-.25Zm1.21-.44c.3.41.71,1.1.93,1.51l-.61.26c-.23-.48-.59-1.11-.91-1.52l.58-.25Zm5.76,1.5h5.49v.76h-5.49v-.76Zm-.44,4.14h6.38v.77h-6.38v-.77Zm-.13-1.98h6.59v.76h-6.59v-.76Zm2.92-3.53h.78v3.93h-.78v-3.93Zm1.45,4.12h.79v4.95c0,.49-.11.73-.44.85-.32.13-.86.13-1.68.13-.03-.23-.14-.56-.24-.79.62.02,1.19.02,1.35.01.18-.01.22-.05.22-.21v-4.94Zm-3.42,2.83l.64-.37c.48.58,1.03,1.38,1.27,1.9l-.69.43c-.2-.54-.73-1.36-1.21-1.96Zm-4.62-1.15c.87-.24,2.17-.64,3.43-1.04l.11.76c-1.15.38-2.39.78-3.32,1.09l-.22-.8Zm.15-3.63h3.35v.77h-3.35v-.77Zm1.42-2.21h.78v9.12c0,.45-.11.68-.38.81-.25.12-.68.15-1.38.14-.03-.2-.13-.54-.24-.77.48.02.9.02,1.03.01.13,0,.19-.04.19-.2v-9.12Zm10.05,1.93c.42-.01.77-.03.99-.05.71-.08,2.78-.28,4.82-.45,1.2-.1,2.22-.17,2.96-.19v.88c-.63-.01-1.58.01-2.14.17-1.57.51-2.53,2.19-2.53,3.49,0,2.14,2.01,2.83,3.79,2.9l-.31.9c-2.05-.08-4.36-1.15-4.36-3.62,0-1.72,1.04-3.11,2.06-3.71-1.19.12-3.98.4-5.18.65l-.1-.97Zm11.13.37c.41.04.88.07,1.35.07,1.19,0,2.57-.14,3.84-.56l.02.81c-1.08.3-2.52.54-3.86.53-.41,0-.88-.01-1.29-.02l-.07-.82Zm3.9-1.79c-.14.54-.37,1.57-.64,2.35-.53,1.58-1.54,3.59-2.45,4.82l-.85-.44c.98-1.14,2-3.1,2.45-4.4.24-.69.48-1.66.52-2.43l.97.1Zm2.6,3.4c-.03.45-.03.78-.02,1.18.02.71.12,2.39.12,3.11,0,.88-.56,1.6-1.93,1.6-1.21,0-2.19-.48-2.19-1.58,0-1.01.96-1.65,2.19-1.65,1.85,0,3.27.92,4.17,1.71l-.46.75c-.85-.77-2.11-1.75-3.73-1.75-.81,0-1.36.37-1.36.88s.43.86,1.29.86c.91,0,1.22-.48,1.22-1.08,0-.84-.12-2.8-.16-4.01h.87Zm2.2.29c-.59-.51-1.79-1.18-2.52-1.52l.44-.66c.8.34,2.05,1.06,2.57,1.45l-.49.73Zm3.7-2.63c-.06.25-.09.78-.1,1.07-.01.68,0,1.69.08,2.6.19,1.84.71,3.06,1.51,3.06.56,0,1.08-1.13,1.36-2.23l.69.78c-.67,1.86-1.33,2.5-2.08,2.5-1.04,0-2.04-1.03-2.34-3.88-.1-.95-.12-2.29-.12-2.93,0-.25,0-.73-.07-.98l1.07.02Zm5.72.3c.99,1.28,1.78,3.62,1.95,5.48l-.89.35c-.19-1.98-.86-4.25-1.9-5.53l.85-.3Z"/>
    <rect class="cls-7" x="238.64" y="407.08" width="99" height="33" rx="5" ry="5"/>
    <path class="cls-9" d="m255.6,419.44c-.04.24-.08.77-.09,1.1v2.01c0,1.2.18,3.4.18,4.37,0,.89-.55,1.66-2.01,1.66s-2.64-.47-2.64-1.73c0-1,.86-1.8,2.76-1.8,2.18,0,4.14,1.1,5.26,2.12l-.53.82c-1.1-1.1-2.9-2.18-4.83-2.18-1.14,0-1.79.39-1.79,1s.62.95,1.68.95c.8,0,1.2-.38,1.2-1.14,0-.81-.13-2.95-.13-4.07,0-.64-.01-1.54-.01-2.01-.01-.41-.04-.89-.09-1.1h1.04Zm-.57,2.22c.76,0,2.55-.06,3.74-.2l.03.82c-1.19.11-2.98.19-3.77.19v-.81Zm13.37-1.69c-.24.18-.58.47-.76.63-.76.66-2.34,1.9-3.16,2.58-.66.57-.67.74.04,1.33,1,.82,2.95,2.39,4.11,3.56l-.78.71c-.23-.26-.49-.53-.76-.8-.78-.79-2.44-2.22-3.48-3.07-1.03-.87-.91-1.34.08-2.18.84-.69,2.51-2.01,3.25-2.76.22-.22.51-.54.63-.74l.82.73Zm5.31,3.04h6.29v.8h-6.29v-.8Zm6.02,0h.86s-.01.29-.02.4c-.15,3.41-.31,4.69-.7,5.1-.22.27-.46.35-.85.38-.36.03-1.06.02-1.75-.01-.01-.25-.12-.59-.27-.84.73.07,1.41.08,1.67.08.22,0,.35-.02.46-.14.3-.3.46-1.55.61-4.82v-.15Zm-4.51-3.94l.87.25c-.79,1.86-2.09,3.5-3.48,4.55-.15-.18-.51-.5-.71-.65,1.41-.95,2.63-2.46,3.32-4.16Zm3.84-.02c.71,1.47,2.13,3.15,3.33,3.99-.22.18-.53.51-.69.74-1.22-.99-2.61-2.77-3.43-4.41l.79-.32Zm-3.03,4.18h.88c-.25,2.41-.82,4.69-3.89,5.79-.1-.21-.34-.54-.53-.71,2.88-.96,3.32-2.99,3.54-5.07Zm11.43-3.73c-.04.21-.09.44-.13.66-.07.4-.22,1.3-.36,1.98-.37,1.54-1.17,4.28-2.41,6.29l-.89-.36c1.25-1.67,2.13-4.61,2.43-5.96.2-.87.35-1.86.35-2.71l1.01.1Zm3.79,1.18c.68.89,1.64,2.91,2,3.94l-.85.41c-.33-1.13-1.19-3.08-1.96-3.98l.8-.36Zm-7.76,1.24c.35.01.64.01.99,0,.81-.02,3.05-.27,3.79-.27.98,0,1.78.37,1.78,1.87,0,1.31-.18,3.06-.63,3.97-.35.74-.9.91-1.61.91-.43,0-.95-.08-1.3-.15l-.14-.92c.46.14,1.03.23,1.34.23.41,0,.74-.09.97-.57.35-.74.52-2.18.52-3.37,0-1-.46-1.19-1.17-1.19s-2.79.24-3.46.31c-.25.03-.71.09-.99.13l-.1-.95Zm13.83-2.46c.95.31,3.29.76,4.27.86l-.21.84c-1.06-.14-3.43-.63-4.28-.85l.22-.85Zm-.24,2.01c-.14.75-.34,2.38-.45,3.09,1.06-.92,2.27-1.35,3.59-1.35,1.68,0,2.81,1.01,2.81,2.31,0,1.96-1.75,3.29-5.83,2.95l-.26-.89c3.48.42,5.17-.58,5.17-2.09,0-.87-.83-1.5-1.95-1.5-1.44,0-2.63.54-3.4,1.47-.16.19-.26.36-.33.54l-.83-.2c.22-1,.49-3.31.56-4.46l.92.12Zm8.62-.32c.41.04.88.07,1.35.07,1.19,0,2.57-.14,3.84-.56l.02.81c-1.08.3-2.52.54-3.86.53-.41,0-.88-.01-1.29-.02l-.07-.82Zm3.9-1.79c-.14.54-.37,1.57-.64,2.35-.53,1.58-1.54,3.59-2.45,4.82l-.85-.44c.98-1.14,2-3.1,2.45-4.4.24-.69.48-1.66.52-2.43l.97.1Zm2.6,3.4c-.03.45-.03.78-.02,1.18.02.71.12,2.39.12,3.11,0,.88-.56,1.6-1.93,1.6-1.21,0-2.19-.48-2.19-1.58,0-1.01.96-1.65,2.19-1.65,1.85,0,3.27.92,4.17,1.71l-.46.75c-.85-.77-2.11-1.75-3.73-1.75-.81,0-1.36.37-1.36.88s.43.86,1.29.86c.91,0,1.22-.48,1.22-1.08,0-.84-.12-2.8-.17-4.01h.87Zm2.2.29c-.59-.51-1.79-1.18-2.52-1.52l.44-.66c.8.34,2.05,1.06,2.57,1.45l-.5.73Zm3.7-2.63c-.05.25-.09.78-.1,1.07-.01.68,0,1.69.08,2.6.19,1.84.71,3.06,1.51,3.06.56,0,1.08-1.13,1.36-2.23l.69.78c-.67,1.86-1.33,2.5-2.08,2.5-1.04,0-2.03-1.03-2.34-3.88-.1-.95-.12-2.29-.12-2.93,0-.25,0-.73-.07-.98l1.07.02Zm5.72.3c.99,1.28,1.78,3.62,1.95,5.48l-.89.35c-.19-1.98-.86-4.25-1.9-5.53l.85-.3Z"/>
    <rect class="cls-7" x="14.64" y="334.08" width="99" height="33" rx="5" ry="5"/>
    <path class="cls-9" d="m41.98,349.15v1.42h4.09v-1.42h-4.09Zm0-2.08v1.4h4.09v-1.4h-4.09Zm-.75-.71h5.63v4.93h-5.63v-4.93Zm-.14,6.21h5.93v.76h-5.93v-.76Zm-.85,2.28h7.14v.75h-7.14v-.75Zm-2.99-8.26h3.43v.78h-3.43v-.78Zm.12,3.18h3.16v.78h-3.16v-.78Zm-.23,4.21c.89-.24,2.21-.67,3.49-1.1l.14.79c-1.2.41-2.45.82-3.43,1.15l-.2-.85Zm1.49-7.08h.79v6.82l-.79.15v-6.97Zm5.04-.2h.73v4.24h.06v4.26h-.84v-4.26h.06v-4.24Zm5.61,1.94h3.18v.65h-3.18v-.65Zm0,1.87h3.18v.63h-3.18v-.63Zm0,1.91h3.18v.65h-3.18v-.65Zm4.69-1.36h4.19v.72h-4.19v-.72Zm-4.11-4.22h1.83v.65h-1.83v-.65Zm3.41-.43h4.3v.7h-4.3v-.7Zm-.13,6.71h5.21v.74h-5.21v-.74Zm2.32-3.19h.79v5.99h-.79v-5.99Zm-4.81-.97h.59v3.74h-.59v-3.74Zm6.66-2.55h.75s0,.21-.01.31c-.08,1.84-.19,2.55-.42,2.81-.15.19-.32.25-.61.28-.22.02-.68.02-1.14,0-.01-.22-.09-.51-.19-.69.44.04.84.04.99.04.15.01.25-.01.32-.1.14-.17.23-.8.31-2.53v-.11Zm-3.29,3.62l.72.14c-.22,1.02-.6,2.02-1.07,2.68-.14-.1-.47-.26-.65-.35.47-.62.81-1.54,1-2.47Zm-4.18-4.18l.76.17c-.41,1.49-1.08,2.9-1.86,3.84-.13-.13-.45-.39-.63-.5.78-.85,1.4-2.16,1.73-3.51Zm-.87,2.79h.68v2.93c0,1.34-.13,3.2-.91,4.42-.12-.11-.43-.3-.59-.37.75-1.17.83-2.81.83-4.05v-2.93Zm3.28,0h.69v6.42c0,.41-.09.64-.37.76-.28.12-.73.13-1.49.13-.03-.19-.15-.51-.25-.7.56.02,1.06.02,1.21.01.14-.01.21-.06.21-.2v-6.42Zm2.58-2h.76c-.19,1.52-.66,2.77-2.2,3.46-.1-.18-.3-.44-.46-.56,1.35-.57,1.75-1.66,1.9-2.9Zm-3.34.2h.16l.11-.04.48.32c-.23.68-.65,1.5-.98,2.01-.13-.11-.37-.25-.53-.32.28-.5.58-1.29.75-1.84v-.13Zm8.14,1.01c.42-.01.77-.03.99-.06.7-.08,2.78-.28,4.81-.45,1.21-.1,2.23-.16,2.97-.19v.88c-.63-.01-1.58.01-2.15.17-1.57.51-2.53,2.19-2.53,3.49,0,2.15,2.01,2.84,3.8,2.9l-.32.9c-2.03-.08-4.35-1.15-4.35-3.62,0-1.71,1.04-3.11,2.05-3.71-1.18.12-3.98.4-5.17.65l-.1-.97Zm7.18,1.53c.25.36.67,1.04.91,1.54l-.57.25c-.25-.53-.56-1.09-.89-1.55l.55-.24Zm1.2-.46c.27.36.7,1.03.96,1.52l-.56.28c-.26-.53-.59-1.08-.94-1.54l.54-.25Zm3.73-1.36c1.53.19,2.97.21,4.09.1.9-.08,1.8-.26,2.6-.53l.12.8c-.72.21-1.65.4-2.53.47-1.11.11-2.65.11-4.22-.04l-.06-.8Zm-.22,2.26c1.88.2,3.75.17,5.04.01,1.04-.11,1.94-.33,2.52-.51l.14.81c-.6.17-1.44.33-2.36.44-1.35.18-3.39.21-5.28.07l-.06-.82Zm3.76-2.4c-.09-.32-.19-.66-.31-.98l.94-.12c.11.92.45,2.04.73,2.82.3.86.78,1.91,1.35,2.76.12.18.25.33.42.47l-.46.67c-.62-.15-1.64-.26-2.4-.34l.07-.67c.59.06,1.31.13,1.65.18-.6-.95-1.07-2-1.39-2.89-.27-.76-.44-1.34-.59-1.89Zm-2.16,4.77c-.26.37-.46.75-.46,1.24,0,.9.8,1.36,2.53,1.36,1.02,0,1.83-.08,2.63-.23l-.04.87c-.77.13-1.63.2-2.57.2-2.15,0-3.35-.64-3.38-2.06,0-.63.19-1.09.44-1.57l.86.19Zm10.05-5.19c.24.02.55.03.77.03.58,0,3.19-.08,3.77-.13.33-.03.48-.06.61-.1l.51.65c-.2.13-.42.27-.63.44-.54.42-2.03,1.71-2.89,2.41.51-.17,1.03-.22,1.53-.22,1.83,0,3.14,1.09,3.14,2.57,0,1.77-1.46,2.93-3.79,2.93-1.5,0-2.41-.65-2.41-1.57,0-.75.68-1.43,1.69-1.43,1.46,0,2.2,1.03,2.28,2.14l-.79.13c-.07-.94-.61-1.61-1.49-1.61-.51,0-.89.31-.89.69,0,.54.61.86,1.47.86,1.87,0,3.05-.77,3.05-2.15,0-1.09-1.03-1.89-2.47-1.89-1.83,0-2.82.77-4.2,2.19l-.64-.64c.91-.75,2.33-1.94,2.96-2.48.62-.51,2-1.66,2.55-2.16-.58.03-2.78.12-3.36.15-.25.02-.5.03-.74.07l-.02-.9Z"/>
    <rect class="cls-7" x="126.64" y="334.08" width="99" height="33" rx="5" ry="5"/>
    <path class="cls-9" d="m143.38,351.16h4.3v.64h-4.3v-.64Zm0,1.8h4.3v.65h-4.3v-.65Zm.01,1.82h4.81v.7h-4.81v-.7Zm-1.25-7.81h6.01v1.88h-.74v-1.17h-4.55v1.17h-.72v-1.88Zm3.04,2.88h.77v5.3h-.77v-5.3Zm-1.5-.53h4.19v.71h-4.19v5.92h-.78v-5.88l.72-.75h.07Zm1.03-3.49l.79.15c-.63,2.23-1.72,4.06-3.2,5.24-.12-.15-.42-.46-.59-.61,1.45-1.06,2.46-2.76,3-4.78Zm1.14,2.18l.78.2c-.26.57-.56,1.19-.79,1.61l-.64-.19c.23-.44.52-1.13.65-1.62Zm-7.63-1.43h3.88v.76h-3.88v-.76Zm1.11,3.21h2.49v4.82h-2.49v-.73h1.76v-3.35h-1.76v-.74Zm.19-2.85l.79.12c-.34,2.31-.91,4.48-1.94,5.92-.09-.19-.32-.59-.47-.78.88-1.24,1.35-3.19,1.62-5.26Zm-.53,2.85h.69v5.68h-.69v-5.68Zm14.1-3.43h5.09v.67h-5.09v-.67Zm-.13,3.05h5.42v.68h-5.42v-.68Zm0,1.53h5.4v.68h-5.4v-.68Zm.32,3.82h4.77v.68h-4.77v-.68Zm-1.22-6.88h7.16v.69h-7.16v-.69Zm.79,4.59h5.63v3.45h-.82v-2.78h-4.01v2.82h-.79v-3.49Zm-1.17-6.6l.78.24c-.75,1.86-1.93,3.71-3.15,4.93-.08-.19-.31-.62-.46-.81,1.11-1.05,2.19-2.68,2.83-4.36Zm-1.14,2.84l.78-.78h.01v8.01h-.79v-7.23Zm13.77-2.17c-.04.2-.09.44-.13.65-.08.4-.22,1.3-.37,1.98-.37,1.55-1.15,4.29-2.4,6.29l-.9-.35c1.25-1.68,2.13-4.62,2.43-5.96.21-.88.35-1.87.35-2.72l1.02.11Zm3.78,1.26c.68.89,1.64,2.89,2.01,3.91l-.86.41c-.32-1.12-1.19-3.04-1.96-3.95l.8-.36Zm-7.74,1.14c.34.02.63.01.98,0,.82-.02,3.06-.26,3.81-.26.98,0,1.78.37,1.78,1.86,0,1.31-.18,3.06-.64,3.97-.34.74-.89.92-1.61.92-.42,0-.95-.08-1.29-.17l-.15-.91c.46.14,1.04.22,1.35.22.41,0,.74-.09.96-.56.35-.75.53-2.18.53-3.37,0-1.01-.46-1.2-1.17-1.2s-2.8.25-3.48.32c-.25.03-.7.09-.99.13l-.09-.96Zm7.87-2.74c.27.4.67,1.07.9,1.52l-.59.26c-.22-.45-.59-1.11-.9-1.53l.59-.25Zm1.21-.44c.3.41.71,1.1.93,1.51l-.61.26c-.23-.48-.59-1.11-.91-1.52l.58-.25Zm5.76,1.5h5.49v.76h-5.49v-.76Zm-.44,4.14h6.38v.77h-6.38v-.77Zm-.13-1.98h6.59v.76h-6.59v-.76Zm2.92-3.53h.78v3.93h-.78v-3.93Zm1.45,4.12h.79v4.95c0,.5-.11.73-.44.85-.32.13-.86.13-1.68.13-.03-.23-.14-.56-.24-.79.62.02,1.19.02,1.35.01.18-.01.22-.06.22-.21v-4.94Zm-3.42,2.83l.64-.37c.48.58,1.03,1.38,1.27,1.9l-.69.43c-.2-.54-.73-1.36-1.21-1.96Zm-4.62-1.15c.87-.24,2.17-.64,3.43-1.04l.11.76c-1.15.39-2.39.78-3.32,1.09l-.22-.8Zm.15-3.63h3.35v.77h-3.35v-.77Zm1.42-2.21h.78v9.12c0,.45-.11.68-.38.81-.25.12-.68.15-1.38.14-.03-.2-.13-.54-.24-.77.48.02.9.02,1.03.01.13,0,.19-.04.19-.2v-9.12Zm10.05,1.92c.42-.01.77-.03.99-.06.71-.08,2.78-.28,4.82-.45,1.2-.1,2.22-.17,2.96-.19v.88c-.63-.01-1.58.01-2.14.16-1.57.51-2.53,2.19-2.53,3.49,0,2.14,2.01,2.83,3.79,2.9l-.31.9c-2.05-.08-4.36-1.16-4.36-3.62,0-1.72,1.04-3.11,2.06-3.71-1.19.12-3.98.4-5.18.65l-.1-.97Zm11.13.37c.41.04.88.07,1.35.07,1.19,0,2.57-.14,3.84-.56l.02.81c-1.08.3-2.52.54-3.86.53-.41,0-.88-.01-1.29-.02l-.07-.82Zm3.9-1.79c-.14.54-.37,1.57-.64,2.35-.53,1.58-1.54,3.59-2.45,4.82l-.85-.44c.98-1.14,2-3.1,2.45-4.4.24-.69.48-1.66.52-2.43l.97.1Zm2.6,3.4c-.03.45-.03.78-.02,1.18.02.72.12,2.39.12,3.11,0,.88-.56,1.59-1.93,1.59-1.21,0-2.19-.48-2.19-1.58,0-1.01.96-1.65,2.19-1.65,1.85,0,3.27.92,4.17,1.7l-.46.75c-.85-.77-2.11-1.75-3.73-1.75-.81,0-1.36.37-1.36.88s.43.86,1.29.86c.91,0,1.22-.48,1.22-1.08,0-.84-.12-2.81-.16-4.01h.87Zm2.2.29c-.59-.51-1.79-1.18-2.52-1.52l.44-.66c.8.34,2.05,1.06,2.57,1.45l-.49.73Zm3.7-2.63c-.06.25-.09.78-.1,1.07-.01.68,0,1.69.08,2.6.19,1.84.71,3.06,1.51,3.06.56,0,1.08-1.13,1.36-2.23l.69.78c-.67,1.86-1.33,2.5-2.08,2.5-1.04,0-2.04-1.03-2.34-3.88-.1-.95-.12-2.29-.12-2.93,0-.25,0-.73-.07-.98l1.07.02Zm5.72.3c.99,1.28,1.78,3.62,1.95,5.48l-.89.35c-.19-1.98-.86-4.25-1.9-5.53l.85-.3Z"/>
    <rect class="cls-7" x="238.64" y="334.08" width="99" height="33" rx="5" ry="5"/>
    <path class="cls-9" d="m255.6,346.44c-.04.24-.08.77-.09,1.1v2.01c0,1.2.18,3.4.18,4.37,0,.89-.55,1.66-2.01,1.66s-2.64-.47-2.64-1.73c0-1,.86-1.8,2.76-1.8,2.18,0,4.14,1.1,5.26,2.12l-.53.82c-1.1-1.1-2.9-2.18-4.83-2.18-1.14,0-1.79.38-1.79,1s.62.95,1.68.95c.8,0,1.2-.39,1.2-1.14,0-.81-.13-2.95-.13-4.07,0-.64-.01-1.54-.01-2.01-.01-.41-.04-.89-.09-1.1h1.04Zm-.57,2.22c.76,0,2.55-.06,3.74-.2l.03.82c-1.19.11-2.98.19-3.77.19v-.81Zm13.37-1.69c-.24.18-.58.47-.76.63-.76.66-2.34,1.9-3.16,2.59-.66.57-.67.74.04,1.33,1,.83,2.95,2.39,4.11,3.56l-.78.71c-.23-.26-.49-.53-.76-.8-.78-.79-2.44-2.22-3.48-3.07-1.03-.87-.91-1.34.08-2.18.84-.69,2.51-2.01,3.25-2.76.22-.22.51-.54.63-.74l.82.73Zm5.31,3.04h6.29v.8h-6.29v-.8Zm6.02,0h.86s-.01.29-.02.4c-.15,3.41-.31,4.69-.7,5.1-.22.28-.46.35-.85.39-.36.03-1.06.02-1.75-.01-.01-.25-.12-.59-.27-.84.73.07,1.41.08,1.67.08.22,0,.35-.02.46-.14.3-.3.46-1.55.61-4.82v-.15Zm-4.51-3.94l.87.25c-.79,1.86-2.09,3.5-3.48,4.55-.15-.18-.51-.49-.71-.65,1.41-.95,2.63-2.46,3.32-4.16Zm3.84-.02c.71,1.47,2.13,3.15,3.33,3.99-.22.18-.53.51-.69.74-1.22-.99-2.61-2.77-3.43-4.41l.79-.32Zm-3.03,4.18h.88c-.25,2.41-.82,4.69-3.89,5.79-.1-.21-.34-.54-.53-.71,2.88-.96,3.32-2.99,3.54-5.07Zm11.43-3.73c-.04.21-.09.44-.13.66-.07.4-.22,1.3-.36,1.98-.37,1.54-1.17,4.28-2.41,6.29l-.89-.36c1.25-1.67,2.13-4.61,2.43-5.96.2-.87.35-1.86.35-2.71l1.01.1Zm3.79,1.18c.68.89,1.64,2.92,2,3.94l-.85.41c-.33-1.13-1.19-3.08-1.96-3.98l.8-.36Zm-7.76,1.24c.35.01.64.01.99,0,.81-.02,3.05-.27,3.79-.27.98,0,1.78.37,1.78,1.87,0,1.31-.18,3.06-.63,3.97-.35.74-.9.91-1.61.91-.43,0-.95-.08-1.3-.15l-.14-.92c.46.14,1.03.23,1.34.23.41,0,.74-.09.97-.57.35-.74.52-2.18.52-3.37,0-1-.46-1.19-1.17-1.19s-2.79.24-3.46.31c-.25.03-.71.09-.99.13l-.1-.95Zm13.83-2.46c.95.31,3.29.76,4.27.86l-.21.84c-1.06-.14-3.43-.63-4.28-.85l.22-.85Zm-.24,2.01c-.14.75-.34,2.38-.45,3.09,1.06-.92,2.27-1.35,3.59-1.35,1.68,0,2.81,1.01,2.81,2.31,0,1.96-1.75,3.29-5.83,2.95l-.26-.89c3.48.42,5.17-.58,5.17-2.09,0-.87-.83-1.5-1.95-1.5-1.44,0-2.63.54-3.4,1.47-.16.19-.26.36-.33.54l-.83-.2c.22-1,.49-3.31.56-4.46l.92.12Zm8.62-.32c.41.04.88.07,1.35.07,1.19,0,2.57-.14,3.84-.56l.02.81c-1.08.3-2.52.54-3.86.53-.41,0-.88-.01-1.29-.02l-.07-.82Zm3.9-1.79c-.14.54-.37,1.57-.64,2.35-.53,1.58-1.54,3.59-2.45,4.82l-.85-.44c.98-1.14,2-3.1,2.45-4.4.24-.69.48-1.66.52-2.43l.97.1Zm2.6,3.4c-.03.45-.03.78-.02,1.18.02.72.12,2.39.12,3.11,0,.88-.56,1.59-1.93,1.59-1.21,0-2.19-.48-2.19-1.58,0-1.01.96-1.65,2.19-1.65,1.85,0,3.27.92,4.17,1.7l-.46.75c-.85-.77-2.11-1.75-3.73-1.75-.81,0-1.36.37-1.36.88s.43.86,1.29.86c.91,0,1.22-.48,1.22-1.08,0-.84-.12-2.81-.17-4.01h.87Zm2.2.29c-.59-.51-1.79-1.18-2.52-1.52l.44-.66c.8.34,2.05,1.06,2.57,1.45l-.5.73Zm3.7-2.63c-.05.25-.09.78-.1,1.07-.01.68,0,1.69.08,2.6.19,1.84.71,3.06,1.51,3.06.56,0,1.08-1.13,1.36-2.23l.69.78c-.67,1.86-1.33,2.5-2.08,2.5-1.04,0-2.03-1.03-2.34-3.88-.1-.95-.12-2.29-.12-2.93,0-.25,0-.73-.07-.98l1.07.02Zm5.72.3c.99,1.28,1.78,3.62,1.95,5.48l-.89.35c-.19-1.98-.86-4.25-1.9-5.53l.85-.3Z"/>
  </g>
</svg>